<?xml version="1.0" encoding="UTF-8"?>
<svg id="Layer_2" data-name="Layer 2" xmlns="http://www.w3.org/2000/svg" viewBox="0 0 1145.76 157.73">
  <defs>
    <style>
      .cls-1 {
        fill: #fff;
        stroke-width: 0px;
      }
    </style>
  </defs>
  <g id="Layer_1-2" data-name="Layer 1">
    <g>
      <path class="cls-1" d="M1145.58,122.19l-162.43.1,39.68-78.18c1.98-3.9.44-8.71-3.43-10.74L957.39.92c-1.91-1-4.1-1.19-6.15-.54-2.06.65-3.73,2.07-4.71,3.99l-57.82,113.13c-1.14,2.24-3.42,3.63-5.93,3.63H0v1.36h882.78c3.03,0,5.76-1.67,7.14-4.37l57.82-113.13c.81-1.6,2.2-2.77,3.91-3.31,1.71-.54,3.52-.38,5.11.45l62,32.46c3.21,1.68,4.49,5.68,2.85,8.91l-39.99,78.8h-7.3s38.24-74.81,38.24-74.81c2.01-3.94.45-8.78-3.49-10.79l-45.28-23.14c-2.6-1.33-5.61-1.17-8.05.43-2.44,1.6-3.79,4.29-3.61,7.2l3.03,49.11c.13,2.15-.79,4.24-2.46,5.59l-50.74,40.95c-2.13,1.72-3.23,4.38-2.94,7.1.29,2.73,1.94,5.09,4.39,6.31l53.25,26.62c1.15.57,2.36.84,3.57.84,2.93,0,5.76-1.61,7.17-4.39l15.06-29.68,163.3-.1c-.06-.45-.12-.91-.18-1.36ZM966.18,152.72c-1.65,3.26-5.65,4.57-8.91,2.94l-53.25-26.62c-2.04-1.02-3.4-2.98-3.64-5.24-.24-2.26.67-4.47,2.44-5.9l50.74-40.95c2.02-1.63,3.13-4.15,2.97-6.74l-3.03-49.11c-.15-2.42.97-4.65,3-5.98,1.12-.73,2.37-1.1,3.64-1.1,1.03,0,2.07.25,3.04.74l45.28,23.14c1.58.81,2.76,2.19,3.3,3.88.55,1.69.4,3.5-.41,5.08l-38.56,75.43h-33.21c-4.43.02-7.12,3.15-7.82,6.26-.7,3.11.37,7.1,4.36,9.01l17.38,8.31c3.95,1.89,8.61.31,10.6-3.58l9.52-18.63h7.31s-14.75,29.06-14.75,29.06ZM972.09,123.67l-9.21,18.01c-1.65,3.24-5.52,4.54-8.8,2.98l-17.38-8.31c-3.54-1.69-4.16-5.09-3.62-7.48.54-2.39,2.57-5.19,6.49-5.19h32.52Z"/>
      <g>
        <path class="cls-1" d="M610.19,43.83c0,.39-.06.89-.32,1.04-.15.08-.63.22-2.19.22s-1.98-.32-2.05-.45c-.11-.19-.3-.95-.3-3.83,0-1.15.24-1.48.38-1.57.16-.1.71-.28,2.6-.28,1.04,0,1.38.14,1.49.22.09.07.26.31.26,1.04v.5h1.58l-.02-.48c0-.99-.24-1.68-.72-2.05-.46-.36-1.3-.53-2.56-.53-1.81,0-2.98.17-3.55.54-.51.32-.82.69-.93,1.11-.1.39-.15,1.27-.15,2.69,0,1.86.23,3.02.7,3.56.48.55,1.51.81,3.17.81,1.83,0,2.91-.14,3.4-.45.52-.33.77-1.07.77-2.27v-.57h-1.58l.02.74Z"/>
        <rect class="cls-1" x="616.11" y="37.76" width="1.57" height="8.55"/>
        <path class="cls-1" d="M628.16,43.95c-.03.07-.08.18-.15.33l-3.11-6.52h-2.25v8.55h1.58v-6.42l3.11,6.42h1.38l3.09-6.48v6.48h1.58v-8.55h-2.28l-2.95,6.19Z"/>
        <polygon class="cls-1" points="637.94 46.3 644.45 46.3 644.45 45.01 639.52 45.01 639.52 42.54 644.24 42.54 644.24 41.25 639.52 41.25 639.52 39.04 644.45 39.04 644.45 37.75 637.94 37.75 637.94 46.3"/>
        <polygon class="cls-1" points="655.86 44.49 651.08 37.76 648.97 37.76 648.97 46.3 650.54 46.3 650.54 39.6 655.32 46.3 657.44 46.3 657.44 37.76 655.86 37.76 655.86 44.49"/>
        <polygon class="cls-1" points="661.55 39.12 664.58 39.12 664.58 46.3 666.15 46.3 666.15 39.12 669.16 39.12 669.16 37.75 661.55 37.75 661.55 39.12"/>
        <path class="cls-1" d="M676.92,38.96c1.52,0,2.08.17,2.29.31.18.13.4.49.4,1.47v1.28c0,2.15-.21,2.63-.3,2.73-.07.08-.45.33-2.39.33s-2.32-.25-2.39-.33c-.09-.1-.31-.58-.31-2.73s.22-2.62.31-2.73c.07-.08.45-.33,2.39-.33M680.41,38.41c-.5-.5-1.64-.74-3.49-.74-1.59,0-2.66.21-3.27.63-.63.44-.95,1.25-.95,2.4v1.33c-.01,1.93.22,3.12.7,3.61.49.5,1.64.74,3.51.74s3.04-.25,3.52-.75c.47-.5.71-1.72.71-3.71,0-1.86-.24-3-.74-3.5"/>
        <path class="cls-1" d="M586.2,70.42c0,2.93.61,5.11,1.84,6.53,1.23,1.42,2.79,2.13,4.67,2.13,1.66,0,3.04-.68,4.16-2.05,1.12-1.36,1.68-3.67,1.68-6.93,0-3-.59-5.21-1.75-6.61-1.15-1.42-2.59-2.12-4.26-2.12-1.82,0-3.34.71-4.54,2.13-1.22,1.42-1.81,3.73-1.81,6.91M554.87,71.25c-1.96.7-3.99,1.32-6.1,1.86-2.88.76-4.72,1.52-5.48,2.26-.8.77-1.19,1.65-1.19,2.62,0,1.12.4,2.03,1.17,2.74.79.7,1.93,1.06,3.44,1.06s3.05-.38,4.42-1.14c1.36-.78,2.32-1.72,2.89-2.81.57-1.11.85-2.55.85-4.32v-2.28ZM630.12,70.38c0,3.31.67,5.76,2.01,7.33,1.34,1.59,3.02,2.39,5.04,2.39s3.73-.79,5.04-2.35c1.32-1.56,1.98-4.05,1.98-7.51,0-3.21-.67-5.6-1.99-7.17-1.32-1.56-2.97-2.35-4.92-2.35-2.07,0-3.79.8-5.13,2.39-1.35,1.6-2.03,4.03-2.03,7.28M615.88,70.42c0-5.65,1.91-10.32,5.72-13.98,3.83-3.67,8.97-5.51,15.47-5.51,7.42,0,13.04,2.16,16.83,6.46,3.05,3.47,4.58,7.75,4.58,12.82,0,5.7-1.9,10.37-5.67,14.02-3.78,3.63-9.01,5.46-15.7,5.46-5.96,0-10.77-1.51-14.45-4.54-4.52-3.74-6.77-8.65-6.77-14.73M688.16,70.22c0-2.92-.61-5.09-1.85-6.52-1.23-1.43-2.79-2.15-4.67-2.15-1.66,0-3.04.69-4.16,2.06-1.12,1.37-1.68,3.67-1.68,6.91,0,3.03.59,5.24,1.73,6.65,1.16,1.41,2.59,2.11,4.28,2.11,1.83,0,3.34-.7,4.54-2.12,1.22-1.43,1.81-3.74,1.81-6.95M702.41,37.67v51.18h-13.3v-5.48c-1.87,2.32-3.56,3.89-5.1,4.72-2.05,1.06-4.33,1.6-6.84,1.6-5.05,0-8.91-1.92-11.58-5.76-2.66-3.84-3.99-8.51-3.99-14,0-6.15,1.46-10.85,4.42-14.1,2.94-3.27,6.69-4.9,11.21-4.9,2.21,0,4.22.38,6.03,1.12,1.8.75,3.4,1.86,4.8,3.35v-17.73h14.35ZM705.53,50.47h14.22v38.39h-14.22v-38.39ZM705.53,37.67h14.22v9.68h-14.22v-9.68ZM531.18,56.75c.97-1.36,2.35-2.54,4.18-3.54,1.3-.73,3.1-1.29,5.37-1.68,2.28-.39,4.74-.59,7.4-.59,4.25,0,7.69.24,10.26.71,2.59.48,4.74,1.48,6.46,2.99,1.22,1.05,2.17,2.52,2.87,4.44.7,1.93,1.04,3.76,1.04,5.51l.07,24.26h-13.14l-.02-4.54c-1.86,1.8-3.72,3.08-5.55,3.84-2.51,1.03-5.44,1.54-8.76,1.54-4.42,0-7.78-1.03-10.08-3.08-2.29-2.04-3.43-4.56-3.43-7.57,0-2.82.82-5.14,2.48-6.95,1.66-1.82,4.7-3.17,9.14-4.05,5.34-1.07,8.79-1.82,10.38-2.25,1.57-.43,3.26-1,5.02-1.69,0-5.1-10.29-6.12-12.33-.32h-14.25c.55-2.44,1.42-4.96,2.89-7.03M571.95,102.97v-51.19h13.3v5.48c1.84-2.31,3.53-3.87,5.07-4.68,2.07-1.1,4.36-1.64,6.87-1.64,4.96,0,8.79,1.91,11.51,5.7,2.7,3.79,4.06,8.48,4.06,14.08,0,6.16-1.48,10.87-4.43,14.12-2.96,3.24-6.7,4.86-11.2,4.86-2.19,0-4.2-.37-5.99-1.11-1.8-.75-3.42-1.86-4.84-3.32v17.71h-14.35Z"/>
        <polygon class="cls-1" points="453.93 37.6 494.41 102.97 527.85 102.97 487.37 37.6 453.93 37.6"/>
        <polygon class="cls-1" points="471.82 76.01 454.98 102.97 421.55 102.97 455.17 49.12 471.82 76.01"/>
      </g>
    </g>
  </g>
</svg>