<?xml version="1.0" encoding="UTF-8"?>
<svg id="Layer_2" data-name="Layer 2" xmlns="http://www.w3.org/2000/svg" viewBox="0 0 1114.91 88.74">
  <defs>
    <style>
      .cls-1 {
        fill: #fff;
        stroke-width: 0px;
      }
    </style>
  </defs>
  <g id="Layer_1-2" data-name="Layer 1">
    <g>
      <g>
        <path class="cls-1" d="M1014.11,87.96c-.98-2.94.09-11.55.85-13.44.46-1.14.82-3.53.73-5.63.85-2.18,1.94-5.42,2.22-9.18v-.08c.38-5.15.57-7.74-.02-9.32-.64-1.69-1.73-4.05-3.89-4.93-.89-.37-2.8-1.52-4.64-2.63-2.52-1.52-4.89-2.96-5.8-3.13-1.3-.24-2.92-.71-3.28-.82-.76-.61-1.57-1.26-2.13-1.73-.31-.39-.6-.62-.8-.72-.23-.12-.44-.01-.53.13-.2.31.01.49.52.92.05.05.11.1.18.15,1.01,1.2,2.97,4.77.85,13.04l-3.15.61c-.15.03-.27.15-.3.3-.03.15.03.31.15.4l3.67,2.62c-1.22,2.17-8.13,14.56-10.97,20.79.59-5.48,2-17.64,2.99-20.19.05-.14.02-.3-.08-.41l-2.11-2.18,1.31,1.05c.09.07.21.1.33.08.12-.02.21-.1.27-.21.23-.46,5.58-11.27,6.24-13.53.44-1.5,0-3.74-.39-5.22,1.19-1.41,2.51-4,4.52-8.39,1.67-3.65,1.07-6.29.27-7.87-.87-1.72-2.14-2.56-2.2-2.6-.02-.02-.05-.03-.07-.04-1.21-.46-2.44-.72-3.66-.83-.37-.21-.74-.4-1.11-.57.78-.1,1.24-.11,1.25-.11.17,0,.31-.11.36-.27.05-.16,0-.33-.13-.43-5.37-4.11-13.37-2.31-16.79-1.53-.49.11-.88.2-1.12.23-.36.05-.75.09-1.16.14-1.78.18-3.8.39-4.33,1.91-.38,1.07-.11,2.09.79,3.05-.49,1.32-.62,2.92-.71,3.95-.03.38-.06.72-.09.87-.06.28-.22.6-.38.95-.3.63-.64,1.34-.57,2.09.06.65.51,1.05.91,1.4.39.34.63.56.6.89-.06.69-1.72,3.74-2.74,5.5-.07.12-.07.27,0,.39.61,1.05,1.96,1.15,2.55,1.15.3.8-.3,1.54-.33,1.57-.09.1-.12.24-.07.38.08.25.41.56.71.8-.4.56-.48.99-.49,1.04-.02.11.01.22.08.3.07.09.17.14.27.15.46.04.75.18.87.4.21.41-.1,1.13-.22,1.35-.03.05-.05.12-.05.18-.02.48.02.91.11,1.3-1.3-.26-3.25-.4-5.55,1.82-2.64,2.55-2.91,9.63-3.01,12.29-.01.29-.02.52-.03.68-.08,1.28-1.53,4.83-2.07,6.16-.07.17-.12.3-.16.4-.32.8-.44,2.34-.53,3.46-.02.27-.04.51-.06.7-.05.46-.58,1.46-1.04,2.34-.39.74-.8,1.5-1.01,2.09-.45,1.27-2.4,4.71-2.42,4.74-.1.17-.05.39.11.51.16.12.38.09.51-.05l5.66-6.21c.19-.03.34,0,.4.05.07.07.08.25.07.36l-4.26,5c-.1.12-.12.29-.05.44.07.14.23.22.39.2.69-.08,2.64-.24,3.37-.1.51.1,1.74.57,3.05,1.08,1.02.39,2.07.79,2.93,1.08,1.85.61,4.11.45,4.6.4,1.15.43,2.06,1.88,2.47,3.14.34,1.08.34,2.08,0,2.54-.68.93-4.74,1.66-7.15,1.91-.4.01-8.01.18-9.44,0-.38-.05-.55-.15-.59-.23-.04-.1.05-.3.1-.38.09-.13.1-.3.02-.43-.08-.13-.24-.21-.39-.18-.65.1-1.87.2-2.35.02-.03,0-.04-.02-.05-.06-.11-.26.1-.93.27-1.3.07-.15.04-.32-.08-.44-.12-.12-.29-.15-.44-.08-.01,0-1.16.52-1.71-.1-.13-.14-.17-.28-.13-.46.07-.33.54-1.27,3.5-2.7.38-.18.72-.33,1.05-.46,1.52,0,2.64,0,3.08-.19.31-.13.37-.34.38-.46.02-.18-.07-.35-.23-.47-.45-.32-1.66-.3-3.38.34-.81,0-1.29,0-1.51.03-.54.09-2.03,1.26-2.86,1.95-.26-.3-.24-.69.05-1.18.18-.31,1.32-1.38,2-1.98.15-.14.17-.38.04-.54-3.76-4.53-10.94-4.21-11.25-4.19-.16,0-.29.11-.35.26-.05.15,0,.32.11.42,3.58,3.11,4.77,5.86,5.14,7.61.29,1.39.12,2.39.01,2.82h-5.82v-25.6c0-.06.04-1.6-.99-2.65-.61-.63-1.45-.95-2.51-.95h-1.04c-.12-.36-.25-.61-.3-.71-1.31-3.93-6.51-4.45-6.73-4.47-.1,0-.2.02-.28.09-.57.47-.85,2.9-.96,4.25h-1.09c.17-.93.75-2.91,1.16-4.21.04-.11.02-.23-.04-.33-.06-.1-.17-.16-.28-.18-1.66-.18-7.62-1.49-7.68-1.5-.11-.02-.22,0-.31.06-1.13.81-1.91,1.64-2.43,2.43-.07-1.31-.22-2.59-.32-3.4,1.87,1.04,3.68.91,4.43.79.94-.15,1.7-.49,1.98-.88.41-.57.25-1.39.13-1.99-.03-.18-.08-.43-.07-.49.04-.14.42-.53.81-.82.1-.07.15-.19.15-.31,0-.27-.21-.59-.43-.85l.7-.77c.11-.12.13-.31.05-.45-.24-.42-.4-.94-.37-1.12,0,0,.02,0,.03,0,1.12,0,2.02-1.35,2.12-1.5.08-.12.08-.28,0-.41-.88-1.45-2.11-3.73-2.11-4.27,0-.42.23-.78.47-1.15.18-.27.36-.55.45-.87.25-.86-.39-3.06-.76-4.1-.25-.69-.89-1.2-1.98-1.81.5.15.93.35,1.18.55.1.08.23.1.35.07.12-.04.22-.13.26-.25.04-.12.88-2.98-5.18-6.21-5.88-3.13-12.95-3.15-16.46-.04-3.01,2.66-6.75,9.69-3.97,17.19,2.39,6.46-8.36,11.52-8.46,11.57-.18.08-.27.28-.21.47.06.19.24.3.44.27.11-.02,2.72-.47,5.6-1.83,3.85-1.82,6.29-4.42,7.05-7.5.66-2.66.33-5.72.01-8.67-.56-5.23-1.05-9.74,3.7-11.19.64.09,5.12.75,9.39,3.15,1.05.58,1.99,1.08,2.82,1.51-.15.04-.3.09-.43.15-1.29.56-1.75,3.03-2.09,4.83-.11.58-.2,1.08-.29,1.32-.16.43-.73.74-1.33,1.07-.58.31-1.23.67-1.7,1.22-.51.59-.57,1.52-.64,2.42-.07,1.01-.15,1.67-.54,1.73-.71.1-1.47-.38-2.26-1.43l-.04-.05c-.31-.42-1.27-1.7-3.57-.55-.5.25-.83.65-.97,1.18-.39,1.49.88,3.6,1.15,4.02.14.87-.02,1.63-.46,2.26-.96,1.37-2.98,1.73-3,1.74-.15.03-.28.14-.31.29-.19.77-.28,1.49-.29,2.16-.24-.73-.36-1.29-.36-1.3-.02-.13-.11-.23-.23-.28-.12-.05-.26-.04-.36.04-1.63,1.09-7.19,2.86-7.25,2.87-.15.05-.25.17-.27.33-.02.15.06.3.19.38,1.9,1.12,2.82,5.91,2.83,5.96.03.18.2.32.38.32h38.39c.04.24.06.52.04.81,0,.11.03.21.1.29.07.08.18.12.28.12h1.05s.37,0,.69.31c.39.38.6,1.08.6,2.03v25.25c0,.21.17.39.39.39h1.19c-.06.41-.22.75-.48,1-.62.6-1.62.58-1.65.58h-45.22c-.57,0-1.01-.17-1.33-.51-.71-.75-.64-2.08-.64-2.09,0,0,0-.02,0-.02v-25.53c0-2.34,1.71-2.6,1.89-2.62h2.81c.22,0,.39-.17.39-.39,0-1.31-.79-4.21-2.7-5.3-.75-.42-1.98-.73-3.63.25-3.27,1.95-4.59,7.65-5.3,10.72-.18.76-.31,1.36-.42,1.63-.56,1.4-2.05,5.13-3.34,6.88-1.39,1.89-3.3,8.28-3.93,10.59-.51,1.89.41,3.84.98,4.81h-11.48c.83-.54,1.51-1.18,2.03-1.92,1.44-1.1,2.65-2.43,3.01-3.82.63-2.43-1.14-4.66-2.34-5.84,0-2-.17-3.64-.29-4.14-.48-2.02-1.4-8.23-1.31-9.2.11-1.21.18-2.78-.3-4.12-.29-.83-1.39-2.35-2.35-3.7-.61-.86-1.19-1.67-1.33-1.98-.41-.92-2.22-3.86-3.19-4.83-.1-.11-.26-.14-.4-.09-.14.05-.24.17-.26.32-.08.66-.37,2.55-.8,3.34-1.1,2.01-1.74,3.75-1.91,5.16-.62-.51-1.24-1.03-1.84-1.51-2.01-1.59-.92-4.81-.91-4.84.04-.11.03-.24-.04-.34s-.17-.17-.29-.18c-1.2-.11-2.79,1.63-2.96,1.82-.09.1-.12.23-.09.36.13.5.2,1.01.23,1.52-.16.01-.3,0-.39-.06-.02-.01-.03-.03-.04-.04-.04-.23-.08-.37-.08-.4-.05-.19-.24-.31-.43-.28-.19.03-.34.19-.34.39,0,.22.04.39.1.53.13.9.23,3.11-1.34,5.37-1.28,1.84-1.89,3.88-2.18,5.29-.26.31-.53.64-.82.99-.82.99-1.49,2.01-2.04,3.04-.71-2.47-2.33-7.83-3.38-9.33-.31-.44-.56-1.21-.8-2.13-.03-1.23-.09-2.67-.17-4.09-.32-5.92-.7-6.3-.86-6.46-.33-.34-4.11-6.49-5.13-12.09.38-1.57.64-3.22.64-4.4,0-.62-.08-1.11-.22-1.48.53-1.1,1.38-1.94,2.53-2.51,1.87-.91,6.73-3.29,16.42.95-1.44.49-3.34,1.24-4.06,2.01-.75.82-.5,2.52-.25,4.17.16,1.06.34,2.26.1,2.69-.26.49-.77.97-1.27,1.45-.69.66-1.41,1.34-1.59,2.14-.33,1.42-.68,2-1.26,2.06-.23.03-.73-.45-1.13-.82-.78-.73-1.74-1.63-2.85-1.43-.85.15-1.6.74-2,1.59-.48,1.02-.4,2.23.22,3.31,1.13,1.98,3.18,3.38,4.69,3.24.63.77,3.23,3.61,7.56,4.21.1.01.21-.02.29-.08.08-.07.14-.16.15-.27,0,0,.08-.69.47-.8.36-.1.79-.42,1.3-.79.43-.32,1.08-.79,1.33-.79.3,0,1.44.43,2.19.71,1,.38,1.37.51,1.58.51s.39-.14.43-.35c.14-.65-1.83-2.84-2.54-3.15-.4-.18-1.19-.33-2.1-.51-.81-.16-2.18-.42-2.39-.61-.13-.13-.16-.29-.16-.42l1.06.14s.02,0,.02,0c.48.04,1.79.14,2.16.22.15.03.42.07.77.12.59.09,1.81.27,2.02.37.2.11.97,1.01,1.57,1.78.1.12.25.18.4.14.15-.04.26-.16.29-.32.03-.19.29-1.91-.02-2.82-.03-.09-.07-.2-.11-.3-.3-.82-.54-1.46.67-2.06.66-.33,1.02-.75,1.07-1.24.07-.66-.47-1.15-.61-1.27-.95-1.02-2.46-2.89-2.52-3.61-.05-.56.19-.91.43-1.28.18-.27.36-.55.41-.89.11-.77-1.93-6.12-3.74-6.74-.11-.03-.25-.1-.44-.18.04-.03.07-.08.1-.12.05-.1.05-.22.01-.32-2.17-5.24-10.41-5.83-15.41-4.94-3.47.61-5.74,3.74-6.96,5.99-.34.03-.73.19-1.15.5-.55.4-.95.86-1.23,1.36-1.21,0-2.03.44-2.54.87-1.08.92-1.58,2.52-1.37,4.39.18,1.59,1.38,3.36,2.8,4.12.79.42,1.56.48,2.23.17,0,.02,0,.03,0,.04-.43,2.03,1.62,5.08,2.89,5.96.92.64,1.84,2.73,2.12,3.49.01.03.03.06.05.09.85,1.23,1.36,3.73,1.81,5.94.18.9.36,1.77.56,2.55.03,1.31.04,2.41.01,3.04-.02.53.12,1.45.37,2.57-.13-.13-.25-.26-.37-.37-.54-.54-.85-2.06-.93-2.6-.01-.09-.06-.18-.13-.24-1.36-1.2-3.57-.58-4.59-.19.03-3.59,1.77-10.37,1.79-10.44.03-.1.01-.21-.04-.3-.05-.09-.14-.15-.24-.18-.21-.05-5.21-1.23-9.48-.57-4.11.64-4.74,7.33-5.11,11.33-.04.43-.08.82-.11,1.17-.23,2.11.14,5.64.47,8.76.21,2.03.41,3.95.38,4.92-.1,2.5,1.2,5.77,1.25,5.91.05.14.18.23.33.24.15.01.29-.06.36-.19,1.33-2.27,5.91-3.2,5.96-3.21.15-.03.26-.14.3-.27-.12.89-.24,1.6-.31,2-2.19-.21-4.69,1.04-6.89,2.61-.17-.45-.29-.86-.32-1.19-.01-.16-.13-.3-.29-.34-.16-.04-.33.02-.42.16-.03.05-3.26,4.9-4.59,6.45-.1.11-.16.18-.18.21-.14.16-.12.4.03.54.16.14.4.13.54-.02.05-.05.1-.11.15-.17.53-.58,2.42-2.62,4.75-4.42.2.43.42.87.64,1.31-.26.34-.38.66-.38.95,0,1.88,2.45,2.52,2.56,2.54.15.04.32-.02.41-.15.09-.13.1-.3.01-.44-.02-.02-.84-1.31-1.66-2.8.1-.11.23-.22.38-.35,1.8-1.54,5.27-3.14,5.98-3.03.61.09.81.37.87.53-1.44,1.74-.48,5.78-.43,5.96.05.19.23.32.42.29.19-.02.34-.19.34-.39,0-2.67,1.17-4.24,1.55-4.68.74.09,3.42.42,5.33.82,1.43.3,5.48.74,9.05,1.13,2.06.22,4,.43,5.01.57.5.07.97.25,1.4.5-.2.78-.3,1.31-.32,1.39-.03.18.06.36.23.43.17.07.36.01.47-.14.04-.05.28-.41.63-.94.66.6,1.16,1.28,1.47,1.74H0v.78h859.35c.14,0,.26-.07.33-.19.07-.12.07-.26.01-.38-.05-.09-.8-1.5-2.08-2.62.66-1.05,1.49-2.46,2.07-3.77.14.65.41,1.32.85,1.98,2.23,3.3,3.4,4.77,5.27,4.97.46.05,1.22-.12,2.11-.46-.01.05-.01.11,0,.16.04.18.2.31.38.31h13.75c.15,0,.28-.08.35-.22.07-.13.05-.29-.03-.41-.02-.03-1.86-2.53-1.25-4.76.85-3.15,2.63-8.74,3.8-10.33,1.35-1.83,2.87-5.63,3.44-7.06.13-.32.27-.92.46-1.74.68-2.95,1.95-8.45,4.94-10.22,1.06-.63,2.02-.71,2.85-.25,1.39.79,2.15,2.95,2.29,4.23h-2.42s-.02,0-.03,0c-.03,0-2.62.25-2.62,3.4v25.52c0,.17-.06,1.69.84,2.65.47.5,1.11.76,1.9.76h45.21c.05,0,1.33.04,2.2-.79.42-.4.66-.93.73-1.56h6.13c.16,0,.3-.1.36-.24.08-.2,1.86-4.87-4.52-10.87,2.02.08,6.62.61,9.37,3.62-.55.5-1.62,1.5-1.86,1.9-.56.93-.42,1.84.37,2.39-.3.34-.48.68-.55,1-.08.41.03.8.32,1.13.53.59,1.27.62,1.83.52-.1.38-.15.82-.01,1.17.1.23.27.4.5.49.54.2,1.48.16,2.11.1-.01.14,0,.3.07.45.17.38.57.62,1.21.7,1.52.19,9.24.01,9.57,0,.01,0,.02,0,.03,0,.67-.07,6.61-.72,7.71-2.23.5-.68.54-1.89.11-3.24-.44-1.37-1.49-3.16-3.04-3.67-.05-.02-.11-.02-.17-.02-.02,0-2.48.27-4.36-.36-.84-.28-1.89-.68-2.9-1.07-1.4-.54-2.61-1-3.18-1.11-.61-.12-1.8-.06-2.65,0l3.72-4.36s.07-.1.08-.17c.02-.07.16-.74-.26-1.16-.27-.28-.69-.36-1.23-.25-.08.02-.15.06-.21.12l-3.6,3.95c.4-.78.78-1.56.95-2.05.19-.54.58-1.27.96-1.99.55-1.03,1.07-2.01,1.13-2.63.02-.19.04-.44.06-.71.08-1.01.2-2.53.48-3.23.04-.1.1-.23.16-.4.95-2.33,2.05-5.16,2.13-6.41,0-.16.02-.4.03-.7.09-2.33.35-9.43,2.77-11.76,2.28-2.21,4.02-1.81,5.3-1.52.01,0,.03,0,.04,0,.2.36.47.66.81.91.94.67,2.25.74,3.42.6-1.58,1.24-3.93,4.69-4.04,4.84-.06.09-.08.21-.06.32.03.11.1.2.2.25l1.98,1.01-2.36,1.25c-.12.06-.2.18-.21.32-1.22,18.75,2.45,24.67,2.6,24.92.1.15.29.22.46.15.17-.06.27-.24.25-.42,0-.05-.74-4.97-.47-7.15.07-.58.18-1.59.33-2.88.4-3.67,1.01-9.21,1.36-10.44.27-.96,1.01-4.28,1.6-7.02.12,1.89.35,3.63.37,3.76.02.16.14.29.3.33.16.04.32-.03.41-.16.35-.51.7-.95,1.05-1.32,0,.29,0,.61.03.94,0,.05.02.1.04.15-.27.68-.51,1.32-.68,1.76-.49,1.31-1.29,7.73-1.71,11.19-.08.64-.15,1.17-.19,1.52-.28,2.15-1.03,10.2-1.04,10.28-.02.16.07.32.22.39.06.03,5.63,2.76,5.72,5.5.05,1.65-.72,2.74-1.35,3.36-2-.76-5.31-.25-5.77-.18-.17.03-.3.17-.32.34-.02.17.07.34.23.4,1.68.73,3.08.91,4.03.91.8,0,1.28-.12,1.32-.14.03,0,.06-.02.08-.03.03-.02.26-.14.57-.39.18.11.33.24.43.39.07.1.19.17.32.17h22.7c.08,0,.16-.03.22-.07.08-.05,1.91-1.35,2.32-2.98.36-1.42,1.52-4.25,2.61-6.32.83-1.58,2.06-4.84,2.87-7,.22-.57.4-1.06.54-1.42,0,0,0-.02.01-.03-.1,1.31-.33,2.55-.64,3.33-.74,1.85-2.06,11.16-.75,14.26.06.14.2.24.36.24h101.06v-.78h-100.8ZM920.58,23.45c-4.72-2.65-9.55-3.23-9.76-3.25-.05,0-.1,0-.15.01-5.45,1.6-4.88,6.91-4.33,12.04.31,2.88.63,5.87,0,8.4-1.12,4.54-5.9,6.88-9.09,7.96.83-.54,1.77-1.2,2.66-1.98,3.38-2.94,4.59-6.06,3.49-9.04-1.42-3.83-.92-7.35-.25-9.62.79-2.68,2.28-5.2,4.01-6.72,1.61-1.42,4.04-2.13,6.76-2.13s5.96.76,8.81,2.28c3.86,2.06,4.66,3.86,4.8,4.73-.81-.38-2.01-.66-3.15-.67-1.05-.53-2.34-1.18-3.83-2.02ZM901.49,55.53c-.22-1.02-1.01-4.19-2.52-5.68,1.42-.47,4.65-1.58,6.28-2.46.2.74.63,2.13,1.35,3.27.71,2.32,2.32,3.8,3.44,4.39.13.07.29.06.42-.03.12-.09.18-.24.15-.39-.02-.08-.43-1.96-2.33-3.26-.36-.25-.68-.61-.96-1.03-.32-1.1-.42-2.45-.07-4.06.64-.15,2.31-.67,3.24-2,.58-.82.78-1.81.58-2.92,0-.05-.03-.1-.06-.15-.4-.6-1.38-2.4-1.09-3.46.08-.31.27-.53.57-.68,1.72-.86,2.31-.06,2.6.32l.04.05c.97,1.3,1.98,1.88,2.99,1.74,1.04-.15,1.13-1.37,1.2-2.44.05-.74.11-1.58.45-1.97.38-.44.94-.75,1.49-1.04.74-.4,1.44-.78,1.69-1.49.11-.31.2-.81.32-1.45.27-1.45.72-3.86,1.63-4.26.37-.16.83-.24,1.32-.26,2.04,1.03,3.27,1.66,3.53,2.39.55,1.53.88,3.15.75,3.63-.06.2-.2.42-.35.65-.28.43-.6.92-.6,1.57,0,.87,1.54,3.52,2.09,4.45-.28.37-.83.95-1.33.95-.42,0-.61.22-.69.36-.27.47.02,1.23.22,1.66l-.76.84c-.14.15-.13.39.01.54.14.14.29.32.38.45-.32.27-.76.7-.86,1.06-.05.21,0,.47.06.83.09.46.21,1.1,0,1.4-.08.12-.56.42-1.47.56-.75.12-2.71.25-4.58-1.12-.13-.09-.3-.1-.43-.02-.13.08-.21.24-.18.39,0,.04.49,3.15.48,5.56-.5,1.38-.3,2.39-.29,2.47.04.17.18.29.35.31.17.01.33-.09.39-.25.22-.56.3-1.42.32-2.37.37-.96,1.15-2.14,2.71-3.29.93.2,5.22,1.13,7.13,1.42-.33,1.08-1.1,3.65-1.1,4.39,0,.21.17.39.39.39h1.89c.2,0,.37-.16.39-.36.12-1.58.39-3.42.64-3.95.96.14,4.87.89,5.86,3.95,0,.03.02.05.04.08,0,0,.08.13.17.35h-37.86ZM908.27,52.34c.43.37.75.77.98,1.14-.32-.3-.66-.68-.98-1.14ZM858.28,25.86c1.36.46,3.26,5.21,3.23,5.89-.03.17-.15.36-.29.57-.28.42-.63.95-.56,1.77.1,1.23,2.47,3.81,2.74,4.1.01.01.03.03.04.04.1.08.37.36.34.61-.02.2-.25.43-.65.62-1.82.91-1.34,2.23-1.05,3.02.03.09.07.18.1.27.12.37.12.99.08,1.54-.45-.54-.97-1.12-1.24-1.26-.3-.15-1.12-.28-2.25-.45-.32-.05-.6-.09-.73-.12-.47-.09-2.07-.22-2.24-.23l-1.4-.19c-.17-.02-.34.07-.41.23-.14.33-.25,1.04.27,1.56.34.34,1.28.53,2.79.83.79.15,1.61.31,1.93.46.44.2,1.25,1.13,1.73,1.78-.2-.07-.41-.15-.61-.23-1.22-.46-2.05-.76-2.46-.76-.5,0-1.12.46-1.79.94-.39.29-.83.61-1.05.67-.57.16-.83.69-.95,1.06-4.35-.75-6.8-4-6.83-4.03-.07-.1-.19-.16-.31-.16-.03,0-.05,0-.08,0-1.05.22-2.99-.88-4.1-2.83-.49-.86-.56-1.81-.19-2.6.29-.62.82-1.05,1.43-1.16.73-.13,1.5.59,2.19,1.23.63.59,1.16,1.09,1.74,1.03,1.36-.13,1.74-1.77,1.94-2.65.13-.57.76-1.17,1.37-1.75.54-.51,1.1-1.05,1.42-1.64.35-.66.18-1.82-.02-3.17-.2-1.33-.44-2.99.06-3.53.7-.75,3.02-1.59,4.54-2.06.05.02.09.04.14.07.51.24.88.42,1.13.5ZM842.93,20.31c4.44-.78,12.11-.33,14.37,4.08-.07.02-.14.04-.22.07-2.18-1.03-6.31-2.85-10.96-2.85-2.23,0-4.59.42-6.9,1.55-.67.33-1.26.74-1.74,1.23,1.23-1.8,3.05-3.65,5.47-4.08ZM835.14,26.67c.07-.05.13-.1.2-.13-.2.43-.35.79-.44,1.03-.19-.04-.38-.08-.56-.1.21-.29.47-.56.8-.79ZM834.33,36.21c-.58.3-1.2.1-1.62-.12-1.19-.63-2.24-2.17-2.39-3.51-.18-1.61.22-2.96,1.1-3.71.45-.39,1.03-.61,1.7-.67-.6,1.97.21,4.37.85,6.28.19.57.37,1.11.49,1.57-.05.08-.1.13-.13.16ZM834.7,34.23c-.66-1.95-1.43-4.27-.76-6.03.34.03.71.1,1.09.21.2.06.4-.05.47-.25,0-.01.12-.34.35-.86-.06.23-.11.46-.15.7-.22,1.32-.15,2.77.1,4.24-.28,1.1-.58,2.04-.85,2.74-.08-.24-.16-.49-.25-.75ZM840.29,46.13c-.15-.39-1.15-2.96-2.39-3.81-1.2-.83-2.89-3.64-2.57-5.16.06-.28.03-.62-.05-1.02.29-.55.59-1.35.87-2.26,1.35,5.34,4.62,10.55,5.01,10.99.24.39.47,2.81.63,5.52-.38-1.69-.83-3.26-1.5-4.26ZM822.8,80.75c.52-.74.99-1.44,1.32-1.93.07.21.15.43.24.66-.55.42-1.07.84-1.56,1.27ZM872.53,75.03c.99,1.12,2.05,2.8,1.61,4.53-.19.74-.69,1.49-1.35,2.18.73-2.28.27-4.74-.27-6.43,0-.09,0-.19.01-.28ZM862.98,49.89c.38-.69.63-1.93.77-2.77.92,1.19,2.18,3.25,2.49,3.96.17.38.72,1.15,1.41,2.12.89,1.24,1.99,2.78,2.25,3.51.43,1.2.37,2.66.26,3.79-.1,1.11.87,7.52,1.33,9.45.12.48.24,1.72.27,3.26-.12-.1-.2-.16-.22-.17-.15-.11-.35-.1-.49.02-.14.12-.18.32-.09.48,0,.02.4.77.76,1.9-.13,2.69-.64,5.58-1.94,6.87-.59.59-1.3.77-2.16.56-2.04-.5-3.34-1.81-3.86-3.9-.44-1.76-.23-3.64-.11-4.65l.03-.27c.09-.9.62-4.19,1.08-7.1.61-3.83.9-5.67.9-5.94,0-.03-.02-2.97-1.39-3.39-.51-.16-1.81-1.22-3.16-2.34.04-1.37.67-3.21,1.86-5.4ZM856.73,48.7c-.19.85-.38,2.39.26,3.73-.32,0-1.5-.12-1.5-.66,0-.13-.06-.25-.17-.32-.02-.01-.04-.03-.06-.03-.03-.48-.1-.95-.2-1.42.46-.49,1.13-1.06,1.67-1.3ZM855.26,52.75c.45.31,1.08.43,1.58.45,1.2,1.11,1.34,3.85,1.31,5.34-.82-.97-2.17-2.36-3.1-2.36-.02,0-.05,0-.07,0-.06,0-.1,0-.15.01-.1,0-.18.02-.25.03.36-1.13.61-2.31.68-3.48ZM852.6,57.46c1.4-2.01,1.6-3.96,1.55-5.19.12.02.24.02.36.02-.05,1.98-.69,4.03-1.49,5.84-.45.63-1.09,1.51-2.03,2.7.34-1.07.85-2.27,1.62-3.37ZM845.73,69.2c-.52-1.43-1.24-3.64-1.83-5.75,1.3,1.56,2.18,2.92,2.53,3.94-.27.61-.5,1.21-.69,1.81ZM845.56,77.23c-.09-1.35-.09-3.08.22-4.97.07,1.36-.06,3.28-.22,4.97ZM842.79,57.26c.04.07.08.14.13.2.72,1.03,1.78,4.2,2.57,6.76-.64-.86-1.36-1.71-2.05-2.47-.41-1.61-.69-2.99-.66-3.65,0-.2.01-.49.01-.84ZM832.02,63.91s0,.03.01.04c.96,2.83.57,7.48.19,10.32v-.02c-.26-4.15-.38-8.67-.2-10.35ZM826.62,83.8c-.46-.29-.89-.72-.89-1.32,0-.03,0-.08.04-.16.31.55.61,1.06.86,1.47ZM857.16,82.32c.49-1.71,1.3-4.07,2.45-5.78,0,.08,0,.15,0,.22.05,1.18-1.29,3.67-2.45,5.57ZM856.38,82.22c-.46-.24-.96-.42-1.5-.5-1.03-.14-2.88-.34-5.03-.58-3.55-.39-7.58-.82-8.98-1.11-2.25-.47-5.56-.85-5.59-.85-.02,0-.03,0-.04,0-.1,0-.19.04-.27.11-.05.05-.93.9-1.48,2.57-.01-1.06.15-2.12.7-2.67.07-.07.11-.17.11-.27,0-.41-.32-1.23-1.55-1.42-1.15-.18-4.92,1.76-6.61,3.21-.09.08-.17.15-.25.23-.2-.39-.4-.79-.57-1.17,2.22-1.62,4.75-2.92,6.83-2.54.21.04.41-.1.45-.31.07-.35,1.7-8.73.17-13.2-.2-.6-.44-1.17-.93-1.08-.4.08-.81.16-.65,6.09.06,2.21.19,4.44.23,5.26-1.03.24-4.14,1.1-5.69,2.88-.37-1.07-1.02-3.22-.95-4.91.04-1.03-.15-2.88-.38-5.03-.32-3.08-.69-6.58-.47-8.6.04-.35.07-.75.11-1.18.35-3.77.94-10.09,4.46-10.63,3.45-.54,7.54.21,8.79.47-.4,1.62-1.87,7.75-1.7,10.85,0,.13.08.25.19.31.11.07.25.07.37.02.03-.01,2.76-1.31,4.18-.24.09.54.4,2.17,1.12,2.9.45.45.88.9,1.28,1.33.79,3.06,2.01,6.79,2.63,8.3-1.33,5.26-.17,9.82-.16,9.88.05.18.21.3.4.29s.34-.15.36-.33c.12-.81,1.12-7.99.25-9.83-.01-.03-.02-.05-.04-.08.2-.75.46-1.52.78-2.29.01,0,.02,0,.03,0,.2-.05.33-.26.29-.46-.01-.05-.02-.11-.04-.16.58-1.24,1.33-2.47,2.31-3.64-.02.17-.02.27-.02.29,0,.17.09.32.25.38.16.06.34,0,.44-.12.15-.18,2.08-2.66,3.51-5.92.32-.46.53-.79.68-1.02.14-.22.26-.4.29-.43.02,0,.1-.01.17-.02.05,0,.1,0,.16-.01.56-.05,2.07,1.45,3.14,2.86.1.13.26.18.42.14s.26-.18.28-.34c.02-.18.3-3.52-.66-5.73.65.52,1.33,1.09,1.99,1.63.05.04.1.08.15.12.03.71.22,1.32.56,1.81,1.39,1.99,1,5.91.6,7.7-.02.08-1.42,6.48-1.8,9.98-1.66,1.87-2.74,4.98-3.33,7.08ZM865.89,85.49c-1.55-.17-2.62-1.54-4.71-4.64-1.99-2.94.1-6.03.19-6.16.11-.15.09-.36-.04-.49-.07-.08-.18-.12-.28-.12-.07,0-.15.02-.21.06-.08.05-.16.11-.24.17.42-3.05,1.36-7.58,1.68-8.99.05-.22,1.2-5.55-.72-8.31-.13-.18-.22-.39-.29-.61,1.22,1.01,2.24,1.79,2.8,1.96.55.17.84,1.81.84,2.64,0,.28-.47,3.23-.89,5.82-.49,3.06-.99,6.22-1.09,7.14l-.03.26c-.22,1.99-.9,8.05,4.56,9.39,1.13.28,2.1.02,2.89-.76,1.07-1.07,1.65-2.96,1.95-4.99.16,1.23.14,2.58-.31,3.83-.17.48-.4.93-.68,1.35-2.01,1.51-4.49,2.56-5.41,2.45ZM943.93,84.73h-.83v-24.86c0-1.2-.29-2.07-.85-2.61-.54-.51-1.12-.52-1.24-.51h-.63c0-.15-.02-.3-.04-.45h.86c.83,0,1.49.24,1.95.71.8.81.77,2.08.77,2.11v25.61ZM981.95,87.86c-.24.05-1.44.26-3.2-.19,1.05-.07,2.29-.06,3.23.17-.01,0-.02.01-.03.02ZM989.94,55.07c-1.32,3.96-3.16,22.07-3.24,22.85-.02.2.11.38.31.42.19.04.39-.07.45-.26,1.48-4.53,12.02-23.29,12.12-23.48.1-.17.05-.39-.11-.51l-3.22-2.3,2.5-.49c.15-.03.26-.14.3-.28,1.57-5.98,1.06-9.82.16-12.08.37.3.64.51.64.51.04.03.08.06.13.07.08.02,1.92.57,3.43.86.77.14,3.3,1.68,5.54,3.03,1.95,1.18,3.8,2.3,4.75,2.69,1.88.77,2.87,2.93,3.46,4.49.53,1.42.35,3.95-.02,8.99v.08c-.22,2.91-.94,5.51-1.64,7.53-.13-.6-.31-1.12-.57-1.5-.7-1.03,0-3.28.89-6.12.4-1.3.86-2.77,1.24-4.31.81-3.3-.46-5.74-1.29-6.91-.8-1.13-1.87-1.99-2.53-2.05-2.55-.23-4.91.89-7.02,3.32-1.89,2.18-3.63,7.32-5.2,15.29l-.07.35c-.36,1.79-1.27,4.49-2.01,5.5-.8,1.09-1.08,4.78-1.11,5.19-.01.14.06.28.18.36.12.08.28.08.4,0,.43-.25,1.73-.82,2.56-.44.42.19.68.61.81,1.26-.89-.49-1.72-.83-2.3-.89-1.28-.12-2.23.55-2.93,1.05-.37.27-.76.54-.94.48-.89-.3-2.84.12-5.96.84-1.9.44-4.28-.47-5.05-.8.13-1.33.17-4.54.21-7.65.03-2.61.06-5.07.14-6.22.17-2.41-.34-7.88-.45-9.01l2.87-2.54,2.59,2.67ZM995.95,39.7c-.57,1.95-4.95,10.89-5.98,12.97l-4.33-3.5s-.08-.05-.13-.07c-.09-.03-.27-.08-.51-.15.11,0,.22,0,.32,0,.04,0,.09-.01.13-.03.79-.34,9.43-7.9,10.02-10.15.28-1.06-.15-2.06-.73-2.86.31-.12.62-.31.92-.57.33,1.37.63,3.17.29,4.35ZM983.51,50.92c.19-.06.37-.11.56-.13.71-.09,1.26.12,1.58.3-.53.61-1.62,1.88-1.98,2.31-.21.25-.35.24-.4.23-.22-.02-.47-.25-.66-.47.32-.81.65-1.64.89-2.25ZM982.64,50.46c.05-.22.1-.4.15-.56.08.06.15.11.23.16-.03.08-.07.17-.1.26-.09.04-.18.08-.27.13ZM984.41,49.99c-.13,0-.27,0-.41.03-.04,0-.09.01-.13.02h0c.08-.2-.02-.43-.21-.51-.06-.02-.12-.06-.2-.11.52.07,1.23.25,1.75.41l.57.46c-.35-.16-.81-.29-1.37-.29ZM998.5,16.51c.44.31,4.44,3.31,1.62,9.48-1.86,4.05-3.08,6.45-4.08,7.79-.05-.16-.09-.3-.13-.4,5.55-7.38,2.88-15.47,2.85-15.55-.02-.05-.05-.1-.09-.15-.62-.63-1.27-1.19-1.93-1.68.59.13,1.18.29,1.76.51ZM972.85,14.6c.37-1.06,2.13-1.24,3.68-1.4.42-.04.82-.08,1.19-.14.27-.04.67-.13,1.17-.24,1.72-.39,4.63-1.04,7.75-1.04,2.55,0,5.23.44,7.51,1.83-.41.05-.93.12-1.52.23-3.09-1.1-6.24-1.22-8.76-1.01-4.72.39-8.73,2.01-9.74,2.75-.36.26-.65.63-.88,1.05-.52-.66-.65-1.33-.4-2.02ZM993.27,14.91c-1,.02-1.97.13-2.87.28.8-.24,1.54-.42,2.19-.55.23.08.45.17.68.27ZM974.45,42.27l-.11-.02s-.08-.01-.13-.02c-.15-.38-.22-.84-.21-1.37.16-.31.58-1.25.19-2.01-.19-.36-.52-.61-1-.74.09-.17.22-.38.42-.62.07-.08.1-.19.09-.3-.01-.11-.07-.2-.16-.27-.25-.18-.5-.39-.64-.54.28-.44.73-1.41.14-2.42-.08-.13-.22-.2-.38-.19-.02,0-1.34.12-1.95-.58.58-1,2.63-4.61,2.72-5.6.07-.74-.45-1.18-.86-1.54-.33-.29-.62-.54-.65-.88-.05-.54.23-1.12.5-1.69.18-.38.36-.75.44-1.11.04-.2.07-.53.11-.97.07-.91.19-2.29.55-3.44.49.39,1.08.77,1.79,1.14,2.08,1.08,5.57.46,6.9.16-.29,4.21,1.41,5.88,1.49,5.95.07.07.17.11.28.11.88-.01,1.48.22,1.82.72.78,1.12.12,3.41-.2,4.2-.05.13-.03.27.05.38.08.11.22.17.35.15l2.25-.27c.17-.02.31-.15.34-.32.18-1,.88-1.95,1.81-2.48.76-.43,1.57-.51,2.29-.24.4.15.65.49.77,1,.33,1.45-.57,3.89-1.95,5.34-.64.67-1.25.99-1.81.97-.62-.03-.99-.5-1-.5-.11-.14-.29-.19-.46-.12-.16.07-.26.24-.23.42,0,.02.21,1.91-3.82,5.24-1.01.83-4.08,3.37-9.75,2.48ZM974.93,43.18s-.06-.05-.1-.07c3.79.48,7.1-.44,9.86-2.72,2.93-2.43,3.79-4.18,4.03-5.14.24.14.56.26.93.28.8.05,1.61-.36,2.42-1.2,1.59-1.66,2.53-4.32,2.14-6.04-.17-.77-.61-1.31-1.25-1.56-.94-.36-1.98-.25-2.95.29-1.04.59-1.84,1.62-2.13,2.73l-1.36.16c.32-1.02.78-3.06-.09-4.33-.47-.69-1.25-1.04-2.3-1.05-.34-.43-1.48-2.15-1.11-5.74.01-.13-.04-.25-.13-.34-.1-.08-.23-.11-.35-.08-.05.01-4.59,1.22-6.88.03-.77-.4-1.39-.8-1.86-1.21.2-.42.46-.77.78-1.01.82-.61,4.68-2.22,9.34-2.6,2.09-.17,4.62-.12,7.18.58-1.88.48-4.21,1.33-6.59,2.79-.18.11-.24.34-.14.52.1.18.32.25.51.17.06-.03,4.91-2.29,10.03-1.9,1.09.63,2.14,1.43,3.12,2.42.26.85,2.28,8.2-2.89,14.91-.08.1-.1.24-.06.37,0,.01.15.43.33,1.06-.43.44-.82.68-1.23.78-.6-.65-1.19-1.06-1.25-1.1-.13-.09-.3-.09-.43,0-.13.08-.2.24-.18.39.17,1.05.91,1.41,1.49,1.49.59.7,1.11,1.62.87,2.54-.51,1.96-8.47,8.96-9.52,9.6-.53-.01-3.6-.3-4.32-4.85-.02-.12-.09-.22-.19-.28-.06-.03-.13-.05-.19-.05-.05,0-.09,0-.14.03-.04.01-3.68,1.4-5.43.15ZM977.2,56.38c-.36,1.29-.97,6.87-1.38,10.57-.14,1.23-.25,2.29-.32,2.87-.14,1.12-.04,2.86.11,4.37-.2-.69-.42-1.52-.62-2.51-.7-3.42-1.4-9.49-.8-19l2.82-1.5c.13-.07.21-.2.21-.34,0-.15-.08-.28-.21-.34l-2.24-1.15c.65-.92,2.41-3.35,3.59-4.28.24.31.64.79,1.1,1.34-.51,2.38-1.87,8.64-2.25,9.99ZM980.11,45.17c-.2-.04-.39.07-.45.25-.34-.41-.65-.8-.92-1.15.6-.12,1.12-.27,1.46-.38.58,2.89,2.15,4.24,3.54,4.77-.42-.06-.82-.08-1.08,0-.02,0-.04.01-.06.02-.67-.64-1.49-1.56-2.27-2.48.02-.2.05-.39.08-.56,0,0,0-.01,0-.02h0c.04-.21-.09-.42-.3-.46ZM980.57,52.26c-.13-1.19-.33-3.27-.32-4.92.63.72,1.31,1.46,1.91,2.01-.15.37-.32.93-.41,1.7-.4.33-.79.73-1.18,1.21ZM1014.44,69.92c-.12.28-.22.53-.3.74-.14.36-.33.85-.54,1.43-.81,2.14-2.02,5.38-2.83,6.92-1.1,2.11-2.3,5.02-2.67,6.49-.29,1.16-1.56,2.19-1.92,2.46h-22.39c-.1-.12-.22-.22-.36-.32.7-.75,1.46-1.98,1.4-3.76-.09-2.88-4.77-5.47-5.91-6.06.13-1.41.76-8.07,1.01-9.99.05-.35.11-.88.19-1.53.39-3.18,1.21-9.79,1.67-11.01.13-.35.31-.82.51-1.33.24.22.55.42.9.45.27.02.68-.05,1.06-.51.46-.56,2.24-2.61,2.26-2.63.07-.09.1-.2.09-.3l.64.52c-.06.01-.11.04-.16.08l-3.3,2.92c-.09.08-.14.2-.13.33,0,.06.65,6.5.47,9.07-.08,1.17-.11,3.64-.14,6.26-.04,3.19-.08,6.8-.23,7.84-.02.17.06.33.22.41.13.06,3.26,1.56,5.82.97,2.24-.52,4.79-1.1,5.53-.86.55.18,1.05-.17,1.63-.58.67-.47,1.42-1,2.41-.91.69.06,1.67.54,2.67,1.18.89,2.38,3.19,4.67,4.16,4.56.28-.03.59-.26.56-.78-.07-1.11-2.07-2.98-4.07-4.28-.07-.22-.13-.44-.17-.67-.17-.93-.59-1.56-1.26-1.87-.88-.41-1.96-.11-2.64.17.13-1.32.43-3.47.91-4.12.81-1.11,1.76-3.9,2.14-5.8l.07-.35c1.54-7.84,3.23-12.86,5.02-14.94,1.93-2.23,4.07-3.26,6.36-3.05.27.02,1.15.57,1.97,1.73.75,1.06,1.91,3.27,1.17,6.27-.37,1.52-.83,2.98-1.23,4.26-.98,3.16-1.7,5.45-.79,6.79.37.55.57,1.53.63,2.64-.17.43-.33.82-.46,1.16ZM1003.36,79.12c1.37,1.05,2.53,2.24,2.64,2.85-.53-.2-1.78-1.38-2.64-2.85Z"/>
        <path class="cls-1" d="M836.45,28.26c-.01.34-.05.71-.1,1.12.01-.38.04-.76.1-1.12"/>
      </g>
      <g>
        <path class="cls-1" d="M610.19,6.24c0,.39-.06.89-.32,1.04-.15.08-.63.22-2.19.22s-1.98-.32-2.05-.45c-.11-.19-.3-.95-.3-3.83,0-1.15.24-1.48.38-1.57.16-.1.71-.28,2.6-.28,1.04,0,1.38.14,1.49.22.09.07.26.31.26,1.04v.5h1.58l-.02-.48c0-.99-.24-1.68-.72-2.05-.46-.36-1.3-.53-2.56-.53-1.81,0-2.98.17-3.55.54-.51.32-.82.69-.93,1.11-.1.39-.15,1.27-.15,2.69,0,1.86.23,3.02.7,3.56.48.55,1.51.81,3.17.81,1.83,0,2.91-.14,3.4-.45.52-.33.77-1.07.77-2.27v-.57h-1.58l.02.74Z"/>
        <rect class="cls-1" x="616.11" y=".16" width="1.57" height="8.55"/>
        <path class="cls-1" d="M628.16,6.35c-.03.07-.08.18-.15.33l-3.11-6.52h-2.25v8.55h1.58V2.28l3.11,6.42h1.38l3.09-6.48v6.48h1.58V.16h-2.28l-2.95,6.19Z"/>
        <polygon class="cls-1" points="637.94 8.7 644.45 8.7 644.45 7.41 639.52 7.41 639.52 4.94 644.24 4.94 644.24 3.65 639.52 3.65 639.52 1.45 644.45 1.45 644.45 .16 637.94 .16 637.94 8.7"/>
        <polygon class="cls-1" points="655.86 6.89 651.08 .16 648.97 .16 648.97 8.7 650.54 8.7 650.54 2 655.32 8.7 657.44 8.7 657.44 .16 655.86 .16 655.86 6.89"/>
        <polygon class="cls-1" points="661.55 1.52 664.58 1.52 664.58 8.7 666.15 8.7 666.15 1.52 669.16 1.52 669.16 .16 661.55 .16 661.55 1.52"/>
        <path class="cls-1" d="M676.92,1.36c1.52,0,2.08.17,2.29.31.18.13.4.49.4,1.47v1.28c0,2.15-.21,2.63-.3,2.73-.07.08-.45.33-2.39.33s-2.32-.25-2.39-.33c-.09-.1-.31-.58-.31-2.73s.22-2.62.31-2.73c.07-.08.45-.33,2.39-.33M680.41.82c-.5-.5-1.64-.74-3.49-.74-1.59,0-2.66.21-3.27.63-.63.44-.95,1.25-.95,2.4v1.33c-.01,1.93.22,3.12.7,3.61.49.5,1.64.74,3.51.74s3.04-.25,3.52-.75c.47-.5.71-1.72.71-3.71,0-1.86-.24-3-.74-3.5"/>
        <path class="cls-1" d="M586.2,32.82c0,2.93.61,5.11,1.84,6.53,1.23,1.42,2.79,2.13,4.67,2.13,1.66,0,3.04-.68,4.16-2.05,1.12-1.36,1.68-3.67,1.68-6.93,0-3-.59-5.21-1.75-6.61-1.15-1.42-2.59-2.12-4.26-2.12-1.82,0-3.34.71-4.54,2.13-1.22,1.42-1.81,3.73-1.81,6.91M554.87,33.66c-1.96.7-3.99,1.32-6.1,1.86-2.88.76-4.72,1.52-5.48,2.26-.8.77-1.19,1.65-1.19,2.62,0,1.12.4,2.03,1.17,2.74.79.7,1.93,1.06,3.44,1.06s3.05-.38,4.42-1.14c1.36-.78,2.32-1.72,2.89-2.81.57-1.11.85-2.55.85-4.32v-2.28ZM630.12,32.79c0,3.31.67,5.76,2.01,7.33,1.34,1.59,3.02,2.39,5.04,2.39s3.73-.79,5.04-2.35c1.32-1.56,1.98-4.05,1.98-7.51,0-3.21-.67-5.6-1.99-7.17-1.32-1.56-2.97-2.35-4.92-2.35-2.07,0-3.79.8-5.13,2.39-1.35,1.6-2.03,4.03-2.03,7.28M615.88,32.82c0-5.65,1.91-10.32,5.72-13.98,3.83-3.67,8.97-5.51,15.47-5.51,7.42,0,13.04,2.16,16.83,6.46,3.05,3.47,4.58,7.75,4.58,12.82,0,5.7-1.9,10.37-5.67,14.02-3.78,3.63-9.01,5.46-15.7,5.46-5.96,0-10.77-1.51-14.45-4.54-4.52-3.74-6.77-8.65-6.77-14.73M688.16,32.62c0-2.92-.61-5.09-1.85-6.52-1.23-1.43-2.79-2.15-4.67-2.15-1.66,0-3.04.69-4.16,2.06-1.12,1.37-1.68,3.67-1.68,6.91,0,3.03.59,5.24,1.73,6.65,1.16,1.41,2.59,2.11,4.28,2.11,1.83,0,3.34-.7,4.54-2.12,1.22-1.43,1.81-3.74,1.81-6.95M702.41.08v51.18h-13.3v-5.48c-1.87,2.32-3.56,3.89-5.1,4.72-2.05,1.06-4.33,1.6-6.84,1.6-5.05,0-8.91-1.92-11.58-5.76-2.66-3.84-3.99-8.51-3.99-14,0-6.15,1.46-10.85,4.42-14.1,2.94-3.27,6.69-4.9,11.21-4.9,2.21,0,4.22.38,6.03,1.12,1.8.75,3.4,1.86,4.8,3.35V.08h14.35ZM705.53,12.87h14.22v38.39h-14.22V12.87ZM705.53.08h14.22v9.68h-14.22V.08ZM531.18,19.15c.97-1.36,2.35-2.54,4.18-3.54,1.3-.73,3.1-1.29,5.37-1.68,2.28-.39,4.74-.59,7.4-.59,4.25,0,7.69.24,10.26.71,2.59.48,4.74,1.48,6.46,2.99,1.22,1.05,2.17,2.52,2.87,4.44.7,1.93,1.04,3.76,1.04,5.51l.07,24.26h-13.14l-.02-4.54c-1.86,1.8-3.72,3.08-5.55,3.84-2.51,1.03-5.44,1.54-8.76,1.54-4.42,0-7.78-1.03-10.08-3.08-2.29-2.04-3.43-4.56-3.43-7.57,0-2.82.82-5.14,2.48-6.95,1.66-1.82,4.7-3.17,9.14-4.05,5.34-1.07,8.79-1.82,10.38-2.25,1.57-.43,3.26-1,5.02-1.69,0-5.1-10.29-6.12-12.33-.32h-14.25c.55-2.44,1.42-4.96,2.89-7.03M571.95,65.37V14.18h13.3v5.48c1.84-2.31,3.53-3.87,5.07-4.68,2.07-1.1,4.36-1.64,6.87-1.64,4.96,0,8.79,1.91,11.51,5.7,2.7,3.79,4.06,8.48,4.06,14.08,0,6.16-1.48,10.87-4.43,14.12-2.96,3.24-6.7,4.86-11.2,4.86-2.19,0-4.2-.37-5.99-1.11-1.8-.75-3.42-1.86-4.84-3.32v17.71h-14.35Z"/>
        <polygon class="cls-1" points="453.93 0 494.41 65.37 527.85 65.37 487.37 0 453.93 0"/>
        <polygon class="cls-1" points="471.82 38.41 454.98 65.37 421.55 65.37 455.17 11.53 471.82 38.41"/>
      </g>
    </g>
  </g>
</svg>