<?xml version="1.0" encoding="UTF-8"?>
<svg id="Layer_2" data-name="Layer 2" xmlns="http://www.w3.org/2000/svg" viewBox="0 0 2009.8 104.46">
  <defs>
    <style>
      .cls-1 {
        stroke-width: 0px;
      }

      .cls-1, .cls-2 {
        fill: #fff;
      }

      .cls-2 {
        stroke: #fff;
        stroke-miterlimit: 10;
      }
    </style>
  </defs>
  <g id="Layer_1-2" data-name="Layer 1">
    <g>
      <g>
        <path class="cls-1" d="M1066.47,25.44c0,.39-.06.89-.32,1.04-.15.08-.63.22-2.19.22s-1.98-.32-2.05-.45c-.11-.19-.3-.95-.3-3.83,0-1.15.24-1.48.38-1.57.16-.1.71-.28,2.6-.28,1.04,0,1.38.14,1.49.22.09.07.26.31.26,1.04v.5h1.58l-.02-.48c0-.99-.24-1.68-.72-2.05-.46-.36-1.3-.53-2.56-.53-1.81,0-2.98.17-3.55.54-.51.32-.82.69-.93,1.11-.1.39-.15,1.27-.15,2.69,0,1.86.23,3.02.7,3.56.48.55,1.51.81,3.17.81,1.83,0,2.91-.14,3.4-.45.52-.33.77-1.07.77-2.27v-.57h-1.58l.02.74Z"/>
        <rect class="cls-1" x="1072.38" y="19.37" width="1.57" height="8.55"/>
        <path class="cls-1" d="M1084.43,25.56c-.03.07-.08.18-.15.33l-3.11-6.52h-2.25v8.55h1.58v-6.42l3.11,6.42h1.38l3.09-6.48v6.48h1.58v-8.55h-2.28l-2.95,6.19Z"/>
        <polygon class="cls-1" points="1094.22 27.91 1100.72 27.91 1100.72 26.62 1095.79 26.62 1095.79 24.15 1100.52 24.15 1100.52 22.86 1095.79 22.86 1095.79 20.65 1100.72 20.65 1100.72 19.37 1094.22 19.37 1094.22 27.91"/>
        <polygon class="cls-1" points="1112.14 26.1 1107.36 19.37 1105.25 19.37 1105.25 27.91 1106.82 27.91 1106.82 21.21 1111.59 27.91 1113.71 27.91 1113.71 19.37 1112.14 19.37 1112.14 26.1"/>
        <polygon class="cls-1" points="1117.82 20.73 1120.85 20.73 1120.85 27.91 1122.43 27.91 1122.43 20.73 1125.43 20.73 1125.43 19.37 1117.82 19.37 1117.82 20.73"/>
        <path class="cls-1" d="M1133.2,20.57c1.52,0,2.08.17,2.29.31.18.13.4.49.4,1.47v1.28c0,2.15-.21,2.63-.3,2.73-.07.08-.45.33-2.39.33s-2.32-.25-2.39-.33c-.09-.1-.31-.58-.31-2.73s.22-2.62.31-2.73c.07-.08.45-.33,2.39-.33M1136.69,20.02c-.5-.5-1.64-.74-3.49-.74-1.59,0-2.66.21-3.27.63-.63.44-.95,1.25-.95,2.4v1.33c-.01,1.93.22,3.12.7,3.61.49.5,1.64.74,3.51.74s3.04-.25,3.52-.75c.47-.5.71-1.72.71-3.71,0-1.86-.24-3-.74-3.5"/>
        <path class="cls-1" d="M1042.48,52.03c0,2.93.61,5.11,1.84,6.53,1.23,1.42,2.79,2.13,4.67,2.13,1.66,0,3.04-.68,4.16-2.05,1.12-1.36,1.68-3.67,1.68-6.93,0-3-.59-5.21-1.75-6.61-1.15-1.42-2.59-2.12-4.26-2.12-1.82,0-3.34.71-4.54,2.13-1.22,1.42-1.81,3.73-1.81,6.91M1011.14,52.87c-1.96.7-3.99,1.32-6.1,1.86-2.88.76-4.72,1.52-5.48,2.26-.8.77-1.19,1.65-1.19,2.62,0,1.12.4,2.03,1.17,2.74.79.7,1.93,1.06,3.44,1.06s3.05-.38,4.42-1.14c1.36-.78,2.32-1.72,2.89-2.81.57-1.11.85-2.55.85-4.32v-2.28ZM1086.4,52c0,3.31.67,5.76,2.01,7.33,1.34,1.59,3.02,2.39,5.04,2.39s3.73-.79,5.04-2.35c1.32-1.56,1.98-4.05,1.98-7.51,0-3.21-.67-5.6-1.99-7.17-1.32-1.56-2.97-2.35-4.92-2.35-2.07,0-3.79.8-5.13,2.39-1.35,1.6-2.03,4.03-2.03,7.28M1072.16,52.03c0-5.65,1.91-10.32,5.72-13.98,3.83-3.67,8.97-5.51,15.47-5.51,7.42,0,13.04,2.16,16.83,6.46,3.05,3.47,4.58,7.75,4.58,12.82,0,5.7-1.9,10.37-5.67,14.02-3.78,3.63-9.01,5.46-15.7,5.46-5.96,0-10.77-1.51-14.45-4.54-4.52-3.74-6.77-8.65-6.77-14.73M1144.44,51.83c0-2.92-.61-5.09-1.85-6.52-1.23-1.43-2.79-2.15-4.67-2.15-1.66,0-3.04.69-4.16,2.06-1.12,1.37-1.68,3.67-1.68,6.91,0,3.03.59,5.24,1.73,6.65,1.16,1.41,2.59,2.11,4.28,2.11,1.83,0,3.34-.7,4.54-2.12,1.22-1.43,1.81-3.74,1.81-6.95M1158.69,19.28v51.18h-13.3v-5.48c-1.87,2.32-3.56,3.89-5.1,4.72-2.05,1.06-4.33,1.6-6.84,1.6-5.05,0-8.91-1.92-11.58-5.76-2.66-3.84-3.99-8.51-3.99-14,0-6.15,1.46-10.85,4.42-14.1,2.94-3.27,6.69-4.9,11.21-4.9,2.21,0,4.22.38,6.03,1.12,1.8.75,3.4,1.86,4.8,3.35v-17.73h14.35ZM1161.81,32.08h14.22v38.39h-14.22v-38.39ZM1161.81,19.28h14.22v9.68h-14.22v-9.68ZM987.46,38.36c.97-1.36,2.35-2.54,4.18-3.54,1.3-.73,3.1-1.29,5.37-1.68,2.28-.39,4.74-.59,7.4-.59,4.25,0,7.69.24,10.26.71,2.59.48,4.74,1.48,6.46,2.99,1.22,1.05,2.17,2.52,2.87,4.44.7,1.93,1.04,3.76,1.04,5.51l.07,24.26h-13.14l-.02-4.54c-1.86,1.8-3.72,3.08-5.55,3.84-2.51,1.03-5.44,1.54-8.76,1.54-4.42,0-7.78-1.03-10.08-3.08-2.29-2.04-3.43-4.56-3.43-7.57,0-2.82.82-5.14,2.48-6.95,1.66-1.82,4.7-3.17,9.14-4.05,5.34-1.07,8.79-1.82,10.38-2.25,1.57-.43,3.26-1,5.02-1.69,0-5.1-10.29-6.12-12.33-.32h-14.25c.55-2.44,1.42-4.96,2.89-7.03M1028.22,84.58v-51.19h13.3v5.48c1.84-2.31,3.53-3.87,5.07-4.68,2.07-1.1,4.36-1.64,6.87-1.64,4.96,0,8.79,1.91,11.51,5.7,2.7,3.79,4.06,8.48,4.06,14.08,0,6.16-1.48,10.87-4.43,14.12-2.96,3.24-6.7,4.86-11.2,4.86-2.19,0-4.2-.37-5.99-1.11-1.8-.75-3.42-1.86-4.84-3.32v17.71h-14.35Z"/>
        <polygon class="cls-1" points="910.2 19.21 950.68 84.58 984.12 84.58 943.64 19.21 910.2 19.21"/>
        <polygon class="cls-1" points="928.1 57.62 911.26 84.58 877.83 84.58 911.45 30.73 928.1 57.62"/>
      </g>
      <path class="cls-2" d="M2008.94,103.96h-265.24c-8.47,0-16.95-1.06-24.53-3.06-7.01-1.85-12.99-4.46-16.85-7.37-1.22-.92-2.64-2.16-3.75-3.62-.7.41-1.42.83-2.16,1.24-9.25,5.12-19.4,8.56-30.17,10.2-14.18,2.17-1648.39,2.61-1665.38,2.61-.2,0-.36-.16-.36-.36s.16-.36.36-.36c16.95,0,1651.14-.44,1665.27-2.6,13.59-2.08,24.22-6.72,32.02-11.31-.61-.9-1.08-1.88-1.33-2.91-.47-1.95.05-3.81.56-5.61.29-1.02.58-2.07.69-3.11.17-1.67-.13-3.39-.85-4.99-.73-1.6-1.83-2.95-3.2-3.93-1.69-1.2-3.65-1.81-5.73-2.46-1.07-.33-2.18-.68-3.23-1.11-6.28-2.57-11.56-7.36-14.88-13.48-3.36-6.2-4.37-13.23-2.86-19.78,1.73-7.5,6.46-14.26,13.66-19.55,5.42-3.98,11.86-7.04,19.14-9.11,6.74-1.91,14.03-2.88,21.07-2.78,4.01.05,8.07.28,12.07.67,5.56.54,10.31,1.44,14.53,2.76,5.03,1.56,9.36,3.71,13.23,6.55,2.63,1.93,4.6,3.07,7.52,3.55,3.25.54,7.01,1.22,10.5,2.55,3.34,1.28,6.58,2.89,9.62,4.79,3.24,2.03,5.45,4.34,7.77,7.19,2.83,3.48,5,7.56,6.27,11.82,1.32,4.4,1.68,8.99,1.04,13.27-1.37,9.16-7.47,17.24-15.53,20.59-3.04,1.26-7.36,3.41-10.69,6.5-3.54,3.28-5.21,6.89-4.97,10.75.02.33.09.69.16,1.08.25,1.34.56,3.01-1.1,3.88-1.09.57-2.36,0-3.22-.49-2.76-1.54-5.32-3.48-7.79-5.36-1.91-1.45-3.88-2.95-5.93-4.25-4.02-2.55-8.26-4.8-12.62-6.69-1.76-.77-3.62-1.42-5.41-2.05-2.7-.95-5.5-1.94-8.07-3.34-1.35-.73-2.53-1.57-3.64-2.57-.68.32-1.34.66-1.97,1.03-1.56.9-6.92,4.07-10.34,6.98-2.35,2-6.95,5.91-13.46,9.84,1.06,1.38,2.4,2.55,3.56,3.42,3.79,2.85,9.69,5.42,16.6,7.25,7.52,1.99,15.94,3.04,24.35,3.04h265.24c.2,0,.36.16.36.36s-.16.36-.36.36ZM1725.66,71.38c1,.88,2.06,1.61,3.26,2.27,2.52,1.37,5.29,2.35,7.97,3.29,1.8.64,3.67,1.3,5.46,2.07,4.39,1.91,8.67,4.18,12.72,6.74,2.08,1.32,4.06,2.83,5.98,4.28,2.45,1.86,4.98,3.79,7.7,5.31.78.44,1.77.88,2.54.48,1.11-.58,1.01-1.61.73-3.12-.08-.41-.15-.8-.17-1.17-.26-4.08,1.49-7.89,5.19-11.32,3.41-3.16,7.81-5.35,10.9-6.63,7.84-3.25,13.77-11.12,15.1-20.04.62-4.18.27-8.66-1.02-12.96-1.25-4.17-3.38-8.17-6.14-11.57-2.27-2.79-4.43-5.06-7.59-7.03-3.01-1.88-6.2-3.47-9.5-4.73-3.43-1.31-7.15-1.99-10.37-2.52-1.03-.17-1.94-.41-2.8-.74.59.47,1.14,1.04,1.65,1.57.19.2.37.39.55.56,2.26,2.25,4.27,4.78,5.98,7.5,3.04,4.85,4.41,9.57,4.57,15.8.23,8.66-3.66,15.95-11.57,21.66-3.47,2.51-8.67,4.49-15.45,5.88-5.41,1.11-10.48,1.56-13.01,1.73-5.18.35-9.22,1.19-12.68,2.68ZM1720.26,1.21c-6.68,0-13.55.95-19.93,2.76-7.2,2.04-13.56,5.07-18.91,9-7.07,5.19-11.7,11.8-13.39,19.14-1.47,6.39-.48,13.24,2.79,19.29,3.23,5.97,8.39,10.65,14.52,13.16,1.03.42,2.12.76,3.17,1.09,2.04.64,4.15,1.29,5.93,2.56,3.01,2.14,4.71,5.89,4.35,9.57-.11,1.1-.42,2.19-.71,3.23-.51,1.79-.98,3.47-.56,5.24.23.96.68,1.87,1.25,2.71,6.42-3.86,10.87-7.64,13.41-9.81.87-.74,4.21-3.45,10.44-7.05.58-.33,1.17-.65,1.78-.94-.58-.58-1.15-1.21-1.71-1.91-5.85-7.31-8.42-17.2-6.88-26.43,1.55-9.24,7.19-17.75,15.11-22.75,2.29-1.45,4.87-2.71,8.12-3.96,7.21-2.77,14-3.99,20.18-3.6.25.02.51.03.78.04,1.1.05,2.3.11,3.38.36-.89-.52-1.79-1.13-2.77-1.85-3.81-2.8-8.07-4.91-13.02-6.45-4.17-1.3-8.88-2.19-14.39-2.73-3.98-.39-8.02-.61-12.01-.67-.31,0-.62,0-.93,0ZM1756.95,13.15c-5.47,0-11.4,1.21-17.66,3.62-3.21,1.23-5.75,2.47-8,3.9-7.75,4.9-13.27,13.23-14.79,22.27-1.51,9.04,1,18.71,6.73,25.87.6.76,1.21,1.43,1.85,2.04,1.57-.7,3.26-1.26,5.11-1.7,2.37-.57,5.02-.95,8.1-1.16,2.52-.17,7.55-.62,12.92-1.72,6.69-1.38,11.79-3.31,15.18-5.76,7.7-5.57,11.5-12.66,11.28-21.07-.16-6.09-1.5-10.71-4.47-15.44-1.68-2.68-3.66-5.16-5.88-7.37-.18-.18-.36-.37-.56-.57-.81-.84-1.73-1.8-2.68-2.18-1.15-.47-2.73-.55-4.12-.61-.28-.01-.54-.03-.79-.04-.73-.05-1.48-.07-2.23-.07Z"/>
    </g>
  </g>
</svg>