<?xml version="1.0" encoding="UTF-8"?>
<svg id="Layer_2" data-name="Layer 2" xmlns="http://www.w3.org/2000/svg" viewBox="0 0 1152.48 105.22">
  <defs>
    <style>
      .cls-1 {
        fill: #fff;
        stroke-width: 0px;
      }
    </style>
  </defs>
  <g id="Layer_1-2" data-name="Layer 1">
    <g>
      <g>
        <path class="cls-1" d="M1152.48,98.73c-54.22-.04-80.57-.08-81.18-.12-2.23-.15-4.54-.3-6.81-.3h-.02c-2.23,0-4.48.15-6.66.29-2.88.19-5.86.38-8.79.23-.91-.05-1.82-.12-2.72-.23.36-.1.73-.25,1.07-.46,8.03-.88,15.52-4.82,20.08-11.18,1.55-2.17,2.33-4.03,2.44-5.88.11-1.79-.55-3.52-1.67-4.63-.63-1.33-1.65-2.43-3.1-2.84-1.74-.48-3.61.21-4.98.72l-8.47,3.15c-1.64.61-3.5,1.3-4.77,2.75-.27.31-.5.64-.7,1-.23.27-.44.57-.62.88-1.92,3.24-.82,7.33.35,10.9.37,1.13.82,2.27,1.86,2.78.19.09.39.16.59.2-.14.67-.61,1.22-1.2,1.6-1.77.19-3.57.22-5.37.1-1.02-.23-2.29-.46-3.72-.66-1.85-.46-3.69-.96-5.5-1.45-.14-.04-.29.04-.33.18-.05.14.02.29.16.34.28.11.56.22.84.33-3.29-.36-6.86-.68-10.04-.96-4.39-.39-8.18-.73-9.05-1-1.84-.58-4.03-1.99-4.65-4.25-.57-2.09-.36-11.24.49-12.95.33-.66.64-1.23,1.15-1.52.57-.32,1.28-.26,2.08-.15,1.55.22,4.05.67,6.47,1.1,2.42.44,4.92.88,6.49,1.1,3.49.48,7.09.99,10.68.76,5.38-.35,10.6-2.36,15.35-4.4,1.2-.35,2.39-.75,3.56-1.18,3.39-1.25,8.15-3.4,10.46-7.65,1.21-2.24,1.4-5.13.5-7.56-.71-1.9-2.04-3.3-3.73-3.93-1.69-.63-3.57-.49-5.34-.24-4.21.58-8.35,1.68-12.29,3.27-1.69.68-3.83,1.71-5.12,3.39-.33-.18-.68-.31-1.04-.44-7.98-2.8-19.44-4.83-28.53-5.08.49-.21,1.05-.24,1.67-.25,2.29-.05,4.88.08,7.64.26,2.57.38,5.18.6,7.78.52,3.1.18,6.1.27,8.66.08,6.79-.49,13.4-2.45,19.79-4.34,3.02-.9,6.09-1.99,7.49-4.65.94-1.79.94-4.36,0-6.87-.95-2.55-2.67-4.51-4.58-5.25-.48-.18-.96-.33-1.46-.45.29-.04.58-.07.87-.1.14-.02.25-.14.25-.28,0-.14-.11-.26-.25-.27-8.48-.74-17.24-1.95-26.04-3.57-9.66-1.79-16.85-.83-23.17,3.09-.33-11.26-1.07-21.42-2.37-27.95-.03-.13-.14-.22-.27-.22h0l-9.26.3c-1.66-.09-3.32-.16-4.98-.21l11.59-.22c.68-.01,1.45-.03,2.14-.38.72-.37,1.23-1.06,1.72-1.72.61-.83,1.15-1.55,1.96-1.56.04,0,.08,0,.12,0,.17,0,.28-.12.28-.27,0-.15-.11-.28-.26-.29-.05,0-.1,0-.15,0-20.57-.37-41.42-.02-61.96,1.04-.23,0-.46,0-.69.04-.15.02-.25.15-.23.3.02.15.15.27.29.25.2-.01.41-.02.61-.03,1.38.06,2.63,1.04,3.39,2.25-.08.03-.14.1-.16.18-.12.44-.3.84-.54,1.22-.04-.03-.09-.04-.14-.04l-38.38-.24c-.53-.09-1.09-.1-1.65,0-.14.02-.24.15-.23.29.01.14.13.25.27.25h1.56c2.09.4,3.85,2.25,4.59,4.17.99,2.56.78,5.41.57,8.17-1.37,18.01-1.97,36.29-1.78,54.35.06,5.38.2,10.23,1.41,15,.33,1.32.79,2.67,1.86,3.52,1.17.94,2.82,1.03,4.03,1.09l25.69,1.39c-4.98.91-489.54,1.08-948.35.9v.57c459.24.17,944.49-.05,949.34-1.09.99,2.37,2.08,4.53,3.06,6.35-1.19-.24-2.88-.5-3.83-.12-.67.27-1.25.89-1.48,1.59-.17.54-.12,1.08.16,1.52.37.58,1.02.86,1.55,1.05,2.26.79,5.75,1.11,9.8,1.11,6.11,0,13.46-.75,19.6-1.77,3.39-.57,7.27-.96,11.02-1.35,6.8-.7,13.84-1.42,18.68-3.18.77-.28,1-.99.88-1.57-.14-.69-.73-1.15-1.43-1.1-.09,0-.18,0-.27.01.93-4.53,1.73-15.74,2.15-29.07l.33,3.82c.04.43.08,1.01.46,1.43.43.49,1.13.57,1.59.63,4.65.57,10.08,1.24,15.52,1.92,5.43.68,10.86,1.36,15.5,1.92.11.02.22-.04.27-.14.06-.1.04-.22-.03-.31-.2-.25-.41-.51-.61-.77,1.11.37,2.34.21,3.44.02.88-.15,1.75-.33,2.63-.52-3.7,1.44-7.52,2.59-11.51,2.85-3.54.23-7.11-.27-10.57-.75-1.55-.22-4.05-.67-6.47-1.1-2.42-.44-4.92-.89-6.49-1.1-.7-.1-1.65-.23-2.43.21-.71.4-1.08,1.15-1.38,1.75-.9,1.81-1.14,11.11-.52,13.34.57,2.06,2.49,3.84,5.02,4.63.92.29,4.56.61,9.16,1.02,4.15.37,8.95.79,12.92,1.3,1.37.36,2.75.62,4.14.78,2.89.64,5.81,1.12,8.78,1.27,2.96.15,5.95-.05,8.85-.23,2.18-.14,4.42-.29,6.63-.29h.02c2.26,0,4.56.15,6.78.3.61.04,26.97.08,81.21.12v-.55ZM1069.33,81.06c-.1,1.7-.81,3.43-2.24,5.45,1.32-2.2,1.99-4.63,1.88-6.99-.02-.42-.07-.84-.16-1.27.39.83.58,1.8.52,2.8ZM1060.33,74.86c1.25-.47,2.41-.85,3.52-.85.38,0,.75.05,1.12.15.87.25,1.58.78,2.11,1.48-.04-.02-.08-.04-.12-.06-1.33-.61-2.84-.52-4.15-.38-2.2.23-4.38.62-6.53,1.16l4.05-1.51ZM1046.65,81.57c1.45-1.73,3.71-2.72,5.61-3.39,3.42-1.22,7-2.04,10.61-2.42,1.24-.13,2.66-.22,3.86.33.38.17.72.41,1.03.7.4.87.61,1.84.66,2.77.2,4.02-2.04,8.29-5.86,11.14-3,2.24-6.9,3.74-12.25,4.7-.44.08-.91.15-1.34.14,0-.71-.26-1.4-.53-2.06-.21-.5-.43-1-.64-1.51-.7-1.6-1.42-3.26-1.76-4.98-.41-2.06-.19-3.97.61-5.42ZM1048.03,95.32c-.85-.42-1.25-1.44-1.58-2.46-.92-2.82-1.8-5.96-1.12-8.67-.08.92-.03,1.89.18,2.9.36,1.78,1.09,3.47,1.8,5.09.22.5.43,1,.64,1.5.24.57.46,1.18.49,1.77-.14-.03-.27-.08-.39-.14ZM1048.93,96.09c.49.02.99-.06,1.48-.15,5.16-.93,8.99-2.35,11.99-4.45-3.99,3.21-8.96,5.27-14.21,6,.36-.38.63-.85.73-1.41ZM1006.46,5.06c1.25,6.44,1.96,16.66,2.27,28-.03.02-.05.03-.08.05-.09.06-.14.16-.12.26.01.09.02.18.03.28-.03,0-.06,0-.08.01-.03-8.59-.09-17.46-2.15-25.98-.19-.78-.45-1.65-1.2-2.1-.44-.26-.96-.31-1.38-.34-.27-.02-.55-.05-.82-.07l3.53-.12ZM949.59,1.65c19.56-.98,39.37-1.3,58.94-.98-.41.34-.75.8-1.09,1.26-.46.61-.93,1.25-1.53,1.56-.57.29-1.27.31-1.89.32l-38.41.74c-4.33.08-8.79.17-13.07,1.22-.07-.31-.16-.62-.26-.93-.45-1.27-1.43-2.52-2.68-3.18ZM956.48,79.42c.14,5.55.3,11.85,3.25,17.13.47.84,1.13,1.89,2.15,2.58.93.64,2.03.9,2.99,1.09.97.2,1.94.36,2.92.48-1.32,0-2.64-.06-3.95-.15-2.55-.18-5.47-.59-7.78-2.23-4.09-2.89-4.98-8.48-5.32-14.09-1.48-24.27-.88-48.82,1.78-72.98.16-1.47.33-2.98.18-4.45l3.83-.12c-.34.16-.64.37-.87.68-.52.69-.51,1.62-.5,2.3.29,23.13.74,46.6,1.32,69.75ZM952.84,6.26c4.17-.99,8.53-1.08,12.77-1.16l5.39-.1c-3.58.25-7.16.59-10.72,1.02l-7.43.24ZM985.81,5.04c1.16,0,2.33,0,3.49.03l-20.92.69c5.79-.48,11.61-.71,17.42-.71ZM952,5.9c-.23.06-.46.12-.69.19.09-.5.18-1,.27-1.5.06.14.12.28.17.42.1.29.18.59.25.88ZM922.68,91.41c-1.47-.08-2.76-.21-3.71-.97-.94-.76-1.36-2-1.67-3.23-1.19-4.72-1.33-9.53-1.39-14.88-.19-18.04.41-36.31,1.78-54.3.21-2.82.44-5.74-.6-8.41-.61-1.58-1.87-3.12-3.45-3.95l36.41.23c-.42.98-2.21,1.03-2.78,1.02-5.48-.09-10.31.19-14.98.45-4.66.27-9.48.54-14.94.45-.15-.02-.26.1-.28.25-.02.14.08.27.22.3,10.81,2.29,27.89,3.47,33.02-1.79,0,.02,0,.05,0,.07.02.14.12.24.28.23h.02c-1.43,7.96-2.83,16.14-3.48,24.3-.48,6.04-.56,12.19-.64,18.14l-.31,23.49c-.05,3.33-.09,6.77.24,10.15.33,3.4,1.34,6.78,2.57,9.87l-26.3-1.43ZM948.24,7.43c-5.6,3.14-17.95,2.72-27.93.97,4.28-.03,8.2-.25,12-.47,4.66-.27,9.49-.54,14.94-.45.35,0,.68,0,.98-.05ZM1007.39,96.79c.53-.02.8.34.86.66.06.32-.03.76-.53.94-4.78,1.74-11.78,2.46-18.55,3.15-3.76.38-7.65.78-11.06,1.35-10.12,1.69-23.54,2.63-29.12.68-.44-.15-.99-.39-1.27-.82-.24-.38-.19-.78-.1-1.05.17-.54.63-1.03,1.15-1.24.27-.11.64-.15,1.05-.15,1.03,0,2.32.27,3.04.42.1.02.21-.02.28-.1.06-.09.07-.2.02-.3-1.03-1.89-2.22-4.2-3.28-6.74.19-.05.38-.09.56-.14.13-.03.22-.16.2-.29-.01-.14-.12-.24-.26-.25l-.8-.04c-1.25-3.11-2.3-6.53-2.63-9.96-.33-3.36-.28-6.78-.24-10.09l.31-23.49c.08-5.94.16-12.09.64-18.1.65-8.17,2.06-16.38,3.5-24.36l.98-.03c.15,1.43-.02,2.92-.17,4.37-2.67,24.19-3.27,48.78-1.79,73.08.35,5.74,1.27,11.48,5.55,14.51,2.42,1.71,5.44,2.14,8.06,2.33,3.23.23,6.48.18,9.74-.04,5.98.03,12.13-.89,18.11-1.78,4.93-.74,10.03-1.5,14.91-1.7.12,0,.22-.08.25-.2.05-.17.1-.37.16-.58.14,0,.28-.02.42-.02ZM986.72,99.45c1.01-.16,2.01-.32,3.01-.48,5.47-.87,11.11-1.77,16.66-2.13-.02.07-.04.14-.05.2-4.85.22-9.89.97-14.77,1.7-1.61.24-3.22.48-4.85.71ZM1008.88,54.75c-.12.02-.22.13-.23.26,0,.14.09.25.22.28,0,.26,0,.51,0,.76-.31.88-.4,2.04-.28,3.49l.18,2.11c-.34,15.84-1.21,29.72-2.25,34.62-5.63.35-11.35,1.26-16.88,2.15-5.3.85-10.72,1.71-16.12,2.09-2.89-.02-5.75-.25-8.54-.83-.91-.19-1.94-.43-2.79-1.01-.92-.63-1.54-1.61-1.98-2.4-2.88-5.17-3.04-11.39-3.18-16.88-.58-23.15-1.03-46.62-1.32-69.74,0-.78.01-1.46.39-1.96.46-.61,1.34-.77,2.19-.88.68-.09,1.35-.17,2.03-.26l37.09-1.21c2.1.11,4.2.26,6.3.44.38.03.81.07,1.14.26.56.33.78,1.08.94,1.75,2.07,8.57,2.1,17.52,2.14,26.18,0,.08.04.16.1.21.06.05.14.07.23.06.12-.02.25-.04.37-.06.27,2.7.23,5.39.19,8-.04,2.35-.08,4.77.11,7.21,0,1.79-.02,3.57-.04,5.34ZM1045.56,57.4c3.9-1.57,8-2.65,12.16-3.23,1.71-.24,3.5-.37,5.07.21,1.54.58,2.75,1.86,3.41,3.61.85,2.28.67,5-.46,7.1-1.28,2.36-3.43,4.27-6.68,5.9,1.81-1.02,3.51-2.27,4.82-3.95,2.31-2.97,2.96-7.86,0-10.58-1.61-1.48-3.77-1.88-5.79-1.88-1.04,0-2.04.11-2.91.23-5.79.81-10.03,2.62-12.95,5.53-.31.31-.62.65-.9,1.01-.03-.06-.07-.12-.1-.18-.14-.23-.31-.42-.51-.58.94-1.21,2.54-2.25,4.87-3.18ZM1040.97,63.4c-.46.54-.83,1.1-1.14,1.68.34-.91.79-1.77,1.31-2.56.05.34.01.66-.17.88ZM1039.01,60.37c.31.11.62.23.91.38-.25.4-.45.83-.59,1.29-5.64-2.6-13.13-4.79-20.51-6.1,7.08.84,14.52,2.43,20.19,4.43ZM1012.33,53.96c-.7.02-1.38.05-1.99.35-.24.12-.46.26-.65.44-.06,0-.13,0-.19,0,0-.8.02-1.61.02-2.42.38.42.98.55,1.38.64,1.52.34,3.08.69,4.68,1.02-1.14-.04-2.22-.05-3.25-.03ZM1058.93,34.78c1.77.68,3.36,2.52,4.26,4.92.89,2.37.9,4.77.03,6.42-1.3,2.47-4.25,3.52-7.16,4.38-6.36,1.89-12.94,3.84-19.67,4.32-1.41.1-2.96.12-4.59.08.48-.08.95-.17,1.43-.28.11-.02.19-.11.21-.22.02-.11-.03-.22-.12-.28-1.08-.71-1.54-1.79-2.02-2.95-.3-.71-.6-1.44-1.06-2.09-1.03-1.47-1.54-5.77-.9-7.55.34-.93,1.85-2.49,7.49-4.26,3.82-.35,7.74-1.12,11.55-1.86,2.48-.48,5.03-.98,7.53-1.36,1.03.12,2.05.35,3.03.72ZM1040.32,36.3c1.74-.44,3.74-.89,6.05-1.33l.38-.07c1.9-.38,4.05-.8,6.22-.91-1.58.28-3.16.59-4.72.89-2.62.51-5.29,1.03-7.94,1.42ZM1009.35,33.31c6.27-3.99,13.4-4.97,23.06-3.18,7.97,1.47,15.9,2.6,23.63,3.35-.05,0-.09.01-.14.02-3.18-.35-6.47.3-9.24.85l-.38.07c-3.82.74-7.02,1.51-9.61,2.32-.62.06-1.24.1-1.85.13-4.89.26-9.28-.22-14.22-1.55l-.3-.08c-3.07-.83-6.46-1.74-9.66-1.74-.43,0-.86.02-1.28.05,0-.08,0-.16,0-.24ZM1020.15,35.78l.3.08c4.92,1.33,9.31,1.82,14.16,1.58-3.35,1.24-5.29,2.55-5.79,3.91-.71,1.93-.17,6.45.96,8.06.43.61.72,1.31,1.01,1.99.42,1.01.86,2.04,1.73,2.82-1.57.31-3.16.48-4.76.53-1.58-.09-3.18-.2-4.76-.32-1-.07-1.99-.14-2.95-.2-3.1-.46-6.14-1.14-9.02-1.79-.48-.11-.93-.23-1.16-.55-.16-.23-.2-.55-.24-.84-.04-.3-.07-.59-.1-.89.02-5.39-.03-10.82-.17-16.04,3.48-.3,7.34.74,10.78,1.67ZM1027.2,74.44c-5.44-.68-10.87-1.36-15.52-1.92-.5-.06-.98-.14-1.24-.45-.23-.26-.28-.66-.32-1.11l-.75-8.71c.05-2.06.09-4.15.11-6.26.11-.24.24-.45.39-.63,9.88.71,21.61,3.61,29.52,7.32.08.04.16.04.24,0,.08-.04.13-.1.15-.19.12-.51.32-.99.6-1.45.14.12.26.25.36.41.07.12.14.26.2.39-2.33,3.26-3.39,7.98-1.07,11.74.39.63.82,1.14,1.3,1.51.26.39.55.79.86,1.19-4.49-.55-9.65-1.19-14.82-1.84ZM1045.61,75.17c-1.19.21-2.45.37-3.51-.13-.18-.08-.35-.19-.52-.32-2.09-3.18-3.32-7.23-.18-10.96.41-.49.38-1.19.17-1.82.33-.43.68-.83,1.04-1.2,2.83-2.82,6.96-4.58,12.63-5.37,2.46-.35,6-.57,8.26,1.51,2.65,2.43,2.11,7.05-.06,9.84-2.31,2.97-5.96,4.57-9.19,5.99-.74.33-1.48.65-2.23.97-2.11.62-4.25,1.13-6.41,1.5Z"/>
        <path class="cls-1" d="M950.75,6.07c-.01.07-.02.14-.04.2-.06.02-.12.04-.18.06.07-.09.15-.17.21-.26"/>
      </g>
      <g>
        <path class="cls-1" d="M610.19,19.42c0,.39-.06.89-.32,1.04-.15.08-.63.22-2.19.22s-1.98-.32-2.05-.45c-.11-.19-.3-.95-.3-3.83,0-1.15.24-1.48.38-1.57.16-.1.71-.28,2.6-.28,1.04,0,1.38.14,1.49.22.09.07.26.31.26,1.04v.5h1.58l-.02-.48c0-.99-.24-1.68-.72-2.05-.46-.36-1.3-.53-2.56-.53-1.81,0-2.98.17-3.55.54-.51.32-.82.69-.93,1.11-.1.39-.15,1.27-.15,2.69,0,1.86.23,3.02.7,3.56.48.55,1.51.81,3.17.81,1.83,0,2.91-.14,3.4-.45.52-.33.77-1.07.77-2.27v-.57h-1.58l.02.74Z"/>
        <rect class="cls-1" x="616.11" y="13.34" width="1.57" height="8.55"/>
        <path class="cls-1" d="M628.16,19.53c-.03.07-.08.18-.15.33l-3.11-6.52h-2.25v8.55h1.58v-6.42l3.11,6.42h1.38l3.09-6.48v6.48h1.58v-8.55h-2.28l-2.95,6.19Z"/>
        <polygon class="cls-1" points="637.94 21.89 644.45 21.89 644.45 20.6 639.52 20.6 639.52 18.13 644.24 18.13 644.24 16.84 639.52 16.84 639.52 14.63 644.45 14.63 644.45 13.34 637.94 13.34 637.94 21.89"/>
        <polygon class="cls-1" points="655.86 20.08 651.08 13.34 648.97 13.34 648.97 21.89 650.54 21.89 650.54 15.19 655.32 21.89 657.44 21.89 657.44 13.34 655.86 13.34 655.86 20.08"/>
        <polygon class="cls-1" points="661.55 14.71 664.58 14.71 664.58 21.89 666.15 21.89 666.15 14.71 669.16 14.71 669.16 13.34 661.55 13.34 661.55 14.71"/>
        <path class="cls-1" d="M676.92,14.55c1.52,0,2.08.17,2.29.31.18.13.4.49.4,1.47v1.28c0,2.15-.21,2.63-.3,2.73-.07.08-.45.33-2.39.33s-2.32-.25-2.39-.33c-.09-.1-.31-.58-.31-2.73s.22-2.62.31-2.73c.07-.08.45-.33,2.39-.33M680.41,14c-.5-.5-1.64-.74-3.49-.74-1.59,0-2.66.21-3.27.63-.63.44-.95,1.25-.95,2.4v1.33c-.01,1.93.22,3.12.7,3.61.49.5,1.64.74,3.51.74s3.04-.25,3.52-.75c.47-.5.71-1.72.71-3.71,0-1.86-.24-3-.74-3.5"/>
        <path class="cls-1" d="M586.2,46.01c0,2.93.61,5.11,1.84,6.53,1.23,1.42,2.79,2.13,4.67,2.13,1.66,0,3.04-.68,4.16-2.05,1.12-1.36,1.68-3.67,1.68-6.93,0-3-.59-5.21-1.75-6.61-1.15-1.42-2.59-2.12-4.26-2.12-1.82,0-3.34.71-4.54,2.13-1.22,1.42-1.81,3.73-1.81,6.91M554.87,46.84c-1.96.7-3.99,1.32-6.1,1.86-2.88.76-4.72,1.52-5.48,2.26-.8.77-1.19,1.65-1.19,2.62,0,1.12.4,2.03,1.17,2.74.79.7,1.93,1.06,3.44,1.06s3.05-.38,4.42-1.14c1.36-.78,2.32-1.72,2.89-2.81.57-1.11.85-2.55.85-4.32v-2.28ZM630.12,45.97c0,3.31.67,5.76,2.01,7.33,1.34,1.59,3.02,2.39,5.04,2.39s3.73-.79,5.04-2.35c1.32-1.56,1.98-4.05,1.98-7.51,0-3.21-.67-5.6-1.99-7.17-1.32-1.56-2.97-2.35-4.92-2.35-2.07,0-3.79.8-5.13,2.39-1.35,1.6-2.03,4.03-2.03,7.28M615.88,46.01c0-5.65,1.91-10.32,5.72-13.98,3.83-3.67,8.97-5.51,15.47-5.51,7.42,0,13.04,2.16,16.83,6.46,3.05,3.47,4.58,7.75,4.58,12.82,0,5.7-1.9,10.37-5.67,14.02-3.78,3.63-9.01,5.46-15.7,5.46-5.96,0-10.77-1.51-14.45-4.54-4.52-3.74-6.77-8.65-6.77-14.73M688.16,45.8c0-2.92-.61-5.09-1.85-6.52-1.23-1.43-2.79-2.15-4.67-2.15-1.66,0-3.04.69-4.16,2.06-1.12,1.37-1.68,3.67-1.68,6.91,0,3.03.59,5.24,1.73,6.65,1.16,1.41,2.59,2.11,4.28,2.11,1.83,0,3.34-.7,4.54-2.12,1.22-1.43,1.81-3.74,1.81-6.95M702.41,13.26v51.18h-13.3v-5.48c-1.87,2.32-3.56,3.89-5.1,4.72-2.05,1.06-4.33,1.6-6.84,1.6-5.05,0-8.91-1.92-11.58-5.76-2.66-3.84-3.99-8.51-3.99-14,0-6.15,1.46-10.85,4.42-14.1,2.94-3.27,6.69-4.9,11.21-4.9,2.21,0,4.22.38,6.03,1.12,1.8.75,3.4,1.86,4.8,3.35V13.26h14.35ZM705.53,26.05h14.22v38.39h-14.22V26.05ZM705.53,13.26h14.22v9.68h-14.22v-9.68ZM531.18,32.34c.97-1.36,2.35-2.54,4.18-3.54,1.3-.73,3.1-1.29,5.37-1.68,2.28-.39,4.74-.59,7.4-.59,4.25,0,7.69.24,10.26.71,2.59.48,4.74,1.48,6.46,2.99,1.22,1.05,2.17,2.52,2.87,4.44.7,1.93,1.04,3.76,1.04,5.51l.07,24.26h-13.14l-.02-4.54c-1.86,1.8-3.72,3.08-5.55,3.84-2.51,1.03-5.44,1.54-8.76,1.54-4.42,0-7.78-1.03-10.08-3.08-2.29-2.04-3.43-4.56-3.43-7.57,0-2.82.82-5.14,2.48-6.95,1.66-1.82,4.7-3.17,9.14-4.05,5.34-1.07,8.79-1.82,10.38-2.25,1.57-.43,3.26-1,5.02-1.69,0-5.1-10.29-6.12-12.33-.32h-14.25c.55-2.44,1.42-4.96,2.89-7.03M571.95,78.55V27.37h13.3v5.48c1.84-2.31,3.53-3.87,5.07-4.68,2.07-1.1,4.36-1.64,6.87-1.64,4.96,0,8.79,1.91,11.51,5.7,2.7,3.79,4.06,8.48,4.06,14.08,0,6.16-1.48,10.87-4.43,14.12-2.96,3.24-6.7,4.86-11.2,4.86-2.19,0-4.2-.37-5.99-1.11-1.8-.75-3.42-1.86-4.84-3.32v17.71h-14.35Z"/>
        <polygon class="cls-1" points="453.93 13.19 494.41 78.56 527.85 78.56 487.37 13.19 453.93 13.19"/>
        <polygon class="cls-1" points="471.82 51.6 454.98 78.55 421.55 78.55 455.17 24.71 471.82 51.6"/>
      </g>
    </g>
  </g>
</svg>