<?xml version="1.0" encoding="UTF-8"?>
<svg id="Layer_2" data-name="Layer 2" xmlns="http://www.w3.org/2000/svg" viewBox="0 0 1993.44 133.48">
  <defs>
    <style>
      .cls-1 {
        fill: #fff;
        stroke-width: 0px;
      }
    </style>
  </defs>
  <g id="Layer_1-2" data-name="Layer 1">
    <g>
      <g>
        <path class="cls-1" d="M1047.43,48.18c0,.39-.06.89-.32,1.04-.15.08-.63.22-2.19.22s-1.98-.32-2.05-.45c-.11-.19-.3-.95-.3-3.83,0-1.15.24-1.48.38-1.57.16-.1.71-.28,2.6-.28,1.04,0,1.38.14,1.49.22.09.07.26.31.26,1.04v.5h1.58l-.02-.48c0-.99-.24-1.68-.72-2.05-.46-.36-1.3-.53-2.56-.53-1.81,0-2.98.17-3.55.54-.51.32-.82.69-.93,1.11-.1.39-.15,1.27-.15,2.69,0,1.86.23,3.02.7,3.56.48.55,1.51.81,3.17.81,1.83,0,2.91-.14,3.4-.45.52-.33.77-1.07.77-2.27v-.57h-1.58l.02.74Z"/>
        <rect class="cls-1" x="1053.35" y="42.1" width="1.57" height="8.55"/>
        <path class="cls-1" d="M1065.4,48.29c-.03.07-.08.18-.15.33l-3.11-6.52h-2.25v8.55h1.58v-6.42l3.11,6.42h1.38l3.09-6.48v6.48h1.58v-8.55h-2.28l-2.95,6.19Z"/>
        <polygon class="cls-1" points="1075.18 50.65 1081.69 50.65 1081.69 49.36 1076.76 49.36 1076.76 46.89 1081.48 46.89 1081.48 45.6 1076.76 45.6 1076.76 43.39 1081.69 43.39 1081.69 42.1 1075.18 42.1 1075.18 50.65"/>
        <polygon class="cls-1" points="1093.11 48.84 1088.32 42.1 1086.21 42.1 1086.21 50.65 1087.79 50.65 1087.79 43.95 1092.56 50.65 1094.68 50.65 1094.68 42.1 1093.11 42.1 1093.11 48.84"/>
        <polygon class="cls-1" points="1098.79 43.47 1101.82 43.47 1101.82 50.65 1103.39 50.65 1103.39 43.47 1106.4 43.47 1106.4 42.1 1098.79 42.1 1098.79 43.47"/>
        <path class="cls-1" d="M1114.16,43.31c1.52,0,2.08.17,2.29.31.18.13.4.49.4,1.47v1.28c0,2.15-.21,2.63-.3,2.73-.07.08-.45.33-2.39.33s-2.32-.25-2.39-.33c-.09-.1-.31-.58-.31-2.73s.22-2.62.31-2.73c.07-.08.45-.33,2.39-.33M1117.66,42.76c-.5-.5-1.64-.74-3.49-.74-1.59,0-2.66.21-3.27.63-.63.44-.95,1.25-.95,2.4v1.33c-.01,1.93.22,3.12.7,3.61.49.5,1.64.74,3.51.74s3.04-.25,3.52-.75c.47-.5.71-1.72.71-3.71,0-1.86-.24-3-.74-3.5"/>
        <path class="cls-1" d="M1023.44,74.77c0,2.93.61,5.11,1.84,6.53,1.23,1.42,2.79,2.13,4.67,2.13,1.66,0,3.04-.68,4.16-2.05,1.12-1.36,1.68-3.67,1.68-6.93,0-3-.59-5.21-1.75-6.61-1.15-1.42-2.59-2.12-4.26-2.12-1.82,0-3.34.71-4.54,2.13-1.22,1.42-1.81,3.73-1.81,6.91M992.11,75.6c-1.96.7-3.99,1.32-6.1,1.86-2.88.76-4.72,1.52-5.48,2.26-.8.77-1.19,1.65-1.19,2.62,0,1.12.4,2.03,1.17,2.74.79.7,1.93,1.06,3.44,1.06s3.05-.38,4.42-1.14c1.36-.78,2.32-1.72,2.89-2.81.57-1.11.85-2.55.85-4.32v-2.28ZM1067.36,74.73c0,3.31.67,5.76,2.01,7.33,1.34,1.59,3.02,2.39,5.04,2.39s3.73-.79,5.04-2.35c1.32-1.56,1.98-4.05,1.98-7.51,0-3.21-.67-5.6-1.99-7.17-1.32-1.56-2.97-2.35-4.92-2.35-2.07,0-3.79.8-5.13,2.39-1.35,1.6-2.03,4.03-2.03,7.28M1053.12,74.77c0-5.65,1.91-10.32,5.72-13.98,3.83-3.67,8.97-5.51,15.47-5.51,7.42,0,13.04,2.16,16.83,6.46,3.05,3.47,4.58,7.75,4.58,12.82,0,5.7-1.9,10.37-5.67,14.02-3.78,3.63-9.01,5.46-15.7,5.46-5.96,0-10.77-1.51-14.45-4.54-4.52-3.74-6.77-8.65-6.77-14.73M1125.4,74.56c0-2.92-.61-5.09-1.85-6.52-1.23-1.43-2.79-2.15-4.67-2.15-1.66,0-3.04.69-4.16,2.06-1.12,1.37-1.68,3.67-1.68,6.91,0,3.03.59,5.24,1.73,6.65,1.16,1.41,2.59,2.11,4.28,2.11,1.83,0,3.34-.7,4.54-2.12,1.22-1.43,1.81-3.74,1.81-6.95M1139.65,42.02v51.18h-13.3v-5.48c-1.87,2.32-3.56,3.89-5.1,4.72-2.05,1.06-4.33,1.6-6.84,1.6-5.05,0-8.91-1.92-11.58-5.76-2.66-3.84-3.99-8.51-3.99-14,0-6.15,1.46-10.85,4.42-14.1,2.94-3.27,6.69-4.9,11.21-4.9,2.21,0,4.22.38,6.03,1.12,1.8.75,3.4,1.86,4.8,3.35v-17.73h14.35ZM1142.77,54.81h14.22v38.39h-14.22v-38.39ZM1142.77,42.02h14.22v9.68h-14.22v-9.68ZM968.42,61.1c.97-1.36,2.35-2.54,4.18-3.54,1.3-.73,3.1-1.29,5.37-1.68,2.28-.39,4.74-.59,7.4-.59,4.25,0,7.69.24,10.26.71,2.59.48,4.74,1.48,6.46,2.99,1.22,1.05,2.17,2.52,2.87,4.44.7,1.93,1.04,3.76,1.04,5.51l.07,24.26h-13.14l-.02-4.54c-1.86,1.8-3.72,3.08-5.55,3.84-2.51,1.03-5.44,1.54-8.76,1.54-4.42,0-7.78-1.03-10.08-3.08-2.29-2.04-3.43-4.56-3.43-7.57,0-2.82.82-5.14,2.48-6.95,1.66-1.82,4.7-3.17,9.14-4.05,5.34-1.07,8.79-1.82,10.38-2.25,1.57-.43,3.26-1,5.02-1.69,0-5.1-10.29-6.12-12.33-.32h-14.25c.55-2.44,1.42-4.96,2.89-7.03M1009.19,107.32v-51.19h13.3v5.48c1.84-2.31,3.53-3.87,5.07-4.68,2.07-1.1,4.36-1.64,6.87-1.64,4.96,0,8.79,1.91,11.51,5.7,2.7,3.79,4.06,8.48,4.06,14.08,0,6.16-1.48,10.87-4.43,14.12-2.96,3.24-6.7,4.86-11.2,4.86-2.19,0-4.2-.37-5.99-1.11-1.8-.75-3.42-1.86-4.84-3.32v17.71h-14.35Z"/>
        <polygon class="cls-1" points="891.17 41.95 931.65 107.32 965.09 107.32 924.61 41.95 891.17 41.95"/>
        <polygon class="cls-1" points="909.07 80.36 892.23 107.32 858.79 107.32 892.41 53.47 909.07 80.36"/>
      </g>
      <g>
        <path class="cls-1" d="M.78,133.29h1687.57c4.05,0,8.21.28,12.25,0,2.46-.17,3.9-2.33,2.9-4.65-.41-.95-1.05-1.85-1.57-2.74-3.4-5.89-6.8-11.78-10.2-17.67-7.54-13.06-15.07-26.11-22.61-39.17-4.19-7.25-6.87-15.01-6.87-23.47,0-11.32,4.54-22.42,12.36-30.58,16.85-17.58,46.03-17.69,63.01-.22,7.87,8.11,12.49,19.18,12.57,30.49.06,8.5-2.56,16.35-6.78,23.63-7.55,13.03-15.1,26.07-22.65,39.1-3.41,5.89-6.83,11.79-10.24,17.68-.54.93-1.19,1.86-1.65,2.85-1.14,2.47.49,4.63,3.05,4.74,9.72.44,19.57,0,29.3,0h251.47c1.03,0,1.03-1.61,0-1.61h-277.86c-.89,0-2.14.23-3.01,0-2.41-.63-1.65-2.17-.84-3.57,1.16-2.01,2.32-4.01,3.49-6.02,8.34-14.39,16.68-28.79,25.02-43.18,2.05-3.54,4.13-7.08,6.16-10.63,5.34-9.36,7.36-20.24,5.42-30.86-4-21.85-23.68-37.89-45.86-37.41-22.18.48-41.08,17.47-44.11,39.43-1.39,10.06.79,20.16,5.81,28.95,2.28,3.99,4.59,7.95,6.89,11.93,8.26,14.31,16.52,28.62,24.78,42.93.9,1.55,5.76,7.74,2.02,8.43-1.21.22-2.67,0-3.9,0H.78c-1.03,0-1.03,1.61,0,1.61h0Z"/>
        <path class="cls-1" d="M1706.21,65.66c-2.27,0-4.37-.33-6.55-1.04-2.02-.66-3.93-1.62-5.71-2.89-3.38-2.41-6.11-5.97-7.53-9.88-1.53-4.21-1.7-8.76-.48-13.04,1.17-4.11,3.57-7.76,6.89-10.51.76-.63,1.64-1.25,2.56-1.8.47-.28.94-.54,1.43-.79.44-.22.97-.46,1.34-.62,2.05-.84,4.25-1.36,6.37-1.52,4.44-.34,8.83.69,12.62,2.99,1.82,1.11,3.39,2.42,4.83,4.04,1.38,1.55,2.55,3.35,3.44,5.3.22.49.39.9.59,1.45.18.51.35,1.02.49,1.54.29,1.04.52,2.2.63,3.18.13,1.14.17,2.3.12,3.45-.05,1.16-.17,2.14-.4,3.26-.87,4.24-2.99,8.06-6.1,11.04-3.1,2.97-7.05,4.92-11.35,5.6-.96.15-2.13.24-3.21.24-1.03,0-1.03,1.61,0,1.61,4.67,0,9.3-1.45,13.1-4.17,3.75-2.68,6.63-6.44,8.22-10.77,1.62-4.43,1.79-9.39.5-13.93-1.24-4.37-3.83-8.35-7.34-11.24-3.62-2.99-8.07-4.8-12.75-5.16-4.68-.37-9.46.77-13.47,3.21-3.87,2.35-7.02,5.87-8.89,9.99-1.98,4.37-2.53,9.28-1.58,13.98.91,4.49,3.24,8.66,6.55,11.82,3.31,3.16,7.58,5.3,12.11,5.99,1.17.18,2.36.28,3.54.28,1.03,0,1.03-1.6,0-1.61Z"/>
      </g>
    </g>
  </g>
</svg>