<?xml version="1.0" encoding="UTF-8"?>
<svg id="Layer_2" data-name="Layer 2" xmlns="http://www.w3.org/2000/svg" viewBox="0 0 1152.48 190.14">
  <defs>
    <style>
      .cls-1 {
        fill: #fff;
        stroke-width: 0px;
      }
    </style>
  </defs>
  <g id="Layer_1-2" data-name="Layer 1">
    <g>
      <g>
        <path class="cls-1" d="M1152.48,189.34c-88.82.09-153.77.02-154.39-.5-.49-.41-.73-1.05-.73-1.93.43-3.22.58-6.28.74-9.25.21-4.11.41-8,1.27-12.3.49-2.92.07-5.36-.76-8.35-.26-.92-.17-1.98-.09-3.01.12-1.53.24-3.12-.7-4.38-.06-.08-.15-.11-.24-.1-.09.01-.17.07-.21.16-.14.37-.28.76-.43,1.18-.58,1.69-1.24,3.6-2.67,4.39-1.68.94-2.24-.04-3.01-1.4-.11-.2-.23-.41-.35-.6-.51-.83-1.1-1.26-1.76-1.28h-.04c-1,0-1.88.98-2.44,1.81-1.35,2-2.46,4.19-3.53,6.31-1.09,2.14-2.2,4.33-3.57,6.35-.07-.04-.17-.06-.27-.04-.45.07-1.4.86-1.68,1.58-.24-.51-.1-1.09.04-1.69.08-.33.15-.65.16-.94.25-1.49.63-3,.99-4.47.37-1.48.75-3.02,1.01-4.53,0-.01,0-.03,0-.04,0-1.18-.57-3.77-2.26-3.77-.02,0-.04,0-.06,0-1.85.46-3.28,1.74-4.67,2.98-1.65,1.48-3.22,2.87-5.43,3.02.55-1.42,1.48-2.64,2.38-3.83.66-.87,1.34-1.77,1.88-2.75.16-.14.26-.41.32-.64,0-.02,0-.03,0-.05,5.2.46,11.19-.16,16.24-3.78.01,0,.02-.02.03-.03.95-.95,1.15-2.27,1.34-3.54.05-.34.1-.69.17-1.03.16.09.35.09.5,0,.09.31.18.62.27.93.54,1.94,1.1,3.95,2.96,4.7,1.58.63,4.25.74,6.08-.29,1-.56,1.62-1.4,1.79-2.43.3-2.42.06-4.7-.17-6.91-.16-1.5-.32-3.05-.33-4.68-.17-1.5-.28-3.03-.39-4.5-.22-2.96-.45-6.02-1.11-9.03-.02-.6-.58-1.73-1.22-1.73h0c-1.74-.25-3.49-.41-5.18-.56-5.2-.47-10.11-.91-14.53-3.76.17-.27.32-.54.46-.82.48.25.95.57,1.43.89.69.46,1.4.94,2.17,1.25.82.27,1.52.27,2.08-.01.56-.28.99-.84,1.26-1.65,0-.02.01-.04.01-.06.62-6.18-1.1-11.7-4.62-14.78-.9-.6-2.85-1.51-4.41-1.1-.67.18-1.17.58-1.48,1.2,0,.01-.01.03-.02.04-.04.12-.07.25-.1.37-.02-.02-.05-.03-.08-.04-3.57-1.07-7.17-.39-10.65.27-1.47.28-3,.57-4.52.72-1.71.38-3.2.16-4.59-.39.31-.58.6-1.16.87-1.75.01-.03.02-.06.02-.09.09-1.48.17-2.98.25-4.47,6.77-.25,13.39.88,19.85,1.99,2.36.41,4.77.82,7.2,1.17-.06.04-.11.08-.16.12-.43.43-.81,1.15-.59,2.29-.06.08-.07.2-.01.29.03.04.06.08.11.1.1.34.24.72.45,1.13,0,.01.02.03.03.04,1.89,2.52,3.17,5.22,4.52,8.07.6,1.25,1.21,2.54,1.88,3.83.07.25.26.6.61,1.12,0,.01.02.03.03.04h0s0,0,0,0c0,0,0,0,0,0,0,0,0,0,0,0,0,0,0,0,0,0h0s0,0,0,0h0s0,0,0,0h0s0,0,0,0t0,0s0,0,.01,0h0s0,0,0,0t0,0s0,0,0,0c0,0,0,0,0,0h0s0,0,0,0h0s0,0,0,0c0,0,0,0,0,0h0s0,0,0,0c0,0,0,0,0,0h0s0,0,0,0c0,0,0,0,0,0,0,0,0,0,.01,0,0,0,0,0,0,0h0s0,0,0,0h0s0,0,0,0h0s0,0,0,0h0s0,0,0,0c0,0,0,0,0,0,0,0,.01,0,.02,0h0s0,0,0,0h0s0,0,0,0h0s0,0,0,0h0s0,0,0,0h0s0,0,0,0h0s0,0,0,0h0s0,0,0,0h0s0,0,0,0h0s0,0,0,0c0,0,0,0,0,0h0s0,0,0,0h0s0,0,0,0h0s0,0,0,0h0s0,0,0,0h0s.02,0,.03,0h0s0,0,0,0h0s0,0,0,0h0s0,0,0,0h0s0,0,0,0h0s0,0,0,0h0s0,0,0,0c0,0,0,0,0,0,0,0,0,0,0,0h0s0,0,0,0h0s0,0,0,0h0s0,0,0,0h0s0,0,0,0h0s0,0,0,0t0,0h0s0,0,0,0h0s0,0,0,0h0s0,0,0,0h0s0,0,0,0h0s0,0,0,0h0s0,0,0,0c0,0,0,0,0,0,.03-.01.05-.03.07-.05.3-.3.56-.71.69-1.1.17-.52.11-.97-.19-1.27-.48-.48-.78-.78-.15-1.48,1.21.87,2.08,2.16,3,3.52,1.17,1.74,2.38,3.54,4.4,4.4,4.09,1.53,9.27-.44,10.86-4.16,1.71-4.72,1.26-9.42.77-14.4-.09-.91-.18-1.82-.26-2.78-.29-1.49-.57-2.97-.84-4.43-2.15-11.36-4.19-22.09-8.19-33.22-.29-.68-.62-1.35-1-1.98-.15-2.52-1.28-4.79-3.09-6.15-.01,0-.02-.01-.03-.02-6.72-3.62-13.88-5.01-20.71-4.04-.02,0-.03,0-.05.01-.27.09-.54.21-.82.36.05-.19.1-.37.15-.56.52-2.09-.99-4.21-2.61-5.29-.05-.04-.12-.05-.18-.04-.14-.6-.32-1.19-.54-1.77,1.29-2.32,2.15-4.8,2.33-7.47.08-1,.18-2,.28-3,.24-2.5.49-5.05.51-7.61,1.26-.92,2.71-2.37,3.21-4.38,0-.02,0-.04,0-.06,0-1.55,0-3.15-1.62-4.23-.01,0-.02-.01-.04-.02-.46-.21-.91-.4-1.37-.57-1.55-5.31-6.56-9.66-12.66-10.88-.11-.03-.23-.05-.36-.07-1.01-.97-2.19-1.62-3.65-1.66-1.46-.04-2.48.31-3.1,1.06-.49.59-.67,1.37-.68,2.25-.12-.15-.26-.27-.42-.38-.59-.39-1.39-.42-2.37-.08-2.5.87-4.64,4.16-5.45,5.53-1,1.71-1.51,3.45-2.06,5.3-.18.62-.37,1.26-.58,1.9-.73,2.24-1.28,4.22-.95,6.15-.2.19-.42.36-.67.49-.96.48-.79,1.65-.69,2.35.02.14.04.28.04.36-.2,1.02.06,2.08.73,3.06.97,1.4,2.64,2.42,4.48,2.73,0,0,.01,0,.02,0,0,0,.03,0,.03,0h0c.06,0,.12-.02.16-.05.05-.04.09-.1.1-.16h0s0,0,0,0h0s0-.01,0-.01c.25.59.49,1.21.49,1.98,0,.4.44.69.88.79.53.12,1.27.02,1.62-.68.03-.06.06-.13.09-.19.07.47.14.94.21,1.42.58,3.93,1.18,7.99,3.25,11.32.05.08.13.12.22.12.09,0,.17-.05.22-.13.27-.48.58-.75.93-.85.7-.19,1.61.36,2.49.89,1.2.72,2.56,1.55,3.68.58.06-.06.1-.14.09-.23-.01-.09-.06-.16-.14-.2-2.42-1.21-4.49-2.98-6.12-5.21,2.1,1.45,4.47,2.36,6.9,2.64,3.19.36,6.23-.45,8.7-2.3.02.13.07.22.12.28,0,.01.02.02.03.03-2.34,3.75-5.77,7.07-9.05,10.05-.03.03-.06.06-.07.1-.17.47-.33.95-.49,1.42-1.25.16-2.62-.13-4.17-1.06-1.41-.7-2.03-2.21-2.68-3.98.01,0,.02-.02.03-.03.2-.19.25-.55-.77-1.93,0,0-.01-.02-.02-.02h0s0,0,0,0h0s0,0,0,0c0,0,0,0,0,0-.01-.01-.03-.02-.04-.03h0s0,0,0,0c0,0,0,0,0,0,0,0,0,0,0,0h0s0,0,0,0c0,0,0,0,0,0h0s-.04-.02-.06-.03h0s0,0,0,0h0s0,0,0,0h0s-.04,0-.06,0c-.04,0-.07,0-.1.02,0,0,0,0,0,0h0s0,0,0,0t0,0h0s0,0,0,0c0,0,0,0,0,0h0s0,0,0,0c0,0,0,0,0,0t0,0h0s0,0,0,0c-.02.01-.05.03-.07.06h0s0,0,0,0h0s0,0,0,0h0s0,0,0,0h0s0,0,0,0h0s0,0,0,0h0s0,0,0,0c0,0,0,0,0,0h0s0,0,0,0c0,0,0,0,0,0t0,0c-.32.48-.69.95-1.05,1.4-.45.58-.92,1.17-1.32,1.81-.48.78-.64,1.47-.64,2.18-4.08,1.23-10.62,4.2-12.49,10.9-.83,1.21-1.53,2.48-2.08,3.81-2.49,6.86-3.46,12.47-3.02,17.63,0,.8.23,1.47.61,2.04-5.23-4.14-10.56-8.35-15.86-12.46,0,0-.02-.01-.03-.02h0s0,0,0,0t0,0h0s0,0,0,0c-.05-.03-.1-.03-.16-.03h0s0,0,0,0c0,0,0,0,0,0h0s-.01,0-.02,0c-.03,0-.07.03-.09.05,0,0,0,0,0,0,0,0,0,0,0,0h0s0,0,0,0c0,0,0,0,0,0,0,0,0,0,0,0h0s0,0,0,0c0,0,0,0,0,0h0s-.02.02-.03.03c0,0,0,0,0,0h0s0,0,0,0c0,0,0,0,0,0h0s0,0,0,0c0,0,0,0,0,0,0,0,0,0,0,0,0,.01-.02.02-.02.04-5,9.95-16.67,13.18-34.69,9.57-8.68-1.37-18.62-3.69-26.43-10.46-1.28-1.28-1.82-2.98-2.26-4.34-.06-.2-.12-.39-.18-.57-.42-1.27-.09-2.67.87-3.68.07,0,.15-.01.25-.02.71-.08,2.04-.22,2.4.85.44,1.31.55,3.26-.47,4.79-.04.06-.05.13-.04.2.02.07.06.13.12.17.97.57,1.94,1.15,2.91,1.72,7.53,4.48,15.31,9.11,24.23,11.34.08.02.16,0,.22-.05.06-.05.1-.12.1-.2,0-.52,0-1.11-.58-1.69-.01-.01-.02-.02-.03-.03-3.45-2.42-6.75-4.85-9.94-7.21-6.2-4.58-12.06-8.9-18.65-12.85-.1-.06-.23-.04-.32.04-2.69,2.69-3.55,6.82-2.06,9.8,1.03,2.57,3.1,4.13,5.09,5.62,9.69,8.16,18.65,15.12,29.07,22.56.76.75,1.52,1.39,2.26,2.01.73.61,1.49,1.24,2.24,1.99.29.29.7.43,1.07.55.01,0,.02,0,.04.01-.43.08-.91.21-1.45.41-.12.05-.19.18-.16.3.03.13.15.21.28.19.35-.05.7-.11,1.05-.19-.26.44-.4,1-.4,1.54,0,.02,0,.03,0,.05.43,2.15,1.94,4.17,4.64,6.19,1.76,1.01,6.4,3.65,9.96,2.29,9.51,6.22,18.75,11.96,30.2,15.28,1.12.31,2.24.6,3.36.87,0,.12,0,.24-.01.36-.01.34-.03.68-.03,1-.1,1.01-.26,2.05-.43,3.15-.65,4.17-1.38,8.89,1.49,12.57.06.07.15.11.24.1,1.13-.14,2.27-.17,3.42-.1,0,.11.02.21.04.3.82,8.98,1.11,18.14,1.4,27,.12,3.59.23,7.27.39,10.93,0,1.33,0,2.79,0,3.96-.94,0-480.8,0-946.21-.02v.52c465.48.02,945.48.02,946.47.02.11,0,.2-.07.24-.16.13-.02.22-.14.21-.27-.06-1.22-.12-2.44-.17-3.67,0-.44,0-.88,0-1.32,0-.06-.02-.11-.05-.16-.13-3.31-.24-6.62-.34-9.85-.27-8.54-.56-17.35-1.31-26.02.05.02.1.02.14.02.34,0,.64-.3.68-.69,0-.09,0-.18-.01-.27.74.16,1.49.25,2.23.25h0c5.01,1.28,9.82,4.49,13.5,9.16-1.65.58-3.19.17-4.81-.27-1.55-.42-3.15-.85-4.87-.36-.02,0-.03,0-.04.02h0s0,0,0,0c-.02.01-.04.03-.06.04t0,0s0,0,0,0c-.03.03-.05.06-.06.09h0s0,0,0,0h0s0,.03-.01.04h0s0,0,0,0h0c-.01.1.02.19.1.25.35.28.68.48.98.6.01,0,.02.01.03.02.68.45,1.38.92,2.12.93.62.15,1.31.17,1.99.18,1.74.04,2.8.14,2.8,1.6.29,2.04-1.22,3.54-2.97,5.28-1.1,1.09-2.23,2.21-3.01,3.58-.06.1-.04.23.04.31l.5.5c.09.09.24.1.34.02l.31-.25c2.4-1.92,4.3-3.43,5.27-6.35.35-.7,1.26-1.43,1.69-1.74,2.43,4.39,1.68,9.39.95,14.23-.24,1.62-.5,3.31-.62,4.95,0,1.01,0,2.16,1.15,2.74.04.02.07.03.12.03.96,0,1.52-.95,1.94-1.65.1-.18.24-.4.33-.51,0,0,0,0,0,.01,0,.02.02.03.03.05,1.15,1.44,1.27,3.24,1.39,5.14.08,1.26.16,2.57.57,3.8,0,0,0,0,0,0,.03.1.13.17.24.18h0s.03,0,.04,0c.02,0,.04-.01.06-.02t0,0s0,0,0,0h0s0,0,0,0c0,0,0,0,0,0,0,0,0,0,0,0h0s0,0,0,0h0s0,0,0,0c0,0,0,0,0,0h0s0,0,0,0h0s0,0,0,0h0s0,0,0,0h0s0,0,0,0t0,0c.07-.05.12-.13.12-.22v-.03c0-.32,0-.59,0-.84-.06-4.24-.54-8.54-1-12.67,0-2.26-.13-4.69-.25-7.03-.12-2.34-.25-4.76-.25-7.03-.32-2.84-1.62-5.13-2.89-7.34-.76-1.33-1.55-2.71-2.12-4.2.03-.11.17-.26.39-.35.21-.09.49-.11.67.06.01.01.03.02.04.03.59.39.94,1.16,1.3,1.96.51,1.12,1.03,2.27,2.3,2.59,1.79.36,2.89-.94,3.86-2.08.13-.15.25-.29.37-.44-.42.64-.88,1.26-1.34,1.86-1,1.32-2.03,2.68-2.58,4.33-.03.08-.01.17.04.23.05.07.13.11.21.11,2.6,0,4.4-1.61,6.14-3.16,1.39-1.24,2.71-2.42,4.41-2.86,1.28.04,1.71,2.38,1.72,3.23-.25,1.49-.63,3-.99,4.47-.37,1.48-.76,3.02-1.01,4.53,0,.01,0,.03,0,.04,0,.24-.07.53-.14.84-.2.85-.48,2.01.69,2.84.02.02.05.03.08.05,0,0,0,0,0,0,0,0,0,0,0,0h0s0,0,0,0h0s.04.02.06.03c0,0,0,0,0,0h0s0,0,0,0c0,0,0,0,0,0,0,0,0,0,0,0h0s0,0,0,0h0s0,0,0,0h0s0,0,0,0c0,0,0,0,0,0h0s0,0,0,0h.03c.07,0,.14-.03.19-.09.39-.45.68-.81.9-1.1,1.8-2.35,3.14-5,4.45-7.57,1.07-2.1,2.17-4.28,3.5-6.25.7-1.03,1.42-1.61,2.04-1.58.47.01.92.36,1.33,1.03.12.19.23.39.34.59.74,1.31,1.58,2.78,3.71,1.6,1.61-.9,2.3-2.9,2.91-4.68.08-.23.16-.46.24-.68.53,1.04.43,2.29.33,3.6-.08,1.07-.17,2.19.11,3.19.81,2.92,1.22,5.3.75,8.11-.87,4.33-1.07,8.42-1.27,12.37-.15,2.96-.31,6.01-.73,9.24,0,1.07.31,1.87.92,2.37.73.6,65.8.71,154.72.62v-.53ZM992.91,118.9c1.69.15,3.44.31,5.2.56.27,0,.74.79.74,1.25,0,.02,0,.04,0,.06.66,2.99.89,6.04,1.11,8.99.11,1.48.22,3.01.39,4.49,0,1.63.17,3.2.33,4.71.24,2.28.47,4.43.18,6.78-.14.87-.66,1.56-1.53,2.05-1.69.95-4.17.84-5.64.26-1.63-.65-2.12-2.45-2.65-4.36-.18-.64-.36-1.29-.59-1.91-.05-.16-.12-.35-.23-.56-.04-.08-.12-.13-.2-.14,0,0,0,0,0,0,0,0,0,0,0,0h-.01s-.04,0-.06,0h0s0,0,0,0c0,0,0,0,0,0h0s0,0,0,0h0s0,0,0,0t0,0s0,0,0,0c0,0-.02,0-.03,0,0,0,0,0,0,0h0s0,0,0,0c0,0,0,0,0,0,0,0,0,0,0,0h0s0,0,0,0h0s0,0,0,0h0s0,0,0,0c0,0,0,0,0,0t0,0s0,0,0,0t0,0s0,0,0,0c0,0,0,0,0,0,0,0,0,0,0,0t0,0s0,0,0,0c0,0,0,0,0,0h0s-.02.02-.04.03c0,0,0,0,0,0,0,0,0,0,0,0s0,0,0,0h0s0,0,0,0h0s0,0,0,0t0,0s0,0,0,0h0s-.02.03-.03.04c-.15.27-.23.51-.28.72-.19.63-.29,1.28-.39,1.92-.19,1.24-.37,2.41-1.18,3.24-8.08,5.76-18.65,3.72-24.26,1.97-4.21-3.85-7.02-9.54-7.82-15.59,0-.26.01-.51.02-.77,3.82.49,7.67.89,11.61,1.31,4.27.45,8.68.91,13.08,1.5,3.36.48,7.54,1.08,11.22-1.55.01,0,.02-.02.03-.03.19-.18.31-.37.42-.54.22-.33.41-.61,1.02-.92.07-.04.13-.11.14-.19.01-.08-.01-.17-.07-.22-.21-.21-.32-.54-.44-.9-.13-.4-.27-.81-.58-1.12-1.39-1.16-2.87-2.2-4.44-3.3-1.82-1.28-3.7-2.6-5.6-4.23-.77-.58-1.6-1.07-2.48-1.6-1.35-.81-2.74-1.64-3.94-2.82v-.76c.94-.67,1.72-1.43,2.33-2.28,4.53,2.93,9.51,3.38,14.78,3.85ZM955.53,128.42h0s-.06-.04-.09-.05c-.03,0-.06-.01-.09-.01-.03,0-.05,0-.07.01,0,0,0,0,0,0-.04.02-.08.04-.11.08,0,0,0,0,0,0-.02.02-.04.05-.04.08,0,.02-.01.05-.01.08-.06,1.16-.03,2.32.06,3.48-5-.66-9.93-1.47-14.89-2.64.02-1.37-.17-2.69-1.67-3.43-4.57-3.05-8.49-6.32-12.64-9.8-1.26-1.05-2.57-2.15-3.86-3.21l-8.99-8.99c-.14-.27-.31-.54-.49-.82-.47-.73-.95-1.49-.97-2.47.19-.35.47-.57.79-.62.29-.05.57.04.77.24,1.05,1.05,2.59,2.06,3.61,2.57.46.15.86.26,1.26.36.9.23,1.67.44,2.7,1.12,1,.64,2.02,1.33,3,1.99,6.07,4.08,12.34,8.31,19.75,6.56.03,0,.05-.02.08-.03,1.66-1.06,3.22-2.24,4.66-3.52-.01.08-.02.16-.03.24-.13.41-.11.74.08.98.38.49,1.29.43,2.25.37.31-.02.64-.04.97-.04,1.89-.24,3.56-1.02,5.18-1.77,1.43-.67,2.79-1.3,4.27-1.58,0,.22.19.41.46.5-1.69,1.64-3.99,1.95-6.41,2.28-1.96.27-3.99.55-5.68,1.6-.07.05-.12.13-.12.22v1c0,.12.08.22.2.25,1.29.32,2.75.69,4.3.9-.88.31-1.61.64-1.74,1.18-.07.29.04.57.35.88,1.42,1.06,2.95,1.52,4.54,1.65-.34.12-.67.26-.99.42-.09.05-.15.14-.14.25,0,.1.08.19.18.23,4.53,1.51,9.12,2.02,13.65,1.52.03,0,.06-.01.09-.03l3.01-1.5s.07-.05.1-.09c.43-.65.69-1.39.93-2.1.34-.99.69-2.01,1.52-2.85.68-.45,1.3-.63,1.9-.61.02.59.17,1.1.61,1.48-.6.83-1.37,1.57-2.32,2.22-.07.05-.11.13-.11.21v1c0,.07.03.13.08.18,1.26,1.26,2.71,2.13,4.11,2.97.86.52,1.68,1,2.42,1.56,1.9,1.63,3.8,2.96,5.63,4.25,1.56,1.09,3.03,2.13,4.39,3.26.21.21.32.54.44.9.1.29.2.59.36.84-.52.32-.74.64-.94.94-.1.16-.2.3-.34.45-3.5,2.49-7.56,1.91-10.83,1.45-4.4-.59-8.82-1.05-13.09-1.5-3.96-.42-7.83-.82-11.66-1.31v-.09s0-.04,0-.06c0-.49-.02-.99-.06-1.48-.04-.66-.1-1.32-.18-1.96,0-.03,0-.05-.02-.07h0s-.04-.07-.07-.09ZM978.01,114.32c-.26-.25-.36-.59-.39-1,.27.05.54.14.8.25-.12.26-.26.51-.42.75ZM975.79,99.74c.24-.47.62-.77,1.14-.91,1.2-.32,2.91.31,3.96,1.01,3.37,2.95,5.02,8.29,4.43,14.29-.46,1.35-1.31,1.77-2.66,1.32-.71-.28-1.39-.74-2.06-1.19-.49-.33-.99-.67-1.51-.94.33-.8.54-1.66.63-2.55.31-3.4-1.25-7.33-4.08-10.37.04-.22.08-.43.15-.66ZM979.21,110.72c-.08.84-.27,1.64-.57,2.38-.33-.14-.66-.25-1-.31.02-.32.07-.66.12-1.01.13-.89.26-1.81.05-2.65-.2-1.37-.68-2.58-1.16-3.75-.58-1.43-1.13-2.79-1.07-4.3,2.54,2.88,3.92,6.49,3.64,9.63ZM960.03,101.41c1.51-.15,3.05-.44,4.53-.73,3.4-.65,6.92-1.31,10.34-.3.06.06.13.13.19.19-.22,1.81.41,3.38,1.07,5.01.46,1.14.94,2.32,1.13,3.65.19.77.07,1.64-.05,2.48-.05.35-.1.7-.13,1.04-.68-.02-1.42.19-2.22.72-.01,0-.03.02-.04.03-.93.93-1.3,2.01-1.66,3.07-.24.69-.47,1.35-.84,1.93l-2.9,1.45c-4.23.46-8.51.03-12.74-1.29.66-.27,1.35-.46,2.05-.6,1.19-.06,2.4-.24,3.6-.43,1.26-.1,2.55-.21,3.79-.49.04,0,.08-.03.11-.05h0s0,0,0,0c.02-.02.04-.04.06-.07h0s0,0,0,0h0s.03-.09.03-.13h0s0-.05-.01-.07c-.01-.05-.04-.09-.08-.12-.01-.01-.03-.02-.05-.03h0s-.06-.03-.1-.03c-.41-.04-.77-.05-1.11-.04-.1,0-.19.07-.23.17-.75.09-1.5.21-2.24.33-.08.01-.16.02-.24.04-.03,0-.05,0-.08,0-1.17.1-2.36.19-3.53.42-2.14.11-4.22-.18-6.03-1.54-.15-.15-.21-.27-.19-.37.1-.4,1.27-.78,2.13-1.05.12-.04.24-.08.35-.11.69.05,1.39.06,2.1.01.29.06.58.13.87.21,1.01.25,2.05.51,3.1.26.6-.02,1.13-.56,1.65-1.08.05-.05.08-.11.08-.18,0-.59-.52-1.13-.58-1.19-.08-.08-.22-.1-.32-.04-1.53.96-3.16,1.38-4.79,1.5-.71-.14-1.43-.2-2.17-.02,0,0,0,0,0,0-1.85-.14-3.63-.57-5.17-.96v-.66c1.57-.93,3.49-1.2,5.35-1.45,2.58-.35,5.24-.72,7.09-2.84.26-.13.49-.38.58-.8.01-.06,0-.12-.02-.17h0s0,0,0,0h0s0,0,0,0c0,0,0,0,0,0,0,0,0,0,0,0,0,0,0,0,0,0t0,0s0,0,0,0t0,0h0s0,0,0,0c0,0,0,0,0,0,0,0,0,0,0,0t0,0s0,0,0,0c0-.02-.02-.03-.03-.04h0s0,0,0,0h0s0,0,0,0c0,0,0,0,0,0,0,0,0,0,0,0-.02-.02-.04-.03-.06-.04,0,0,0,0,0,0,0,0,0,0,0,0,0,0,0,0,0,0,0,0,0,0,0,0,0,0,0,0,0,0h0s0,0,0,0c0,0,0,0,0,0-.02,0-.04-.01-.06-.01h0s0,0,0,0h-.03c-2.21,0-4.15.91-6.02,1.78-1.58.74-3.22,1.5-5,1.73-.31,0-.65.02-.97.04-.75.05-1.59.1-1.81-.17-.08-.1-.07-.28,0-.53,0-.02,0-.03.01-.05.04-.35.12-.67.22-.96.94-.88,1.82-1.81,2.64-2.77.76-.41,1.6-.74,2.43-1.08.86-.34,1.67-.66,2.39-1.06.03-.02.06-.04.08-.07h0s0,0,0,0t0,0h0s0,0,0,0h0s0,0,0,0c.07-.1.06-.23-.02-.32l-.09-.1c-.14-.16-.3-.35-.51-.46-.05-.03-.1-.03-.15-.03-.4-.31-.79-.62-1.19-.93.19-.31.38-.63.56-.95,1.48.61,3.08.85,4.93.44ZM958.53,114.3c1.16-.22,2.32-.62,3.43-1.28.11.15.25.36.29.57-.43.43-.87.84-1.24.84-.02,0-.04,0-.06,0-.79.2-1.59.06-2.42-.14ZM952.38,105.02c.68-.86,1.31-1.75,1.89-2.66.52.4,1.04.81,1.55,1.21-.61.31-1.28.57-1.99.85-.48.19-.97.39-1.46.6ZM955.74,98.58c-.26.58-.55,1.15-.86,1.72-1.47-.67-2.83-1.7-4.24-2.75-.46-.35-.93-.7-1.41-1.04.01-.61.12-1.25.83-1.63,1.98-.37,3.96-.58,5.92-.67-.07,1.46-.15,2.92-.24,4.37ZM956.22,89.04c-.07,1.53-.13,3.09-.21,4.65-2.01.09-4.04.31-6.07.69-.02,0-.05.01-.07.02-1.14.57-1.14,1.74-1.14,2.24,0,.08.04.16.11.21.51.36,1.01.74,1.51,1.11,1.42,1.07,2.8,2.11,4.3,2.8-.16.28-.32.56-.49.84-5.49-4.29-11.08-8.72-16.51-13.02-.49-.39-.97-.77-1.46-1.16.33.18.66.35.99.52.47.24.96.5,1.42.76.08.06.17.11.26.15.07.04.16.04.23,0t0,0s0,0,0,0c0,0,0,0,0,0,0,0,0,0,0,0,0,0,0,0,0,0h0s0,0,0,0c0,0,0,0,0,0t0,0s0,0,0,0c0,0,0,0,0,0,0,0,0,0,0,0,0,0,0,0,0,0t0,0s0,0,0,0c0,0,.01-.01.02-.02,0,0,0,0,0,0h0s0,0,0,0c0,0,0,0,0,0,0,0,0,0,0,0s0,0,0,0c0,0,0,0,0,0t0,0s0,0,0,0c0,0,0,0,0,0h0s0,0,0,0h0s0,0,0,0c0,0,0,0,0,0,0,0,0,0,0,0,0,0,0,0,0,0,.03-.03.04-.06.06-.1h0s0,0,0,0h0s0,0,0,0h0s0-.01,0-.01h0s0,0,0,0h0s0,0,0,0h0s0,0,0,0h0s0-.01,0-.02h0v-.03h0s0,0,0-.01h0c-.01-.12-.02-.23-.04-.33-.2-1.77-.44-3.54-.67-5.25-.21-1.54-.42-3.07-.6-4.58.14.19.3.36.49.51,1.58,1.34,4.2,1.15,5.65.91.91-.25,1.81-.51,2.68-.77,2.9-.85,5.69-1.66,8.64-1.92-.4,1.58-.25,3.23-.11,4.85.11,1.27.23,2.56.09,3.83-.38,0-.77,0-1.15,0-1.57,0-3.13.02-4.7.02-1.04,0-1.95.26-2.83.51-.88.25-1.72.49-2.69.49-.75,0-1.46.48-2.15.94-.08.05-.15.1-.23.15-.22.09-.48.24-.78.47-.01,0-.02.02-.03.03,0,0,0,0,0,0h0s0,0,0,0h0s0,0,0,0c-.01.01-.02.03-.03.04h0s0,0,0,0t0,0h0s0,0,0,0c0,0,0,0,0,0-.02.03-.03.06-.03.1,0,.01,0,.03,0,.04h0s0,.05.01.07c0,0,0,0,0,0h0s0,0,0,0h0s.02.05.04.07c0,0,0,0,0,0h0s0,0,0,0,0,0,0,0c0,0,0,0,0,0t0,0s0,0,0,0c0,0,0,0,0,0h0s0,0,0,0c0,0,0,0,0,0t0,0s0,0,0,0h0s0,0,0,0c0,0,0,0,0,0,0,0,0,0,0,0h0s0,0,0,0c0,0,0,0,0,0t0,0s0,0,0,0h0s0,0,0,0c0,0,0,0,0,0h0s.04.03.06.04c.05.02.1.04.15.06,2.55.9,4.94.44,7.25,0,1.37-.26,2.78-.54,4.23-.54.19,0,.41.11.64.22.27.14.56.28.87.28.59,0,1.13-.52,1.19-.58.02-.02.04-.05.05-.08.28-.62.45-1.25.55-1.88.18,0,.37,0,.55,0-.04.9-.08,1.8-.12,2.7ZM938.26,86.83c.08.11.24.43.37,1.24-.29-.3-.37-.63-.39-.79-.03-.21,0-.37.03-.45ZM942.34,88.06c.55-.36,1.11-.69,1.62-.69,1.04,0,1.95-.26,2.83-.51.88-.25,1.72-.49,2.69-.49,1.57,0,3.13,0,4.7-.02.36,0,.72,0,1.08,0-.1.55-.25,1.09-.48,1.62-.14.13-.49.4-.79.4-.19,0-.41-.11-.64-.22-.27-.14-.56-.28-.87-.28-1.5,0-2.94.28-4.33.54-2.02.39-3.95.76-5.99.31.05-.05.09-.1.13-.15.11-.17.13-.36.04-.5ZM956.36,85.83c-.17,0-.34,0-.51,0,.14-1.29.02-2.59-.09-3.87-.15-1.69-.3-3.32.13-4.84.32-.02.64-.03.97-.04-.22,2.93-.37,5.85-.5,8.75ZM955.09,72.83s-.1,0-.15.02c-.09.03-.17.09-.23.17-.17-.59-.34-1.18-.5-1.76-.77-2.65-1.56-5.39-1.88-8.14-.19-1.64-.33-3.3-.46-4.91-.03-.43-.07-.86-.11-1.29.19.58.42,1.13.87,1.25.31.08.65-.06,1.04-.44.56-.54.8-1.33,1-2.03.21-.7.39-1.3.81-1.48.33-.14.85-.03,1.54.33,1.61.83,1.43,2.03,1.22,3.43-.13.87-.27,1.77.02,2.65.06.19.23.73.63.84-.79,3.89-1.32,7.8-1.69,11.71-.39.33-.81.64-1.24.94,0-.22-.04-.44-.12-.63-.17-.41-.47-.66-.75-.66ZM955.17,74.65s0,0-.01,0c-.22-1.06-.06-1.31-.07-1.32.08.01.28.23.34.56.04.22.01.51-.25.75ZM959.44,61.31c.63-.51,1.06-2.01,1.09-2.09.11-.37.2-.74.29-1.12.18-.73.34-1.43.62-2.09.04.17.08.36.12.55.18.87.38,1.86.96,2.32.84.66,2.09.37,3.52-.81.89-.74,1.71-1.54,2.44-2.38-1.24,1.95-2.4,3.94-3.59,5.99-1.85,3.19-3.77,6.48-6.1,9.75-.3.45-.65.85-1.03,1.22.38-3.79.91-7.58,1.68-11.35ZM985.07,75.65c.31,1.14.6,2.22-.2,3.29-1.17,1.56-2.32,1.5-3.54,1.43-.25-.01-.49-.03-.74-.03-3.51-.75-6.82-1.26-10.02-1.75-3.2-.49-6.51-1-10.02-1.75-1.08-.18-2.12-.26-3.13-.27.06-.73.12-1.46.18-2.19.21-.18.41-.35.61-.51.61-.5,1.18-.97,1.52-1.64.71-1.07,1.68-1.31,2.8-1.6.34-.09.69-.18,1.04-.29,6.64-.44,14.4-.61,21.72,1.44-.04.14-.12.29-.19.45-.13.26-.27.54-.28.83-.21.89.02,1.76.25,2.61ZM957.38,77.08c1,0,2.02.09,3.07.27,3.52.75,6.83,1.26,10.04,1.76,3.2.49,6.51,1,10.01,1.75.02,0,.04,0,.05,0,.25,0,.49.01.74.03,1.24.07,2.65.15,3.98-1.64.95-1.27.61-2.52.29-3.73-.22-.83-.44-1.61-.24-2.38,0-.02,0-.04,0-.06,0-.19.11-.41.22-.64.07-.13.14-.27.19-.41.02.37.04.73.08,1.08.82,5.72,1.66,11.6,2.78,17.45-.35-.66-.75-1.26-1.1-1.79l-.2-.3c-.04-.05-.09-.09-.15-.11-9.43-2.26-18.99-2.54-28.33-2.54-.64,0-1.28,0-1.92,0,.13-2.9.29-5.82.5-8.75ZM956.9,76.56c-.28,0-.56.01-.83.03.22-.57.53-1.11.96-1.65-.05.54-.09,1.08-.13,1.62ZM976.44,95.67c-5.86-1-11.86-2.03-17.99-2.03-.64,0-1.28.01-1.92.03.08-1.55.14-3.09.21-4.61.04-.91.08-1.81.12-2.72,9.9-.03,20.06.12,30.06,2.5l.15.22c.99,1.46,2.21,3.28,1.76,5.52-.27,1.33-1.31,1.54-2.63,1.82-.6.12-1.26.26-1.89.53-2.66-.37-5.29-.82-7.87-1.26ZM995.42,95.32s.11.07.18.07h0c1.07,0,2.16-.17,3.2-.33,1.33-.2,2.69-.41,4.04-.28-1.39.67-2.93.72-4.54.77-1.62.05-3.3.1-4.82.85-.09.04-.14.13-.14.22,0,.1.05.19.13.23,1.51.86,3.23,1.16,4.89,1.46,1.8.32,3.51.62,4.98,1.57h-1.67c-4.34-1.8-8.94-2.34-13.54-1.61.41-.09.81-.18,1.2-.29.12-.03.2-.15.19-.27-.01-.12-.11-.22-.23-.23-1.27-.11-2.53-.24-3.79-.4.27-.07.54-.12.82-.18,1.33-.27,2.7-.55,3.03-2.22.02-.12.04-.24.06-.35.51.98,1.01,1.49,1.51,1.99.02.02.04.04.07.05.94.47,1.54-.44,1.93-1.04.13-.2.26-.4.37-.51.02-.02.04-.04.05-.07,1.05-2.1,2.41-4.24,4.59-4.36.22,1.01-.6,1.76-1.46,2.56-.18.17-.36.34-.53.5-.58.58-.58,1.17-.58,1.69,0,.07.03.14.08.18ZM983.26,99.37c-.07-.63.09-1.15.47-1.52.21-.16.43-.28.66-.39,1.09.15,2.18.28,3.27.4-.06.01-.12.03-.18.04-1.49.31-3.02.62-4.21,1.48ZM1000.37,59.63c3.99,11.08,6.02,21.79,8.17,33.13.28,1.47.56,2.94.84,4.4.08.93.17,1.85.26,2.76.48,4.92.93,9.57-.74,14.16-1.49,3.47-6.35,5.31-10.19,3.87-1.86-.8-3.03-2.53-4.16-4.21-.95-1.41-1.93-2.86-3.32-3.79-.04-.03-.09-.04-.14-.04-.07,0-.13.03-.18.08-1.19,1.19-.5,1.87,0,2.37.19.19.14.51.06.74-.02.07-.06.15-.09.23-.06-.13-.15-.26-.25-.37-.2-.23-.4-.35-.58-.33-.6-1.17-1.15-2.33-1.69-3.47-1.36-2.87-2.65-5.58-4.56-8.14-.17-.35-.3-.67-.39-.98,6.07-2.18,12.33-2.07,18.12.35.03.01.06.02.1.02h2.51c.11,0,.21-.07.24-.17.04-.1,0-.22-.08-.29-1.7-1.41-3.8-1.78-5.84-2.14-1.44-.25-2.93-.52-4.25-1.15,1.3-.5,2.73-.54,4.12-.59,1.86-.06,3.78-.12,5.45-1.22.09-.06.13-.16.11-.27-.02-.1-.1-.18-.2-.2-1.66-.32-3.33-.07-4.95.17-.94.14-1.91.29-2.86.32.01-.37.08-.71.42-1.06.16-.16.34-.33.52-.49.95-.88,2.02-1.87,1.55-3.28-.04-.11-.13-.18-.24-.18-2.57,0-4.14,2.46-5.23,4.62-.14.15-.27.35-.41.57-.43.66-.75,1.08-1.23.88-.48-.48-.94-.95-1.41-1.88-1.5-7-2.52-14.12-3.5-20.99-.42-4.22.56-8.94,2.98-14.4.12-.23.23-.47.35-.73.9-1.9,1.91-4.06,4.39-3.65.01,0,.03,0,.04,0,1.2,0,2.03,1.24,2.9,2.56.44.67.91,1.36,1.42,1.88.08.08.2.1.3.05l1-.5c.24.44.46.89.65,1.36ZM999.35,57.88l-.69.34c-.43-.47-.84-1.08-1.23-1.66-.91-1.37-1.85-2.78-3.31-2.79-2.84-.46-3.99,1.98-4.92,3.94-.12.25-.23.49-.35.73-2.14,4.82-3.17,9.06-3.12,12.93-.02-.02-.05-.03-.08-.04-7.48-2.14-15.39-1.96-22.15-1.51-.02,0-.04,0-.06.01-.34.11-.7.2-1.04.29-1.12.29-2.29.58-3.12,1.84-.3.6-.81,1.02-1.4,1.5-.07.06-.14.11-.21.17,0-.07.01-.14.02-.2.57-.5,1.1-1.06,1.53-1.71,2.34-3.28,4.26-6.59,6.12-9.78,2.18-3.75,4.24-7.3,6.92-10.78.48-.71,1.13-1.51,1.87-2.17-.52,1.31-1.17,2.63-1.82,3.91-.05.1-.03.22.05.3l.5.5c.06.06.16.09.24.07,1.05-.26,1.96-.91,2.84-1.54.48-.34.95-.68,1.43-.95.08.25.29.45.55.48.06,0,.13,0,.22-.02-.34,1.3-1.21,2.32-2.11,3.39-.59.7-1.2,1.43-1.71,2.27-.02.04-.04.09-.04.13,0,.21-.12.57-.24.92-.14.41-.26.79-.26,1.08,0,.34.28.68.71.86.45.19.92.13,1.22-.16,1.5-1.07,2.92-2.34,4.3-3.56,1.9-1.69,3.7-3.29,5.68-4.42,2.22-1.11,4.67-1.23,7.08-.33,2.58.96,4.97,3.06,6.58,5.7,0,.09,0,.17,0,.26ZM977.86,51.07s0-.02,0-.04c.11-.05.23-.1.34-.14-.1.29-.22.35-.24.35-.05,0-.11-.08-.11-.18ZM976.11,47.77c6.71-.95,13.75.42,20.35,3.98,1.44,1.09,2.42,2.8,2.76,4.75-1.64-2.33-3.88-4.17-6.27-5.06-2.54-.94-5.13-.82-7.5.36-2.04,1.16-3.94,2.86-5.78,4.49-1.37,1.22-2.79,2.48-4.27,3.54-.01,0-.02.02-.03.03-.18.18-.46.15-.67.06-.25-.1-.39-.27-.39-.38,0-.21.12-.57.24-.92.12-.37.24-.73.26-1.01.48-.78,1.06-1.48,1.62-2.15,1.23-1.46,2.39-2.83,2.39-4.95,0-.03,0-.05-.01-.07h0s0,0,0,0h0s0,0,0,0h0s0,0,0,0c0-.02-.02-.04-.03-.06h0s0,0,0,0h0s0,0,0,0h0s0,0,0,0h0s0,0,0,0h0s0,0,0,0h0s0,0,0,0c0,0-.02-.02-.02-.02-.03-.03-.06-.04-.09-.05h0s0,0,0,0h0s0,0,0,0c-.02,0-.06-.01-.07,0-.54,0-.87.16-1.05.37-.66.32-1.26.75-1.86,1.18-.84.6-1.63,1.17-2.53,1.43l-.26-.26c.75-1.5,1.51-3.04,2.05-4.59.39-.27.8-.48,1.21-.62ZM972.64,42.38c1.38,1.02,2.59,2.82,2.16,4.57-.09.37-.2.74-.33,1.11-.94.67-1.86,1.65-2.63,2.8-.25.32-.49.64-.73.97,1.56-3.06,2.08-6.36,1.53-9.45ZM973.22,15.25c-.55-.55-1.62-1.08-2.17-1.08h0c-3.89-.32-9.21-.32-14.36,1.14,3.82-1.49,9.38-2.3,17.14-.66.56,2.31.75,4.63.75,6.96-.83-.95-.77-2.01-.7-3.13.06-1.08.13-2.19-.65-3.23ZM975.26,13.98h0s0,0,0,0h0s.06,0,.09,0h0s0,0,0,0h0s.04-.02.06-.03h0s0,0,0,0h0s0,0,0,0c0,0,0,0,0,0t0,0s0,0,0,0c0,0,0,0,0,0h0s0,0,0,0t0,0s0,0,0,0c.08-.06.11-.15.1-.24h0s0,0,0,0h0s0,0,0,0c-.03-.15-.06-.29-.09-.44.32.13.65.27.97.42,1.36.92,1.37,2.29,1.37,3.75-.43,1.69-1.6,2.96-2.7,3.83-.02-2.29-.23-4.58-.8-6.87-.02-.1-.1-.17-.2-.19-3.12-.67-5.89-.95-8.34-.95-6.13,0-10.29,1.74-12.91,3.49-.03.02-.05.04-.07.07t0,0s0,0,0,0,0,0,0,0h0s0,0,0,0c0,0,0,0,0,0,0,0,0,0,0,0,0,0,0,0,0,0,0,0,0,0,0,0h0s0,0,0,0c0,0,0,.01-.01.02-.22.46-.42.93-.61,1.41-.05-.04-.11-.06-.17-.06-1.88,0-3.33.94-4.57,2.2.18-.44.43-.86.75-1.25,3.98-3.98,11.9-8.1,27.08-5.15,0,0,.01,0,.02,0ZM944.46,15.74c.21-.64.4-1.29.58-1.91.54-1.82,1.04-3.53,2.01-5.18.6-1.03,2.77-4.47,5.17-5.31.4-.14.76-.21,1.07-.21.33,0,.61.08.84.23.37.25.62.69.79,1.23.07.57.19,1.17.31,1.77.04.44.07.88.1,1.31.08,1.24.15,2.41.53,3.07.01.02.03.04.05.06,0,0,0,0,0,0h0s.03.02.04.03h0s.07.03.1.04h0s.06,0,.08,0c.02,0,.04-.01.05-.02t0,0s.06-.04.08-.06c.02-.02.04-.05.05-.08h0s.01-.04.01-.06c.12-1-.16-2.31-.46-3.7-.05-.22-.09-.44-.14-.66-.06-.63-.15-1.24-.32-1.78-.16-1.26-.11-2.38.49-3.11.51-.62,1.38-.9,2.69-.87,1.24.03,2.27.58,3.18,1.4,0,.02,0,.03.01.05h0s0,0,0,0t0,0h0s0,0,0,0c0,.02.01.03.02.04.61,1.03,1.41,1.94,2.18,2.81.1.11.19.22.28.32.22.36.44.72.65,1.08.64,1.06,1.24,2.07,1.89,2.84.08.1.22.12.32.06.11-.06.16-.19.12-.31-.53-1.57-1.54-2.81-2.57-3.98-.44-.71-.91-1.43-1.42-2.07.02,0,.05-.01.07-.02.12-.05.2-.15.23-.27,5.16,1.38,9.37,5.05,10.98,9.55,0,0-.01,0-.02,0-.11.03-.18.13-.18.24-11.24-3.77-22.42,1.84-30.04,7.45-.03.02-.06.06-.08.09-.24.48-.47.95-.76,1.36-.16-1.69.34-3.47.98-5.44ZM946.72,27.4c-.15.58-.13,1.09-.04,1.55-.17.17-.27.51-.3.74-.02.14-.02.27,0,.38-1.44-.39-2.75-1.27-3.51-2.38-.6-.87-.82-1.8-.65-2.69,0-.02,0-.03,0-.05,0-.12-.02-.28-.05-.46-.12-.79-.17-1.52.41-1.81.21-.1.4-.23.57-.37.21.77.56,1.53,1.11,2.29.05.07.12.11.2.11.08,0,.16-.03.21-.1.3-.38.6-.78.91-1.19.28-.38.58-.77.88-1.16-.1,1.2.02,2.48.15,3.8.04.44.08.88.12,1.32,0,0,0,.01,0,.02ZM946.6,21.26c-.5.6-.98,1.23-1.43,1.84-.23.31-.46.61-.68.91-.46-.71-.74-1.41-.9-2.13.45-.52.77-1.15,1.09-1.77,7.56-5.56,18.67-11.11,29.75-7.26.04.16.1.33.19.48-14.92-2.72-22.81,1.43-26.83,5.44-.63.76-.99,1.6-1.18,2.49ZM950.19,31.43c-.14.31-.28.62-.44.92-.26.51-.82.45-.98.41-.34-.07-.53-.24-.53-.3,0-.94-.31-1.66-.6-2.35-.12-.28-.23-.54-.32-.81.01-.61-.01-1.22-.06-1.83.68-1.35,1.15-2.04,1.39-2.04.01,0,.05.03.1.13,0,.01.02.03.02.04.74.99,1.17,2.04,1.44,3.13-.08.89-.1,1.79-.03,2.7ZM950.36,27.47c-.28-.74-.65-1.46-1.17-2.15-.17-.33-.4-.39-.56-.39-.49,0-.98.69-1.47,1.59-.02-.17-.03-.34-.05-.5-.15-1.6-.3-3.14-.04-4.51,1.26-1.47,2.72-2.69,4.64-2.79,0,.28-.02.56-.04.84-.67,2.1-1.04,4.34-1.11,6.61-.08.44-.15.88-.22,1.32ZM951.09,26.21c.11-.6.23-1.2.35-1.8.31-1.56.64-3.16.75-4.77.16-.49.33-.98.52-1.45-.05,3.46-.36,7.08-1.55,10.72-.07-.9-.1-1.8-.07-2.7ZM960.63,45.58c-.78.33-1.73-.25-2.72-.85-.82-.49-1.66-1-2.46-1-.14,0-.29.02-.43.05-.39.1-.73.34-1.02.73-1.66-2.84-2.29-6.23-2.79-9.59.29,1.15.75,2.25,1.6,3.24.34.34.7.67,1.06.97,1.7,2.77,4,4.97,6.76,6.44ZM951.44,33.47c.4,1.47.93,2.85,1.57,4.14-.96-1.23-1.34-2.63-1.57-4.14ZM954.26,38.8c-1.07-1.76-1.9-3.76-2.45-5.94-.23-.91-.4-1.82-.52-2.75,1.67-4.44,1.94-8.85,1.95-13.01,6.08-2.71,13.01-2.81,17.79-2.42.4,0,1.33.44,1.8.9.64.86.59,1.83.53,2.86-.07,1.24-.15,2.53,1,3.68.06.06.14.08.21.07-.04,2.43-.27,4.85-.5,7.24-.1,1-.2,2.01-.28,3.02-.16,2.45-.93,4.74-2.07,6.9-.01-.02-.02-.03-.04-.04,0,0,0,0,0,0t0,0s0,0,0,0c0,0,0,0,0,0h0s0,0,0,0c0,0,0,0,0,0h0s0,0,0,0h0s0,0,0,0c-.03-.02-.05-.04-.09-.05h0s0,0,0,0c0,0,0,0,0,0h0s0,0,0,0h0s0,0,0,0h0s0,0,0,0h0s0,0-.01,0c-.08-.01-.16,0-.22.06h0c-5.23,4.78-12.4,3.35-17.06-.51ZM962.23,51.17c3.34-3.04,6.82-6.42,9.19-10.27.05-.02.11-.04.16-.07.04-.02.08-.06.11-.09.14.44.27.9.36,1.35-1.12,1.07-2.16,2.45-3.26,3.91-2.08,2.76-4.2,5.58-6.94,6.25.12-.36.24-.72.37-1.08ZM961.67,52.82c3.08-.58,5.41-3.67,7.54-6.51,1-1.33,1.96-2.6,2.96-3.61.51,3.19-.16,6.58-1.96,9.69-1.14,1.96-2.65,3.73-4.5,5.28-.71.59-2.02,1.47-2.87.8-.43-.34-.62-1.23-.78-2.01-.04-.19-.08-.37-.12-.55.05-.06.07-.15.05-.23-.04-.15-.11-.25-.17-.33-.04-.05-.07-.09-.09-.14,0,0,0,0,0,0t0,0s0,0,0,0c0,0,0,0,0,0-.03-.06-.07-.1-.13-.13,0,0,0,0,0,0h0s0,0,0,0t0,0h0s0,0,0,0t0,0h0s0,0,0,0c0,0,0,0,0,0h0s0,0,0,0h0s0,0,0,0c-.05-.02-.11-.02-.16,0,0,0,0,0,0,0t0,0s0,0-.01,0h0c-.05.02-.1.07-.12.11-.49.89-.73,1.86-.95,2.8-.09.37-.18.74-.28,1.1-.08.27-.17.53-.28.78.53-2.36,1.16-4.71,1.92-7.04ZM951.35,48.85c.38-.62.84-1.2,1.28-1.77.19-.24.37-.48.56-.72.12.32.35.61.55.79.04.03.07.06.11.08.69,1.91,1.37,3.69,3.01,4.51,1.56.94,2.96,1.26,4.24,1.16-.86,2.66-1.55,5.35-2.11,8.04-.05-.04-.14-.17-.24-.48-.25-.77-.12-1.6,0-2.42.22-1.46.44-2.97-1.49-3.97-.58-.3-1.06-.45-1.46-.45-.19,0-.37.03-.52.1-.64.27-.87,1.02-1.1,1.81-.2.67-.4,1.36-.87,1.8-.24.23-.43.34-.56.31-.24-.06-.43-.65-.58-1.12-.04-.14-.09-.27-.13-.4-.19-.54-.36-1.04-.5-1.52-.13-1.26-.28-2.53-.49-3.78,0-.01,0-.02,0-.04h0s0,0,0,0h0s0,0,0,0h0s0,0,0,0c-.02-.06-.06-.11-.12-.14-.04-.02-.09-.03-.13-.03.02-.58.17-1.14.56-1.77ZM949.35,51.6s0,.09.02.14c.02.08.15.34.65.24.12-.02.24-.06.35-.11.02.15.05.29.07.45.13.75.33,1.54.59,2.41.12,1.18.22,2.36.31,3.52.13,1.61.27,3.28.46,4.93.33,2.79,1.13,5.55,1.9,8.22.35,1.23.72,2.5,1.03,3.75h0c.02.08.07.14.14.17.07.03.15.03.22,0,.15-.08.28-.16.39-.26.55-.37,1.1-.75,1.63-1.16l-.02.23c-.1.09-.2.19-.3.29-.62.71-1.03,1.45-1.29,2.21-3.06.24-5.95,1.08-8.94,1.96-.87.25-1.77.52-2.65.76-2.26.38-4.16.09-5.2-.8-.67-.57-1.02-1.4-1.02-2.46,0-1.41.77-2.48,2.34-3.27,1.52-.57,3.11-.7,4.76-.7.67,0,1.36.02,2.05.04,2.02.06,4.1.13,6.19-.34.13-.03.22-.16.2-.29-.25-1.53-.77-2.94-1.26-4.31-.49-1.34-.99-2.72-1.24-4.2,0-2.62-.28-5.04-.91-7.74.1-.43-.02-1.15-.62-2.38,0,0,0,0,0-.01,0,0,0,0,0,0-.03-.05-.07-.09-.12-.11h0s0,0,0,0h0s-.03,0-.04-.01h0s-.1-.01-.15,0c0,0-.01,0-.02,0-4.18,1.9-7.58,4.45-10.06,7.5,2.07-4.91,6.93-7.44,10.54-8.69ZM949.3,55.26s-.04.06-.06.07c-.18.09-.66-.15-.9-.62-.24-.48-.07-.94.48-1.3.18.63.33,1.24.48,1.84ZM938.2,62.11c.02-.08.04-.16.06-.24,2.24-3.22,5.46-5.93,9.52-7.99-.12.37-.06.74.09,1.05.3.6,1.02,1.09,1.55.87.56,2.51.8,4.78.8,7.24,0,.01,0,.03,0,.04.26,1.53.77,2.94,1.27,4.31.46,1.27.94,2.58,1.2,3.97-1.95.39-3.91.33-5.82.27-2.46-.08-4.78-.15-7.03.7-1.14.57-1.92,1.31-2.32,2.19-.31-4.11-.25-8.2.68-12.42ZM933.19,83.08c-.43-5.11.53-10.65,2.99-17.42.37-.88.8-1.73,1.29-2.55-1.28,6.78-.4,13.2.52,19.98.14,1.06.29,2.13.43,3.22-.04-.02-.09-.03-.14-.04-.19-.02-.42.1-.53.46-.07.26-.07.61.05.96-.14-.07-.27-.14-.41-.21-2.16-1.11-4.2-2.16-4.2-4.4ZM917.35,73.41c.08.21.08.43.04.61-.07.38-.27.69-.41.84,0-.19.06-.6.37-1.45ZM905.31,112.5c.77-.07,1.58-.23,2.44-.48-.45.47-.95.84-1.52,1.09-.31-.2-.61-.4-.92-.6ZM896.71,106.91c-.24-.15-.47-.3-.71-.45-.49-.49-1.36-1.38-1.41-2.7l.3-.3c.62.23,1.29.41,1.94.59,1.65.45,3.23.87,4.17,2.07-1.5,0-2.97.17-4.12.45-.12.03-.21.15-.2.27,0,.02,0,.05.02.07ZM901.35,106.63c.05.09.09.18.13.28-.37,0-.75.02-1.09.07-.59,0-1.19-.1-1.78-.2.86-.11,1.79-.16,2.73-.15ZM898.45,107.28c.64.11,1.3.22,1.96.22.01,0,.03,0,.04,0,.42-.07.92-.07,1.4-.07.08,0,.16-.04.21-.11.05-.07.06-.15.04-.23-.05-.15-.11-.3-.17-.44,1.75.06,3.46.35,4.64.9.41.19.65.4.64.58,0,.15-.19.38-.67.62-1.43-.23-3.07.06-4.48.33-.2-.04-.61-.02-1.54.29-1.17-.76-2.35-1.52-3.54-2.28.49.03.99.12,1.47.2ZM905.24,109.18c-.68.15-1.4.21-2.13.23.71-.12,1.43-.22,2.13-.23ZM906.33,109.4c.1-.04.19-.08.28-.12,1.01.2,1.88.71,2.41,1.76-.25.1-.5.19-.74.27-1.28-.78-2.72-.38-4-.02-.2.05-.39.11-.58.16-.78-.51-1.56-1.02-2.35-1.54,1.65.06,3.45.06,4.98-.51ZM904.42,111.79c1.12-.31,2.18-.61,3.15-.26-1.07.31-2.05.47-2.99.49-.1-.07-.2-.13-.3-.2.05-.01.09-.03.14-.04ZM936.52,128.48c-11.27-3.27-20.4-8.91-29.78-15.04.67-.36,1.3-.88,1.84-1.6.02-.03.04-.06.05-.1.28-.1.56-.2.85-.32.07-.03.12-.08.14-.14.03-.06.03-.14,0-.2-.51-1.2-1.36-1.85-2.36-2.16.3-.23.46-.49.47-.76.02-.41-.3-.77-.94-1.07-1.31-.61-3.22-.91-5.14-.96-1-1.58-2.86-2.09-4.67-2.57-.73-.2-1.41-.38-2.04-.63-.1-.04-.2-.02-.28.06l-.5.5s-.08.11-.08.18c0,1.61,1.07,2.68,1.58,3.19.01.01.03.03.04.04,2.41,1.52,4.77,3.06,7.08,4.57-.33-.03-.67.05-1.01.23,0,0-.02.01-.03.02h0s0,0,0,0c0,0,0,0,0,0,0,0,0,0,0,0,0,0-.01,0-.02.01h0s0,0,0,0t0,0s-.07.08-.08.14c0,0,0,0,0,0h0s0,0,0,0h0c-.02.13.06.25.18.29.82.26,1.67.38,2.57.38.02,0,.03,0,.05,0,.4.26.8.52,1.19.78-2.21.65-5.24-.13-9.13-2.36-2.56-1.92-4-3.83-4.41-5.83,0-.82.36-1.54.83-1.74l.23-.06s.09-.04.13-.07t0,0s.02-.03.03-.04t0,0s.04-.09.04-.15c0-.05-.02-.09-.04-.13-.18-.29-.55-.41-.94-.54-.33-.11-.66-.22-.87-.43-.76-.76-1.53-1.4-2.27-2.02-.74-.61-1.5-1.25-2.24-1.99,0,0-.02-.02-.03-.03-10.42-7.44-19.38-14.39-29.07-22.56-2.03-1.52-3.95-2.96-4.94-5.42-1.38-2.76-.61-6.54,1.82-9.08,6.49,3.91,12.29,8.19,18.43,12.72,3.19,2.35,6.49,4.79,9.94,7.2.31.32.39.63.4.97-8.71-2.24-16.36-6.79-23.76-11.2-.9-.53-1.79-1.07-2.68-1.59.96-1.64.84-3.64.39-5.01-.49-1.47-2.15-1.29-2.95-1.21-.25.03-.39,0-.49.1-1.15,1.15-1.56,2.79-1.06,4.28.06.18.12.37.18.56.45,1.42,1.02,3.18,2.4,4.56,7.92,6.87,17.94,9.21,26.69,10.59,17.13,3.42,28.62.72,34.21-8.03,0,.38.11.52.25.59.26.13.57-.04.85-.46.23-.36.39-.8.37-1.22,6.5,5.05,13.04,10.23,19.37,15.25,5.44,4.31,11.05,8.75,16.55,13.05-.77,1.22-1.65,2.4-2.6,3.53-1.2.66-2.23,1.54-2.75,2.88-1.57,1.47-3.3,2.81-5.15,3.99-7.18,1.67-13.34-2.48-19.3-6.5-.99-.67-2.01-1.35-3.01-2-1.09-.73-1.95-.95-2.85-1.18-.38-.1-.78-.2-1.19-.33-.95-.47-2.43-1.45-3.44-2.46-.32-.31-.77-.46-1.22-.39-.5.08-.93.42-1.2.96-.02.04-.03.07-.03.12,0,1.17.56,2.04,1.05,2.81.18.28.35.55.48.81.01.03.03.05.05.07l9.04,9.04c1.31,1.08,2.62,2.17,3.88,3.22,4.16,3.48,8.09,6.77,12.71,9.85,1.23.61,1.42,1.64,1.42,2.86-1.08-.26-2.15-.54-3.23-.84ZM945.21,147.71h0s-.18-.11-.25-.53c0-.05,0-.1-.01-.15.04.01.08.03.13.04.2.11.31.25.29.42-.01.14-.11.22-.15.22ZM944.83,146.44s-.09-.02-.14-.03c-.04,0-.08,0-.12,0-1.17-.08-2.34-.06-3.5.07-2.62-3.49-1.95-7.85-1.3-12.06.17-1.11.33-2.15.44-3.2,0-.34.01-.67.03-1,0-.09,0-.18.01-.27,4.98,1.18,9.93,1.99,14.95,2.64.03.29.06.59.1.88-.12,3.76-.89,7.53-2.2,10.53-.94,2.16-2.88,2.96-4.96,2.98-1.1-.28-2.21-.47-3.31-.56ZM969.93,152.63c-.96,1.14-1.87,2.21-3.35,1.91-1.01-.25-1.46-1.24-1.94-2.3-.38-.83-.77-1.69-1.47-2.17-.3-.28-.76-.34-1.22-.16-.43.18-.71.52-.71.86,0,.03,0,.06.02.09.58,1.55,1.39,2.96,2.17,4.33,1.3,2.26,2.52,4.4,2.82,7.11,0,2.26.13,4.69.25,7.03.12,2.34.25,4.76.25,7.03.28,2.48.56,5.01.75,7.55-.18-1.15-.52-2.25-1.28-3.21-.11-.21-.25-.32-.42-.32-.32-.03-.53.33-.81.81-.34.57-.8,1.35-1.43,1.4-.8-.44-.8-1.28-.8-2.23.12-1.6.37-3.27.62-4.89.75-5.02,1.53-10.2-1.15-14.81-.04-.06-.1-.11-.17-.12-.07-.02-.14,0-.2.04-.06.04-1.57,1.05-2.11,2.14-.94,2.81-2.78,4.28-5.12,6.15l-.13.11-.2-.2c.74-1.23,1.8-2.28,2.83-3.3,1.77-1.76,3.45-3.42,3.12-5.68,0-2.01-1.75-2.05-3.3-2.08-.66-.01-1.33-.03-1.91-.17-.02,0-.04,0-.06,0-.39,0-.81-.19-1.22-.44.11-.1.15-.25.1-.39-.04-.14-.16-.27-.34-.37,1.04,0,2.06.28,3.12.57,1.73.47,3.52.96,5.46.13.07-.03.13-.1.15-.17.02-.08,0-.16-.04-.22-3.47-4.51-7.96-7.71-12.7-9.25,1.72-.32,3.24-1.27,4.07-3.17,1.08-2.48,1.8-5.48,2.1-8.56,1.15,5.38,3.84,10.34,7.66,13.81.03.03.06.04.1.06,2.08.65,4.83,1.34,7.9,1.67-.51.38-.96.92-1.4,1.43ZM978.77,167.55c-.23.3-.47.6-.71.89,0-.05,0-.1,0-.17.11-.44.67-.99,1.04-1.23-.07.12-.17.28-.34.51Z"/>
        <path class="cls-1" d="M990,142.39c-.03-.06-.04-.18-.02-.34.04.17.03.28.02.34Z"/>
        <path class="cls-1" d="M961.53,107.56c.07-.03.2-.08.45-.11-.04.05-.08.1-.12.14-.01,0-.02,0-.03,0-.13.02-.24,0-.3-.04Z"/>
      </g>
      <g>
        <path class="cls-1" d="M610.19,108.64c0,.39-.06.89-.32,1.04-.15.08-.63.22-2.19.22s-1.98-.32-2.05-.45c-.11-.19-.3-.95-.3-3.83,0-1.15.24-1.48.38-1.57.16-.1.71-.28,2.6-.28,1.04,0,1.38.14,1.49.22.09.07.26.31.26,1.04v.5h1.58l-.02-.48c0-.99-.24-1.68-.72-2.05-.46-.36-1.3-.53-2.56-.53-1.81,0-2.98.17-3.55.54-.51.32-.82.69-.93,1.11-.1.39-.15,1.27-.15,2.69,0,1.86.23,3.02.7,3.56.48.55,1.51.81,3.17.81,1.83,0,2.91-.14,3.4-.45.52-.33.77-1.07.77-2.27v-.57h-1.58l.02.74Z"/>
        <rect class="cls-1" x="616.11" y="102.56" width="1.57" height="8.55"/>
        <path class="cls-1" d="M628.16,108.75c-.03.07-.08.18-.15.33l-3.11-6.52h-2.25v8.55h1.58v-6.42l3.11,6.42h1.38l3.09-6.48v6.48h1.58v-8.55h-2.28l-2.95,6.19Z"/>
        <polygon class="cls-1" points="637.94 111.11 644.45 111.11 644.45 109.82 639.52 109.82 639.52 107.34 644.24 107.34 644.24 106.05 639.52 106.05 639.52 103.85 644.45 103.85 644.45 102.56 637.94 102.56 637.94 111.11"/>
        <polygon class="cls-1" points="655.86 109.29 651.08 102.56 648.97 102.56 648.97 111.11 650.54 111.11 650.54 104.41 655.32 111.11 657.44 111.11 657.44 102.56 655.86 102.56 655.86 109.29"/>
        <polygon class="cls-1" points="661.55 103.93 664.58 103.93 664.58 111.11 666.15 111.11 666.15 103.93 669.16 103.93 669.16 102.56 661.55 102.56 661.55 103.93"/>
        <path class="cls-1" d="M676.92,103.77c1.52,0,2.08.17,2.29.31.18.13.4.49.4,1.47v1.28c0,2.15-.21,2.63-.3,2.73-.07.08-.45.33-2.39.33s-2.32-.25-2.39-.33c-.09-.1-.31-.58-.31-2.73s.22-2.62.31-2.73c.07-.08.45-.33,2.39-.33M680.41,103.22c-.5-.5-1.64-.74-3.49-.74-1.59,0-2.66.21-3.27.63-.63.44-.95,1.25-.95,2.4v1.33c-.01,1.93.22,3.12.7,3.61.49.5,1.64.74,3.51.74s3.04-.25,3.52-.75c.47-.5.71-1.72.71-3.71,0-1.86-.24-3-.74-3.5"/>
        <path class="cls-1" d="M586.2,135.23c0,2.93.61,5.11,1.84,6.53,1.23,1.42,2.79,2.13,4.67,2.13,1.66,0,3.04-.68,4.16-2.05,1.12-1.36,1.68-3.67,1.68-6.93,0-3-.59-5.21-1.75-6.61-1.15-1.42-2.59-2.12-4.26-2.12-1.82,0-3.34.71-4.54,2.13-1.22,1.42-1.81,3.73-1.81,6.91M554.87,136.06c-1.96.7-3.99,1.32-6.1,1.86-2.88.76-4.72,1.52-5.48,2.26-.8.77-1.19,1.65-1.19,2.62,0,1.12.4,2.03,1.17,2.74.79.7,1.93,1.06,3.44,1.06s3.05-.38,4.42-1.14c1.36-.78,2.32-1.72,2.89-2.81.57-1.11.85-2.55.85-4.32v-2.28ZM630.12,135.19c0,3.31.67,5.76,2.01,7.33,1.34,1.59,3.02,2.39,5.04,2.39s3.73-.79,5.04-2.35c1.32-1.56,1.98-4.05,1.98-7.51,0-3.21-.67-5.6-1.99-7.17-1.32-1.56-2.97-2.35-4.92-2.35-2.07,0-3.79.8-5.13,2.39-1.35,1.6-2.03,4.03-2.03,7.28M615.88,135.23c0-5.65,1.91-10.32,5.72-13.98,3.83-3.67,8.97-5.51,15.47-5.51,7.42,0,13.04,2.16,16.83,6.46,3.05,3.47,4.58,7.75,4.58,12.82,0,5.7-1.9,10.37-5.67,14.02-3.78,3.63-9.01,5.46-15.7,5.46-5.96,0-10.77-1.51-14.45-4.54-4.52-3.74-6.77-8.65-6.77-14.73M688.16,135.02c0-2.92-.61-5.09-1.85-6.52-1.23-1.43-2.79-2.15-4.67-2.15-1.66,0-3.04.69-4.16,2.06-1.12,1.37-1.68,3.67-1.68,6.91,0,3.03.59,5.24,1.73,6.65,1.16,1.41,2.59,2.11,4.28,2.11,1.83,0,3.34-.7,4.54-2.12,1.22-1.43,1.81-3.74,1.81-6.95M702.41,102.48v51.18h-13.3v-5.48c-1.87,2.32-3.56,3.89-5.1,4.72-2.05,1.06-4.33,1.6-6.84,1.6-5.05,0-8.91-1.92-11.58-5.76-2.66-3.84-3.99-8.51-3.99-14,0-6.15,1.46-10.85,4.42-14.1,2.94-3.27,6.69-4.9,11.21-4.9,2.21,0,4.22.38,6.03,1.12,1.8.75,3.4,1.86,4.8,3.35v-17.73h14.35ZM705.53,115.27h14.22v38.39h-14.22v-38.39ZM705.53,102.48h14.22v9.68h-14.22v-9.68ZM531.18,121.56c.97-1.36,2.35-2.54,4.18-3.54,1.3-.73,3.1-1.29,5.37-1.68,2.28-.39,4.74-.59,7.4-.59,4.25,0,7.69.24,10.26.71,2.59.48,4.74,1.48,6.46,2.99,1.22,1.05,2.17,2.52,2.87,4.44.7,1.93,1.04,3.76,1.04,5.51l.07,24.26h-13.14l-.02-4.54c-1.86,1.8-3.72,3.08-5.55,3.84-2.51,1.03-5.44,1.54-8.76,1.54-4.42,0-7.78-1.03-10.08-3.08-2.29-2.04-3.43-4.56-3.43-7.57,0-2.82.82-5.14,2.48-6.95,1.66-1.82,4.7-3.17,9.14-4.05,5.34-1.07,8.79-1.82,10.38-2.25,1.57-.43,3.26-1,5.02-1.69,0-5.1-10.29-6.12-12.33-.32h-14.25c.55-2.44,1.42-4.96,2.89-7.03M571.95,167.77v-51.19h13.3v5.48c1.84-2.31,3.53-3.87,5.07-4.68,2.07-1.1,4.36-1.64,6.87-1.64,4.96,0,8.79,1.91,11.51,5.7,2.7,3.79,4.06,8.48,4.06,14.08,0,6.16-1.48,10.87-4.43,14.12-2.96,3.24-6.7,4.86-11.2,4.86-2.19,0-4.2-.37-5.99-1.11-1.8-.75-3.42-1.86-4.84-3.32v17.71h-14.35Z"/>
        <polygon class="cls-1" points="453.93 102.4 494.41 167.77 527.85 167.77 487.37 102.4 453.93 102.4"/>
        <polygon class="cls-1" points="471.82 140.82 454.98 167.77 421.55 167.77 455.17 113.93 471.82 140.82"/>
      </g>
    </g>
  </g>
</svg>