<?xml version="1.0" encoding="UTF-8"?>
<svg id="Layer_2" data-name="Layer 2" xmlns="http://www.w3.org/2000/svg" viewBox="0 0 1949.78 142.57">
  <defs>
    <style>
      .cls-1 {
        fill: #fff;
        stroke-width: 0px;
      }
    </style>
  </defs>
  <g id="Layer_1-2" data-name="Layer 1">
    <g>
      <g>
        <path class="cls-1" d="M1011.85,48.34c0,.39-.06.89-.32,1.04-.15.08-.63.22-2.19.22s-1.98-.32-2.05-.45c-.11-.19-.3-.95-.3-3.83,0-1.15.24-1.48.38-1.57.16-.1.71-.28,2.6-.28,1.04,0,1.38.14,1.49.22.09.07.26.31.26,1.04v.5h1.58l-.02-.48c0-.99-.24-1.68-.72-2.05-.46-.36-1.3-.53-2.56-.53-1.81,0-2.98.17-3.55.54-.51.32-.82.69-.93,1.11-.1.39-.15,1.27-.15,2.69,0,1.86.23,3.02.7,3.56.48.55,1.51.81,3.17.81,1.83,0,2.91-.14,3.4-.45.52-.33.77-1.07.77-2.27v-.57h-1.58l.02.74Z"/>
        <rect class="cls-1" x="1017.77" y="42.26" width="1.57" height="8.55"/>
        <path class="cls-1" d="M1029.82,48.45c-.03.07-.08.18-.15.33l-3.11-6.52h-2.25v8.55h1.58v-6.42l3.11,6.42h1.38l3.09-6.48v6.48h1.58v-8.55h-2.28l-2.95,6.19Z"/>
        <polygon class="cls-1" points="1039.6 50.81 1046.11 50.81 1046.11 49.52 1041.18 49.52 1041.18 47.05 1045.9 47.05 1045.9 45.76 1041.18 45.76 1041.18 43.55 1046.11 43.55 1046.11 42.26 1039.6 42.26 1039.6 50.81"/>
        <polygon class="cls-1" points="1057.52 49 1052.74 42.26 1050.63 42.26 1050.63 50.81 1052.2 50.81 1052.2 44.11 1056.98 50.81 1059.1 50.81 1059.1 42.26 1057.52 42.26 1057.52 49"/>
        <polygon class="cls-1" points="1063.21 43.63 1066.24 43.63 1066.24 50.81 1067.81 50.81 1067.81 43.63 1070.82 43.63 1070.82 42.26 1063.21 42.26 1063.21 43.63"/>
        <path class="cls-1" d="M1078.58,43.47c1.52,0,2.08.17,2.29.31.18.13.4.49.4,1.47v1.28c0,2.15-.21,2.63-.3,2.73-.07.08-.45.33-2.39.33s-2.32-.25-2.39-.33c-.09-.1-.31-.58-.31-2.73s.22-2.62.31-2.73c.07-.08.45-.33,2.39-.33M1082.07,42.92c-.5-.5-1.64-.74-3.49-.74-1.59,0-2.66.21-3.27.63-.63.44-.95,1.25-.95,2.4v1.33c-.01,1.93.22,3.12.7,3.61.49.5,1.64.74,3.51.74s3.04-.25,3.52-.75c.47-.5.71-1.72.71-3.71,0-1.86-.24-3-.74-3.5"/>
        <path class="cls-1" d="M987.86,74.93c0,2.93.61,5.11,1.84,6.53,1.23,1.42,2.79,2.13,4.67,2.13,1.66,0,3.04-.68,4.16-2.05,1.12-1.36,1.68-3.67,1.68-6.93,0-3-.59-5.21-1.75-6.61-1.15-1.42-2.59-2.12-4.26-2.12-1.82,0-3.34.71-4.54,2.13-1.22,1.42-1.81,3.73-1.81,6.91M956.52,75.76c-1.96.7-3.99,1.32-6.1,1.86-2.88.76-4.72,1.52-5.48,2.26-.8.77-1.19,1.65-1.19,2.62,0,1.12.4,2.03,1.17,2.74.79.7,1.93,1.06,3.44,1.06s3.05-.38,4.42-1.14c1.36-.78,2.32-1.72,2.89-2.81.57-1.11.85-2.55.85-4.32v-2.28ZM1031.78,74.89c0,3.31.67,5.76,2.01,7.33,1.34,1.59,3.02,2.39,5.04,2.39s3.73-.79,5.04-2.35c1.32-1.56,1.98-4.05,1.98-7.51,0-3.21-.67-5.6-1.99-7.17-1.32-1.56-2.97-2.35-4.92-2.35-2.07,0-3.79.8-5.13,2.39-1.35,1.6-2.03,4.03-2.03,7.28M1017.54,74.93c0-5.65,1.91-10.32,5.72-13.98,3.83-3.67,8.97-5.51,15.47-5.51,7.42,0,13.04,2.16,16.83,6.46,3.05,3.47,4.58,7.75,4.58,12.82,0,5.7-1.9,10.37-5.67,14.02-3.78,3.63-9.01,5.46-15.7,5.46-5.96,0-10.77-1.51-14.45-4.54-4.52-3.74-6.77-8.65-6.77-14.73M1089.82,74.72c0-2.92-.61-5.09-1.85-6.52-1.23-1.43-2.79-2.15-4.67-2.15-1.66,0-3.04.69-4.16,2.06-1.12,1.37-1.68,3.67-1.68,6.91,0,3.03.59,5.24,1.73,6.65,1.16,1.41,2.59,2.11,4.28,2.11,1.83,0,3.34-.7,4.54-2.12,1.22-1.43,1.81-3.74,1.81-6.95M1104.07,42.18v51.18h-13.3v-5.48c-1.87,2.32-3.56,3.89-5.1,4.72-2.05,1.06-4.33,1.6-6.84,1.6-5.05,0-8.91-1.92-11.58-5.76-2.66-3.84-3.99-8.51-3.99-14,0-6.15,1.46-10.85,4.42-14.1,2.94-3.27,6.69-4.9,11.21-4.9,2.21,0,4.22.38,6.03,1.12,1.8.75,3.4,1.86,4.8,3.35v-17.73h14.35ZM1107.19,54.97h14.22v38.39h-14.22v-38.39ZM1107.19,42.18h14.22v9.68h-14.22v-9.68ZM932.84,61.26c.97-1.36,2.35-2.54,4.18-3.54,1.3-.73,3.1-1.29,5.37-1.68,2.28-.39,4.74-.59,7.4-.59,4.25,0,7.69.24,10.26.71,2.59.48,4.74,1.48,6.46,2.99,1.22,1.05,2.17,2.52,2.87,4.44.7,1.93,1.04,3.76,1.04,5.51l.07,24.26h-13.14l-.02-4.54c-1.86,1.8-3.72,3.08-5.55,3.84-2.51,1.03-5.44,1.54-8.76,1.54-4.42,0-7.78-1.03-10.08-3.08-2.29-2.04-3.43-4.56-3.43-7.57,0-2.82.82-5.14,2.48-6.95,1.66-1.82,4.7-3.17,9.14-4.05,5.34-1.07,8.79-1.82,10.38-2.25,1.57-.43,3.26-1,5.02-1.69,0-5.1-10.29-6.12-12.33-.32h-14.25c.55-2.44,1.42-4.96,2.89-7.03M973.6,107.48v-51.19h13.3v5.48c1.84-2.31,3.53-3.87,5.07-4.68,2.07-1.1,4.36-1.64,6.87-1.64,4.96,0,8.79,1.91,11.51,5.7,2.7,3.79,4.06,8.48,4.06,14.08,0,6.16-1.48,10.87-4.43,14.12-2.96,3.24-6.7,4.86-11.2,4.86-2.19,0-4.2-.37-5.99-1.11-1.8-.75-3.42-1.86-4.84-3.32v17.71h-14.35Z"/>
        <polygon class="cls-1" points="855.59 42.11 896.07 107.48 929.51 107.48 889.03 42.11 855.59 42.11"/>
        <polygon class="cls-1" points="873.48 80.52 856.64 107.48 823.21 107.48 856.83 53.63 873.48 80.52"/>
      </g>
      <g>
        <path class="cls-1" d="M0,129.12c0,.6,0,1.2,0,1.79h1647.44c2.44,0,4.61.08,7.09.12l.1-1.15L0,129.12Z"/>
        <g>
          <path class="cls-1" d="M1769.01,32.34c-5.67,5.44-11.39,10.83-17.18,16.15-1.22,1-2.28,2.17-3.43,3.25-3.54,3.28-7.06,6.59-10.5,9.97-1.17.99-2.15,2.18-3.16,3.33-.61.06-.66-.75-.64-1.19.13-4.12.31-23.13.22-27.25-.22-1.96-.38-3.96-1.03-5.83-.16-.5-.82-.72-1.24-.4-.34.48-.46,1.07-.6,1.64-.39,2.42-.65,4.87-.62,7.33,0,3.43-.03,21.75.24,25.17-4.06-3.39-8.65-6.09-12.99-9.1-4.02-2.43-7.85-5.17-11.79-7.74-2.13-1.29-4.15-2.75-6.22-4.13-.33-.23-.69-.4-1.06-.55-.26-.11-.57-.03-.75.19-.01.02-.02.03-.04.05-.2.26-.19.63.04.86.45.47,1.08.76,1.6,1.14,5.73,4.05,11.52,8.02,17.04,12.36,4.07,2.98,7.99,6.18,12.03,9.22-.52,1.34-.48,3.01.53,4.13.45.63,1.18.96,1.9,1.11.63.12,1.93.19,2.57.09,1.32-.23,2.39-1.42,2.69-2.78.28-.71-.17-1.48.05-2.16,1.64-1.23,3-2.78,4.49-4.17,3.54-3.7,7.11-7.37,10.57-11.15,5.9-6.4,11.81-12.83,18.3-18.65.42-.38.23-1.1-.33-1.18-.24-.03-.5.06-.67.33ZM1729.55,65.78c-.71-.39-1.28-.95-1.91-1.44-3.4-2.78-7.01-5.29-10.38-8.11,1.82,1.22,3.58,2.53,5.44,3.69,2.05,1.29,3.96,2.79,5.99,4.11.49.35,1.11.62,1.33,1.25-.12.13-.34.38-.46.5ZM1731.33,70.82c-1.31-.2-1.75-1.7-1.7-2.84.82.29,1.32,1.06,1.97,1.6-.02.43-.09.85-.27,1.24ZM1731.55,67.8c-.47-.35-1.09-.77-.89-1.45.16-.01.48-.03.64-.04.16.32.32.64.47.96-.05.13-.16.4-.22.53ZM1732.63,66.22c-.37-.06-.49-.61-.22-.84.49-.29.7.76.22.84ZM1733,64.05c-.27,0-.53,0-.8-.01-.17-3.61-.16-22.1-.2-25.71,0-1.92.23-3.83.41-5.74.38,1.14.45,2.34.64,3.52.18,4.35-.09,23.59-.06,27.95ZM1733.9,66.96c.01-.16.04-.48.06-.64.28.11.5.32.62.6-.17,0-.51.03-.68.03ZM1735.53,69.21c-.3.68-.87,1.19-1.48,1.59-.03-.58-.03-1.17.07-1.75.23-.6.68-1.07,1.14-1.5.22.52.46,1.09.27,1.66ZM1736.72,65.72c-.29.42-1.21.67-.99-.13,2.03-2.2,4.26-4.2,6.41-6.28,2.7-2.55,5.4-5.1,8.15-7.6-4.47,4.72-8.92,9.47-13.58,14.01Z"/>
          <path class="cls-1" d="M1949.64,125.04c-55.87,0-123.26,0-140.25,0-9.89-.03-19.78.04-29.66-.04-4.4.06-8.36.59-12.41,1.7-3.85.94-7.66,2.05-11.49,3.06-5.81,1.44-11.77,2.71-17.8,2.45-7.57-.23-15.18-.95-22.52-2.92-5.19-1.5-10.23-3.51-15.07-5.92-3.68-1.98-7.28-4.12-10.6-6.66-1.89-1.38-3.77-2.8-5.47-4.41-6.93-7.08-11.9-15.97-14.84-25.41-1.75-6.05-2.83-12.32-2.8-18.63-.03-2.53.14-5.06.31-7.58.76-6.13,2.09-12.24,4.49-17.95,3.07-7.29,7.26-14.13,12.53-20.04,6.45-7.09,14.37-12.94,23.34-16.42,6.55-2.08,13.4-3.27,20.27-3.42,2.22-.07,4.44.17,6.65.21,4.63.19,9.19,1.18,13.64,2.44,2.82,1.06,5.69,2.05,8.35,3.51,4.08,2.19,8.18,4.48,11.59,7.66-6.04-3.57-12.62-6.28-19.51-7.68-5.03-1.05-10.15-1.49-15.28-1.73-1.91.07-3.83.07-5.74.21-4.19.48-8.36,1.21-12.42,2.33-7.33,2.15-14.33,5.57-20.3,10.35-3.63,2.75-6.85,6.01-9.79,9.47-2.48,3.1-4.89,6.28-6.8,9.77-2.86,4.99-4.92,10.42-6.22,16.02-.64,3.42-1.39,6.87-1.24,10.37-.09,1.31.56,2.53,1.48,3.42-.98.76-1.31,2.03-1.3,3.23.19,3.48.76,6.94,1.61,10.32,2.68,9.67,8.17,18.44,15.33,25.44,1.66,1.71,3.42,3.34,5.27,4.84,5.46,4.15,11.44,7.69,17.9,10.05,2.29.74,5.1,1.84,6.82,2.38,8.6,2.67,16.86,3.43,24.37,3.43,5.13,0,9.97-.53,14.48-1.6,7.88-1.86,14.65-5.18,20.82-10.34,5.96-4.73,10.44-10.57,14.16-17.18,8.13-14.6,10.63-32.38,6.22-48.54-1.12-4.39-2.9-8.58-4.91-12.63-4.38-8.76-10.71-16.52-18.34-22.65-2.2-1.69-4.34-3.46-6.72-4.88-5.07-3.23-10.38-6.2-16.12-8.09-3.49-1.21-7.13-1.99-10.77-2.57-3.65-.46-7.35-.54-11.02-.33-4.32.16-8.66.57-12.84,1.75-8.74,2.08-17.04,5.96-24.29,11.26-5.05,3.78-9.54,8.32-13.31,13.37-3.95,5.37-7.26,11.22-9.65,17.45-3.23,8.77-4.73,18.2-4.12,27.54.31,5.73,1.39,11.42,3.1,16.9.64,2.27,1.67,4.4,2.55,6.59,1.92,4.23,4.17,8.33,7,12.03,1.74,2.41,3.73,4.64,5.74,6.83,2.08,2.37,4.34,4.57,6.67,6.7,3.66,2.99,7.4,5.93,11.57,8.17,4.49,2.53,9.42,4.14,14.3,5.73,4.71,1.35,9.54,2.29,14.42,2.85,2.27.4,4.56.73,6.85,1.02.66.09,1.75.19,2.93.3-14.11,3.86-30.31,3.76-50.61-.26-7.82-1.55-15.69-3.53-23.3-5.46-4.03-1.02-8.12-2.05-12.24-3.02-.04.38-.08.77-.12,1.15,4.07.97,8.1,1.98,12.08,2.99,7.63,1.93,15.51,3.92,23.36,5.47,10.11,2,19.05,3.01,27.33,3.08.34,0,.67,0,1,0,9.42,0,17.83-1.21,25.66-3.69,1.28.1,2.22.17,2.22.17,1.39.13,11.76.72,23,.13,2.96-.15,5.92-.36,8.86-.78,2.19-.28,4.38-.68,6.44-1.48.72-.33,1.62-.82,1.67-1.71-.09-.89-1.1-1.17-1.82-1.39-2.17-.43-4.41-.33-6.61-.18-4.1.28-8.18.76-12.28,1.08-5.12.56-10.24,1.06-15.32,1.92-2.78.34-5.56.99-8.38.77-5.25-.52-10.48-1.25-15.69-2.12-2.57-.43-6.99-1.32-9.5-2.03,1.84.18,5.55.62,7.41.74,5.83.36,11.67.19,17.45-.43,4.78-.46,9.51-1.33,14.16-2.51,5.78-1.58,11.54-3.23,17.42-4.43.23-.05.47-.09.7-.12,4.22-.57,8.49-.37,12.73-.4,22.77-.02,101.12,0,163.35,0-.05-.35-.09-.71-.14-1.06ZM1729.31,126.55c-3.74-.72-7.51-1.31-11.19-2.33-10.59-2.93-20.72-8.11-28.58-15.87-4.9-4.69-9.19-10.07-12.24-16.15-3.06-5.97-4.89-12.56-5.43-19.24-.09-.98.04-2.17.96-2.73.46-.39,1.1-.18,1.65-.22-.07,4,.69,7.94,1.52,11.84,1.23,5.01,3.2,9.82,5.72,14.31,1.65,2.6,3.22,5.27,5.26,7.59,2.65,3.19,5.55,6.17,8.79,8.76,5.53,4.2,11.64,7.76,18.28,9.87,3.83,1.39,7.86,2.14,11.89,2.68,2.05.14,4.17.71,6.18.03.63.08,1.15.57,1.81.59,2.75.22,5.5,0,8.24-.18,4.71-.49,9.34-1.83,13.55-4.01,7.13-3.46,13.51-8.38,18.93-14.15,7.94-8.44,13.71-19.09,15.58-30.59.31-2.3.99-4.64.46-6.96.57-1.85.51-3.82.36-5.71-.1-1.25-.15-2.47-.35-3.7-1.44-8.89-4.31-17.61-9.37-25.05-5.16-7.55-11.87-14.14-19.85-18.66-4.77-2.7-9.94-4.73-15.34-5.7-3.9-.63-7.85-1.26-11.81-.96-.68.08-1.24.49-1.8.85-.51-.3-1.03-.67-1.65-.65-1.32-.05-2.66-.07-3.97.16-3.79.42-7.59.98-11.2,2.22-3.71,1.07-7.28,2.58-10.67,4.42-3.38,1.74-6.44,4.03-9.48,6.29-6.17,5.11-11.37,11.41-15.05,18.55-2.61,4.89-4.44,10.22-5.28,15.71-.34,2.16-.64,4.32-.79,6.5-.18,1.57.02,3.16-.13,4.73-1.25-.05-2.3-1.12-2.55-2.3-.16-.89-.12-1.79-.07-2.69.87-9.3,3.81-18.46,8.85-26.34,4.7-7.2,10.62-13.68,17.74-18.54,7.78-5.43,16.96-8.69,26.33-9.94,4.42-.66,8.91-.69,13.36-.35,8.08.75,16.16,2.53,23.49,6.09,4.87,2.15,9.32,5.16,13.42,8.54,3.6,3.17,6.69,6.9,9.4,10.85,2.93,4.17,5.14,8.8,6.89,13.58,2.57,7.04,3.49,14.62,3.08,22.08-.14.96-.17,1.94-.22,2.91-1.21,10.33-5.38,20.17-11.31,28.67-4.47,6.29-10.05,11.77-16.3,16.3-3.98,2.75-8.26,5.11-12.84,6.69-7.76,2.69-16.16,3.25-24.27,2.21ZM1731.41,13.69c-.01,4.13.02,8.25.04,12.37.05.62-.07,1.43.52,1.83.69.51,1.52-.4,1.44-1.11.12-3.95.03-7.9.03-11.85.01-1.06-.09-2.13-.37-3.15.5-.41,1.11-.66,1.76-.69,1.47-.09,2.93-.04,4.41.1,1.77.17,3.53.36,5.27.69,4.91.83,9.75,2.31,14.16,4.65,3.62,1.8,7.03,4.02,10.12,6.63,7.45,6.26,13.56,14.26,17.14,23.35,2.91,7,4.27,14.65,3.95,22.22-.87-.33-1.79-.55-2.72-.52-3.79.01-7.58-.07-11.37.03-.62-.08-1.08.48-1.21,1.02-.03.73.83,1.09,1.46,1.01,4.44-.06,8.89.1,13.34-.09.48.76.27,1.69.25,2.53-.19,1.99-.55,3.97-.96,5.93-.94,5.08-2.87,9.92-5.25,14.49-2.14,3.98-4.66,7.76-7.65,11.15-6.38,7.48-14.39,13.63-23.46,17.48-5.49,2.38-11.56,3.02-17.49,2.87-.51-.04-1.27.02-1.37-.64.29-2.6.08-5.22.14-7.84.01-2.23.01-4.46-.05-6.68-.04-.53-.08-1.3-.73-1.43-.69-.18-1.21.56-1.2,1.19-.07,5-.25,10-.02,15-3.97.1-7.91-.58-11.77-1.47-1.82-.38-3.6-.9-5.35-1.53-9.97-3.31-19.1-9.31-25.87-17.37-5.75-6.65-9.78-14.76-11.72-23.32-.71-3.4-1.31-6.85-1.31-10.33,5.1.07,10.21.04,15.31.07.75.11,1.62-.71,1.21-1.47-.38-.56-1.1-.6-1.71-.6-4.21.07-8.41-.09-12.61.04-.75.05-1.48.26-2.23.29-.23-5.1.54-10.19,1.7-15.15,1.28-5.32,3.64-10.33,6.52-14.97,3.89-6.2,9.04-11.59,14.87-16.01,3.62-2.61,7.48-4.91,11.59-6.66,5.93-2.5,12.25-4.03,18.67-4.5.73-.04,1.46-.08,2.18,0,.88.53.28,1.61.36,2.41ZM1779.27,69.39c-1.08.09-2.17.15-3.24.03,1.05-.3,2.17-.1,3.24-.03ZM1686.4,69.4c1.41-.18,2.84-.13,4.25-.06-1.38.32-2.84.08-4.25.06ZM1732.34,1.11c8.15-.22,16.3,1.6,23.74,4.9,3.77,1.68,7.39,3.67,10.82,5.96,8.14,5.2,15.34,11.96,20.72,20.01,5.93,8.89,9.91,19.17,10.9,29.85.36,4.72.37,9.5-.37,14.19-1.07,9.3-4.47,18.26-9.41,26.19-3.22,5.1-7.16,9.78-11.87,13.56-8.6,7.18-19.21,11.13-31.62,11.76,1.03-.16,2.06-.34,3.09-.52,8.44-1.78,16.18-6.07,22.81-11.52,3.33-2.74,6.36-5.83,9.17-9.1,2.28-2.95,4.54-5.94,6.38-9.18,2.14-3.56,3.86-7.35,5.34-11.22,1.9-5.39,3.06-11.04,3.37-16.74.21-5.77-.27-11.58-1.67-17.18-2.02-7.67-5.56-14.93-10.36-21.24-1.33-1.71-2.75-3.34-4.2-4.95l-4.7-4.94c-.93-.98-1.91-1.9-2.95-2.76-2.72-2.24-5.29-4.65-8.27-6.55-4.81-3.16-10.03-5.76-15.56-7.41-6.18-1.85-12.65-2.45-19.07-2.39-2.93-.1-5.85.31-8.76.54,4.1-.82,8.29-1.11,12.47-1.28ZM1766.15,135.78c4.37-.36,8.72-1.16,13.11-1.15,1.76,0,3.57-.11,5.27.46.41.37-.36.63-.62.79-4.73,1.68-9.8,2.02-14.76,2.23-2.32.1-4.61.29-6.93.28-4.78-.02-9.56-.16-14.32-.26,6.06-.9,12.14-1.79,18.25-2.35ZM1721.18,132.76c-5.3-.61-10.76-1.18-15.57-3.68-5.78-2.78-10.94-6.67-15.71-10.92,3.4,2.44,6.93,4.7,10.66,6.61,5.25,2.55,10.73,4.7,16.42,6.06,2.72.73,6.26,1.26,8.36,1.52,1.34.17,3.72.35,5.31.47,1.41.1,3.77.13,5.66.27-5.05.15-10.12.29-15.14-.34Z"/>
        </g>
      </g>
    </g>
  </g>
</svg>