<?xml version="1.0" encoding="UTF-8"?>
<svg id="Layer_2" data-name="Layer 2" xmlns="http://www.w3.org/2000/svg" viewBox="0 0 1997.64 144.53">
  <defs>
    <style>
      .cls-1 {
        stroke-width: 0px;
      }

      .cls-1, .cls-2 {
        fill: #fff;
      }

      .cls-2 {
        stroke: #fff;
        stroke-miterlimit: 10;
      }
    </style>
  </defs>
  <g id="Layer_1-2" data-name="Layer 1">
    <g>
      <g>
        <path class="cls-1" d="M1059.01,12.85c0,.39-.06.89-.32,1.04-.15.08-.63.22-2.19.22s-1.98-.32-2.05-.45c-.11-.19-.3-.95-.3-3.83,0-1.15.24-1.48.38-1.57.16-.1.71-.28,2.6-.28,1.04,0,1.38.14,1.49.22.09.07.26.31.26,1.04v.5h1.58l-.02-.48c0-.99-.24-1.68-.72-2.05-.46-.36-1.3-.53-2.56-.53-1.81,0-2.98.17-3.55.54-.51.32-.82.69-.93,1.11-.1.39-.15,1.27-.15,2.69,0,1.86.23,3.02.7,3.56.48.55,1.51.81,3.17.81,1.83,0,2.91-.14,3.4-.45.52-.33.77-1.07.77-2.27v-.57h-1.58l.02.74Z"/>
        <rect class="cls-1" x="1064.93" y="6.77" width="1.57" height="8.55"/>
        <path class="cls-1" d="M1076.98,12.96c-.03.07-.08.18-.15.33l-3.11-6.52h-2.25v8.55h1.58v-6.42l3.11,6.42h1.38l3.09-6.48v6.48h1.58V6.77h-2.28l-2.95,6.19Z"/>
        <polygon class="cls-1" points="1086.76 15.32 1093.26 15.32 1093.26 14.03 1088.34 14.03 1088.34 11.56 1093.06 11.56 1093.06 10.27 1088.34 10.27 1088.34 8.06 1093.26 8.06 1093.26 6.77 1086.76 6.77 1086.76 15.32"/>
        <polygon class="cls-1" points="1104.68 13.51 1099.9 6.77 1097.79 6.77 1097.79 15.32 1099.36 15.32 1099.36 8.62 1104.14 15.32 1106.26 15.32 1106.26 6.77 1104.68 6.77 1104.68 13.51"/>
        <polygon class="cls-1" points="1110.37 8.14 1113.4 8.14 1113.4 15.32 1114.97 15.32 1114.97 8.14 1117.98 8.14 1117.98 6.77 1110.37 6.77 1110.37 8.14"/>
        <path class="cls-1" d="M1125.74,7.98c1.52,0,2.08.17,2.29.31.18.13.4.49.4,1.47v1.28c0,2.15-.21,2.63-.3,2.73-.07.08-.45.33-2.39.33s-2.32-.25-2.39-.33c-.09-.1-.31-.58-.31-2.73s.22-2.62.31-2.73c.07-.08.45-.33,2.39-.33M1129.23,7.43c-.5-.5-1.64-.74-3.49-.74-1.59,0-2.66.21-3.27.63-.63.44-.95,1.25-.95,2.4v1.33c-.01,1.93.22,3.12.7,3.61.49.5,1.64.74,3.51.74s3.04-.25,3.52-.75c.47-.5.71-1.72.71-3.71,0-1.86-.24-3-.74-3.5"/>
        <path class="cls-1" d="M1035.02,39.44c0,2.93.61,5.11,1.84,6.53,1.23,1.42,2.79,2.13,4.67,2.13,1.66,0,3.04-.68,4.16-2.05,1.12-1.36,1.68-3.67,1.68-6.93,0-3-.59-5.21-1.75-6.61-1.15-1.42-2.59-2.12-4.26-2.12-1.82,0-3.34.71-4.54,2.13-1.22,1.42-1.81,3.73-1.81,6.91M1003.68,40.27c-1.96.7-3.99,1.32-6.1,1.86-2.88.76-4.72,1.52-5.48,2.26-.8.77-1.19,1.65-1.19,2.62,0,1.12.4,2.03,1.17,2.74.79.7,1.93,1.06,3.44,1.06s3.05-.38,4.42-1.14c1.36-.78,2.32-1.72,2.89-2.81.57-1.11.85-2.55.85-4.32v-2.28ZM1078.94,39.4c0,3.31.67,5.76,2.01,7.33,1.34,1.59,3.02,2.39,5.04,2.39s3.73-.79,5.04-2.35c1.32-1.56,1.98-4.05,1.98-7.51,0-3.21-.67-5.6-1.99-7.17-1.32-1.56-2.97-2.35-4.92-2.35-2.07,0-3.79.8-5.13,2.39-1.35,1.6-2.03,4.03-2.03,7.28M1064.7,39.44c0-5.65,1.91-10.32,5.72-13.98,3.83-3.67,8.97-5.51,15.47-5.51,7.42,0,13.04,2.16,16.83,6.46,3.05,3.47,4.58,7.75,4.58,12.82,0,5.7-1.9,10.37-5.67,14.02-3.78,3.63-9.01,5.46-15.7,5.46-5.96,0-10.77-1.51-14.45-4.54-4.52-3.74-6.77-8.65-6.77-14.73M1136.98,39.23c0-2.92-.61-5.09-1.85-6.52-1.23-1.43-2.79-2.15-4.67-2.15-1.66,0-3.04.69-4.16,2.06-1.12,1.37-1.68,3.67-1.68,6.91,0,3.03.59,5.24,1.73,6.65,1.16,1.41,2.59,2.11,4.28,2.11,1.83,0,3.34-.7,4.54-2.12,1.22-1.43,1.81-3.74,1.81-6.95M1151.23,6.69v51.18h-13.3v-5.48c-1.87,2.32-3.56,3.89-5.1,4.72-2.05,1.06-4.33,1.6-6.84,1.6-5.05,0-8.91-1.92-11.58-5.76-2.66-3.84-3.99-8.51-3.99-14,0-6.15,1.46-10.85,4.42-14.1,2.94-3.27,6.69-4.9,11.21-4.9,2.21,0,4.22.38,6.03,1.12,1.8.75,3.4,1.86,4.8,3.35V6.69h14.35ZM1154.35,19.48h14.22v38.39h-14.22V19.48ZM1154.35,6.69h14.22v9.68h-14.22V6.69ZM980,25.77c.97-1.36,2.35-2.54,4.18-3.54,1.3-.73,3.1-1.29,5.37-1.68,2.28-.39,4.74-.59,7.4-.59,4.25,0,7.69.24,10.26.71,2.59.48,4.74,1.48,6.46,2.99,1.22,1.05,2.17,2.52,2.87,4.44.7,1.93,1.04,3.76,1.04,5.51l.07,24.26h-13.14l-.02-4.54c-1.86,1.8-3.72,3.08-5.55,3.84-2.51,1.03-5.44,1.54-8.76,1.54-4.42,0-7.78-1.03-10.08-3.08-2.29-2.04-3.43-4.56-3.43-7.57,0-2.82.82-5.14,2.48-6.95,1.66-1.82,4.7-3.17,9.14-4.05,5.34-1.07,8.79-1.82,10.38-2.25,1.57-.43,3.26-1,5.02-1.69,0-5.1-10.29-6.12-12.33-.32h-14.25c.55-2.44,1.42-4.96,2.89-7.03M1020.76,71.98V20.8h13.3v5.48c1.84-2.31,3.53-3.87,5.07-4.68,2.07-1.1,4.36-1.64,6.87-1.64,4.96,0,8.79,1.91,11.51,5.7,2.7,3.79,4.06,8.48,4.06,14.08,0,6.16-1.48,10.87-4.43,14.12-2.96,3.24-6.7,4.86-11.2,4.86-2.19,0-4.2-.37-5.99-1.11-1.8-.75-3.42-1.86-4.84-3.32v17.71h-14.35Z"/>
        <polygon class="cls-1" points="902.75 6.61 943.23 71.98 976.67 71.98 936.19 6.61 902.75 6.61"/>
        <polygon class="cls-1" points="920.64 45.03 903.8 71.98 870.37 71.98 903.99 18.14 920.64 45.03"/>
      </g>
      <path class="cls-2" d="M1997.14,91.02h-205.29l-1.57-5.15c.27-.11.42-.17.45-.19l.17-.07-.04-.17-.8-4.37,14.92-7.14-.19-.21c-14.09-15.73-21.86-32.87-25.9-44.47-4.38-12.58-5.43-21.55-5.44-21.64v-.03s-.02-.03-.02-.03c-.01-.03-.24-.54-.69-.9-.39-1.94-.6-3.09-.6-3.12l-.18-1.01-.62,2.72-1.7.57c-.04-.27-.09-.53-.16-.78l1.78-.58h0s-.13-.4-.13-.4l-1.77.57c-.23-.71-.57-1.29-.97-1.68-.65-.61-1.46-.73-2.33-.34-1.1.49-1.8,2.17-2.23,3.78h-.05c-.22-.72-.56-1.29-1.02-1.63-.44-.33-1.21-.59-2.35,0-1.02.52-1.62,1.96-1.97,3.35h-.02c-.17-.63-.45-1.17-.86-1.49-.52-.41-1.19-.46-1.99-.15-1.2.47-1.86,2.43-1.89,2.51-.08.23-.15.47-.22.71l-.28.09c-.32-.75-.75-1.38-1.31-1.7-.47-.27-1.25-.43-2.25.34-.82.63-1.34,1.78-1.66,3.01l-.05.02c-.33-.87-.82-1.53-1.43-1.87-.65-.36-1.37-.27-2.03.24-.72.56-1.28,1.99-1.65,3.25l-.55.17c-.44-1.07-1.01-1.85-1.62-2.18-.44-.23-1.31-.43-2.17.89-.55.83-.92,1.86-1.18,2.87l-.51.16c-.43-.93-1.01-1.59-1.62-1.87-.7-.31-1.42-.1-2.04.58-.65.72-1.09,1.85-1.38,2.89l-.05.02c-.18-.53-.43-1.04-.79-1.39-.52-.5-1.17-.59-1.88-.26-1,.46-1.71,1.83-2.2,3.21l-.23.07c-.22-.57-.52-1.05-.87-1.38-.65-.61-1.46-.73-2.33-.34-1.01.45-1.69,1.92-2.13,3.41l-.25.08c-.22-.59-.53-1.05-.92-1.34-.44-.33-1.21-.59-2.35,0-.93.47-1.51,1.72-1.87,2.99l-.27.08c-.2-.64-.5-1.19-.93-1.52-.54-.41-1.2-.45-1.98-.1-.12.05-.26.14-.43.27-.64.47-1.18,1.12-1.55,1.86-.2.41-.37.81-.5,1.21l-.22.07c-.3-.58-.67-1.06-1.13-1.33-.47-.27-1.25-.43-2.25.34-.71.55-1.2,1.5-1.52,2.55l-.34.11c-.32-.68-.75-1.21-1.27-1.49-.65-.36-1.37-.27-2.03.24-.63.49-1.14,1.65-1.5,2.78l-.86.27c-.41-.88-.92-1.52-1.46-1.8-.44-.23-1.31-.43-2.17.89-.46.71-.8,1.55-1.05,2.4l-.82.26c-.4-.74-.91-1.26-1.43-1.5-.7-.31-1.42-.1-2.04.58-.55.61-.95,1.52-1.24,2.42l-.33.11c-.16-.39-.38-.75-.65-1.01-.52-.5-1.17-.59-1.88-.26-.88.41-1.54,1.52-2.02,2.72l-.58.18c-.2-.41-.43-.75-.7-1-.65-.61-1.46-.73-2.33-.34-.91.4-1.54,1.62-1.98,2.94l-.56.18c-.2-.41-.46-.74-.76-.97-.44-.33-1.21-.59-2.35,0-.81.41-1.36,1.42-1.73,2.51l-.6.19c-.13-.25-.29-.47-.49-.66-.55-.54-1.28-.75-2.19-.6-1.75.28-2.5,1.06-2.82,1.66-.24.46-.28.88-.28,1.11l-1.42.46-.08.36-.25.08.12.52-17.6,82.05,5.35-29.45H.5v.42h1651.76l-5.92,32.56-.6.26.56-.07-.26,1.44,21.52-2.79,23.08,20.28.35.3v-1.03l.23.87,100.77-50.86.15-.08-.26-.89h205.25v-.42ZM1790.4,85.37l-.24.1h0s-.22.09-.22.09l-.17.07h0c-4.12,1.72-23.53,9.81-42.94,17.9-12.7,5.29-22.81,9.51-30.07,12.54-1.56.65-3.01,1.26-4.35,1.82,10.75-5.17,29.31-14.26,46.77-22.84l30.08-14.11,1.14,4.43ZM1702.99,122.06c.06.15.19.14.28.11h0s0,0,.01,0c.02,0,.04-.02.06-.02.05-.02.14-.06.25-.1.13-.05.29-.12.49-.21,7.2-3.02,60.58-25.27,79.79-33.28l-92.74,45.56-19.87-78.51c.96,3.19,2.07,6.74,3.3,10.44,2.62,7.92,5.26,15.01,7.84,21.08,3.23,7.6,6.38,13.62,9.36,17.88l11.33,16.78c-.07.04-.16.12-.1.26ZM1704.65,121.11l37.35-18.1c-17.13,8.4-32.51,15.88-37.35,18.1ZM1788.01,50.75c4.63,8.38,10.11,16.13,16.28,23.05l-14.63,7.01v-.05s13.53-6.82,13.53-6.82l-.17-.2s-3.46-4.13-7.67-10.19c-3.88-5.59-9.24-14.04-12.74-22.56-1.54-3.74-2.91-7.72-4.1-11.56,2.58,7.4,5.77,14.57,9.51,21.33ZM1773.03,7.7c.01.12.07.52.17,1.19-.11-.5-.2-.97-.29-1.41.07.1.11.18.13.22ZM1771.69,5.56l.22-.96c.09.45.2,1.04.34,1.76-.06-.02-.13-.04-.19-.06-.55-.13-1.13.06-1.72.55-.24.2-.44.39-.61.57.02-.39,0-.8-.03-1.2l2-.67ZM1766.22,2.98c.28-.13.55-.19.8-.19.39,0,.75.15,1.07.45.36.34.65.87.86,1.5l-4.66,1.48c.43-1.52,1.06-2.86,1.92-3.25ZM1764.16,6.74l4.91-1.59c.06.25.11.51.15.78l-5.21,1.74c0-.07-.01-.13-.02-.2.05-.24.11-.49.17-.73ZM1760.6,5.11c.39-.2.75-.3,1.07-.3s.59.09.84.27c.39.29.68.78.87,1.43l-4.47,1.42c.41-1.49.99-2.48,1.69-2.83ZM1758.63,9.18c.04-.24.09-.47.14-.69l4.71-1.53c.03.16.06.32.08.49-.03.13-.05.27-.08.4l-4.84,1.61c0-.09-.01-.17-.02-.26,0,0,0-.02,0-.03ZM1754.09,9.1s.63-1.86,1.64-2.26c.3-.12.57-.18.81-.18.29,0,.55.09.76.26.35.28.58.74.73,1.3l-4.08,1.3c.04-.14.09-.28.14-.42ZM1753.79,10.1l4.35-1.41c.03.16.05.32.07.49-.03.15-.05.3-.07.45l-4.52,1.51s-.01-.07-.02-.1c.05-.3.12-.62.2-.94ZM1749.89,8.74c.41-.32.81-.48,1.17-.48.22,0,.42.06.62.17.47.27.84.81,1.12,1.46l-4.36,1.39c.3-1.05.75-2,1.45-2.54ZM1748.29,11.88l4.69-1.52c.08.23.14.46.2.7-.01.08-.03.16-.04.24l-4.84,1.61c-.03-.19-.06-.37-.1-.55.03-.16.06-.32.1-.48ZM1747.98,14.3c0,.17,0,.34-.02.51,0-.16,0-.33.02-.51ZM1744.73,10.15c.31-.25.63-.37.95-.37.21,0,.42.05.62.16.47.26.91.82,1.23,1.63l-4.22,1.35c.44-1.41.94-2.39,1.43-2.77ZM1742.88,14.47c.07-.32.15-.62.23-.91l4.58-1.48c.03.1.05.2.08.3-.04.25-.08.5-.11.75l-4.85,1.62c.02-.09.04-.18.06-.28ZM1742.64,13.71c-.03.11-.06.22-.08.33-.03-.09-.06-.18-.09-.27l.17-.06ZM1742.34,17.9c.01-.38.07-.98.19-1.7.04.65-.02,1.25-.19,1.7ZM1738.83,12.18c.38-.58.77-.87,1.17-.87.15,0,.3.04.45.12.54.29,1.04,1.03,1.41,1.94l-4.1,1.31c.25-.91.59-1.78,1.06-2.49ZM1737.6,15.34l4.46-1.44c.11.33.2.66.28,1l-4.97,1.66c.06-.4.13-.81.23-1.21ZM1737.15,15.49c-.02.09-.04.18-.05.27-.03-.08-.05-.15-.08-.22l.13-.04ZM1733.44,13.98c.35-.39.72-.58,1.09-.58.16,0,.32.04.48.11.51.23,1,.8,1.39,1.61l-4.16,1.33c.27-.91.66-1.85,1.21-2.46ZM1732.04,17.14l4.58-1.48c.12.34.23.69.31,1.05l-4.86,1.62c-.03-.23-.06-.49-.12-.77.03-.14.06-.28.1-.42ZM1731.7,19c.05.86,0,1.67-.13,2.17-.02-.46,0-1.22.13-2.17ZM1729.2,15.34c.23-.11.44-.16.64-.16.29,0,.55.11.78.34.29.29.52.72.69,1.22l-3.97,1.27c.55-1.43,1.19-2.35,1.87-2.67ZM1727.07,18.76l4.4-1.43c.02.08.03.15.05.23-.05.23-.09.45-.12.64-.02.12-.04.25-.06.37l-4.32,1.44s0-.08-.01-.11c-.03-.2-.06-.4-.1-.6.05-.18.11-.37.17-.55ZM1726.64,20.58c.05.97-.07,1.96-.38,2.78-.02.04-.03.08-.04.11,0-.54.11-1.64.37-2.88l.06-.02ZM1723.57,16.9c.28-.13.55-.19.8-.19.39,0,.75.15,1.07.45.3.29.56.71.75,1.2l-4.44,1.41c.43-1.37,1.02-2.53,1.81-2.88ZM1721.53,20.55l4.86-1.57c.03.11.06.22.08.33,0,.01,0,.03-.01.04-.09.31-.16.63-.23.94l-4.85,1.62c-.01-.17-.03-.34-.04-.5.06-.28.13-.57.2-.85ZM1717.94,19.03c.39-.2.75-.3,1.07-.3s.59.09.84.27c.32.24.58.63.77,1.13l-4.26,1.36c.4-1.28.95-2.14,1.58-2.46ZM1715.98,23.1c.05-.28.11-.55.17-.81l4.66-1.51c.04.19.08.39.1.59-.05.24-.1.48-.14.72l-4.81,1.6c0-.11-.02-.23-.03-.34.01-.09.03-.17.05-.26ZM1711.09,22.43c.34-.68.84-1.27,1.43-1.71.14-.1.26-.18.35-.22.3-.13.57-.2.82-.2.28,0,.52.08.74.25.35.27.61.74.79,1.31l-4.5,1.43c.1-.29.23-.58.37-.87ZM1710.46,24.13l4.93-1.6c.05.25.09.52.12.79-.03.18-.06.37-.08.55l-4.79,1.6c-.07-.34-.15-.68-.25-1.01.02-.11.05-.22.08-.34ZM1710.22,25.49s.02.08.02.12h-.04s0-.08.01-.12ZM1710.16,26.23c0-.05,0-.1,0-.16l.14-.05c.09.67.1,1.31.04,1.82-.01.08-.02.15-.03.2-.09-.32-.18-.94-.15-1.81ZM1706.87,22.87c.41-.32.81-.48,1.17-.48.22,0,.42.06.62.17.38.22.69.61.94,1.09l-4.03,1.29c.29-.86.71-1.61,1.3-2.06ZM1705.32,25.8l4.57-1.48c.02.05.04.11.06.16-.1.46-.15.9-.18,1.28l-4.46,1.49c-.03-.26-.08-.52-.13-.76.04-.23.09-.47.15-.7ZM1704.96,28.43c0,.17,0,.34-.02.51,0-.16,0-.33.02-.51ZM1701.71,24.28c.31-.25.63-.37.95-.37.21,0,.42.05.62.16.39.21.77.65,1.06,1.25l-3.9,1.24c.4-1.15.84-1.96,1.27-2.29ZM1699.86,28.6c.09-.4.19-.78.3-1.13l4.46-1.45c.05.16.1.32.14.49-.06.33-.1.66-.14.97l-4.85,1.62s0-.04-.01-.05c.03-.15.07-.3.1-.45ZM1699.68,27.62c-.05.19-.1.38-.14.55-.05-.16-.1-.31-.15-.45l.29-.1ZM1699.32,32.03c.01-.38.07-.98.19-1.7.04.65-.02,1.25-.19,1.7ZM1695.81,26.32c.38-.58.77-.87,1.17-.87.15,0,.3.04.45.12.46.25.9.83,1.25,1.56l-3.79,1.21c.23-.74.54-1.44.92-2.02ZM1694.63,29.26l4.35-1.41c.14.39.26.8.35,1.21-.01.07-.03.14-.04.21l-4.94,1.65s0-.04-.01-.06c.07-.52.17-1.06.3-1.59ZM1694.18,29.41c-.04.16-.07.32-.1.48-.03-.09-.06-.18-.09-.27-.02-.05-.04-.09-.05-.14l.25-.08ZM1690.42,28.12c.35-.39.72-.58,1.09-.58.16,0,.32.04.48.11.43.19.85.63,1.2,1.25l-3.82,1.22c.26-.75.6-1.48,1.06-1.99ZM1689.07,31.06l4.46-1.44c.02.05.04.1.06.16.13.35.24.73.32,1.11,0,.06-.02.12-.02.19l-4.82,1.61s0-.03,0-.04c-.03-.26-.07-.59-.14-.93.04-.2.09-.42.15-.64ZM1688.66,33.24h.02c.04.82-.02,1.58-.13,2.07-.02-.44,0-1.16.11-2.07ZM1686.18,29.47c.23-.11.44-.16.64-.16.29,0,.55.11.78.34.22.21.4.5.55.84l-3.63,1.16c.5-1.15,1.07-1.9,1.67-2.18ZM1684.3,32.15l2.73-.87-2.74.89s0-.01,0-.02ZM1684.12,32.66l4.28-1.39c.04.14.07.28.1.42-.05.23-.09.45-.12.64-.03.2-.07.4-.09.6l-4.27,1.42c0-.11-.02-.21-.03-.32-.03-.2-.06-.4-.1-.6.07-.26.15-.52.24-.77ZM1683.8,32.31s0,.01,0,.02l-.21.07s0-.01,0-.02l.22-.07ZM1683.63,34.92c.02.9-.1,1.81-.39,2.57-.02.04-.03.08-.04.11,0-.51.09-1.5.32-2.65l.11-.04ZM1680.54,31.03c.28-.13.55-.19.8-.19.39,0,.75.15,1.07.45.22.21.42.49.59.83l-4.12,1.31c.41-1.15.96-2.09,1.65-2.4ZM1678.73,33.93l4.45-1.42s0,.01,0,.02l-4.47,1.45s0-.03.01-.05ZM1678.57,34.46l4.75-1.54c.05.16.09.34.13.51,0,.01,0,.03-.01.04-.11.39-.2.78-.28,1.17l-4.79,1.6c0-.25-.03-.48-.06-.71.08-.36.16-.72.26-1.07ZM1678.24,34.08s0,.03-.01.05l-.21.07s-.01-.03-.02-.04l.24-.08ZM1674.92,33.17c.39-.2.75-.3,1.07-.3s.59.09.84.27c.24.18.44.43.61.76l-3.93,1.25c.38-1.02.86-1.7,1.42-1.98ZM1673.34,35.64l4.27-1.36s.01.03.02.04l-4.31,1.39s.02-.05.02-.08ZM1672.95,37.24c.07-.37.14-.71.22-1.03l4.56-1.48c.06.24.11.5.15.78-.07.32-.13.64-.18.95l-4.71,1.57c-.01-.23-.03-.47-.06-.7,0-.03.01-.06.02-.09ZM1672.86,35.8s-.02.05-.02.08l-.22.07s-.02-.04-.03-.07l.27-.09ZM1672.51,37.32c-.05.3-.1.61-.13.91l-6.12,2.04-.46-1.68,6.55-2.12c.07.27.13.55.17.85ZM1667.28,36.09c.39-.74,1.27-1.24,2.52-1.44.17-.03.32-.04.47-.04.55,0,1,.18,1.35.53.14.14.27.31.37.5l-4.94,1.57v-.08s-.08-.49.21-1.03ZM1665.49,38.14l6.7-2.13s.02.05.03.07l-6.73,2.18h-.02s.03-.12.03-.12ZM1665.23,39.36l16.28,67.98.17.72-34.41,15.05,17.96-83.75ZM1646.81,123.76l9.3-4.07-9.31,4.1v-.03ZM1690.58,142.5l-22.81-20.03-.07-.06-21.14,2.74.18-1.01,21.03-2.65,22.8,20.16v.85ZM1667.98,121.11l-.07-.06-19.38,2.44,33.62-14.81,8.53,32.5-22.7-20.07ZM1691.49,142.66l-9.07-34.56-.28.12-.23-.98-15.91-66.44,6.33-2.11c-.11,1.1-.12,2.03-.04,2.31.05.2.2.21.25.21.22-.01.26-.29.31-.58.06-.41.17-1.24.16-2.16l4.63-1.54c-.21,1.43-.27,2.65-.19,2.99.05.22.19.24.25.24.2,0,.3-.16.46-1.13.14-.83.21-1.62.22-2.34l4.68-1.56c-.24,1.26-.33,2.37-.25,2.82.04.23.13.35.28.36.23.02.38-.23.54-.65.31-.82.46-1.83.42-2.86l4.19-1.4c-.13,1.17-.14,2.2,0,2.52.08.17.21.19.26.19h0c.2,0,.3-.23.34-.33.22-.52.32-1.58.26-2.68l4.74-1.58c-.14,1.35-.16,2.85.04,3.13.06.08.16.12.25.09.15-.04.26-.15.36-1.22.07-.72.05-1.47-.07-2.2l4.77-1.59c-.25,1.33-.36,2.49-.25,2.84.06.19.2.22.26.22.21,0,.33-.2.49-.56.27-.65.32-1.63.15-2.71l4.73-1.58c-.09,1.19-.03,2.17.09,2.44.08.2.24.19.28.18.2-.03.3-.21.39-1.21.05-.58.06-1.14.02-1.67l4.39-1.47c-.04,1.09.1,2.04.34,2.33.12.15.26.13.32.11.19-.05.29-.28.35-.76.07-.57.06-1.28-.05-2.01l4.67-1.56c-.13,1.19-.15,2.23-.07,2.53.05.2.2.21.25.21.22-.01.26-.29.31-.58.09-.58.15-1.45.12-2.36l4.71-1.57c-.24,1.53-.31,2.86-.22,3.21.05.22.19.24.25.24.2,0,.3-.16.46-1.13.16-.92.23-1.78.21-2.55l4.73-1.58c-.27,1.36-.38,2.57-.3,3.05.04.23.13.35.28.36.23.02.38-.23.54-.65.33-.87.47-1.97.41-3.07l4.22-1.41c-.16,1.26-.18,2.4-.02,2.74.08.17.21.19.26.19.2,0,.3-.23.34-.33.24-.56.33-1.72.24-2.89l4.78-1.59c-.16,1.4-.2,3.06.01,3.35.06.08.16.12.25.09.15-.04.26-.15.36-1.22.08-.79.04-1.61-.1-2.4l4.85-1.62c-.28,1.43-.41,2.7-.29,3.07.06.19.2.22.26.22.2,0,.33-.2.49-.56.29-.69.33-1.76.12-2.92l4.79-1.6c-.12,1.29-.06,2.37.07,2.66.08.2.24.19.28.18.19-.03.3-.21.39-1.21.06-.65.06-1.29,0-1.88l4.73-1.58c-.15,1.36-.07,2.46.14,2.67.07.07.16.09.25.06.16-.05.24-.24.3-.73.08-.62.05-1.41-.08-2.21l4.37-1.46c-.17,1.32-.19,2.52-.1,2.84.05.2.2.21.25.21.22-.01.26-.29.31-.58.11-.72.2-1.7.16-2.68l4.73-1.58c-.28,1.66-.36,3.15-.28,3.53.05.22.19.24.25.24.2,0,.3-.16.46-1.13.18-1.04.24-2,.2-2.85l5.23-1.74c.05.55.04,1.11-.02,1.65-.62.95-.35,1.56-.33,1.59l.21.44.17-.46c.16-.43.28-.91.35-1.43.2-.29.5-.62.94-.99.49-.41.95-.56,1.36-.47.15.03.28.1.4.18.45,2.25,1.15,5.5,2.07,9.28,1.62,6.67,4.29,16.43,7.79,24.98,3.51,8.56,8.89,17.03,12.79,22.64,3.69,5.31,6.78,9.12,7.52,10.01l-13.22,6.66-10.17,4.77c13.1-6.45,22.68-11.19,22.97-11.33l-.18-.37-98.66,47.79-11.16-16.54c-6.72-9.62-13.03-26.44-17.14-38.86-4.46-13.46-7.36-24.79-7.39-24.9l-.4.1h0s0,0,0,0l23.69,93.59,99.04-48.66,1.76,6.06-100.16,50.55Z"/>
    </g>
  </g>
</svg>