<?xml version="1.0" encoding="UTF-8"?>
<svg id="Layer_2" data-name="Layer 2" xmlns="http://www.w3.org/2000/svg" viewBox="0 0 1153.48 104.46">
  <defs>
    <style>
      .cls-1 {
        stroke-width: 0px;
      }

      .cls-1, .cls-2 {
        fill: #fff;
      }

      .cls-2 {
        stroke: #fff;
        stroke-miterlimit: 10;
      }
    </style>
  </defs>
  <g id="Layer_1-2" data-name="Layer 1">
    <g>
      <path class="cls-2" d="M1152.98,103.24h-185.33c-8.41,0-16.83-1.05-24.35-3.04-6.92-1.83-12.82-4.4-16.6-7.25-1.17-.88-2.51-2.05-3.56-3.42,6.51-3.93,11.1-7.84,13.46-9.84,3.41-2.91,8.77-6.08,10.34-6.98.64-.37,1.3-.71,1.97-1.03,1.1,1.01,2.29,1.84,3.64,2.57,2.57,1.4,5.37,2.38,8.07,3.34,1.79.63,3.65,1.29,5.41,2.05,4.36,1.89,8.6,4.14,12.62,6.69,2.05,1.3,4.02,2.8,5.93,4.25,2.47,1.88,5.02,3.82,7.79,5.36.86.48,2.14,1.06,3.22.49,1.66-.87,1.35-2.54,1.1-3.88-.07-.39-.14-.76-.16-1.08-.24-3.86,1.43-7.48,4.97-10.75,3.33-3.09,7.66-5.24,10.69-6.5,8.07-3.35,14.17-11.43,15.53-20.59.64-4.28.28-8.87-1.04-13.27-1.28-4.25-3.45-8.34-6.27-11.82-2.32-2.85-4.52-5.16-7.77-7.19-3.04-1.9-6.28-3.52-9.62-4.79-3.5-1.34-7.26-2.02-10.5-2.55-2.91-.48-4.89-1.62-7.52-3.55-3.88-2.85-8.21-4.99-13.23-6.55-4.22-1.31-8.97-2.21-14.53-2.76-4-.39-8.06-.62-12.07-.67-7.04-.09-14.32.87-21.07,2.78-7.28,2.07-13.72,5.13-19.14,9.11-7.21,5.29-11.93,12.05-13.66,19.55-1.51,6.56-.5,13.58,2.86,19.78,3.31,6.12,8.59,10.91,14.88,13.48,1.05.43,2.16.78,3.23,1.11,2.08.65,4.04,1.26,5.73,2.46,1.37.97,2.47,2.33,3.2,3.93.73,1.6,1.02,3.32.85,4.99-.1,1.04-.4,2.09-.69,3.11-.51,1.8-1.03,3.65-.56,5.61.25,1.03.73,2.01,1.33,2.91-7.8,4.6-18.43,9.24-32.02,11.31-7.68,1.17-448.63,1.84-889.58,2.2v.71c440.98-.37,881.98-1.03,889.69-2.21,10.77-1.65,20.92-5.08,30.17-10.2.74-.41,1.46-.82,2.16-1.24,1.11,1.47,2.52,2.7,3.75,3.62,3.86,2.9,9.85,5.52,16.85,7.37,7.58,2,16.07,3.06,24.53,3.06h185.33v-.71ZM992.38,14.73c3.21.53,6.93,1.2,10.37,2.52,3.3,1.26,6.49,2.85,9.5,4.73,3.16,1.98,5.32,4.24,7.59,7.03,2.77,3.41,4.89,7.41,6.14,11.57,1.29,4.3,1.64,8.78,1.02,12.96-1.33,8.92-7.26,16.78-15.1,20.04-3.09,1.28-7.49,3.47-10.9,6.63-3.7,3.43-5.45,7.24-5.19,11.32.02.37.1.76.17,1.17.28,1.51.38,2.54-.73,3.12-.77.4-1.76-.04-2.54-.48-2.72-1.52-5.25-3.44-7.7-5.31-1.92-1.46-3.9-2.97-5.98-4.28-4.05-2.57-8.32-4.84-12.72-6.74-1.79-.78-3.65-1.44-5.46-2.07-2.68-.95-5.44-1.92-7.97-3.29-1.2-.65-2.27-1.39-3.26-2.27,3.46-1.49,7.5-2.33,12.68-2.68,2.54-.17,7.6-.62,13.01-1.73,6.79-1.4,11.98-3.37,15.45-5.88,7.91-5.72,11.8-13.01,11.57-21.66-.16-6.23-1.53-10.95-4.57-15.8-1.71-2.72-3.72-5.24-5.98-7.5-.18-.17-.35-.36-.55-.56-.51-.53-1.06-1.1-1.65-1.57.86.33,1.77.57,2.8.74ZM990.72,16.06c.19.2.38.39.56.57,2.22,2.21,4.2,4.69,5.88,7.37,2.97,4.73,4.31,9.35,4.47,15.44.22,8.41-3.57,15.49-11.28,21.07-3.38,2.45-8.49,4.39-15.18,5.76-5.37,1.1-10.4,1.55-12.92,1.72-3.08.21-5.73.58-8.1,1.16-1.84.45-3.53,1.01-5.11,1.7-.63-.61-1.24-1.28-1.85-2.04-5.73-7.16-8.24-16.83-6.73-25.87,1.51-9.04,7.04-17.37,14.79-22.27,2.25-1.43,4.79-2.66,8-3.9,6.26-2.41,12.19-3.62,17.66-3.62.75,0,1.49.02,2.23.07.25.02.52.03.79.04,1.39.07,2.96.15,4.12.61.95.38,1.87,1.34,2.68,2.18ZM921.46,86.25c-.43-1.77.05-3.46.56-5.24.3-1.05.6-2.13.71-3.23.37-3.67-1.34-7.43-4.35-9.57-1.78-1.27-3.89-1.92-5.93-2.56-1.06-.33-2.15-.67-3.17-1.09-6.13-2.51-11.29-7.19-14.52-13.16-3.27-6.05-4.26-12.9-2.79-19.29,1.69-7.33,6.32-13.95,13.39-19.14,5.35-3.92,11.71-6.95,18.91-9,6.38-1.81,13.25-2.76,19.93-2.76.31,0,.62,0,.93,0,3.99.05,8.03.28,12.01.67,5.51.54,10.21,1.43,14.39,2.73,4.95,1.54,9.21,3.65,13.02,6.45.99.72,1.88,1.34,2.77,1.85-1.07-.25-2.28-.31-3.38-.36-.28-.01-.54-.03-.78-.04-6.18-.39-12.97.82-20.18,3.6-3.25,1.25-5.83,2.51-8.12,3.96-7.91,5.01-13.56,13.52-15.11,22.75-1.55,9.24,1.03,19.12,6.88,26.43.56.7,1.13,1.33,1.71,1.91-.61.29-1.2.6-1.78.94-6.23,3.6-9.57,6.31-10.44,7.05-2.54,2.17-6.99,5.95-13.41,9.81-.57-.84-1.02-1.75-1.25-2.71Z"/>
      <g>
        <path class="cls-1" d="M610.69,24.83c0,.39-.06.89-.32,1.04-.15.08-.63.22-2.19.22s-1.98-.32-2.05-.45c-.11-.19-.3-.95-.3-3.83,0-1.15.24-1.48.38-1.57.16-.1.71-.28,2.6-.28,1.04,0,1.38.14,1.49.22.09.07.26.31.26,1.04v.5h1.58l-.02-.48c0-.99-.24-1.68-.72-2.05-.46-.36-1.3-.53-2.56-.53-1.81,0-2.98.17-3.55.54-.51.32-.82.69-.93,1.11-.1.39-.15,1.27-.15,2.69,0,1.86.23,3.02.7,3.56.48.55,1.51.81,3.17.81,1.83,0,2.91-.14,3.4-.45.52-.33.77-1.07.77-2.27v-.57h-1.58l.02.74Z"/>
        <rect class="cls-1" x="616.61" y="18.75" width="1.57" height="8.55"/>
        <path class="cls-1" d="M628.66,24.94c-.03.07-.08.18-.15.33l-3.11-6.52h-2.25v8.55h1.58v-6.42l3.11,6.42h1.38l3.09-6.48v6.48h1.58v-8.55h-2.28l-2.95,6.19Z"/>
        <polygon class="cls-1" points="638.44 27.3 644.95 27.3 644.95 26.01 640.02 26.01 640.02 23.54 644.74 23.54 644.74 22.25 640.02 22.25 640.02 20.04 644.95 20.04 644.95 18.75 638.44 18.75 638.44 27.3"/>
        <polygon class="cls-1" points="656.36 25.49 651.58 18.75 649.47 18.75 649.47 27.3 651.04 27.3 651.04 20.6 655.82 27.3 657.94 27.3 657.94 18.75 656.36 18.75 656.36 25.49"/>
        <polygon class="cls-1" points="662.05 20.12 665.08 20.12 665.08 27.3 666.65 27.3 666.65 20.12 669.66 20.12 669.66 18.75 662.05 18.75 662.05 20.12"/>
        <path class="cls-1" d="M677.42,19.96c1.52,0,2.08.17,2.29.31.18.13.4.49.4,1.47v1.28c0,2.15-.21,2.63-.3,2.73-.07.08-.45.33-2.39.33s-2.32-.25-2.39-.33c-.09-.1-.31-.58-.31-2.73s.22-2.62.31-2.73c.07-.08.45-.33,2.39-.33M680.91,19.41c-.5-.5-1.64-.74-3.49-.74-1.59,0-2.66.21-3.27.63-.63.44-.95,1.25-.95,2.4v1.33c-.01,1.93.22,3.12.7,3.61.49.5,1.64.74,3.51.74s3.04-.25,3.52-.75c.47-.5.71-1.72.71-3.71,0-1.86-.24-3-.74-3.5"/>
        <path class="cls-1" d="M586.7,51.42c0,2.93.61,5.11,1.84,6.53,1.23,1.42,2.79,2.13,4.67,2.13,1.66,0,3.04-.68,4.16-2.05,1.12-1.36,1.68-3.67,1.68-6.93,0-3-.59-5.21-1.75-6.61-1.15-1.42-2.59-2.12-4.26-2.12-1.82,0-3.34.71-4.54,2.13-1.22,1.42-1.81,3.73-1.81,6.91M555.37,52.25c-1.96.7-3.99,1.32-6.1,1.86-2.88.76-4.72,1.52-5.48,2.26-.8.77-1.19,1.65-1.19,2.62,0,1.12.4,2.03,1.17,2.74.79.7,1.93,1.06,3.44,1.06s3.05-.38,4.42-1.14c1.36-.78,2.32-1.72,2.89-2.81.57-1.11.85-2.55.85-4.32v-2.28ZM630.62,51.38c0,3.31.67,5.76,2.01,7.33,1.34,1.59,3.02,2.39,5.04,2.39s3.73-.79,5.04-2.35c1.32-1.56,1.98-4.05,1.98-7.51,0-3.21-.67-5.6-1.99-7.17-1.32-1.56-2.97-2.35-4.92-2.35-2.07,0-3.79.8-5.13,2.39-1.35,1.6-2.03,4.03-2.03,7.28M616.38,51.42c0-5.65,1.91-10.32,5.72-13.98,3.83-3.67,8.97-5.51,15.47-5.51,7.42,0,13.04,2.16,16.83,6.46,3.05,3.47,4.58,7.75,4.58,12.82,0,5.7-1.9,10.37-5.67,14.02-3.78,3.63-9.01,5.46-15.7,5.46-5.96,0-10.77-1.51-14.45-4.54-4.52-3.74-6.77-8.65-6.77-14.73M688.66,51.21c0-2.92-.61-5.09-1.85-6.52-1.23-1.43-2.79-2.15-4.67-2.15-1.66,0-3.04.69-4.16,2.06-1.12,1.37-1.68,3.67-1.68,6.91,0,3.03.59,5.24,1.73,6.65,1.16,1.41,2.59,2.11,4.28,2.11,1.83,0,3.34-.7,4.54-2.12,1.22-1.43,1.81-3.74,1.81-6.95M702.91,18.67v51.18h-13.3v-5.48c-1.87,2.32-3.56,3.89-5.1,4.72-2.05,1.06-4.33,1.6-6.84,1.6-5.05,0-8.91-1.92-11.58-5.76-2.66-3.84-3.99-8.51-3.99-14,0-6.15,1.46-10.85,4.42-14.1,2.94-3.27,6.69-4.9,11.21-4.9,2.21,0,4.22.38,6.03,1.12,1.8.75,3.4,1.86,4.8,3.35v-17.73h14.35ZM706.03,31.46h14.22v38.39h-14.22V31.46ZM706.03,18.67h14.22v9.68h-14.22v-9.68ZM531.68,37.75c.97-1.36,2.35-2.54,4.18-3.54,1.3-.73,3.1-1.29,5.37-1.68,2.28-.39,4.74-.59,7.4-.59,4.25,0,7.69.24,10.26.71,2.59.48,4.74,1.48,6.46,2.99,1.22,1.05,2.17,2.52,2.87,4.44.7,1.93,1.04,3.76,1.04,5.51l.07,24.26h-13.14l-.02-4.54c-1.86,1.8-3.72,3.08-5.55,3.84-2.51,1.03-5.44,1.54-8.76,1.54-4.42,0-7.78-1.03-10.08-3.08-2.29-2.04-3.43-4.56-3.43-7.57,0-2.82.82-5.14,2.48-6.95,1.66-1.82,4.7-3.17,9.14-4.05,5.34-1.07,8.79-1.82,10.38-2.25,1.57-.43,3.26-1,5.02-1.69,0-5.1-10.29-6.12-12.33-.32h-14.25c.55-2.44,1.42-4.96,2.89-7.03M572.45,83.96v-51.19h13.3v5.48c1.84-2.31,3.53-3.87,5.07-4.68,2.07-1.1,4.36-1.64,6.87-1.64,4.96,0,8.79,1.91,11.51,5.7,2.7,3.79,4.06,8.48,4.06,14.08,0,6.16-1.48,10.87-4.43,14.12-2.96,3.24-6.7,4.86-11.2,4.86-2.19,0-4.2-.37-5.99-1.11-1.8-.75-3.42-1.86-4.84-3.32v17.71h-14.35Z"/>
        <polygon class="cls-1" points="454.43 18.59 494.91 83.96 528.35 83.96 487.87 18.59 454.43 18.59"/>
        <polygon class="cls-1" points="472.32 57.01 455.48 83.96 422.05 83.96 455.67 30.12 472.32 57.01"/>
      </g>
    </g>
  </g>
</svg>