<?xml version="1.0" encoding="UTF-8"?>
<svg id="Layer_2" data-name="Layer 2" xmlns="http://www.w3.org/2000/svg" viewBox="0 0 1986.14 88.95">
  <defs>
    <style>
      .cls-1 {
        fill: #fff;
        stroke-width: 0px;
      }
    </style>
  </defs>
  <g id="Layer_1-2" data-name="Layer 1">
    <g>
      <g>
        <path class="cls-1" d="M1986.14,88.24c-91.83-.05-199.25-.12-200.51-.21-1.12-.08-1.52-.19-1.66-.25.04-.05.09-.12.16-.19,1.47-.42,2.85-1.08,4.03-1.97,2.02-1.52,4.39-4.39,4.22-9.39-.16-4.59-2.47-8.33-6.34-10.27-3.37-1.69-7.33-1.54-10.07.37-3.48,2.43-4.08,8.2-2.65,12.38,1.14,3.35,3.42,5.26,6.08,5.13,1.38-.07,2.67-.26,3.86-.55.52.35.95.71,1.24,1.09.73.98.21,1.64-.62,2.46-.04.04-.08.08-.12.12-2.29.62-4.78.61-6.96-.1-5.86-1.9-6.16-8.76-6.16-10.11,0-.34-.27-.54-1.15-.68.92-1.32,1.29-3.49,1.64-5.5.34-1.96.68-3.99,1.46-5.07,1.74-2.41,5.49-1.84,11.17-.99,1.01.15,2.05.31,3.16.46,5.02.69,6.07,4.56,6.99,7.97.38,1.41.74,2.74,1.36,3.67.17.26.64.95,1.15.67.22-.13.82-.46-.22-5.13-.64-2.84-1.57-5.72-2.49-7.69-.39-.83-1.98-2.01-11.28-2.68-5.41-.39-12.77-.57-21.89-.52-15.51.08-30.93.79-31.08.8-.15,0-.29.11-.33.26-.1.37-2.54,8.98-3.04,11.67-.04.19-.15.34-.35.47-1.69,1.07-8.08-.1-13.03-1.42-.2-.05-.36-.19-.48-.41-.29-.51-1.18-2.06,1.57-11.94.21-.22,1.74-.89,12.55-1.09,6.65-.13,15.74-.06,26.29.18,18.59.43,38.6,1.4,41.18,1.98,3.89.88,4.52,7.84,4.85,11.58.09,1.04.16,1.79.28,2.17.07.23.24.41.5.55,2.21,1.18,12.83-.39,15.29-1.16,3.52-1.1-.23-16.8-.27-16.95-.52-2.08-1.66-2.04-3.12-1.84.08-2.33-.04-5.57-.27-9.71-.08-1.44-.14-2.58-.14-3.2,0-2.94-6.3-21.11-7.51-22.5-.54-.62-4.39-1.28-9.17-1.79.02-.15,0-.34-.18-.57-.94-1.25-6.61-3.88-11.59-5.92-1.05-.43-10.3-4.18-11.95-3.8-.53.12-1.4.32-1.52,13.53,0,.21,0,.43,0,.64-.71.06-2.25.26-4.26,1.01-1.63.61-1.49,5.96-1.13,14.64.24,5.61.48,11.42-.26,13.57-.55,1.59-2.55,1.94-4.13,1.95-.49,0-.99-.02-1.5-.07,2.29-.41,4.04-.9,4.4-1.38.83-1.1.81-17.19.81-19.02-.02-8.26-.28-18.45-.94-19.96-.36-.81-1.14-1.4-2.33-1.74-2.7-.77-6.69-.05-8.32,1.08-1.38.96-1.6,11.46-1.54,31.82,0,2.52.02,4.96,0,6.9-.82-.42-1.36-.82-1.47-1.11-.4-1.09.06-6.36.46-11.02.26-3.02.51-5.88.57-7.9.03-.99-.03-2.03-.69-2.14-.34-.06-.75.27-1.17.82.02-2.61-.92-5.79-2.73-9.15-.37-.68-.81-.76-1.12-.72-.14.02-.28.08-.42.17.39-1.64.62-2.82.56-3.08-.08-.31-.26-1.05-10.35-6.09-5.18-2.59-10.88-5.26-12.96-6.12-4-1.67-20.45-4.39-28.1-5.08-6.6-.6-40.65,4.87-47.61,7.45.69-2.14,1.49-5.78,1.39-6.47-.04-.31-.37-.45-.47-.5-2.24-.95-18.81-.93-20.66.42-.29.21-.39.53-.28.89.51,1.72,6.93,5.34,11.54,7.14-.41-.02-.67-.03-.69-.03-3.52-.13-5.65,0-6.33.42-1.56.93-2.12,6.96-2.6,13.58-.04.49-.07.96-.1,1.37-.05.65.13,1.19.53,1.6,1.2,1.2,4.08.99,7.14.78,2.61-.19,5.31-.38,6.27.45,1.01.88.33,4.82-.95,9.16-3.74-.7-7.39-1.82-9.39-2.67.74-1.73,1.27-3.19,1.32-4.04.04-.75-.08-1.17-.38-1.35-.12-.07-.37-.17-.71.02-.95.53-2.49,3.31-2.49,4.52,0,.2,0,.56,1.33,1.22-.4.92-.85,1.9-1.29,2.86-2.72,5.97-4.27,9.65-2.92,10.55.12.08.26.17.4.27,1.73,1.17,4.94,3.35,7.47,2.85.92-.18,1.67-.7,2.23-1.54,1.27-1.9,3.39-6.98,4.83-11.56.03-.11.07-.22.1-.33,1.85.33,3.65.54,5.13.52-.03,13.58.65,13.88.96,14.02,1.13.5,16.97,4.64,19.69,2.17.31-.28.62-.79.35-1.6-1.38-4.13-12.63-15.64-16.77-16.4-.87-.16-1.32.15-1.55.43-.16.2-.62.53-1.97.63,0-2.18.03-4.64.08-7.41.18-10.7.6-20.7.82-21.38.09-.27.19-.39.25-.41.15-.05.54.22.82.41.29.2.59.41.91.53.31.77.17,5.86.06,9.96-.22,8.06-.25,11.93.4,12.58,1.14,1.14,19.81,17.77,27.79,20.49.9.31,1.82.11,2.74-.6.84-.64,1.67-1.71,2.48-3.12-.19,1.36-.28,2.32-.24,2.73.29,3.02,8.12,3.34,16.41,3.69,2.35.1,4.58.19,6.51.35.94.08,1.88-.28,2.79-1.05-.12,1.23-.09,1.81.02,2.1-15.51-.12-36.57-.39-65.07-.87-2.26-.04-3.51-.06-3.65-.06-.15,0-.38.06-.58.32-1.15,1.54-.84,10.46.24,14.13.53,1.83,3.33,2.79,7.47,2.56.17,0,.34-.02.51-.03-.32,2.27-.34,4.16.19,4.85.26.33.65.43,1.06.28,1.67-.63,3.68-4.09,5.15-6.62.03-.06.07-.11.1-.17.77-.45,1.28-.98,1.38-1.57.06-.31.14-.78-.23-.91-.4-.15-.62.15-1.67,1.96-1.16.62-3.04,1.14-5.12,1.39.66-3.95,2.05-8.88,3.09-10.39.54-.79,7.89-1.6,26.9-1.51,13.71.07,26.73.59,28.38.98,2.73.65,2.3,9.35,2.14,12.62-.03.67-.06,1.2-.06,1.53,0,.42-.1.71-.3.88-.48.41-1.61.31-3.09.09-.13-1-.4-2-.82-2.97-1.8-4.21-4.91-7.25-8.52-8.35-2.97-.9-6.03-.4-8.87,1.44-3.12,2.03-4.37,5.03-4.55,7.46-.05-.09-.12-.15-.21-.19-.28-.13-.53.05-.8.27-.56.43-1.59,1.24-3.81,1-.35-.04-.7-.04-1.05-.02-.89-3-2.8-6.04-5.7-8.02-2.76-1.89-6.11-1.87-9.2.05-4.15,2.58-6.69,7.88-6.03,12.61.48,3.41,2.48,5.34,5.05,6.39-3.1,0-6.76,0-10.94.02-12.04.03-1557.21.09-1649.18.19v.7c96.51-.15,1652.68-.2,1662.5-.2,3.68.78,7.84.36,10.33.11.4-.04.42-.31.41-.39-.02-.35-.3-.36-.77-.37-.28-.01-.7-.02-1.25-.03-1.07-.02-2.67-.03-4.75-.03-1.12,0-2.4,0-3.83,0-3.39-.73-6.3-2.51-6.85-6.49-.62-4.46,1.77-9.47,5.7-11.9,2.83-1.76,5.9-1.78,8.42-.06,2.66,1.81,4.48,4.69,5.36,7.53-1.51.29-2.95,1.08-4.16,2.05-.06-.74-.15-1.52-.31-2.35-.52-2.82-2.46-4.67-5.06-4.84-3.87-.24-6.69,3.08-7.78,6.48-.78,2.45-.52,4.48.79,6.01,2.62,3.08,8.78,3.38,13.26,2.71,2.26-.34,3.81-1.86,4.36-4.28.34-1.49.28-3.31-.18-5.18.26-.01.52,0,.78.02,2.5.27,3.73-.69,4.33-1.15,0,0,0,0,0,0,.03.29.05.76.07,1.32.15,3.64,2.47,12.99,11.25,12.99.08,0,.17,0,.25,0,4.21-.08,7.99-2.1,10.12-5.39,1.26-1.96,1.84-4.18,1.71-6.41,1.62.23,2.8.3,3.48-.28.37-.32.55-.78.55-1.43,0-.31.03-.83.06-1.49.2-4.08.62-12.57-2.69-13.36-1.9-.45-15.77-.94-28.54-1-7.33-.04-13.64.07-18.23.3-8.51.43-9.03,1.19-9.26,1.52-.97,1.41-2.56,6.63-3.25,10.87-.22.02-.44.03-.66.05-2.93.16-6.23-.29-6.75-2.05-1.25-4.27-1.12-12.96-.32-13.54.22,0,1.52.02,3.61.06,9.92.17,36.28.61,60.67.83,13.77.12,24.67.15,32.39.09,14.38-.12,14.49-.49,14.61-.9.04-.15.08-.49.1-1.03,1.62-.1,3.33-.27,4.94-.49,1.32.27,2.63.43,3.82.43,2.6-.02,4.26-.86,4.8-2.43.79-2.28.55-7.89.3-13.84-.24-5.69-.57-13.48.67-13.94,1.86-.7,3.31-.9,4-.96-.03,7.03.14,15.29.27,21.43,0,.26.01.52.02.78.01,1.25.03,2.42.04,3.46.02,1.45.03,2.65.04,3.5,0,.42.01.76.02.98,0,.41.02.69.37.7.36,0,.36-.33.36-.6,0-.17,0-.42,0-.77,0-1.5-.05-4.05-.12-7.28-.07-6.83-.16-16.37-.22-22.57,0-.08-.03-.15-.07-.2,0-.11,0-.21,0-.32.08-11.2.71-13.04.99-13.29.83-.14,5.49,1.29,11.97,3.97,6.54,2.7,10.38,4.8,10.83,5.49-.03.02-.07.03-.11.05-7.01-.72-15.66-1.14-18.95-.77-.72.08-1.2.17-1.23.56-.03.36.35.47.47.51,1.23.38,6.4.71,10.69.81,5.7.13,8.04-.11,9.04-.38,4.99.52,9.03,1.16,9.47,1.62,1.07,1.23,7.33,19.21,7.33,22.02,0,.64.06,1.78.15,3.24.14,2.52.33,5.96.29,8.75,0,.37-.02.71-.03,1.03-1.18.16-2.72.3-4.68-.21-.97-.25-1.54-.58-1.7-.97-.22-.55.34-1.41.93-2.32.85-1.32,1.92-2.97,1.35-4.74-.73-2.29-7.59-2.82-17.99-3.36-5.24-.27-10.2-.53-11.9-1.25-.42-.18-.69-.31-.86-.41.45-.06,1.22-.08,1.82-.09,1.54-.04,3.29-.09,4.13-.54,1.09-.59,1.37-3.48,1.71-8.17.22-2.94.44-5.98,1.03-7.14.08.66.06,2.01.05,3.23-.04,3.65-.09,8.64,1.27,11.26,1.92,3.7,7.1,2.84,11.67,2.07,1.39-.23,2.7-.45,3.85-.53.73-.05,1.3-.41,1.64-1.06,1.95-3.65-3.66-16.33-4.73-18.2-.25-.43-.99-1.73-11.53-1.57-5.33.08-11.02.54-12.8.89-.61.12-2.48.5-2.48,15.84,0,7.86.51,16.01.85,17.96.12.68.48,2.74,18.46,3.5,8.94.38,18.09.26,19.18.17.83-.07,1.24-1.32,1.38-3.75,1.54-.22,2.07-.25,2.46,1.28,1.36,5.44,2.77,15.46.75,16.1-2.61.82-12.86,2.21-14.74,1.21-.11-.06-.15-.11-.15-.13-.09-.32-.17-1.11-.25-2.03-.35-3.92-1.02-11.22-5.41-12.21-2.71-.61-22.7-1.57-41.93-2.01-10.69-.24-19.82-.3-26.4-.16-12.16.26-12.4,1.12-12.52,1.58-1.22,4.38-2.7,10.43-1.51,12.51.22.39.53.64.92.74,2.59.69,11.22,2.83,13.6,1.34.38-.24.6-.55.67-.94.45-2.4,2.55-9.89,2.96-11.36,2.08-.09,16.4-.71,30.8-.79,27.08-.15,32,1.68,32.51,2.79,1.88,4.03,3.19,10.36,3.02,11.73-.05-.06-.12-.15-.2-.28-.56-.83-.9-2.11-1.27-3.46-.93-3.45-2.09-7.75-7.58-8.5-1.1-.15-2.14-.31-3.15-.46-5.73-.86-9.87-1.48-11.86,1.28-.88,1.22-1.23,3.24-1.59,5.37-.44,2.58-.86,4.56-1.75,5.51-.98-.1-2.4-.17-4.45-.27-1.45-.07-3.02-.14-4.48-.25-.53-1.9-2.94-7.36-7.35-10.43-2.75-1.91-5.78-2.56-8.99-1.94-2.85.55-5.41,2.4-7.23,5.21-1.66,2.57-2.59,5.77-2.53,8.79.09,5.29,2.99,8.9,7.76,9.65,6.53,1.02,12.45-1.06,15.09-5.32,1.03-1.67,1.44-3.52,1.24-5.42.45.05.94.09,1.45.14.32,1.4,1.71,1.29,3.45,1.16,1.15-.09,2.58-.2,4.25,0,.86.1,1.52-.12,2.05-.57.48.05.83.11,1.01.19.02,1.72.51,8.66,6.65,10.65,2.09.68,4.44.75,6.66.27,0,.07.01.14.04.21.16.43.75.61,2.33.71,1.29.09,108.7.16,200.56.21v-.72ZM1783.37,82.53c-.59-.38-1.26-.74-1.94-1.11-2.95-1.6-6.3-3.42-6.09-7.35.11-2.01,1.62-3.38,4.16-3.77.54-.08,1.08-.12,1.6-.12,3.86,0,7.21,2.09,8.05,4.33.65,1.73.53,3.29-.36,4.65-1,1.52-2.92,2.7-5.42,3.37ZM1784.13,83.05c2.39-.74,4.24-1.95,5.26-3.5,1.01-1.53,1.16-3.36.43-5.29-1.31-3.49-6.55-5.26-10.43-4.67-2.9.45-4.64,2.06-4.76,4.44-.24,4.39,3.48,6.4,6.46,8.02.44.24.88.48,1.29.71-.95.19-1.96.32-3.03.37-2.36.12-4.31-1.58-5.36-4.65-1.71-5.01-.13-9.81,2.38-11.57,2.53-1.76,6.2-1.89,9.34-.32,3.63,1.81,5.8,5.33,5.95,9.65.17,4.69-2.05,7.38-3.93,8.8-.79.59-1.67,1.08-2.61,1.45.46-.66.71-1.52-.06-2.55-.24-.32-.56-.62-.93-.9ZM1628.63,32.88c.03-1.03,1.53-3.59,2.11-3.86.03.08.06.28.04.67-.04.75-.56,2.15-1.25,3.79-.5-.24-.81-.45-.9-.6ZM1634.56,48.73c-.46.69-1.04,1.09-1.78,1.23-2.23.44-5.29-1.63-6.93-2.74-.15-.1-.29-.19-.41-.28-.94-.63,1.64-6.28,3.17-9.66.45-.98.89-1.95,1.29-2.86.41.17.9.37,1.49.58,1.83.65,4.92,1.52,7.98,2.11-1.42,4.65-3.46,9.59-4.82,11.62ZM1648.45,36.84c.06-.07.24-.29.87-.18,3.87.71,14.92,12.02,16.22,15.92.16.48,0,.7-.15.84-2.2,1.99-17.01-1.51-18.87-2.27-.33-.58-.61-4.47-.59-13.42,1.19-.08,2.09-.36,2.52-.89ZM1646.15,8c-.3.9-.71,12.62-.86,22.09-.04,2.63-.07,4.93-.07,6.96-.76,0-1.73-.04-2.96-.2-.65-.08-1.31-.18-1.96-.29,1.19-4,2.14-8.59.7-9.83-1.19-1.03-3.91-.83-6.79-.63-2.76.2-5.62.4-6.58-.57-.26-.26-.36-.59-.33-1.04.03-.42.07-.88.1-1.38.29-3.96.89-12.2,2.25-13.02.95-.57,6.45-.34,9.3-.13.43.1.81.17,1.12.18.73.04.88.04.98-.22.06-.14.01-.31-.1-.41-.11-.09-.92-.18-1.87-.26-4.02-.98-13.15-5.88-13.64-7.51-.02-.07-.01-.08.02-.11.72-.52,4.93-.92,10.25-.96,5.37-.05,9.17.29,9.77.64.04.97-.99,5.05-1.56,6.67-.11.06-.19.12-.25.18-.15.13-.22.28-.22.44s0,.46.24.59c.13.07.29.05.41-.03.1-.07.23-.32.38-.68.34-.17.92-.37,1.72-.6-.01.03-.03.07-.04.11ZM1675.67,79.74c-.34,1.5-1.28,3.36-3.77,3.73-4.64.7-10.34.2-12.61-2.47-1.14-1.34-1.36-3.13-.66-5.33,1.33-4.18,4.29-5.99,6.74-5.99.1,0,.21,0,.31,0,2.26.14,3.94,1.77,4.4,4.25.19,1.03.29,1.96.33,2.8-.9.83-1.63,1.73-2.09,2.52-.71,1.23-.85,2.27-.37,2.92.59.82,1.23.66,1.48.55,1.04-.45,1.79-2.57,1.71-5.68,1.24-1.07,2.77-1.97,4.32-2.25.46,1.78.54,3.52.22,4.93ZM1670.43,77.72c-.03,2.64-.74,4.12-1.28,4.36-.07.03-.3.13-.62-.31-.29-.4-.13-1.2.41-2.14.35-.61.86-1.27,1.49-1.9ZM1686.82,66.09c1.8-1.17,3.69-1.76,5.58-1.76.9,0,1.8.13,2.69.4,3.41,1.03,6.35,3.93,8.07,7.94.36.84.61,1.71.73,2.58-.04,0-.07-.01-.11-.02-.4-.06-.82-.13-1.26-.19-1.33-.19-1.59-.89-1.99-1.96-.53-1.41-1.25-3.34-5.05-4.44-2.2-.64-4.05-.39-5.49.74-1.01.79-1.71,1.95-2.16,3.22-.11.17-.22.35-.34.52-.74,1.15-1.51,2.33-2.46,3.19-.45.4-.87.54-1.24.39-.6-.23-1.07-1.17-1.19-2.4-.25-2.37.71-5.94,4.21-8.21ZM1694.2,70.65c3.2,1.88,5.33,4.65,5.17,6.75-.09,1.2-.91,2.12-2.43,2.73-3.13,1.25-5.98,1.37-7.62.31-.94-.61-1.45-1.57-1.5-2.86-.06-1.4.11-3.1.64-4.63,1.52-2.33,2.88-3.97,5.73-2.3ZM1702.39,82.12c-1.99,3.09-5.56,4.98-9.53,5.06-.08,0-.16,0-.23,0-7.68,0-10.09-7.76-10.48-11.58.29.9.78,1.53,1.4,1.77.44.17,1.14.22,1.97-.53.67-.6,1.25-1.34,1.78-2.1-.17,1-.22,1.99-.18,2.86.06,1.51.7,2.7,1.83,3.43,1.86,1.2,4.88,1.11,8.28-.25,2.24-.89,2.8-2.31,2.87-3.34.18-2.4-2.04-5.38-5.52-7.42-1.12-.65-2.05-.86-2.86-.77,1.02-.35,2.23-.33,3.59.07,3.46,1,4.05,2.59,4.58,4,.42,1.12.81,2.17,2.56,2.42.44.06.85.13,1.25.19.1.02.2.03.3.05.16,2.13-.38,4.26-1.59,6.13ZM1647.45,71.89c1.66-.18,3.32-.54,4.62-1.05-1.27,2.16-3.08,5.1-4.36,5.58-.17.06-.21,0-.25-.05-.4-.51-.34-2.29-.01-4.48ZM1749.71,55.45c-.92.28-6.58.59-27.21.54,2.24-.13,4.38-.28,6.15-.46,5.69-.58,13.21-7,16.24-11.34-1,4.29-1.89,8.38-1.8,9.5.03.4.38.7,1.02.88,1.06.31,3.19.35,5.64.22-.01.3-.03.52-.05.66ZM1749.78,54.08c-2.01.11-3.82.1-5-.1-.86-.15-.97-.36-.97-.36-.11-1.35,1.59-8.51,2.24-11.21.1-.4.17-.72.22-.94.1-.41.16-.69-.19-.78-.35-.09-.4.08-.62.89-.96,3.53-10.37,12.56-16.89,13.23-6.28.64-18.03.99-20.15.7-.06-.33-.01-1.18.15-2.52,3.44-3.95,5.96-13.44,7.5-20.95,1.94-9.49,3.04-19.3,3.11-24.09.02-1.07-.06-1.66-.54-1.69-.38-.03-.77-.06-2.31,5.61-.86,3.17-1.93,7.59-3.08,12.77-2.36,10.58-4.47,21.46-5.24,27.07-.05.35-.09.67-.13.97-.15.16-.3.31-.45.45-.8.73-1.61,1.07-2.41,1-1.95-.16-4.18-.25-6.54-.35-6.91-.28-15.5-.64-15.73-3.04-.05-.56.15-2.23.54-4.6,5.56-11.69,9.83-37.53,9.58-41.76-.02-.3-.06-.64-.32-.77-.14-.07-.3-.05-.43.04-1.06.73-4.39,16.17-5.77,22.77-1.46,6.96-2.96,14.64-3.75,19.54-1.1,2.28-2.19,3.86-3.24,4.66-.73.56-1.41.71-2.08.49-7.87-2.68-26.38-19.18-27.51-20.31-.51-.65-.32-7.52-.2-12.06.24-8.83.17-10.42-.45-10.63-.26-.09-.55-.28-.82-.47-.11-.08-.22-.15-.34-.22,3.65-.92,9.79-2.18,18.04-3.55,10.43-1.73,22.61-3.32,26.31-2.99,7.61.69,23.94,3.39,27.89,5.03,5.06,2.11,22.08,10.39,22.89,11.74.01.35-.33,1.87-.89,4.08-3.33,5.19-7.48,23.67-8.04,26.62-.21,1.11-.21,1.31.03,1.47.12.08.3.07.42-.02.57-.41,3.71-11.26,5.03-15.9.65-2.3,2.24-7.93,3.26-11.97.45-.67.73-.82.86-.84.15-.02.29.18.38.35,2.08,3.87,2.98,7.45,2.54,10.13-1.27,2.34-2.5,5.86-2.73,6.63-.32,1.06-.32,1.25-.15,1.42.09.09.25.13.37.09.16-.05.39-.12,1.64-3.22.29-.72,1.26-3.19,1.53-4.53,0-.05.02-.1.03-.15.49-.9.91-1.52,1.16-1.65.05.11.15.45.12,1.39-.06,2.01-.31,4.85-.57,7.86-.45,5.19-.87,10.09-.42,11.32.18.49.98,1.08,2.13,1.65,0,.65-.01,1.22-.02,1.69ZM1708.76,51.57c.58-4.08,1.84-11.09,3.84-20.52,2.78-13.16,4.96-21.45,5.87-23.6,0,.13,0,.29,0,.49-.07,4.76-1.16,14.51-3.1,23.96-1.92,9.39-4.23,16.22-6.61,19.67ZM1683.79,43.26c2.1-11.8,6.78-33.48,8.38-38.16-.08,3.21-1.41,12.43-3.72,22.41-1.51,6.49-3.09,11.81-4.66,15.76ZM1741.28,25.28c-1.7,6.34-4.19,15.07-5.76,20.08.84-3.77,2.1-8.77,3.44-13.22.91-3.05,1.68-5.26,2.32-6.86ZM1750.49,54.03c0-.38.02-.82.02-1.32.87.38,1.87.74,2.93,1.04-.98.11-1.98.2-2.95.27ZM1755.38,53.52c-1.8-.39-3.55-.99-4.86-1.58.01-1.79,0-4.2,0-7.25-.02-6.1-.04-13.7.12-19.9.26-9.64.86-11.13,1.11-11.32,1.47-1.02,5.24-1.68,7.72-.98.97.28,1.6.73,1.87,1.33.49,1.11.85,9.13.88,19.5.03,10.96-.32,18.14-.67,18.76-.32.41-2.97.99-6.16,1.43ZM1783.71,19.19c-3.44-.1-6.52-.31-8.32-.51,3.25-.21,9,.06,14.4.52-1.55.06-3.57.06-6.09,0ZM1809.86,59.87c-1.09.09-10.18.21-19.09-.17-16.16-.68-17.7-2.4-17.79-2.91-.33-1.92-.84-10.01-.84-17.83,0-14.05,1.59-15.08,1.9-15.14,2.33-.47,8.59-.89,14.08-.89,4.78,0,8.97.32,9.49,1.22,1.23,2.15,6.42,14.33,4.72,17.5-.23.43-.57.65-1.06.68-1.18.08-2.51.3-3.92.54-4.33.72-9.24,1.54-10.92-1.7-1.28-2.47-1.23-7.56-1.19-10.93.03-3.14.02-4.05-.53-4.21-.39-.12-.66.3-.75.44-.75,1.17-.98,4.31-1.23,7.63-.22,3.02-.52,7.15-1.34,7.6-.69.38-2.42.42-3.81.45-1.98.05-2.67.1-2.77.62-.08.42.3.72,1.55,1.25,1.81.77,6.6,1.02,12.14,1.3,7.05.37,16.71.87,17.34,2.86.46,1.45-.46,2.87-1.27,4.13-.72,1.12-1.34,2.08-1,2.97.25.64.94,1.08,2.18,1.4,2.02.52,3.6.41,4.82.25-.19,2.85-.69,2.93-.71,2.93ZM1757.59,75.25c-.29-1.54-.97-3.1-2.04-4.61-2.76-3.88-6.75-5.42-10.67-4.11-3.66,1.22-6.26,4.6-6.17,8.04.09,3.53,2.06,6.7,5.01,8.08,2.22,1.04,4.6.83,6.36-.56,2.48-1.97,3.63-5.02,4.13-6.92.52.32,1.47.55,2.75.73.23,1.8-.14,3.56-1.11,5.13-2.48,4.01-8.12,5.97-14.37,4.99-4.39-.69-7.06-4.04-7.15-8.95-.1-5.51,3.39-12.15,9.19-13.28.74-.14,1.46-.21,2.18-.21,2.21,0,4.31.68,6.27,2.04,4.1,2.85,6.4,7.82,7,9.78-.48-.04-.95-.09-1.38-.14ZM1754.16,73.64c-.16-.02-.35.03-.42.38-.3,1.52-1.29,5.28-4.1,7.51-1.57,1.24-3.61,1.41-5.61.48-2.71-1.27-4.52-4.19-4.6-7.46-.08-3.13,2.31-6.22,5.68-7.34.59-.2,1.49-.42,2.56-.42,2.09,0,4.85.83,7.29,4.26.96,1.34,1.58,2.73,1.87,4.1-2.32-.34-2.4-.73-2.41-.73l.02-.26c.01-.14.04-.47-.3-.52ZM1762.54,76.56c-1.73.13-2.38.12-2.62-.39,1.27.09,2.7.16,4.26.23.3.01.62.03.93.04-.97-.01-1.83.06-2.57.11Z"/>
        <path class="cls-1" d="M1766.93,76.56c-.11-.01-.21-.02-.32-.03.26.02.52.03.77.05-.14,0-.29,0-.45-.01Z"/>
      </g>
      <g>
        <path class="cls-1" d="M1045.9,7.54c0,.39-.06.89-.32,1.04-.15.08-.63.22-2.19.22s-1.98-.32-2.05-.45c-.11-.19-.3-.95-.3-3.83,0-1.15.24-1.48.38-1.57.16-.1.71-.28,2.6-.28,1.04,0,1.38.14,1.49.22.09.07.26.31.26,1.04v.5h1.58l-.02-.48c0-.99-.24-1.68-.72-2.05-.46-.36-1.3-.53-2.56-.53-1.81,0-2.98.17-3.55.54-.51.32-.82.69-.93,1.11-.1.39-.15,1.27-.15,2.69,0,1.86.23,3.02.7,3.56.48.55,1.51.81,3.17.81,1.83,0,2.91-.14,3.4-.45.52-.33.77-1.07.77-2.27v-.57h-1.58l.02.74Z"/>
        <rect class="cls-1" x="1051.81" y="1.46" width="1.57" height="8.55"/>
        <path class="cls-1" d="M1063.86,7.65c-.03.07-.08.18-.15.33l-3.11-6.52h-2.25v8.55h1.58V3.59l3.11,6.42h1.38l3.09-6.48v6.48h1.58V1.46h-2.28l-2.95,6.19Z"/>
        <polygon class="cls-1" points="1073.65 10.01 1080.15 10.01 1080.15 8.72 1075.22 8.72 1075.22 6.24 1079.95 6.24 1079.95 4.95 1075.22 4.95 1075.22 2.75 1080.15 2.75 1080.15 1.46 1073.65 1.46 1073.65 10.01"/>
        <polygon class="cls-1" points="1091.57 8.19 1086.79 1.46 1084.68 1.46 1084.68 10.01 1086.25 10.01 1086.25 3.3 1091.02 10.01 1093.14 10.01 1093.14 1.46 1091.57 1.46 1091.57 8.19"/>
        <polygon class="cls-1" points="1097.25 2.83 1100.28 2.83 1100.28 10.01 1101.86 10.01 1101.86 2.83 1104.86 2.83 1104.86 1.46 1097.25 1.46 1097.25 2.83"/>
        <path class="cls-1" d="M1112.63,2.67c1.52,0,2.08.17,2.29.31.18.13.4.49.4,1.47v1.28c0,2.15-.21,2.63-.3,2.73-.07.08-.45.33-2.39.33s-2.32-.25-2.39-.33c-.09-.1-.31-.58-.31-2.73s.22-2.62.31-2.73c.07-.08.45-.33,2.39-.33M1116.12,2.12c-.5-.5-1.64-.74-3.49-.74-1.59,0-2.66.21-3.27.63-.63.44-.95,1.25-.95,2.4v1.33c-.01,1.93.22,3.12.7,3.61.49.5,1.64.74,3.51.74s3.04-.25,3.52-.75c.47-.5.71-1.72.71-3.71,0-1.86-.24-3-.74-3.5"/>
        <path class="cls-1" d="M1021.91,34.13c0,2.93.61,5.11,1.84,6.53,1.23,1.42,2.79,2.13,4.67,2.13,1.66,0,3.04-.68,4.16-2.05,1.12-1.36,1.68-3.67,1.68-6.93,0-3-.59-5.21-1.75-6.61-1.15-1.42-2.59-2.12-4.26-2.12-1.82,0-3.34.71-4.54,2.13-1.22,1.42-1.81,3.73-1.81,6.91M990.57,34.96c-1.96.7-3.99,1.32-6.1,1.86-2.88.76-4.72,1.52-5.48,2.26-.8.77-1.19,1.65-1.19,2.62,0,1.12.4,2.03,1.17,2.74.79.7,1.93,1.06,3.44,1.06s3.05-.38,4.42-1.14c1.36-.78,2.32-1.72,2.89-2.81.57-1.11.85-2.55.85-4.32v-2.28ZM1065.83,34.09c0,3.31.67,5.76,2.01,7.33,1.34,1.59,3.02,2.39,5.04,2.39s3.73-.79,5.04-2.35c1.32-1.56,1.98-4.05,1.98-7.51,0-3.21-.67-5.6-1.99-7.17-1.32-1.56-2.97-2.35-4.92-2.35-2.07,0-3.79.8-5.13,2.39-1.35,1.6-2.03,4.03-2.03,7.28M1051.59,34.13c0-5.65,1.91-10.32,5.72-13.98,3.83-3.67,8.97-5.51,15.47-5.51,7.42,0,13.04,2.16,16.83,6.46,3.05,3.47,4.58,7.75,4.58,12.82,0,5.7-1.9,10.37-5.67,14.02-3.78,3.63-9.01,5.46-15.7,5.46-5.96,0-10.77-1.51-14.45-4.54-4.52-3.74-6.77-8.65-6.77-14.73M1123.87,33.92c0-2.92-.61-5.09-1.85-6.52-1.23-1.43-2.79-2.15-4.67-2.15-1.66,0-3.04.69-4.16,2.06-1.12,1.37-1.68,3.67-1.68,6.91,0,3.03.59,5.24,1.73,6.65,1.16,1.41,2.59,2.11,4.28,2.11,1.83,0,3.34-.7,4.54-2.12,1.22-1.43,1.81-3.74,1.81-6.95M1138.12,1.38v51.18h-13.3v-5.48c-1.87,2.32-3.56,3.89-5.1,4.72-2.05,1.06-4.33,1.6-6.84,1.6-5.05,0-8.91-1.92-11.58-5.76-2.66-3.84-3.99-8.51-3.99-14,0-6.15,1.46-10.85,4.42-14.1,2.94-3.27,6.69-4.9,11.21-4.9,2.21,0,4.22.38,6.03,1.12,1.8.75,3.4,1.86,4.8,3.35V1.38h14.35ZM1141.24,14.17h14.22v38.39h-14.22V14.17ZM1141.24,1.38h14.22v9.68h-14.22V1.38ZM966.89,20.46c.97-1.36,2.35-2.54,4.18-3.54,1.3-.73,3.1-1.29,5.37-1.68,2.28-.39,4.74-.59,7.4-.59,4.25,0,7.69.24,10.26.71,2.59.48,4.74,1.48,6.46,2.99,1.22,1.05,2.17,2.52,2.87,4.44.7,1.93,1.04,3.76,1.04,5.51l.07,24.26h-13.14l-.02-4.54c-1.86,1.8-3.72,3.08-5.55,3.84-2.51,1.03-5.44,1.54-8.76,1.54-4.42,0-7.78-1.03-10.08-3.08-2.29-2.04-3.43-4.56-3.43-7.57,0-2.82.82-5.14,2.48-6.95,1.66-1.82,4.7-3.17,9.14-4.05,5.34-1.07,8.79-1.82,10.38-2.25,1.57-.43,3.26-1,5.02-1.69,0-5.1-10.29-6.12-12.33-.32h-14.25c.55-2.44,1.42-4.96,2.89-7.03M1007.65,66.67V15.48h13.3v5.48c1.84-2.31,3.53-3.87,5.07-4.68,2.07-1.1,4.36-1.64,6.87-1.64,4.96,0,8.79,1.91,11.51,5.7,2.7,3.79,4.06,8.48,4.06,14.08,0,6.16-1.48,10.87-4.43,14.12-2.96,3.24-6.7,4.86-11.2,4.86-2.19,0-4.2-.37-5.99-1.11-1.8-.75-3.42-1.86-4.84-3.32v17.71h-14.35Z"/>
        <polygon class="cls-1" points="889.63 1.3 930.11 66.67 963.55 66.67 923.07 1.3 889.63 1.3"/>
        <polygon class="cls-1" points="907.53 39.72 890.69 66.67 857.26 66.67 890.88 12.83 907.53 39.72"/>
      </g>
    </g>
  </g>
</svg>