<?xml version="1.0" encoding="UTF-8"?>
<svg id="Layer_2" data-name="Layer 2" xmlns="http://www.w3.org/2000/svg" viewBox="0 0 1986.32 108.24">
  <defs>
    <style>
      .cls-1 {
        fill: #fff;
        stroke-width: 0px;
      }
    </style>
  </defs>
  <g id="Layer_1-2" data-name="Layer 1">
    <g>
      <path class="cls-1" d="M1796.84,91.79c-.24-.16-.45-.31-.61-.44l-6.06-5.49h196.15v-.79h-197.02l-1.66-1.5c-.12-.13-2.28-2.5-2.03-7.51,0-.09.17-9.05-2.4-19.37-1.51-6.07-3.66-11.42-6.4-15.91-3.42-5.62-7.77-9.88-12.91-12.68-.56-.38-12.81-8.61-24.44-6.78-.49-.02-4.95-.2-10.48.88-5.39,1.05-12.95,3.55-18.3,9.46-.4.39-12.42,12.46-14.34,27.5l-3.1,2.32c-.1.07-.16.19-.16.32v2.37c-.73.24-2.6.99-3.36,2.67-.55,1.23-.4,2.67.44,4.29,2.7,5.13,12.4,10.87,15.8,12.29.18.07.38,0,.48-.15l1.88-2.96c.06-.1.08-.22.04-.33-.03-.11-.12-.2-.23-.24-.06-.02-5.7-2.35-8.09-4.9v-3.46l2.1-2.33c1.68,1.07,10.1,6.29,16.47,7.87l-.26,6.4c0,.15.08.3.22.37.29.14,7.14,3.54,12.8,3.81.2,0,.37-.13.41-.33l.8-4.53c.29-.71,1.21-2.46,2.32-2.92.98.31,6.87,2.09,11.15,2.13.44.37,2.19,1.94,2.43,3.64l-.53,4.25s0,.03,0,.05c0,.08.04,1.98,3.32,2.28,3.15.29,11.43.26,16-.82.17-.04.29-.18.3-.35.01-.14,1.04-13.68-2.5-28.3-2.08-8.6-5.31-15.9-9.61-21.67-5.28-7.11-12.19-11.93-20.53-14.33.65-1.03,2.98-3.51,9.5-1,.09.03,9.09,3.44,17.5,12.84,7.77,8.69,16.61,24.41,14.53,49.98,0,.11.03.21.1.29.07.08.17.13.28.13.21.01,5.16.24,7.49-2.96h4.65l6.71,6.09s.01.01.02.02c.19.15.41.3.67.48.99.68,2.35,1.61,2.55,3.02.14,1.01-.33,2.18-1.39,3.47-3.57,4.34-15.05,6.5-26.92,8.2-10.97,1.57-16.85-3.36-16.9-3.41-.02-.02-.04-.03-.06-.04-.09-.05-8.68-5.16-15.33-9.15-6.7-4.02-26.44-9.24-27.27-9.46-.03,0-.07-.01-.1-.01H0c.05.26.09.53.12.79h1710.79c1.12.3,20.58,5.5,27.02,9.36,6.46,3.87,14.75,8.8,15.31,9.13.44.37,4.85,3.89,13.08,3.89,1.37,0,2.84-.1,4.42-.32,12.03-1.72,23.68-3.94,27.42-8.48,1.22-1.47,1.74-2.85,1.57-4.09-.25-1.76-1.84-2.84-2.89-3.56ZM1784.14,85.07c-.13,0-.25.07-.33.17-1.68,2.5-5.3,2.77-6.51,2.79.86-11.24-.28-21.54-3.4-30.61-2.53-7.36-6.35-13.93-11.37-19.54-8.55-9.55-17.73-13.02-17.81-13.05-3.36-1.3-6.11-1.49-8.19-.57-1.92.85-2.51,2.34-2.53,2.41-.04.1-.03.22.02.32.05.1.14.17.25.2,18.99,5.23,26.82,22.21,30.05,35.54,3.23,13.33,2.63,25.76,2.5,27.79-4.49.98-12.5,1-15.46.73-2.4-.22-2.58-1.33-2.6-1.47l.53-4.27s0-.07,0-.1c-.29-2.29-2.73-4.22-2.84-4.3-.07-.05-.15-.08-.24-.08-4.46,0-11.11-2.11-11.18-2.13-.08-.03-.17-.03-.24,0-1.77.59-2.89,3.34-2.93,3.46-.01.03-.02.05-.02.08l-.75,4.23c-4.87-.34-10.7-3.01-11.91-3.59l.26-6.47c0-.19-.12-.36-.31-.4-6.85-1.58-16.72-7.95-16.82-8.02-.16-.11-.38-.08-.51.07l-2.42,2.69c-.06.07-.1.17-.1.26v3.77c0,.1.04.19.1.26,2.1,2.33,6.62,4.41,8.05,5.03l-1.45,2.28c-3.57-1.58-12.57-6.98-15.1-11.79-.73-1.39-.87-2.59-.42-3.59.78-1.73,3.11-2.32,3.13-2.32.18-.04.3-.2.3-.38v-2.47l3.07-2.3c.09-.07.14-.16.16-.27,1.84-15.02,14.02-27.09,14.14-27.21,0,0,.01-.01.02-.02,5.2-5.75,12.58-8.19,17.85-9.22,5.74-1.12,10.3-.88,10.35-.87.03,0,.06,0,.09,0,11.54-1.84,23.8,6.57,23.93,6.66.01,0,.02.02.04.02,11.4,6.18,16.59,18.68,18.94,28.08,2.55,10.22,2.38,19.09,2.38,19.17-.27,5.49,2.16,8,2.28,8.11l1.02.93h-3.99Z"/>
      <g>
        <path class="cls-1" d="M1046.08,6.24c0,.39-.06.89-.32,1.04-.15.08-.63.22-2.19.22s-1.98-.32-2.05-.45c-.11-.19-.3-.95-.3-3.83,0-1.15.24-1.48.38-1.57.16-.1.71-.28,2.6-.28,1.04,0,1.38.14,1.49.22.09.07.26.31.26,1.04v.5h1.58l-.02-.48c0-.99-.24-1.68-.72-2.05-.46-.36-1.3-.53-2.56-.53-1.81,0-2.98.17-3.55.54-.51.32-.82.69-.93,1.11-.1.39-.15,1.27-.15,2.69,0,1.86.23,3.02.7,3.56.48.55,1.51.81,3.17.81,1.83,0,2.91-.14,3.4-.45.52-.33.77-1.07.77-2.27v-.57h-1.58l.02.74Z"/>
        <rect class="cls-1" x="1051.99" y=".16" width="1.57" height="8.55"/>
        <path class="cls-1" d="M1064.05,6.35c-.03.07-.08.18-.15.33l-3.11-6.52h-2.25v8.55h1.58V2.28l3.11,6.42h1.38l3.09-6.48v6.48h1.58V.16h-2.28l-2.95,6.19Z"/>
        <polygon class="cls-1" points="1073.83 8.7 1080.33 8.7 1080.33 7.41 1075.41 7.41 1075.41 4.94 1080.13 4.94 1080.13 3.65 1075.41 3.65 1075.41 1.45 1080.33 1.45 1080.33 .16 1073.83 .16 1073.83 8.7"/>
        <polygon class="cls-1" points="1091.75 6.89 1086.97 .16 1084.86 .16 1084.86 8.7 1086.43 8.7 1086.43 2 1091.2 8.7 1093.33 8.7 1093.33 .16 1091.75 .16 1091.75 6.89"/>
        <polygon class="cls-1" points="1097.43 1.52 1100.47 1.52 1100.47 8.7 1102.04 8.7 1102.04 1.52 1105.05 1.52 1105.05 .16 1097.43 .16 1097.43 1.52"/>
        <path class="cls-1" d="M1112.81,1.36c1.52,0,2.08.17,2.29.31.18.13.4.49.4,1.47v1.28c0,2.15-.21,2.63-.3,2.73-.07.08-.45.33-2.39.33s-2.32-.25-2.39-.33c-.09-.1-.31-.58-.31-2.73s.22-2.62.31-2.73c.07-.08.45-.33,2.39-.33M1116.3.82c-.5-.5-1.64-.74-3.49-.74-1.59,0-2.66.21-3.27.63-.63.44-.95,1.25-.95,2.4v1.33c-.01,1.93.22,3.12.7,3.61.49.5,1.64.74,3.51.74s3.04-.25,3.52-.75c.47-.5.71-1.72.71-3.71,0-1.86-.24-3-.74-3.5"/>
        <path class="cls-1" d="M1022.09,32.82c0,2.93.61,5.11,1.84,6.53,1.23,1.42,2.79,2.13,4.67,2.13,1.66,0,3.04-.68,4.16-2.05,1.12-1.36,1.68-3.67,1.68-6.93,0-3-.59-5.21-1.75-6.61-1.15-1.42-2.59-2.12-4.26-2.12-1.82,0-3.34.71-4.54,2.13-1.22,1.42-1.81,3.73-1.81,6.91M990.75,33.66c-1.96.7-3.99,1.32-6.1,1.86-2.88.76-4.72,1.52-5.48,2.26-.8.77-1.19,1.65-1.19,2.62,0,1.12.4,2.03,1.17,2.74.79.7,1.93,1.06,3.44,1.06s3.05-.38,4.42-1.14c1.36-.78,2.32-1.72,2.89-2.81.57-1.11.85-2.55.85-4.32v-2.28ZM1066.01,32.79c0,3.31.67,5.76,2.01,7.33,1.34,1.59,3.02,2.39,5.04,2.39s3.73-.79,5.04-2.35c1.32-1.56,1.98-4.05,1.98-7.51,0-3.21-.67-5.6-1.99-7.17-1.32-1.56-2.97-2.35-4.92-2.35-2.07,0-3.79.8-5.13,2.39-1.35,1.6-2.03,4.03-2.03,7.28M1051.77,32.82c0-5.65,1.91-10.32,5.72-13.98,3.83-3.67,8.97-5.51,15.47-5.51,7.42,0,13.04,2.16,16.83,6.46,3.05,3.47,4.58,7.75,4.58,12.82,0,5.7-1.9,10.37-5.67,14.02-3.78,3.63-9.01,5.46-15.7,5.46-5.96,0-10.77-1.51-14.45-4.54-4.52-3.74-6.77-8.65-6.77-14.73M1124.05,32.62c0-2.92-.61-5.09-1.85-6.52-1.23-1.43-2.79-2.15-4.67-2.15-1.66,0-3.04.69-4.16,2.06-1.12,1.37-1.68,3.67-1.68,6.91,0,3.03.59,5.24,1.73,6.65,1.16,1.41,2.59,2.11,4.28,2.11,1.83,0,3.34-.7,4.54-2.12,1.22-1.43,1.81-3.74,1.81-6.95M1138.3.08v51.18h-13.3v-5.48c-1.87,2.32-3.56,3.89-5.1,4.72-2.05,1.06-4.33,1.6-6.84,1.6-5.05,0-8.91-1.92-11.58-5.76-2.66-3.84-3.99-8.51-3.99-14,0-6.15,1.46-10.85,4.42-14.1,2.94-3.27,6.69-4.9,11.21-4.9,2.21,0,4.22.38,6.03,1.12,1.8.75,3.4,1.86,4.8,3.35V.08h14.35ZM1141.42,12.87h14.22v38.39h-14.22V12.87ZM1141.42.08h14.22v9.68h-14.22V.08ZM967.07,19.15c.97-1.36,2.35-2.54,4.18-3.54,1.3-.73,3.1-1.29,5.37-1.68,2.28-.39,4.74-.59,7.4-.59,4.25,0,7.69.24,10.26.71,2.59.48,4.74,1.48,6.46,2.99,1.22,1.05,2.17,2.52,2.87,4.44.7,1.93,1.04,3.76,1.04,5.51l.07,24.26h-13.14l-.02-4.54c-1.86,1.8-3.72,3.08-5.55,3.84-2.51,1.03-5.44,1.54-8.76,1.54-4.42,0-7.78-1.03-10.08-3.08-2.29-2.04-3.43-4.56-3.43-7.57,0-2.82.82-5.14,2.48-6.95,1.66-1.82,4.7-3.17,9.14-4.05,5.34-1.07,8.79-1.82,10.38-2.25,1.57-.43,3.26-1,5.02-1.69,0-5.1-10.29-6.12-12.33-.32h-14.25c.55-2.44,1.42-4.96,2.89-7.03M1007.83,65.37V14.18h13.3v5.48c1.84-2.31,3.53-3.87,5.07-4.68,2.07-1.1,4.36-1.64,6.87-1.64,4.96,0,8.79,1.91,11.51,5.7,2.7,3.79,4.06,8.48,4.06,14.08,0,6.16-1.48,10.87-4.43,14.12-2.96,3.24-6.7,4.86-11.2,4.86-2.19,0-4.2-.37-5.99-1.11-1.8-.75-3.42-1.86-4.84-3.32v17.71h-14.35Z"/>
        <polygon class="cls-1" points="889.82 0 930.3 65.37 963.74 65.37 923.26 0 889.82 0"/>
        <polygon class="cls-1" points="907.71 38.41 890.87 65.37 857.44 65.37 891.06 11.53 907.71 38.41"/>
      </g>
    </g>
  </g>
</svg>