<?xml version="1.0" encoding="UTF-8"?>
<svg id="Layer_2" data-name="Layer 2" xmlns="http://www.w3.org/2000/svg" viewBox="0 0 1152.48 136.11">
  <defs>
    <style>
      .cls-1 {
        fill: #fff;
        stroke-width: 0px;
      }
    </style>
  </defs>
  <g id="Layer_1-2" data-name="Layer 1">
    <g>
      <path class="cls-1" d="M1152.48,117.69h-117.95c-.06,0-.11,0-.17.03-2.9.97-5.81,1.7-8.67,2.18,1.56-1.52,3.91-4.1,5.83-6.39,2.41-2.87,6.57-8.12,7.27-11.02.2-.83.12-1.47-.24-1.91-1.27-1.56-9.05-7.24-15.74-11.86-3.32-2.29-14.34-9.8-16.83-10.37-2.09-.48-4.5,2.43-7.55,6.11-2.89,3.49-6.17,7.44-9.45,8.66-.8.3-3.01.2-8.91-3.73-4.06-2.7-9.17-6.8-14.39-11.53-10.96-9.93-20.01-20.36-22.01-25.38-.95-2.39-.87-4.72-.17-6.91.99.39,1.82.57,2.34.38,1.72-.63,5.52-3.67,8.5-6.31,1.02-.9,6.14-5.48,6.57-6.9.1-.32,0-.73-.73-1.93-.47-.77-1.18-1.81-2.13-3.12-1.62-2.25-3.96-5.31-6.95-9.1-5.36-6.81-11.46-14.26-13.84-17.15-.95-1.15-2.42-1.68-3.76-1.34-8.78,2.2-14.6,6.04-17.3,11.43-1.72,3.43-1.79,6.82-1.55,9.07.24,2.25.83,3.8.94,4.07.08.3.58,2.01,2.5,5.14,1.89,3.08,5.6,8.22,12.54,15.19,7.71,7.74,12.75,16.04,15.23,25.51-.34-.41-.64-.79-.92-1.15-1.12-1.43-2.44-3.14-3.83-4.94-3.99-5.17-8.96-11.61-13.15-16.56-2.31-2.73-4.12-4.71-5.54-6.05-1.88-1.78-3-2.37-3.75-1.98-.79.41-.8,1.65-.02,4.14,2.04,6.5,8.56,16.51,17.87,27.46,3.5,4.12,7.26,8.2,11.12,12.11.24,8.75-1.24,18.47-4.36,29.51-3.37,11.92-10.64,19.09-21.59,21.32-4.57.93-469.72.76-921.7.42v.79c450.11.26,911.78.55,914.54.55,2.22,0,4.73-.18,7.34-.71,4.98-1.01,9.31-3.06,12.86-6.12,4.43-3.81,7.65-9.18,9.57-15.96,2.11-7.45,3.43-14.08,4.05-20.27.29-2.92.43-5.72.4-8.41,6.15,6.14,12.53,11.79,18.55,16.39,11.48,8.78,19.56,14.84,27.01,18.9,6.59,3.59,12.17,5.3,17.58,5.29,1.36,0,2.71-.11,4.06-.32,3.27-.51,5.96-1.91,8.18-3.71,3.44-.46,6.97-1.29,10.48-2.46h117.87v-1.05ZM942.9,44.15c-.28-.14-.6-.3-.94-.49-1.91-1.04-4.3-2.61-6.73-4.43-8.23-6.16-16.39-14.65-16.06-19.7.25-3.84,3.05-7.14,5.35-9.23,2.62-2.38,5.98-4.41,8.54-5.15.67-.19,1.15-.26,1.49-.26.4,0,.61.09.67.18.49.67,2.41,3.14,4.84,6.25,4.86,6.24,13.75,17.66,14.73,19.34-.26.32-1.08,1.02-1.88,1.69-2.22,1.88-5.58,4.72-8.03,8.24-.84,1.2-1.5,2.39-1.98,3.57ZM919.67,43.64c-.69-2.18-.54-2.76-.49-2.88.14,0,.8.15,2.78,2.05,1.39,1.34,3.22,3.36,5.44,6,4.12,4.89,8.98,11.19,12.88,16.24,1.4,1.81,2.71,3.52,3.83,4.95.62.79,1.39,1.73,2.29,2.79.63,2.94,1.03,5.99,1.19,9.17-13.6-13.9-25.05-29.18-27.92-38.32ZM1015.8,123.87c-6.48,1.02-12.95-.48-20.97-4.86-7.38-4.02-15.43-10.06-26.87-18.81-6.42-4.91-13.02-10.83-19.22-17.08-.09-2.77-.35-5.44-.79-8.05-.04-.21-.07-.43-.11-.64,5.55,6.29,14.8,15.74,25.53,24.73,7.37,6.18,14.32,11.19,20.65,14.88,7.53,4.39,14.13,6.89,19.63,7.42,2.69.26,5.49.25,8.37-.01-1.76,1.16-3.83,2.05-6.21,2.43ZM1013.73,120.4c-12.5-1.21-28.49-12.66-39.71-22.06-11.51-9.65-21.31-19.82-26.62-26-2.29-10.37-7.55-19.58-16.02-28.09-6.82-6.84-10.47-11.88-12.33-14.9-2.02-3.27-2.43-4.95-2.43-4.97,0-.03-.02-.06-.03-.08-.03-.06-2.51-6.17.56-12.3,2.56-5.1,8.15-8.76,16.61-10.88.95-.24,2,.15,2.69.99,2.3,2.8,8.23,10.03,13.51,16.73,2.93,3.72,5.26,6.75,6.91,9.02,2.52,3.45,2.94,4.39,3,4.63-.31.69-2.66,3.2-6.24,6.36-3.66,3.23-6.87,5.63-8.17,6.11-.05.02-.41.11-1.62-.38,2-4.9,6.89-9.03,9.73-11.44,1.88-1.59,2.44-2.07,2.29-2.65-.06-.23-.17-.62-5.44-7.51-2.97-3.88-6.62-8.56-9.54-12.32-2.42-3.11-4.33-5.57-4.82-6.23-.51-.69-1.62-.8-3.31-.3-2.71.79-6.22,2.9-8.95,5.39-2.45,2.22-5.42,5.75-5.7,9.94-.18,2.69,1.58,6.19,5.22,10.38,2.91,3.34,6.9,6.98,11.25,10.24,1.02.77,4.9,3.61,7.94,5.07-.88,2.67-.83,5.26.15,7.73,1.35,3.39,5.21,8.18,8.21,11.6,3.94,4.49,8.94,9.52,14.07,14.17,5.26,4.77,10.41,8.89,14.51,11.63,4.86,3.24,8.09,4.5,9.86,3.84,3.54-1.31,6.92-5.38,9.9-8.97,2.48-2.99,5.05-6.09,6.51-5.76,1.51.35,7.98,4.35,16.47,10.21,7.85,5.42,14.53,10.43,15.52,11.66.13.16.15.48.05.92-.41,1.92-2.94,5.76-6.95,10.53-.13.15-.26.3-.38.45.92-1.76,1.56-3.37,1.97-4.55.53-1.52.95-3.05,1.16-4.32.34-1.98.06-2.29-.08-2.44-.49-.54-6.39-5.34-12.08-9.65-3.43-2.59-6.33-4.69-8.64-6.21-3.91-2.58-5.15-2.93-5.75-2.97-1.75-.11-3.96,1.48-6.74,4.86-2.47,3-4.5,6.35-4.88,6.99-.34.57-.31,1.56,2.43,4.65,2.97,3.35,8.58,8.51,15,13.82,2.73,2.25,5.3,4.28,7.25,5.7.77.56,1.42,1.02,1.96,1.36-2.87.27-5.66.28-8.33.03ZM1023.75,120.13c-.36-.16-1.41-.74-4.27-2.9-2.42-1.83-5.41-4.24-8.41-6.79-7.28-6.18-12.6-11.39-14.23-13.94-.52-.81-.5-1.1-.5-1.13.39-.65,2.37-3.92,4.78-6.85,2.45-2.97,4.53-4.56,5.86-4.47.65.04,3.29,1,13.81,8.97,5.95,4.51,11.24,8.85,11.89,9.47.07.37-.07,1.88-.76,4.2-.8,2.72-2.04,5.51-3.48,7.85-1.12,1.82-2.67,3.86-4.7,5.58Z"/>
      <g>
        <path class="cls-1" d="M610.19,52.31c0,.39-.06.89-.32,1.04-.15.08-.63.22-2.19.22s-1.98-.32-2.05-.45c-.11-.19-.3-.95-.3-3.83,0-1.15.24-1.48.38-1.57.16-.1.71-.28,2.6-.28,1.04,0,1.38.14,1.49.22.09.07.26.31.26,1.04v.5h1.58l-.02-.48c0-.99-.24-1.68-.72-2.05-.46-.36-1.3-.53-2.56-.53-1.81,0-2.98.17-3.55.54-.51.32-.82.69-.93,1.11-.1.39-.15,1.27-.15,2.69,0,1.86.23,3.02.7,3.56.48.55,1.51.81,3.17.81,1.83,0,2.91-.14,3.4-.45.52-.33.77-1.07.77-2.27v-.57h-1.58l.02.74Z"/>
        <rect class="cls-1" x="616.11" y="46.24" width="1.57" height="8.55"/>
        <path class="cls-1" d="M628.16,52.43c-.03.07-.08.18-.15.33l-3.11-6.52h-2.25v8.55h1.58v-6.42l3.11,6.42h1.38l3.09-6.48v6.48h1.58v-8.55h-2.28l-2.95,6.19Z"/>
        <polygon class="cls-1" points="637.94 54.78 644.45 54.78 644.45 53.49 639.52 53.49 639.52 51.02 644.24 51.02 644.24 49.73 639.52 49.73 639.52 47.52 644.45 47.52 644.45 46.23 637.94 46.23 637.94 54.78"/>
        <polygon class="cls-1" points="655.86 52.97 651.08 46.24 648.97 46.24 648.97 54.78 650.54 54.78 650.54 48.08 655.32 54.78 657.44 54.78 657.44 46.24 655.86 46.24 655.86 52.97"/>
        <polygon class="cls-1" points="661.55 47.6 664.58 47.6 664.58 54.78 666.15 54.78 666.15 47.6 669.16 47.6 669.16 46.24 661.55 46.24 661.55 47.6"/>
        <path class="cls-1" d="M676.92,47.44c1.52,0,2.08.17,2.29.31.18.13.4.49.4,1.47v1.28c0,2.15-.21,2.63-.3,2.73-.07.08-.45.33-2.39.33s-2.32-.25-2.39-.33c-.09-.1-.31-.58-.31-2.73s.22-2.62.31-2.73c.07-.08.45-.33,2.39-.33M680.41,46.89c-.5-.5-1.64-.74-3.49-.74-1.59,0-2.66.21-3.27.63-.63.44-.95,1.25-.95,2.4v1.33c-.01,1.93.22,3.12.7,3.61.49.5,1.64.74,3.51.74s3.04-.25,3.52-.75c.47-.5.71-1.72.71-3.71,0-1.86-.24-3-.74-3.5"/>
        <path class="cls-1" d="M586.2,78.9c0,2.93.61,5.11,1.84,6.53,1.23,1.42,2.79,2.13,4.67,2.13,1.66,0,3.04-.68,4.16-2.05,1.12-1.36,1.68-3.67,1.68-6.93,0-3-.59-5.21-1.75-6.61-1.15-1.42-2.59-2.12-4.26-2.12-1.82,0-3.34.71-4.54,2.13-1.22,1.42-1.81,3.73-1.81,6.91M554.87,79.73c-1.96.7-3.99,1.32-6.1,1.86-2.88.76-4.72,1.52-5.48,2.26-.8.77-1.19,1.65-1.19,2.62,0,1.12.4,2.03,1.17,2.74.79.7,1.93,1.06,3.44,1.06s3.05-.38,4.42-1.14c1.36-.78,2.32-1.72,2.89-2.81.57-1.11.85-2.55.85-4.32v-2.28ZM630.12,78.86c0,3.31.67,5.76,2.01,7.33,1.34,1.59,3.02,2.39,5.04,2.39s3.73-.79,5.04-2.35c1.32-1.56,1.98-4.05,1.98-7.51,0-3.21-.67-5.6-1.99-7.17-1.32-1.56-2.97-2.35-4.92-2.35-2.07,0-3.79.8-5.13,2.39-1.35,1.6-2.03,4.03-2.03,7.28M615.88,78.9c0-5.65,1.91-10.32,5.72-13.98,3.83-3.67,8.97-5.51,15.47-5.51,7.42,0,13.04,2.16,16.83,6.46,3.05,3.47,4.58,7.75,4.58,12.82,0,5.7-1.9,10.37-5.67,14.02-3.78,3.63-9.01,5.46-15.7,5.46-5.96,0-10.77-1.51-14.45-4.54-4.52-3.74-6.77-8.65-6.77-14.73M688.16,78.7c0-2.92-.61-5.09-1.85-6.52-1.23-1.43-2.79-2.15-4.67-2.15-1.66,0-3.04.69-4.16,2.06-1.12,1.37-1.68,3.67-1.68,6.91,0,3.03.59,5.24,1.73,6.65,1.16,1.41,2.59,2.11,4.28,2.11,1.83,0,3.34-.7,4.54-2.12,1.22-1.43,1.81-3.74,1.81-6.95M702.41,46.15v51.18h-13.3v-5.48c-1.87,2.32-3.56,3.89-5.1,4.72-2.05,1.06-4.33,1.6-6.84,1.6-5.05,0-8.91-1.92-11.58-5.76-2.66-3.84-3.99-8.51-3.99-14,0-6.15,1.46-10.85,4.42-14.1,2.94-3.27,6.69-4.9,11.21-4.9,2.21,0,4.22.38,6.03,1.12,1.8.75,3.4,1.86,4.8,3.35v-17.73h14.35ZM705.53,58.95h14.22v38.39h-14.22v-38.39ZM705.53,46.15h14.22v9.68h-14.22v-9.68ZM531.18,65.23c.97-1.36,2.35-2.54,4.18-3.54,1.3-.73,3.1-1.29,5.37-1.68,2.28-.39,4.74-.59,7.4-.59,4.25,0,7.69.24,10.26.71,2.59.48,4.74,1.48,6.46,2.99,1.22,1.05,2.17,2.52,2.87,4.44.7,1.93,1.04,3.76,1.04,5.51l.07,24.26h-13.14l-.02-4.54c-1.86,1.8-3.72,3.08-5.55,3.84-2.51,1.03-5.44,1.54-8.76,1.54-4.42,0-7.78-1.03-10.08-3.08-2.29-2.04-3.43-4.56-3.43-7.57,0-2.82.82-5.14,2.48-6.95,1.66-1.82,4.7-3.17,9.14-4.05,5.34-1.07,8.79-1.82,10.38-2.25,1.57-.43,3.26-1,5.02-1.69,0-5.1-10.29-6.12-12.33-.32h-14.25c.55-2.44,1.42-4.96,2.89-7.03M571.95,111.45v-51.19h13.3v5.48c1.84-2.31,3.53-3.87,5.07-4.68,2.07-1.1,4.36-1.64,6.87-1.64,4.96,0,8.79,1.91,11.51,5.7,2.7,3.79,4.06,8.48,4.06,14.08,0,6.16-1.48,10.87-4.43,14.12-2.96,3.24-6.7,4.86-11.2,4.86-2.19,0-4.2-.37-5.99-1.11-1.8-.75-3.42-1.86-4.84-3.32v17.71h-14.35Z"/>
        <polygon class="cls-1" points="453.93 46.08 494.41 111.45 527.85 111.45 487.37 46.08 453.93 46.08"/>
        <polygon class="cls-1" points="471.82 84.49 454.98 111.45 421.55 111.45 455.17 57.6 471.82 84.49"/>
      </g>
    </g>
  </g>
</svg>