<?xml version="1.0" encoding="UTF-8"?>
<svg id="Layer_2" data-name="Layer 2" xmlns="http://www.w3.org/2000/svg" viewBox="0 0 1152.48 114.05">
  <defs>
    <style>
      .cls-1 {
        fill: #fff;
        stroke-width: 0px;
      }
    </style>
  </defs>
  <g id="Layer_1-2" data-name="Layer 1">
    <g>
      <g>
        <path class="cls-1" d="M0,103.46v1.27h899.42c1.95,0,3.69.06,5.67.09l.08-.92L0,103.46Z"/>
        <g>
          <path class="cls-1" d="M996.67,25.87c-4.54,4.35-9.11,8.66-13.74,12.92-.98.8-1.83,1.74-2.75,2.6-2.83,2.63-5.65,5.27-8.4,7.97-.94.79-1.72,1.74-2.53,2.66-.49.05-.53-.6-.51-.95.1-3.3.25-18.5.17-21.8-.18-1.57-.3-3.17-.83-4.67-.13-.4-.66-.58-.99-.32-.27.39-.37.86-.48,1.31-.31,1.94-.52,3.9-.49,5.86,0,2.74-.02,17.4.2,20.14-3.25-2.71-6.92-4.87-10.39-7.28-3.22-1.95-6.28-4.14-9.43-6.19-1.7-1.03-3.32-2.2-4.98-3.3-.27-.18-.55-.32-.85-.44-.21-.08-.46-.02-.6.15-.01.01-.02.02-.03.04-.16.21-.15.5.03.69.36.38.86.61,1.28.91,4.58,3.24,9.21,6.41,13.63,9.88,3.26,2.39,6.39,4.95,9.62,7.38-.41,1.07-.38,2.41.43,3.3.36.5.94.77,1.52.88.5.1,1.55.16,2.05.07,1.05-.18,1.91-1.14,2.15-2.22.22-.57-.13-1.18.04-1.73,1.31-.98,2.4-2.22,3.59-3.34,2.83-2.96,5.69-5.9,8.45-8.92,4.72-5.12,9.45-10.27,14.64-14.92.34-.3.19-.88-.26-.94-.19-.03-.4.05-.53.26ZM965.1,52.62c-.56-.31-1.03-.76-1.53-1.15-2.72-2.22-5.61-4.23-8.31-6.48,1.46.98,2.86,2.03,4.35,2.95,1.64,1.03,3.16,2.23,4.79,3.29.39.28.89.5,1.06,1-.09.1-.27.3-.37.4ZM966.53,56.65c-1.05-.16-1.4-1.36-1.36-2.28.66.23,1.06.85,1.57,1.28-.02.34-.07.68-.22.99ZM966.7,54.24c-.38-.28-.87-.62-.71-1.16.13,0,.38-.02.51-.03.13.25.25.51.37.77-.04.11-.13.32-.18.42ZM967.56,52.97c-.29-.05-.39-.49-.17-.67.4-.23.56.61.17.67ZM967.86,51.24c-.21,0-.43,0-.64,0-.14-2.89-.13-17.68-.16-20.57,0-1.54.18-3.07.33-4.59.3.91.36,1.87.51,2.81.15,3.48-.07,18.87-.05,22.36ZM968.58,53.56c.01-.13.04-.38.05-.51.23.09.4.26.49.48-.14,0-.41.02-.54.03ZM969.88,55.37c-.24.54-.7.95-1.18,1.27-.02-.47-.03-.94.06-1.4.19-.48.54-.86.91-1.2.18.41.36.87.21,1.33ZM970.84,52.58c-.23.34-.97.54-.79-.1,1.63-1.76,3.41-3.36,5.13-5.03,2.16-2.04,4.32-4.08,6.52-6.08-3.58,3.78-7.14,7.58-10.86,11.21Z"/>
          <path class="cls-1" d="M1152.48,100.03c-46.42,0-108.75,0-123.52,0-7.91-.02-15.82.04-23.73-.03-3.52.05-6.69.47-9.93,1.36-3.08.75-6.13,1.64-9.19,2.45-4.65,1.15-9.42,2.17-14.24,1.96-6.06-.19-12.15-.76-18.02-2.34-4.15-1.2-8.19-2.81-12.06-4.74-2.94-1.58-5.82-3.3-8.48-5.33-1.51-1.11-3.01-2.24-4.38-3.53-5.54-5.67-9.52-12.77-11.87-20.32-1.4-4.84-2.26-9.86-2.24-14.9-.02-2.02.11-4.05.25-6.07.6-4.9,1.67-9.79,3.59-14.36,2.46-5.83,5.8-11.31,10.03-16.03,5.16-5.67,11.5-10.35,18.67-13.14,5.24-1.67,10.72-2.61,16.22-2.73,1.78-.06,3.55.13,5.32.17,3.71.15,7.35.95,10.91,1.96,2.26.85,4.55,1.64,6.68,2.81,3.27,1.75,6.54,3.59,9.27,6.13-4.83-2.86-10.1-5.03-15.61-6.14-4.02-.84-8.12-1.2-12.22-1.38-1.53.06-3.06.06-4.59.17-3.35.39-6.68.97-9.94,1.87-5.86,1.72-11.46,4.46-16.24,8.28-2.9,2.2-5.48,4.8-7.83,7.58-1.98,2.48-3.91,5.02-5.44,7.82-2.29,3.99-3.94,8.34-4.98,12.82-.52,2.74-1.11,5.49-.99,8.3-.07,1.05.45,2.03,1.18,2.74-.79.61-1.05,1.63-1.04,2.58.15,2.79.61,5.55,1.29,8.25,2.14,7.73,6.54,14.75,12.26,20.35,1.33,1.37,2.73,2.67,4.22,3.87,4.37,3.32,9.15,6.15,14.32,8.04,1.83.59,4.08,1.47,5.46,1.9,6.88,2.14,13.48,2.74,19.5,2.74,4.1,0,7.97-.43,11.58-1.28,6.3-1.49,11.72-4.15,16.66-8.27,4.77-3.78,8.35-8.45,11.33-13.74,6.5-11.68,8.51-25.9,4.98-38.83-.9-3.51-2.32-6.86-3.93-10.1-3.5-7.01-8.57-13.21-14.67-18.12-1.76-1.35-3.47-2.77-5.38-3.91-4.06-2.59-8.31-4.96-12.9-6.47-2.79-.97-5.7-1.59-8.62-2.06-2.92-.37-5.88-.43-8.82-.27-3.45.13-6.93.46-10.27,1.4-6.99,1.67-13.63,4.77-19.43,9.01-4.04,3.03-7.63,6.66-10.65,10.7-3.16,4.3-5.81,8.98-7.72,13.96-2.59,7.01-3.78,14.56-3.29,22.03.25,4.59,1.11,9.14,2.48,13.52.51,1.82,1.34,3.52,2.04,5.27,1.53,3.39,3.34,6.67,5.6,9.62,1.4,1.93,2.99,3.71,4.59,5.47,1.67,1.9,3.47,3.66,5.34,5.36,2.93,2.39,5.92,4.74,9.26,6.54,3.59,2.02,7.53,3.31,11.44,4.58,3.77,1.08,7.63,1.83,11.53,2.28,1.82.32,3.65.58,5.48.82.53.07,1.4.15,2.34.24-11.29,3.08-24.25,3.01-40.49-.21-6.25-1.24-12.55-2.83-18.64-4.36-3.22-.81-6.49-1.64-9.79-2.42-.03.31-.06.61-.1.92,3.25.77,6.48,1.58,9.66,2.39,6.1,1.54,12.41,3.13,18.69,4.38,8.08,1.6,15.24,2.41,21.86,2.47.27,0,.54,0,.8,0,7.53,0,14.26-.97,20.53-2.95,1.02.08,1.78.14,1.78.14,1.11.1,9.41.57,18.4.1,2.37-.12,4.74-.29,7.09-.62,1.75-.23,3.51-.54,5.16-1.18.58-.27,1.3-.66,1.34-1.37-.07-.71-.88-.94-1.45-1.11-1.74-.34-3.53-.26-5.29-.14-3.28.22-6.54.61-9.82.86-4.09.45-8.2.85-12.26,1.53-2.22.27-4.45.79-6.7.62-4.2-.42-8.38-1-12.55-1.7-2.06-.34-5.59-1.06-7.6-1.63,1.47.14,4.44.5,5.93.59,4.67.29,9.33.15,13.96-.35,3.82-.37,7.6-1.06,11.32-2,4.62-1.26,9.23-2.58,13.93-3.54.19-.04.38-.07.56-.1,3.37-.46,6.79-.3,10.19-.32,19.62-.01,90.78,0,141.88,0v-.85ZM964.91,101.24c-2.99-.57-6.01-1.05-8.95-1.86-8.47-2.35-16.57-6.49-22.87-12.69-3.92-3.75-7.35-8.06-9.79-12.92-2.45-4.78-3.91-10.04-4.35-15.39-.08-.78.03-1.73.77-2.18.37-.31.88-.15,1.32-.17-.06,3.2.55,6.36,1.22,9.47.98,4.01,2.56,7.86,4.57,11.45,1.32,2.08,2.58,4.21,4.21,6.07,2.12,2.55,4.44,4.94,7.03,7.01,4.43,3.36,9.31,6.21,14.62,7.89,3.06,1.11,6.29,1.71,9.51,2.14,1.64.11,3.33.57,4.94.02.5.06.92.46,1.45.47,2.2.18,4.4,0,6.59-.14,3.77-.39,7.47-1.46,10.84-3.21,5.71-2.77,10.81-6.7,15.14-11.32,6.35-6.76,10.97-15.27,12.47-24.47.25-1.84.8-3.71.37-5.57.46-1.48.41-3.05.29-4.57-.08-1-.12-1.98-.28-2.96-1.15-7.11-3.45-14.08-7.5-20.04-4.13-6.04-9.5-11.31-15.88-14.93-3.81-2.16-7.95-3.78-12.27-4.56-3.12-.51-6.28-1.01-9.45-.77-.54.06-.99.4-1.44.68-.41-.24-.82-.54-1.32-.52-1.06-.04-2.13-.06-3.18.13-3.03.33-6.07.78-8.96,1.78-2.96.85-5.82,2.07-8.53,3.54-2.71,1.39-5.15,3.23-7.59,5.03-4.93,4.09-9.1,9.13-12.04,14.84-2.09,3.91-3.55,8.17-4.22,12.56-.27,1.72-.51,3.46-.63,5.2-.14,1.26.02,2.53-.1,3.79-1-.04-1.84-.89-2.04-1.84-.13-.71-.09-1.43-.06-2.15.7-7.44,3.04-14.76,7.08-21.07,3.76-5.76,8.5-10.94,14.19-14.83,6.22-4.35,13.57-6.95,21.07-7.95,3.53-.53,7.13-.55,10.69-.28,6.46.6,12.93,2.02,18.79,4.88,3.9,1.72,7.46,4.13,10.73,6.84,2.88,2.54,5.35,5.52,7.52,8.68,2.34,3.33,4.11,7.04,5.51,10.86,2.06,5.63,2.79,11.69,2.46,17.67-.11.77-.13,1.55-.18,2.32-.97,8.26-4.31,16.14-9.05,22.94-3.58,5.03-8.04,9.42-13.04,13.04-3.18,2.2-6.61,4.09-10.27,5.35-6.21,2.15-12.93,2.6-19.42,1.77ZM966.59,10.95c0,3.3.02,6.6.03,9.9.04.49-.06,1.14.42,1.47.55.41,1.21-.32,1.15-.89.1-3.16.02-6.32.02-9.48.01-.85-.07-1.7-.3-2.52.4-.33.88-.53,1.41-.55,1.17-.08,2.35-.03,3.53.08,1.41.14,2.82.29,4.22.55,3.93.67,7.8,1.85,11.33,3.72,2.89,1.44,5.63,3.21,8.1,5.3,5.96,5.01,10.85,11.41,13.71,18.68,2.33,5.6,3.42,11.72,3.16,17.78-.7-.27-1.43-.44-2.18-.41-3.03.01-6.07-.06-9.1.02-.5-.07-.86.38-.97.82-.02.58.66.87,1.17.81,3.56-.05,7.12.08,10.67-.07.38.6.21,1.35.2,2.02-.15,1.59-.44,3.17-.76,4.74-.75,4.06-2.3,7.94-4.2,11.59-1.71,3.18-3.73,6.21-6.12,8.92-5.1,5.98-11.51,10.9-18.77,13.98-4.39,1.9-9.25,2.41-13.99,2.29-.41-.03-1.02.02-1.1-.51.23-2.08.06-4.18.11-6.27.01-1.78,0-3.57-.04-5.34-.03-.43-.06-1.04-.59-1.14-.56-.14-.97.45-.96.95-.06,4-.2,8-.02,12-3.17.08-6.33-.47-9.41-1.18-1.46-.3-2.88-.72-4.28-1.22-7.98-2.65-15.28-7.45-20.69-13.9-4.6-5.32-7.82-11.8-9.37-18.66-.57-2.72-1.05-5.48-1.05-8.26,4.08.06,8.17.03,12.25.05.6.09,1.3-.57.97-1.18-.3-.45-.88-.48-1.37-.48-3.36.06-6.73-.07-10.09.03-.6.04-1.18.21-1.79.24-.18-4.08.44-8.15,1.36-12.12,1.02-4.26,2.92-8.26,5.21-11.97,3.11-4.96,7.23-9.27,11.9-12.81,2.89-2.09,5.98-3.92,9.27-5.33,4.74-2,9.8-3.22,14.93-3.6.58-.03,1.17-.06,1.74,0,.7.42.22,1.29.28,1.93ZM1004.87,55.51c-.86.07-1.73.12-2.6.02.84-.24,1.74-.08,2.6-.02ZM930.58,55.52c1.12-.15,2.27-.1,3.4-.05-1.1.26-2.28.06-3.4.05ZM967.33.89c6.52-.17,13.04,1.28,18.99,3.92,3.01,1.34,5.91,2.94,8.66,4.77,6.51,4.16,12.27,9.57,16.57,16.01,4.74,7.11,7.93,15.34,8.72,23.88.29,3.78.3,7.6-.3,11.35-.86,7.44-3.57,14.61-7.53,20.95-2.57,4.08-5.73,7.82-9.49,10.85-6.88,5.75-15.37,8.9-25.3,9.41.83-.13,1.65-.27,2.47-.42,6.76-1.42,12.94-4.86,18.24-9.21,2.66-2.2,5.09-4.66,7.33-7.28,1.83-2.36,3.63-4.75,5.11-7.35,1.71-2.84,3.09-5.88,4.27-8.97,1.52-4.31,2.45-8.83,2.69-13.39.17-4.61-.22-9.26-1.34-13.75-1.61-6.13-4.44-11.95-8.29-16.99-1.06-1.36-2.2-2.67-3.36-3.96l-3.76-3.95c-.74-.78-1.53-1.52-2.36-2.2-2.17-1.79-4.24-3.72-6.61-5.24-3.85-2.53-8.02-4.61-12.44-5.92-4.94-1.48-10.12-1.96-15.26-1.92-2.35-.08-4.68.25-7.01.43,3.28-.65,6.63-.89,9.97-1.02ZM994.38,108.62c3.5-.29,6.98-.93,10.49-.92,1.41,0,2.86-.09,4.22.37.33.29-.29.51-.5.63-3.78,1.35-7.84,1.62-11.81,1.79-1.85.08-3.69.23-5.54.22-3.83-.02-7.65-.13-11.46-.2,4.85-.72,9.71-1.43,14.6-1.88ZM958.4,106.2c-4.24-.49-8.61-.95-12.45-2.94-4.62-2.23-8.75-5.34-12.57-8.74,2.72,1.96,5.55,3.76,8.53,5.29,4.2,2.04,8.58,3.76,13.14,4.85,2.18.58,5.01,1.01,6.69,1.22,1.07.13,2.98.28,4.25.38,1.13.08,3.02.1,4.53.22-4.04.12-8.09.23-12.11-.27Z"/>
        </g>
      </g>
      <g>
        <path class="cls-1" d="M610.19,20.27c0,.39-.06.89-.32,1.04-.15.08-.63.22-2.19.22s-1.98-.32-2.05-.45c-.11-.19-.3-.95-.3-3.83,0-1.15.24-1.48.38-1.57.16-.1.71-.28,2.6-.28,1.04,0,1.38.14,1.49.22.09.07.26.31.26,1.04v.5h1.58l-.02-.48c0-.99-.24-1.68-.72-2.05-.46-.36-1.3-.53-2.56-.53-1.81,0-2.98.17-3.55.54-.51.32-.82.69-.93,1.11-.1.39-.15,1.27-.15,2.69,0,1.86.23,3.02.7,3.56.48.55,1.51.81,3.17.81,1.83,0,2.91-.14,3.4-.45.52-.33.77-1.07.77-2.27v-.57h-1.58l.02.74Z"/>
        <rect class="cls-1" x="616.11" y="14.19" width="1.57" height="8.55"/>
        <path class="cls-1" d="M628.16,20.38c-.03.07-.08.18-.15.33l-3.11-6.52h-2.25v8.55h1.58v-6.42l3.11,6.42h1.38l3.09-6.48v6.48h1.58v-8.55h-2.28l-2.95,6.19Z"/>
        <polygon class="cls-1" points="637.94 22.73 644.45 22.73 644.45 21.44 639.52 21.44 639.52 18.97 644.24 18.97 644.24 17.68 639.52 17.68 639.52 15.48 644.45 15.48 644.45 14.19 637.94 14.19 637.94 22.73"/>
        <polygon class="cls-1" points="655.86 20.92 651.08 14.19 648.97 14.19 648.97 22.74 650.54 22.74 650.54 16.03 655.32 22.74 657.44 22.74 657.44 14.19 655.86 14.19 655.86 20.92"/>
        <polygon class="cls-1" points="661.55 15.55 664.58 15.55 664.58 22.73 666.15 22.73 666.15 15.55 669.16 15.55 669.16 14.19 661.55 14.19 661.55 15.55"/>
        <path class="cls-1" d="M676.92,15.4c1.52,0,2.08.17,2.29.31.18.13.4.49.4,1.47v1.28c0,2.15-.21,2.63-.3,2.73-.07.08-.45.33-2.39.33s-2.32-.25-2.39-.33c-.09-.1-.31-.58-.31-2.73s.22-2.62.31-2.73c.07-.08.45-.33,2.39-.33M680.41,14.85c-.5-.5-1.64-.74-3.49-.74-1.59,0-2.66.21-3.27.63-.63.44-.95,1.25-.95,2.4v1.33c-.01,1.93.22,3.12.7,3.61.49.5,1.64.74,3.51.74s3.04-.25,3.52-.75c.47-.5.71-1.72.71-3.71,0-1.86-.24-3-.74-3.5"/>
        <path class="cls-1" d="M586.2,46.85c0,2.93.61,5.11,1.84,6.53,1.23,1.42,2.79,2.13,4.67,2.13,1.66,0,3.04-.68,4.16-2.05,1.12-1.36,1.68-3.67,1.68-6.93,0-3-.59-5.21-1.75-6.61-1.15-1.42-2.59-2.12-4.26-2.12-1.82,0-3.34.71-4.54,2.13-1.22,1.42-1.81,3.73-1.81,6.91M554.87,47.69c-1.96.7-3.99,1.32-6.1,1.86-2.88.76-4.72,1.52-5.48,2.26-.8.77-1.19,1.65-1.19,2.62,0,1.12.4,2.03,1.17,2.74.79.7,1.93,1.06,3.44,1.06s3.05-.38,4.42-1.14c1.36-.78,2.32-1.72,2.89-2.81.57-1.11.85-2.55.85-4.32v-2.28ZM630.12,46.82c0,3.31.67,5.76,2.01,7.33,1.34,1.59,3.02,2.39,5.04,2.39s3.73-.79,5.04-2.35c1.32-1.56,1.98-4.05,1.98-7.51,0-3.21-.67-5.6-1.99-7.17-1.32-1.56-2.97-2.35-4.92-2.35-2.07,0-3.79.8-5.13,2.39-1.35,1.6-2.03,4.03-2.03,7.28M615.88,46.85c0-5.65,1.91-10.32,5.72-13.98,3.83-3.67,8.97-5.51,15.47-5.51,7.42,0,13.04,2.16,16.83,6.46,3.05,3.47,4.58,7.75,4.58,12.82,0,5.7-1.9,10.37-5.67,14.02-3.78,3.63-9.01,5.46-15.7,5.46-5.96,0-10.77-1.51-14.45-4.54-4.52-3.74-6.77-8.65-6.77-14.73M688.16,46.65c0-2.92-.61-5.09-1.85-6.52-1.23-1.43-2.79-2.15-4.67-2.15-1.66,0-3.04.69-4.16,2.06-1.12,1.37-1.68,3.67-1.68,6.91,0,3.03.59,5.24,1.73,6.65,1.16,1.41,2.59,2.11,4.28,2.11,1.83,0,3.34-.7,4.54-2.12,1.22-1.43,1.81-3.74,1.81-6.95M702.41,14.11v51.18h-13.3v-5.48c-1.87,2.32-3.56,3.89-5.1,4.72-2.05,1.06-4.33,1.6-6.84,1.6-5.05,0-8.91-1.92-11.58-5.76-2.66-3.84-3.99-8.51-3.99-14,0-6.15,1.46-10.85,4.42-14.1,2.94-3.27,6.69-4.9,11.21-4.9,2.21,0,4.22.38,6.03,1.12,1.8.75,3.4,1.86,4.8,3.35V14.11h14.35ZM705.53,26.9h14.22v38.39h-14.22V26.9ZM705.53,14.11h14.22v9.68h-14.22v-9.68ZM531.18,33.18c.97-1.36,2.35-2.54,4.18-3.54,1.3-.73,3.1-1.29,5.37-1.68,2.28-.39,4.74-.59,7.4-.59,4.25,0,7.69.24,10.26.71,2.59.48,4.74,1.48,6.46,2.99,1.22,1.05,2.17,2.52,2.87,4.44.7,1.93,1.04,3.76,1.04,5.51l.07,24.26h-13.14l-.02-4.54c-1.86,1.8-3.72,3.08-5.55,3.84-2.51,1.03-5.44,1.54-8.76,1.54-4.42,0-7.78-1.03-10.08-3.08-2.29-2.04-3.43-4.56-3.43-7.57,0-2.82.82-5.14,2.48-6.95,1.66-1.82,4.7-3.17,9.14-4.05,5.34-1.07,8.79-1.82,10.38-2.25,1.57-.43,3.26-1,5.02-1.69,0-5.1-10.29-6.12-12.33-.32h-14.25c.55-2.44,1.42-4.96,2.89-7.03M571.95,79.4V28.21h13.3v5.48c1.84-2.31,3.53-3.87,5.07-4.68,2.07-1.1,4.36-1.64,6.87-1.64,4.96,0,8.79,1.91,11.51,5.7,2.7,3.79,4.06,8.48,4.06,14.08,0,6.16-1.48,10.87-4.43,14.12-2.96,3.24-6.7,4.86-11.2,4.86-2.19,0-4.2-.37-5.99-1.11-1.8-.75-3.42-1.86-4.84-3.32v17.71h-14.35Z"/>
        <polygon class="cls-1" points="453.93 14.03 494.41 79.4 527.85 79.4 487.37 14.03 453.93 14.03"/>
        <polygon class="cls-1" points="471.82 52.44 454.98 79.4 421.55 79.4 455.17 25.56 471.82 52.44"/>
      </g>
    </g>
  </g>
</svg>