<?xml version="1.0" encoding="UTF-8"?>
<svg id="Layer_2" data-name="Layer 2" xmlns="http://www.w3.org/2000/svg" viewBox="0 0 1989.19 106.08">
  <defs>
    <style>
      .cls-1 {
        fill: #fff;
        stroke-width: 0px;
      }
    </style>
  </defs>
  <g id="Layer_1-2" data-name="Layer 1">
    <g>
      <g>
        <path class="cls-1" d="M1989.19,104.58h-170.01c-.11-.57-.35-1.02-.72-1.34-.26-.23-.55-.36-.8-.43-.6-12.2-3.32-65.3-5.13-71.25.3.01.61-.02.89-.14.38-.15.66-.43.78-.79.05-.14.19-.53,0-1.64.83-.4,1.01-1.89.63-3.08-.1-.3-.38-1.22-1.2-1.34-.12-.02-.25-.01-.37,0-.49-.77-1.35-1.63-2.04-2.28.05-.06.09-.11.12-.17,2.29.53,4.71-1.1,5.04-1.34,1.76-1.5,9.35-5.71,16.73-9.79,11.17-6.18,14.02-7.84,14.36-8.63.35-.82.18-1.36-.03-1.67-.41-.62-1.22-.71-1.48-.69-1.35.11-35.87,17.86-36.08,18.02-.38.3-.61.7-.7,1.16-.05,0-.11,0-.16,0-.04,0-.09,0-.13.02-1.31-1.47-2.62-2.2-3.84-2.12-.66.03-1.17.27-1.55.54-.2-.27-.46-.59-.79-.9-.46-.43-4.25-2.22-21.26-9.52-1.21-.52-2.01-.86-2.12-.91-.32-.15-.66-.16-.99-.04-.67.25-1.01,1-1.05,1.07-.12.27-.07.59.13.81.95,1.01,21.87,13.85,24.25,13.85h0c.32,1.48,1.36,2.81,1.52,3.01.19.23.51.33.79.24h.02s.01.05.02.08c0,.02.02.06.04.09-3.35,2.55-6.28,26.64-7.11,37.29-.03.33.09.64.33.86.47.45,1.28.4,1.6.36.22-.03.42-.15.53-.34,1.48-2.39,5.17-21.26,7.2-32.05l.16.11-.3,70.76c0,.17.05.33.15.46-.44.19-.8.45-1.08.76-.29.34-.45.69-.53,1h-53.36c-.04-.15-.1-.31-.2-.48-.23-.37-.59-.66-1.1-.88.01-.05.02-.1.02-.16l-.05-44.81,1.19-.26c.34-.07.58-.37.58-.72v-.63c.13-.1.23-.22.32-.36.31-.53.25-1.24-.2-2.16-.06-.13-.12-.25-.17-.35,6.84-1.55,21.04-4.8,21.85-5.25.64-.36.72-.83.71-1.08-.03-.71-.78-1.09-1.02-1.19-.09-.04-.25-.06-.35-.05-.69.06-16.64,1.47-25.22,4.33-.42-.46-1.15-1.1-2.01-1.14-.18-.86-.52-2.24-1-3.48-.39-1.01-1.44-3.52-2.3-5.52-1.86-4.34-1.88-4.35-2.17-4.5-.39-.19-.9-.03-1.21.21-.21.16-.67.61-.51,1.45.09.47,1.11,3.98,1.96,6.84.84,2.78,1.44,4.71,1.81,5.75-.5.15-1,.4-1.27.82-.23.35-.27.74-.14,1.15.26.77,1.04,1.75,1.8,2.43,0,0,0,.02-.01.02-1.78.6-8.25,13.12-10.38,20.93-.04.16-.03.32.03.47.07.17.33.73.91.86.21.05.62.07,1.03-.3.23-.21.53-.77,2.7-5.03,2.24-4.4,5.85-11.5,7.48-13.8.2.12.43.21.68.24.24.03.48.11.66.19l-3.64,44.58c-.37.08-.81.25-1.2.6-.35.33-.58.75-.7,1.25h-32.74c-.08-.28-.23-.61-.5-.9-.33-.36-.76-.59-1.3-.71l1.29-32.3c.27-.07.58-.2.85-.43.34-.3.55-.7.62-1.19.21-.24.46-.64.43-1.2-.02-.44-.22-.86-.58-1.26,5.47-1.71,11.65-3.58,12.41-3.67.24-.03.45-.17.56-.38.1-.19.41-.84.21-1.41-.1-.28-.3-.49-.57-.61-1.02-.44-13.47,2.54-16.23,3.85-.28-.15-.63-.3-.99-.37,0-.7-.17-1.75-.79-3.11-1.09-2.37-4.08-9.67-4.11-9.74-.09-.23-.29-.4-.51-.44-.22-.05-.69-.06-1.07.25-.23.19-.51.55-.51,1.24,0,.99,2.75,9.18,3.87,12.01-.5.13-.87.39-1.08.76-.36.63-.2,1.42.47,2.37.02.02.05.06.06.08.14.15.51.52.94.8-1.13,1.69-3.98,6-6.38,14.73-.05.16-.04.34.03.5.11.26.43.86,1.01.92.33.04.65-.1.87-.39.13-.17.27-.49.84-1.82.97-2.24,2.94-6.79,5.69-12.04.12.1.25.2.4.29.04,1.2-.76,6.73-1.42,11.25-.97,6.65-2.18,14.92-2.66,21.22,0,0,0,.01,0,.02-1.02.21-1.67.81-1.89,1.75H.59c-.33,0-.59.26-.59.59v.29c0,.33.26.59.59.59h1697.88c.41,0,.74-.33.74-.74,0-.67.18-1.02,1.13-1.09,1.37-.09,3.52.05,3.56.05.28.02.57-.15.7-.41.03.09.09.17.15.24.14.14.33.22.53.22.46,0,.79.1.98.3.22.23.2.58.2.58-.02.2.06.41.19.56.14.15.34.24.54.24h34.04c.2,0,.38-.08.52-.21.14-.14.22-.32.22-.52,0-.42.1-.73.3-.91.31-.28.8-.27.82-.27.19.01.38-.05.53-.17.15-.13.24-.31.26-.5l3.74-45.69c.02-.28-.11-.54-.35-.69-.13-.08-.81-.47-1.62-.58-.05,0-.08-.02-.08,0,0-.16-.06-.32-.16-.44.22-.19.31-.49.22-.78-.06-.18-.18-.32-.32-.41.02-.07.03-.14.02-.21-.01-.36-.28-.65-.63-.7-.39-.09-1.72-1.35-2.07-2.21.17-.12.64-.27,1.07-.31.26-.02.49-.19.61-.44.11-.25.07-.53-.07-.7-.27-.49-1.95-5.99-3.03-9.71.97,2.25,2.08,4.89,2.46,5.89.68,1.78,1.06,3.91,1.06,3.93.04.23.19.43.39.53.21.11.45.11.66,0,.43-.22,1.19.59,1.41.91.19.27.54.38.85.27,6.33-2.23,17.5-3.61,22.63-4.15-4,1-12.01,2.85-19.49,4.55-.17-.04-.35-.02-.52.07-.65.35-.48.71.26,2.23.19.38.23.6.25.7-.3.09-.51.37-.51.7v.51l-1.19.26c-.34.08-.58.37-.58.72l.05,44.62c-1,.05-2.06.42-2.2.48-.34.12-.54.47-.47.81.06.35.36.61.72.61,2.68,0,3.17.57,3.24.69.04.06.03.11.03.11h0c-.12.23-.11.5.03.72.13.22.37.35.63.35h54.79c.21,0,.41-.09.56-.26.14-.16.2-.38.17-.58,0-.01-.04-.35.24-.66.42-.48,1.37-.72,2.7-.68,3.09.09,3.75.17,4.35.24l.23.03c.31.04.6-.13.74-.4.14-.27.09-.6-.12-.83-.11-.11-1.1-1.1-3.62-1.26-1.41-.09-2.37-.09-2.99-.07l.29-70.35c0-.24-.12-.47-.32-.6l-.44-.31v-.19c.02.05.04.1.07.15.2.32.63.44.96.26.05-.02,1.21-.55,2.61,1.39,1.27,2.17,3.79,45.04,5.09,71.56.01.2.11.39.27.52.16.13.36.19.55.16,0,0,.26-.02.45.14.24.21.29.64.29.97,0,.4.33.74.74.74h170.68v-1.47ZM1801.2,20.38c-1.14-.46-4.31-2.04-10.96-5.9-4.71-2.74-8.44-5.05-10.37-6.34.23.1.48.21.76.33l.22.1c16.46,7.07,20.43,8.93,20.83,9.24.55.52.85,1.04.95,1.23-.45.16-1.13.59-1.44,1.36ZM1699.9,56.79c.77,1.83,1.56,3.69,2.02,4.69.66,1.44.68,2.4.64,2.82-.37-.74-1.65-4.39-2.66-7.52ZM1696.58,81.56c1.99-5.02,3.9-8.94,5.52-11.94-2.05,4.27-3.9,8.3-5.52,11.94ZM1704.55,103.18c-.07-.12-.18-.21-.31-.27-.95-.44-2.18-.62-3.01-.69.52-6.16,1.67-14.04,2.6-20.4,1.63-11.18,1.7-12.12.95-12.55-.59-.33-.94-.82-.95-.83-.15-.21-.4-.32-.64-.31-.03,0-.07,0-.1.01.1-.25.09-.45-.05-.69-.15-.25-.43-.4-.68-.37-.12-.03-.51-.29-.86-.65-.35-.5-.35-.72-.37-.73.09-.08.49-.16.83-.13.26.02.52-.09.67-.31.05.07.11.13.18.18.26.18.61.17.85-.02h0c.17,0,.61.17.97.41.25.17.58.17.83-.01.57-.4,3.01-1.26,8.18-2.46.77-.18,1.51-.35,2.19-.49-3.5,1.05-7.72,2.37-8.95,2.76-.27.09-.47.33-.51.62-.03.29.11.57.36.72.8.47,1.03.83,1.04.98,0,.09-.09.18-.1.19-.18.14-.29.34-.3.57,0,.21-.06.36-.15.44-.16.14-.45.14-.52.14-.2-.02-.4.04-.56.18-.15.13-.24.32-.25.52l-1.33,33.21ZM1743.93,56.36c-1.48,1.81-4.5,7.65-7.99,14.52-.3.58-.6,1.19-.9,1.76,2.62-7.5,7-15.08,8.23-16.49.22.12.44.18.66.21ZM1810.79,19.18c.43-.31,6.16-3.27,17.74-9.06,10.01-5.01,16.64-8.24,17.59-8.64.05,0,.08,0,.08,0,0,0,.01.07-.06.26-.76.79-8.23,4.93-13.74,7.98-7.42,4.11-15.1,8.36-16.92,9.91-.03.02-2.58,1.74-4.29.91-.1-.05-.2-.07-.31-.07-.02-.04-.04-.08-.06-.12,0,0-.46-.81-.04-1.15ZM1798.49,62.1c1.31-16.18,4.37-33.23,6.34-35.38h1.2c-1.62,8.87-5.8,30.67-7.53,35.38ZM1812.13,30.02c-.27-.4-.88-1.13-1.83-1.36-.82-.2-1.68.02-2.54.64-.12.09-.21.21-.26.34l.03-3.09c0-.24-.11-.46-.29-.59,0-.05,0-.11-.02-.16.3.06.62-.07.78-.33.11-.18.14-.39.09-.59-.05-.31-.24-.62-.53-.87-.73-.63-1.91-.74-3.48-.32-.5-.75-1.56-2.59-.66-3.45.21-.2.28-.49.2-.76.14-.05.26-.15.34-.27.02-.03.44-.62,1.17-.66.85-.02,1.9.67,3.02,2.05.15.19.38.28.63.27.15-.01.28-.07.4-.16.09.06.24.19.45.46.11.13.25.22.4.26-.07.07-.17.15-.31.25-.19.12-.32.33-.34.57-.02.23.08.46.25.61,1.29,1.11,2.52,2.47,2.57,2.86.03.31.25.57.55.64.23.06.46,0,.64-.13.01.04.03.08.04.12.08.26.11.5.12.71-.19-.14-.45-.18-.69-.09-.36.14-.55.54-.44.9.26.87.44,1.87.41,2.21-.16.04-.47.01-.69-.05Z"/>
        <path class="cls-1" d="M1809.36,20.48h0s-.02.03-.03.05c.01-.02.02-.03.03-.05"/>
      </g>
      <g>
        <path class="cls-1" d="M1048.94,28.32c0,.39-.06.89-.32,1.04-.15.08-.63.22-2.19.22s-1.98-.32-2.05-.45c-.11-.19-.3-.95-.3-3.83,0-1.15.24-1.48.38-1.57.16-.1.71-.28,2.6-.28,1.04,0,1.38.14,1.49.22.09.07.26.31.26,1.04v.5h1.58l-.02-.48c0-.99-.24-1.68-.72-2.05-.46-.36-1.3-.53-2.56-.53-1.81,0-2.98.17-3.55.54-.51.32-.82.69-.93,1.11-.1.39-.15,1.27-.15,2.69,0,1.86.23,3.02.7,3.56.48.55,1.51.81,3.17.81,1.83,0,2.91-.14,3.4-.45.52-.33.77-1.07.77-2.27v-.57h-1.58l.02.74Z"/>
        <rect class="cls-1" x="1054.86" y="22.24" width="1.57" height="8.55"/>
        <path class="cls-1" d="M1066.91,28.43c-.03.07-.08.18-.15.33l-3.11-6.52h-2.25v8.55h1.58v-6.42l3.11,6.42h1.38l3.09-6.48v6.48h1.58v-8.55h-2.28l-2.95,6.19Z"/>
        <polygon class="cls-1" points="1076.69 30.79 1083.2 30.79 1083.2 29.5 1078.27 29.5 1078.27 27.03 1082.99 27.03 1082.99 25.74 1078.27 25.74 1078.27 23.53 1083.2 23.53 1083.2 22.24 1076.69 22.24 1076.69 30.79"/>
        <polygon class="cls-1" points="1094.61 28.98 1089.83 22.24 1087.72 22.24 1087.72 30.79 1089.29 30.79 1089.29 24.09 1094.07 30.79 1096.19 30.79 1096.19 22.24 1094.61 22.24 1094.61 28.98"/>
        <polygon class="cls-1" points="1100.3 23.61 1103.33 23.61 1103.33 30.79 1104.9 30.79 1104.9 23.61 1107.91 23.61 1107.91 22.24 1100.3 22.24 1100.3 23.61"/>
        <path class="cls-1" d="M1115.67,23.45c1.52,0,2.08.17,2.29.31.18.13.4.49.4,1.47v1.28c0,2.15-.21,2.63-.3,2.73-.07.08-.45.33-2.39.33s-2.32-.25-2.39-.33c-.09-.1-.31-.58-.31-2.73s.22-2.62.31-2.73c.07-.08.45-.33,2.39-.33M1119.16,22.9c-.5-.5-1.64-.74-3.49-.74-1.59,0-2.66.21-3.27.63-.63.44-.95,1.25-.95,2.4v1.33c-.01,1.93.22,3.12.7,3.61.49.5,1.64.74,3.51.74s3.04-.25,3.52-.75c.47-.5.71-1.72.71-3.71,0-1.86-.24-3-.74-3.5"/>
        <path class="cls-1" d="M1024.95,54.91c0,2.93.61,5.11,1.84,6.53,1.23,1.42,2.79,2.13,4.67,2.13,1.66,0,3.04-.68,4.16-2.05,1.12-1.36,1.68-3.67,1.68-6.93,0-3-.59-5.21-1.75-6.61-1.15-1.42-2.59-2.12-4.26-2.12-1.82,0-3.34.71-4.54,2.13-1.22,1.42-1.81,3.73-1.81,6.91M993.61,55.74c-1.96.7-3.99,1.32-6.1,1.86-2.88.76-4.72,1.52-5.48,2.26-.8.77-1.19,1.65-1.19,2.62,0,1.12.4,2.03,1.17,2.74.79.7,1.93,1.06,3.44,1.06s3.05-.38,4.42-1.14c1.36-.78,2.32-1.72,2.89-2.81.57-1.11.85-2.55.85-4.32v-2.28ZM1068.87,54.87c0,3.31.67,5.76,2.01,7.33,1.34,1.59,3.02,2.39,5.04,2.39s3.73-.79,5.04-2.35c1.32-1.56,1.98-4.05,1.98-7.51,0-3.21-.67-5.6-1.99-7.17-1.32-1.56-2.97-2.35-4.92-2.35-2.07,0-3.79.8-5.13,2.39-1.35,1.6-2.03,4.03-2.03,7.28M1054.63,54.91c0-5.65,1.91-10.32,5.72-13.98,3.83-3.67,8.97-5.51,15.47-5.51,7.42,0,13.04,2.16,16.83,6.46,3.05,3.47,4.58,7.75,4.58,12.82,0,5.7-1.9,10.37-5.67,14.02-3.78,3.63-9.01,5.46-15.7,5.46-5.96,0-10.77-1.51-14.45-4.54-4.52-3.74-6.77-8.65-6.77-14.73M1126.91,54.7c0-2.92-.61-5.09-1.85-6.52-1.23-1.43-2.79-2.15-4.67-2.15-1.66,0-3.04.69-4.16,2.06-1.12,1.37-1.68,3.67-1.68,6.91,0,3.03.59,5.24,1.73,6.65,1.16,1.41,2.59,2.11,4.28,2.11,1.83,0,3.34-.7,4.54-2.12,1.22-1.43,1.81-3.74,1.81-6.95M1141.16,22.16v51.18h-13.3v-5.48c-1.87,2.32-3.56,3.89-5.1,4.72-2.05,1.06-4.33,1.6-6.84,1.6-5.05,0-8.91-1.92-11.58-5.76-2.66-3.84-3.99-8.51-3.99-14,0-6.15,1.46-10.85,4.42-14.1,2.94-3.27,6.69-4.9,11.21-4.9,2.21,0,4.22.38,6.03,1.12,1.8.75,3.4,1.86,4.8,3.35v-17.73h14.35ZM1144.28,34.95h14.22v38.39h-14.22v-38.39ZM1144.28,22.16h14.22v9.68h-14.22v-9.68ZM969.93,41.24c.97-1.36,2.35-2.54,4.18-3.54,1.3-.73,3.1-1.29,5.37-1.68,2.28-.39,4.74-.59,7.4-.59,4.25,0,7.69.24,10.26.71,2.59.48,4.74,1.48,6.46,2.99,1.22,1.05,2.17,2.52,2.87,4.44.7,1.93,1.04,3.76,1.04,5.51l.07,24.26h-13.14l-.02-4.54c-1.86,1.8-3.72,3.08-5.55,3.84-2.51,1.03-5.44,1.54-8.76,1.54-4.42,0-7.78-1.03-10.08-3.08-2.29-2.04-3.43-4.56-3.43-7.57,0-2.82.82-5.14,2.48-6.95,1.66-1.82,4.7-3.17,9.14-4.05,5.34-1.07,8.79-1.82,10.38-2.25,1.57-.43,3.26-1,5.02-1.69,0-5.1-10.29-6.12-12.33-.32h-14.25c.55-2.44,1.42-4.96,2.89-7.03M1010.69,87.45v-51.19h13.3v5.48c1.84-2.31,3.53-3.87,5.07-4.68,2.07-1.1,4.36-1.64,6.87-1.64,4.96,0,8.79,1.91,11.51,5.7,2.7,3.79,4.06,8.48,4.06,14.08,0,6.16-1.48,10.87-4.43,14.12-2.96,3.24-6.7,4.86-11.2,4.86-2.19,0-4.2-.37-5.99-1.11-1.8-.75-3.42-1.86-4.84-3.32v17.71h-14.35Z"/>
        <polygon class="cls-1" points="892.68 22.09 933.16 87.46 966.6 87.46 926.12 22.09 892.68 22.09"/>
        <polygon class="cls-1" points="910.57 60.5 893.73 87.45 860.3 87.45 893.92 33.61 910.57 60.5"/>
      </g>
    </g>
  </g>
</svg>