<?xml version="1.0" encoding="UTF-8"?>
<svg id="Layer_2" data-name="Layer 2" xmlns="http://www.w3.org/2000/svg" viewBox="0 0 1128.34 95.37">
  <defs>
    <style>
      .cls-1 {
        fill: #fff;
        stroke-width: 0px;
      }
    </style>
  </defs>
  <g id="Layer_1-2" data-name="Layer 1">
    <g>
      <g>
        <path class="cls-1" d="M1034.35,94.06c-1.59-.06-3.23-.13-4.85.03-.08-.25-.19-.47-.32-.67,1.19-.45,2.36-1,3.5-1.67.07-.04.12-.11.14-.19.02-.08,0-.16-.04-.23-.09-.15-.34-.4-.5-.5-.07-.05-.16-.06-.24-.03-.08.02-.15.08-.19.16-.11.23-.29.38-.5.49.11-.27.14-.54.13-.76-.09-1.74-2.62-3.67-3.61-4.14-.94-.45-2.29-.98-3.29-.42-.22.12-.41.33-.55.57-.54-.76-1.3-1.36-2.24-1.73-.25-.1-.51-.18-.78-.25-.33-2.83-.02-5.69.28-8.47.26-2.45.54-4.98.38-7.49,0-.03,0-.05,0-.08,1.88.8,3.6.07,5.25-.64.92-.39,1.88-.8,2.87-.94.93-.18,1.68-.7,2.17-1.47.53-.83.7-1.91.45-2.88-1.15-4.6-.04-9.32,3.13-13.28,1.25-1.66.19-3.76-1.22-5.18,0,0-.02-.02-.03-.02-1.25-1-2.61-.98-3.93-.96-.86.01-1.67.03-2.41-.24-.49-1.01-.79-2.17-1.08-3.29-.62-2.41-1.27-4.9-3.79-6.3-1.68-.84-3.77-.84-5.43,0-1.15.49-2.1,1.31-3.02,2.1-1.35,1.16-2.62,2.26-4.43,2.26-.06,0-.12.02-.17.05-2.32,1.55-3.37,4.3-2.89,7.56h0s0,0,0,0h0s0,.02,0,.02c0,0,0,0,0,0h0s0,0,0,0c0,0,0,.02,0,.03h0s0,0,0,0h0s0,0,0,0h0s0,0,0,0h0s0,0,0,0h0s.04.08.08.11h0s0,0,0,0c0,0,0,0,0,0,0,0,.01,0,.02.01.07.05.15.07.23.05.05,0,.1-.02.14-.03.2-.04.41-.08.61-.12,1.21-.24,2.43-.49,3.62-.87-.31,2.54.31,4.71,1.04,7.22l.18.63v1.95s0,.04,0,.06c.4,1.99.81,4.05,2.05,5.7.02.02.04.04.06.06.89.67,1.7,1.33,2.42,2-.11.36-.24.78-.42.84-.09.03-.25-.02-.45-.16-1.17-.78-1.93-1.54-2.7-2.7-.01-.02-.02-.03-.04-.05-.49-.49-1.47-.95-2.02-.4-.55.55-.09,1.53.42,2.04,2.66,2.28,4.28,5.38,4.67,8.95.29,4.66-.05,9.44-.61,14.57-.16.09-.31.19-.46.29-.01,0-.03.02-.04.03-.59.59-.83,1.38-.71,2.21-.74-.1-1.51-.07-2.32.1-.01,0-.02,0-.04,0-2.31.77-2.25,2.91-2.21,4.47,0,.21.01.41.01.6,0,.33-.34.86-.48.89-.69-.08-1.33-.28-1.94-.55.5-.03,1.01-.03,1.53-.03.16,0,.29-.13.3-.29.4-6.98.4-14.06.4-20.92,0-6.07,0-12.32.28-18.52.99-1.74,1.23-4.29.5-6.46-.05-.14-.18-.22-.32-.21-.95.11-1.9.18-2.85.24v-.34s-.01-.09-.03-.14c-.4-.79-1.32-.69-2.06-.61-.21.02-.41.04-.58.05-6.85-.79-14.07-1.48-21.49-1.51.21-1.38.19-2.8.17-4.19-.02-1.43-.05-2.88.19-4.3.09-.03.16-.1.2-.19.19-.54.31-1.18.35-1.82,0-.07-.01-.13-.04-.18h0s0,0,0,0h0s0,0,0,0t0,0h0s-.02-.03-.04-.04h0s0,0,0,0t0,0s0,0,0,0h0s0,0,0,0c-.04-.04-.09-.07-.15-.08h0s-.04,0-.06,0h0c-.06,0-.11.02-.16.05-.03.02-.05.04-.08.07h0s0,0,0,0c-.02.03-.04.05-.05.08-.16.41-.29.83-.4,1.26-.64.96-1.99.99-3.81.9-.16,0-.32-.02-.47-.02-2.36-.1-4.89-.32-7.92-.7-.24-.1-.55-.09-.71-.09-.16,0-.29.13-.3.29-.12,2.76-.15,5.47-.17,7.53,0,.48,0,.96.02,1.43.02.96.05,1.89-.05,2.79-1.22-.03-2.45-.05-3.66-.05-.19,0-.36-.07-.5-.16-.01-.15-.06-.26-.12-.35.03-.03.05-.08.07-.13.04-.14-.03-.29-.17-.36-.2-.09-.42-.11-.66-.12h-.03s0,0,0,0c0,0,0,0,0,0-.04,0-.08.01-.12.03,0,0,0,0,0,0,0,0,0,0,0,0,0,0,0,0,0,0,0,0,0,0,0,0-.04.02-.07.05-.1.09-.07.1-.08.23-.01.34t0,0l.06.1c.11.18.27.45.51.69.21,2.1.32,4.21.39,6.3-.1,0-.19,0-.28,0-.12-.01-.25-.01-.4,0-.02,0-.04,0-.06.01h0c-.05.02-.1.04-.13.08h0s-.04.05-.06.09h0s0,0,0,0h0s-.02.06-.02.09c-.02.21-.02.39.02.54.05,1.18.08,2.41.11,3.71-.1,0-.18.02-.24.05-.03.01-.05.02-.07.04-.41-.06-.83-.11-1.24-.16-.13-.2-.21-.42-.21-.64-.22-8.39.18-16.94.56-25.19.15-3.15.3-6.35.41-9.57.5,0,1.01.02,1.51.03h.01c.17,0,.3-.14.3-.3v-.29c0-.49,0-.97,0-1.46,0-4.02.01-7.97.18-11.95h0c0-.13-.06-.23-.17-.29-.05-.02-.09-.03-.14-.03-11.68.17-23.37-.16-35.32-.54-.63-.02-1.29-.07-1.98-.12-2.22-.16-4.74-.35-6.8.46-.13.05-.21.19-.19.33.02.14.13.25.27.26,6.21.62,12.5.82,18.4.96,3.18.44,6.34.4,9.4.37,4.15-.05,8.44-.09,12.77,1.05.03,0,.05.01.08.01.66,0,1.29.69,1.29.89,0,3.32-.08,6.66-.19,10-5.66-.1-11.35-.23-16.87-.36-5.71-.13-11.5-.26-17.32-.36-2.18-2.36-4.5-4.92-7.14-7.91-.83-.94-1.67-1.94-2.47-2.9-2.1-2.51-4.28-5.11-6.8-7.2-.36-.3-.73-.59-1.09-.88-.47-.37-.95-.76-1.41-1.15-.14-.12-.29-.28-.45-.44-.47-.49-1-1.04-1.68-1.04,0,0,0,0-.01,0-.72,0-1.27.63-1.76,1.18-.14.16-.28.31-.4.43-.75.72-1.54,1.45-2.41,2.25-2.02,1.84-4.12,3.64-6.15,5.39-1.15.99-2.35,2.02-3.51,3.04-3.2,2.81-6.93,6.2-10.28,10.11-.1.12-.1.29,0,.41.11.11.28.13.4.03,3.12-2.34,6.13-4.92,9.03-7.41,2.55-2.19,5.18-4.45,7.9-6.55,1.75-1.54,4.06-3.08,6.36-4.25,5.83,4.13,11.55,8.88,18.52,15.39.24.24.29.46.31.72-1.73.29-3.48.5-5.23.64-6.79-.09-13.6-.12-20.39-.06-.04-.02-.09-.03-.15-.03-.4,0-.81.03-1.21.05h-.05c-.05,0-.1.02-.14.04t0,0s0,0,0,0c0,0,0,0,0,0h0s0,0,0,0c0,0,0,0,0,0-.02,0-.03.02-.05.04,0,0,0,0,0,0h0s0,0,0,0h0s0,0,0,0c0,0,0,0,0,0,0,0,0,0,0,0h0s0,0,0,0c-.05.05-.08.11-.09.18,0,0,0,0,0,0h0s0,.03,0,.04t0,0s0,0,0,0h0v.02h0s0,0,0,0h0s.01.08.03.11h0s0,0,0,0h0s0,0,0,0c0,0,0,0,0,0t0,0h0s0,0,0,0c0,0,0,0,0,0h0s0,0,0,0c0,0,0,0,0,0h0s0,0,0,0t0,0s0,0,0,0c0,0,0,0,0,0h0s0,0,0,0c0,0,0,0,0,0,0,0,0,0,0,0,0,0,0,0,0,0t0,0h0s0,0,0,0c0,0,0,0,0,0h0s0,0,0,0h0s0,0,0,0t0,0h0s0,0,0,0c0,0,0,0,0,0,0,0,0,0,0,0,0,0,0,0,0,0t0,0h0s0,0,0,0t0,0s0,0,0,0c0,0,0,0,0,0t0,0h0s0,0,0,0c0,0,0,0,0,0,0,0,0,0,0,0h0s0,0,0,0c0,0,0,0,0,0h0s0,0,0,0t0,0s0,0,0,0t0,0s0,0,0,0t0,0s0,0,0,0c0,0,0,0,0,0h0s0,0,0,0h0c.05.05.12.07.19.07,1.91.03,3.86.09,5.74.15,5.29.16,10.71.33,16.08-.11,2.67.03,5.33.08,7.98.12.44.47.88.94,1.31,1.4-.02.02-.04.05-.06.08-3.6-.03-7.26-.08-10.8-.12-10.93-.14-22.22-.28-33.13.01-.42,0-.73.42-1.04.83-.12.17-.25.34-.37.45-.03.03-.05.06-.07.1-.62,1.55-.55,3.27-.47,5.09.02.59.05,1.19.05,1.79,0,.01,0,.02,0,.04.34,2.71.46,5.4.58,7.99.16,3.48.33,7.07,1.01,10.73.23,1.37.05,2.61-.14,3.91-.13.89-.26,1.82-.26,2.81,0,.16.12.29.28.3,8.61.7,17.36.44,25.82.2,6.03-.18,12.27-.36,18.41-.19.64,0,1.1.21,1.39.64.12.17.2.37.27.59-13.72-.8-26.97-.45-40.96-.08-2.95.08-5.91.16-8.88.23-.1,0-.18.05-.24.13-1.99,2.79-.57,5.62.58,7.9l.19.38s.03.06.06.08c.45.45,1.07.05,1.67-.33.18-.12.36-.23.54-.34.05.1.09.33.09.85,0,.13.08.23.18.28.07.78.14,1.55.21,2.32,0,3.19.02,6.46.15,9.68-.01.17,0,.34.02.51,0,.03.01.05.02.08.02.04.04.08.08.11t0,0s0,0,0,0c.03.03.06.04.1.06h0s.06.02.09.02t0,0s.05,0,.08-.01t0,0h0s.07-.03.1-.05t0,0s.07-.07.09-.11h0s.02-.05.02-.07v-.04c.09-.37.17-.76.17-1.16,0-.04,0-.07-.02-.1.26-2.98-.03-6-.31-8.93,0-.5,0-1.01,0-1.5.18-.04.38-.11.59-.18.26-.09.55-.18.7-.18.37,0,.86.1,1.33.19.5.1,1.02.21,1.45.21.01,0,.02,0,.03,0,4.28-.45,8.76-.39,13.1-.32-2.05,8.45-2.14,16.17-.29,23.59.03.1.1.18.2.21,3.39,1.13,7.41,1.27,11.31.41.06-.01.11-.04.15-.08.41-.41.88-1.26.88-1.79.48-4.31.53-8.69.57-12.92.03-2.82.06-5.73.22-8.6,0-.45-.14-.82-.42-1.08-.21-.2-.47-.31-.75-.38,5.65-.32,11.39-.45,16.93.53,1.17,5.02,1.19,10.26,1.22,15.33.02,3.16.03,6.41.33,9.57-16.52.01-32.73.29-48.52.61.43-.23.85-.51,1.25-.86.07-.06.1-.14.1-.23,0-3.83-1.1-7.84-3.18-11.62,0-.09.03-.23.06-.36.11-.61.25-1.37-.15-1.77-.01-.01-.02-.02-.04-.03-1.96-1.4-3.88-.45-5.75.47-.93.46-1.89.93-2.81,1.07-.16,0-.36-.14-.48-.23-.03-1.14-.42-2-1.28-2.86,0,0-.02-.02-.03-.02-1.83-1.47-3.66.08-4.99,1.2-.02.02-.04.04-.06.05-.05-.03-.1-.06-.16-.07.18-2.06.44-4.56,2.38-5.87.71-.35,1.53-.56,2.39-.78,1.98-.5,4.03-1.02,4.91-3.36,0,0,0-.02,0-.03.42-1.56.46-3.15.49-4.7.05-2.83.11-5.5,2.6-7.49.02-.02.04-.03.05-.05,1.35-1.8-.01-3.17-.83-3.98-.41-.41-.87-.78-1.31-1.13-.88-.71-1.72-1.37-2.22-2.38-.43-.87-.48-2-.52-3.09-.07-1.81-.14-3.68-2.08-4.24-1.04-.21-2.07-.1-3.08,0-1,.1-1.95.19-2.9,0-.94-.19-1.5-.9-2.11-1.65-.59-.74-1.2-1.51-2.22-1.92-.02,0-.03-.01-.05-.02-1.68-.34-2.16.41-2.59,1.06-.14.21-.28.43-.47.61-.02.02-.04.05-.06.08-.56,1.11-.54,2.29-.53,3.44.01,1.45.03,2.81-1,4.05-.68.68-1.51,1.13-2.39,1.61-1.12.61-2.28,1.24-3.19,2.38-.42.42-.87,1.27-.87,1.8,0,.91.07,1.86.13,2.79.16,2.38.33,4.83-.51,7.07-.4,1.21-.08,3,1.31,3.93.01,0,.03.02.04.02.66.3,1.39.59,2.17.9,2.41.96,5.3,2.12,6.74,3.86.28,1.44.46,2.9.49,4.38-.11.26-.24.52-.39.78-.07.12-.05.27.05.36.08.08.31.36.31.58,0,.16.13.3.29.3.16,0,.3-.12.31-.29.03-.55.04-1.09.03-1.64.5-1.24.57-2.39.2-3.43-.17-.48-.42-.92-.74-1.33-.72-3.57-2.05-7.02-3.36-10.4-.22-.57-.44-1.14-.66-1.7,1.74.91,3.63,2.06,5.19,3.7.04.05.08.09.13.14.01.01.03.02.04.03h0s0,0,0,0h0s0,0,0,0c.06.03.12.05.18.04h0s0,0,0,0h0s0,0,0,0h0s.04,0,.07-.02h0s0,0,0,0t0,0s0,0,0,0,0,0,0,0t0,0h0s0,0,0,0c0,0,0,0,0,0,0,0,0,0,0,0,0,0,0,0,0,0,.09-.04.15-.12.17-.22.33-1.72.5-3.49.67-5.2.17-1.71.34-3.48.67-5.19.46.68.72,1.56.72,2.51,0,2.82.4,6.03.8,8.8.01.08.06.16.12.21.07.05.15.07.23.05,1.6-.32,2.47-1.35,3.31-2.34.26-.31.53-.62.81-.91-.03.08-.05.15-.07.21-.05.23.01.37.08.45-.09.09-.19.17-.28.26-.52.47-1.01.92-1.37,1.45-.21.32-.4.62-.57.89-.46.72-.82,1.29-1.38,1.85-1.57,1.57-2.01,3.81-2.41,5.8l-.07.33s0,.03,0,.04c-.08,1.43-.19,2.89-.3,4.29-.15,1.91-.3,3.84-.37,5.79-.14-1.1-.46-2.1-1.17-2.62-.58-.42-1.35-.48-2.28-.18-.94.03-1.26.98-1.58,1.91-.14.4-.28.81-.46,1.16-3.02-1.81-7.46-3.1-11.17-1.45-.09.04-.16.12-.17.22-.62,3.1,1.75,4.45,3.85,5.63.29.17.59.33.88.51-.01.06-.02.12,0,.18,0,0,0,0,0,.01-3.12-.36-6.88-.52-8.66,2.33-.06.09-.06.2-.01.3,1.48,2.97,4.37,3.6,7.3,4.01-1.86.04-422.43.08-851.62.12v.59c429.94-.04,851.69-.1,853.88-.15.42.05.85.01,1.22-.03.05,0,.09-.02.13-.05t0,0s0,0,0,0h0s.02-.02.03-.02h0s0,0,0,0c0,0,0,0,0,0t0,0s0,0,0,0t0,0h0s.08-.11.09-.18h0s0,0,0,0h0s0-.02,0-.02h0c0-.08-.02-.14-.05-.19,0,0,0,0,0,0h0s0,0,0,0c-.02-.02-.03-.04-.05-.06,0,0,0,0,0,0,0,0,0,0,0,0-.04-.03-.08-.05-.13-.06-.81-.17-1.69-.29-2.54-.4-3.01-.4-6.12-.81-7.63-3.65,1.84-2.7,6.01-2.16,9.07-1.77l.49.06s0,0,0,0c.04,0,.07,0,.1,0,0,0,0,0,0,0h0s0,0,0,0h0s0,0,0,0h0s0,0,0,0h0s0,0,0,0c0,0,0,0,0,0,.06-.02.11-.05.15-.1,0,0,0,0,0,0h0s0,0,0,0c0,0,0,0,0,0h0s0,0,0,0c0,0,0,0,0,0h0s0,0,0,0c0,0,0,0,0,0,0,0,0,0,0,0h0s0,0,0,0h0s0,0,0,0c0,0,0,0,0,0,0,0,0,0,0,0,0,0,0,0,0,0,0,0,0,0,0,0t0,0s0-.02.01-.03c.01-.02.02-.04.02-.07,0,0,0,0,0,0h0c.02-.1-.01-.21-.09-.28-.33-.33-.65-.56-.93-.68-.45-.29-.93-.57-1.41-.83-2.06-1.17-4.01-2.27-3.58-4.83,3.57-1.5,7.86-.15,10.72,1.64.14.09.32.05.41-.09.31-.47.5-1.02.68-1.55.32-.93.54-1.5,1.06-1.5.03,0,.06,0,.1-.02.77-.26,1.35-.23,1.78.08,1.07.78,1.03,3.28,1.01,4.94,0,.24,0,.46,0,.67,0,.05.01.11.04.15,0,0,0,0,0,0h0s0,0,0,0h0s0,0,0,0h0s0,0,0,0h0s0,0,0,0h0s0,0,0,0h0s0,0,0,0t0,0s0,0,0,0h0s0,0,0,0h0s.03.04.05.05c.07.06.16.08.24.07h0s0,0,0,0c.05,0,.1-.02.14-.03.08,2.59.39,5.2,1.11,7.79.47,1.4,2.2,1.4,3.47,1.4.03,0,.05,0,.07,0,.35-.09.71-.17,1.06-.26,2.89-.68,5.62-1.33,7.1-4.28.04-.08.04-.18,0-.26-.04-.08-.11-.15-.2-.17-1.39-.35-1.76-.95-2.17-2.57-.02-.07-.06-.13-.11-.17-.84-.64-1.89-.38-2.91-.13-.73.18-1.42.35-2.01.21.09-.16.21-.34.33-.54.84-1.37,1.99-3.23,1.37-4.16-.31-.45-.92-.58-1.89-.4-1.12.2-2.01.89-2.86,1.55-.45.35-.89.69-1.36.95-.07-.17-.23-.3-.42-.36,0-2.71.21-5.42.41-8.08.11-1.4.22-2.85.3-4.28l.06-.31c.38-1.9.8-4.04,2.24-5.48.61-.61.98-1.2,1.46-1.96.17-.27.35-.56.57-.88.32-.48.78-.9,1.27-1.34.68-.61,1.45-1.31,1.93-2.28,0,0,0-.02.01-.03h0s0,0,0,0h0s0,0,0,0h0s0,0,0,0h0s0,0,0,0c.01-.04.02-.09.01-.13h0s0-.01,0-.01h0s0,0,0,0h0s0-.01,0-.02h0s0,0,0,0h0s0,0,0,0h0s0,0,0,0h0s0,0,0,0t0,0h0s0,0,0,0h0s0,0,0,0c0,0,0,0,0,0h0s0,0,0,0h0s0,0,0,0h0s0,0,0,0h0s0,0,0,0h0s0,0,0,0c0,0,0,0,0,0h0s0,0,0,0h0s0,0,0,0c0,0,0,0,0-.01-.04-.08-.1-.13-.18-.15,0,0,0,0,0,0h0s0,0,0,0h0s0,0,0,0c0,0,0,0,0,0,0,0,0,0,0,0h0s-.05,0-.07,0c0,0,0,0,0,0-.91,0-1.78.46-2.2.89-.31.31-.59.64-.86.96-.75.88-1.45,1.72-2.65,2.06-.38-2.67-.75-5.71-.75-8.39,0-1.34-.47-2.58-1.28-3.4-.08-.08-.19-.11-.3-.08-.11.03-.19.12-.21.23-.43,1.94-.62,3.94-.81,5.88-.14,1.45-.28,2.95-.53,4.41-.05,0-.1.01-.15.03-1.78-1.72-3.93-2.9-5.64-3.76-.11-.06-.25-.04-.34.05s-.13.22-.08.33c.31.81.62,1.63.94,2.44,1.18,3.04,2.38,6.14,3.12,9.33-1.61-1.43-4.04-2.4-6.28-3.3-.76-.31-1.48-.59-2.12-.88-1.13-.77-1.39-2.23-1.06-3.21.88-2.35.71-4.87.54-7.32-.07-.96-.13-1.86-.13-2.74,0-.29.34-1.01.71-1.38,0,0,.02-.02.02-.02.84-1.06,1.95-1.66,3.02-2.24.88-.48,1.79-.98,2.55-1.74,1.19-1.43,1.18-2.97,1.16-4.47-.01-1.1-.02-2.15.45-3.12.21-.22.36-.45.51-.67.41-.63.69-1.05,1.94-.8.85.35,1.41,1.05,1.95,1.72.64.81,1.31,1.64,2.46,1.87,1.04.21,2.08.1,3.08,0,1-.1,1.95-.2,2.87-.01,1.5.43,1.55,1.93,1.62,3.67.04,1.16.09,2.36.58,3.34.56,1.12,1.49,1.86,2.38,2.58.43.34.87.7,1.26,1.08.98.98,1.71,1.89.79,3.16-2.68,2.17-2.74,5.09-2.79,7.93-.03,1.5-.06,3.05-.46,4.54-.77,2.03-2.57,2.49-4.48,2.97-.86.22-1.76.44-2.53.83-.01,0-.02.01-.03.02-2.25,1.5-2.49,4.26-2.68,6.49-.01.17-.03.33-.04.49-.02.09-.03.19-.03.31,0,.06.02.12.05.16h0s0,0,0,0c0,0,0,0,0,0,0,0,0,0,0,0h0s0,0,0,0c0,0,0,0,0,0,.01.02.03.03.04.04t0,0s0,0,0,0h0s0,0,0,0t0,0h0s0,0,0,0c0,0,0,0,0,0,0,0,0,0,0,0,0,0,0,0,0,0h0s0,0,0,0t0,0s0,0,0,0t0,0s.01,0,.02.01c0,0,0,0,0,0t0,0s0,0,0,0c0,0,0,0,0,0h0s.01,0,.02.01h0s0,0,0,0c0,0,0,0,0,0,0,0,0,0,0,0,0,0,0,0,0,0h0s0,0,0,0c0,0,0,0,0,0,0,0,0,0,0,0,0,0,0,0,0,0,.06.02.13.03.19,0h0s0,0,0,0c0,0,0,0,0,0,0,0,0,0,0,0,0,0,0,0,0,0,0,0,0,0,0,0,0,0,0,0,0,0,0,0,0,0,0,0,0,0,0,0,0,0,0,0,0,0,0,0t0,0s0,0,0,0c0,0,0,0,0,0h0s0,0,0,0c0,0,0,0,0,0t0,0s0,0,0,0t0,0s0,0,0,0c0,0,0,0,0,0,0,0,.02,0,.02-.01.12-.07.21-.15.28-.22.18-.14.36-.3.56-.46,1.3-1.1,2.76-2.34,4.2-1.2.78.78,1.09,1.52,1.09,2.56,0,.08.03.16.09.21.05.05.5.49,1.01.49.01,0,.03,0,.04,0,1.02-.15,2.04-.65,3.02-1.13,1.77-.87,3.44-1.7,5.1-.54.15.2.03.88-.03,1.22-.04.22-.07.4-.07.54,0,.05.01.1.04.15,2.03,3.66,3.12,7.55,3.15,11.26-.78.65-1.63,1.04-2.54,1.26-2.04.04-4.07.08-6.09.13-.32-.01-.64-.02-.96-.02-.46-.03-.94.01-1.38.05-.08,0-.15.01-.22.02-.03,0-.06.01-.09.02-.04.02-.08.04-.11.08,0,0,0,0,0,0,0,0,0,0,0,0-.03.03-.05.07-.06.11h0s-.01.06-.01.1h0s0,.07.02.1c.02.05.05.09.09.13,0,0,0,0,0,0,.03.02.06.04.09.05h0s.06.02.09.02h.26c.56.04,1.14.07,1.7-.03,0,0,.02,0,.03,0,.18,0,.36,0,.54-.01.41.02.82.04,1.23.06,1.66.09,3.34.18,4.92-.18,16.46-.33,33.36-.63,50.6-.65,0,0,.02,0,.03,0,.08,0,.14-.04.19-.09h0s0,0,0,0c0,0,.01-.01.02-.02t0,0s0,0,0,0h0c.04-.06.06-.12.06-.2l-.02-.55c-.03-.6-.05-1.19-.08-1.79,0-.08-.04-.14-.09-.19-.14-2.44-.15-4.91-.16-7.33-.03-5.17-.05-10.52-1.28-15.66-.03-.12-.12-.21-.24-.23-6.89-1.25-14.05-.79-20.97-.34-1.9.12-3.87.25-5.76.34-.24,0-.54-.09-.84-.18-.49-.15-.92-.28-1.22-.05-.08.06-.16.15-.21.31-.01,0-.03,0-.04,0-4.38-.06-8.9-.13-13.24.32-.37,0-.85-.1-1.32-.19-.5-.1-1.03-.21-1.45-.21-.25,0-.56.1-.89.21-.21.07-.43.14-.59.17-.04-.48-.08-.95-.11-1.43-.01-.15-.13-.27-.29-.28,0,0-.01,0-.02,0-.1-.16-.26-.27-.49-.27-.05,0-.09.01-.14.03-.25.13-.5.28-.73.44-.28.18-.74.48-.88.43l-.16-.31c-1.11-2.2-2.37-4.7-.72-7.15,2.92-.07,5.83-.14,8.73-.22,14.02-.37,27.31-.73,41.05.08.14,1.47-.43,3.45-.85,4.5,0,.02-.01.04-.02.05-.21,1.03.28,1.53.58,1.74.84.56,2.25.32,3.07-.23.02-.01.03-.02.05-.04,1.64-1.64,1.03-4.5-.37-6.37-.05-.07-.13-.11-.22-.12-.57-.04-1.14-.08-1.72-.11-.08-.36-.21-.69-.39-.97-.41-.6-1.05-.91-1.89-.91-1.89-.05-3.78-.07-5.68-.06,0-.01,0-.02,0-.03,0-.36.09-.73.19-1.12.03-.12.06-.24.09-.36,2.92,0,5.8,0,8.71,0,.11.78.47,1.75,1.02,1.79,5.5,1.06,10.97,1.11,16.26,1.15,2.8.03,5.67.05,8.55.23-.13,5.62.04,11.24.21,16.74.16,5.24.33,10.65.23,15.98-.27-.2-.59-.3-.91-.31-.71-.02-1.5.35-1.53.92,0,.16.04.31.15.44-2.17-.03-4.34.02-6.46.06.23-.82.48-1.73.05-2.41-.25-.39-.7-.65-1.33-.75-1.48-.29-3.1-.06-4.68.16-2.75.39-5.35.76-7.03-1.57-.14-1.49,0-3,.14-4.47.03-.35.06-.7.09-1.05,2.79.54,5.61.42,8.56.28,3.04-.14,6.18-.28,9.3.38.09.15.24.14.37.1,0,0,0,0,0,0,.04-.01.08-.03.12-.04,0,0,0,0,0,0h0s0,0,0,0c0,0,0,0,0,0h0s0,0,0,0c0,0,0,0,0,0,0,0,0,0,0,0t0,0s0,0,0,0h0s0,0,0,0h0s0,0,0,0t0,0s0,0,0,0c0,0,0,0,0,0h0s0,0,0,0c0,0,0,0,0,0t0,0c.14-.08.2-.26.12-.41-.02-.04-.05-.08-.08-.1-.77-1.01-.65-2-.5-3.24.07-.53.13-1.08.13-1.68,0-.27-.12-.52-.23-.73-.09-.17-.17-.33-.17-.46,0-.02,0-.03,0-.05-.16-.96.03-1.88.2-2.76.25-1.22.5-2.48-.24-3.72-.04-.07-.1-.12-.18-.14-6.03-1.61-12.13-.8-18.04,0-.03,0-.07.01-.1.03-.14.07-.31.14-.49.22-.87.37-2.06.87-2.06,2.04v19.91c0,.14.1.27.24.3,4.87.97,9.98.91,14.94.8-.03.17-.06.34-.06.49,0,.14.1.26.24.3,3.53.82,6.93.71,10.21.61,1.52-.05,3.09-.09,4.66-.05.05,0,.11,0,.15,0,.05,0,.11-.02.16-.05,0,0,0,0,0,0,0,0,0,0,0,0t0,0h0s0,0,0,0h0s0,0,0,0c0,0,0,0,0,0t0,0s.02-.02.04-.03c.04-.04.06-.08.08-.13h0s0,0,0,0c0-.03.01-.06.01-.09,0-.04,0-.09,0-.16-.25-5.34-.26-10.77-.23-16.09.03,1.65.1,3.31.21,4.97.13,1.18.13,2.38.13,3.54,0,2.43,0,4.73,1.09,6.92.44.89,2.15.96,3.85.96.16,0,.29-.12.3-.27.6-5.19.5-10.48.4-15.6-.1-5.16-.2-10.5.4-15.86,0-.01,0-.02,0-.03,0-.69-.13-1.25-.24-1.74-.09-.39-.16-.72-.16-1.04,0-.03,0-.07-.02-.1,6.96,1.13,14.05,1.02,20.94.91,3.86-.06,7.85-.12,11.8.03-.08.95-.14,1.9-.18,2.85-7.64-.01-15.23-.01-23.51-.01h-6.4c-.37-.04-.8-.04-1.28,0-.15.01-.27.13-.28.28h0s0,.03,0,.05h0c0,.06.02.11.05.15,0,0,0,0,0,0,.02.02.04.05.06.06,0,0,0,0,0,0,.02.02.05.03.08.04,1.49.62,3.03.54,4.52.47.49-.02.99-.05,1.48-.05.01,0,.03,0,.04,0,3.51-.44,7.1-.26,10.56-.1,2.79.14,5.68.28,8.51.1,1.22,0,2.28.24,3.18.72-.83.08-1.65.47-1.97.78-.16.16-.2.3-.2.41-1.69.45-3.35.83-5.01,1.06-4.49.26-8.71.18-13.17.09-2.18-.04-4.44-.09-6.72-.09-.13,0-.25.08-.29.21-.16.47-.38.94-.61,1.45-.35.74-.74,1.58-.98,2.56,0,.02,0,.05,0,.07,0,.51.44.96.49,1.01.07.07.16.1.25.09,9.94-1.3,18.33-1.93,27-.8.01,0,.03,0,.04,0,.7,0,1.42.36,1.78.71.1.1.17.35.1.6-.11.41-.52.72-1.15.88-7.74,1.68-15.32,1.65-22.64,1.62-1.01,0-2.02,0-3.04,0h-.02c.11-.46.19-.9.19-1.31,0-.17-.14-.3-.3-.3-.27,0-.49.08-.62.24-.21.26-.14.61-.08.91.01.05.03.14.04.21-.09,0-.17.03-.23.1-.1.11-.17.25-.2.4h0s0,0,0,0c-.01.09,0,.18.07.24,0,0,0,0,0,0t0,0s0,0,0,0h0s0,0,0,0c.05.06.12.09.2.1h0s0,0,0,0h0s0,0,0,0h.02s.06,0,.1,0c-.1.3-.2.61-.31.91-.53,1.55-1.04,3.02-.38,4.02.38.58,1.08.91,2.15,1.01,4.11.37,8.28.13,12.31-.1,4.52-.26,9.19-.53,13.78.07.38,1.06.29,2,.2,3-.05.5-.09,1.01-.08,1.55,0,0,0,0,0,0-.41-.12-.93-.07-1.27.13-.05.03-.09.08-.12.13-1.55-.07-3.11-.16-4.63-.24-6.51-.37-13.24-.76-19.82.44-.08.02-.16.06-.2.13-.05.07-.06.16-.04.24.27,1.09-.12,2.07-.55,3.1-.1.19-.19.41-.26.65-.02.05-.02.11,0,.16h0s.02.05.03.07h0s0,0,0,0c0,0,0,0,0,0,.03.05.07.09.12.12h0s.02.01.03.01c0,0,0,0,0,0,0,0,0,0,0,0,.05.02.11.02.17.01h0s.05-.02.07-.03c0,0,0,0,0,0,.02,0,.04-.02.05-.03.4-.32,1.12-.66,1.41-.66,0,0,.02,0,.03,0,1.22-.12,2.44-.25,3.65-.39,6.72-.73,13.07-1.42,19.78-.41,1.68.19,3.08,1.1,4.55,2.08,0,.31-.01.62-.02.93-3.83.07-7.77-.3-11.59-.65-5.81-.54-11.83-1.1-17.63-.17-.15.02-.26.16-.26.31,0,.15.12.28.27.3,9.97,1.2,20.35,1.19,29.5,1.2.16,0,.3-.13.3-.29,0-.03,0-.06,0-.09.17,0,.33-.01.5-.02.03,0,.06,0,.08-.02.29-.1.58-.17.86-.22.92.51,1.9.91,2.99,1.03.01,0,.02,0,.03,0,.62,0,1.1-1,1.1-1.5,0-.19,0-.4-.01-.62-.04-1.52-.09-3.24,1.78-3.87.83-.16,1.62-.18,2.36-.04,0,.02.02.04.03.07.13.32.31.61.51.86-.03.26-.06.52-.1.78,0,.01,0,.03,0,.04,0,.29-.02.61-.05.92-.08,1.05-.17,2.14.61,2.54,0,0,.02,0,.03.01,3.61,1.39,7.92,1.31,12.09-.13.12.16.22.33.29.52-.29.04-.68.11-1.2.22h0s0,0,0,0h0s0,0-.01,0c0,0,0,0,0,0h0s0,0,0,0c0,0,0,0,0,0h0s0,0,0,0c0,0,0,0,0,0,0,0,0,0,0,0,0,0,0,0,0,0h0s0,0,0,0c0,0,0,0,0,0,0,0,0,0,0,0,0,0,0,0,0,0,0,0,0,0,0,0,0,0,0,0,0,0,0,0,0,0,0,0,0,0,0,0,0,0t0,0s0,0,0,0,0,0,0,0c0,0,0,0,0,0,0,0,0,0,0,0,0,0,0,0,0,0,0,0,0,0,0,0t0,0s0,0,0,0c0,0,0,0,0,0h0s0,0,0,0c0,0,0,0,0,0,0,0,0,0,0,0,0,0,0,0,0,0,0,0,0,0,0,0t0,0s0,0,0,0h0s0,0,0,0t0,0s0,0,0,0h0s0,0,0,0c0,0,0,0,0,0,0,0,0,0,0,0,0,0,0,0,0,0,0,0,0,0,0,0,0,0,0,0,0,0h0s0,0,0,0h0s0,0,0,0h0s0,0,0,0t0,0h0s0,0,0,0h0s0,0,0,0h0s0,0,0,0h0s0,0,0,0c-.03.03-.06.08-.07.13,0,.02,0,.04-.01.07h0v.02h0c0,.07.02.13.07.19,0,0,0,0,0,0,0,0,0,0,0,0,0,0,0,0,0,0,0,0,0,0,0,0,0,0,0,0,0,0h0s0,0,0,0t0,0h0s0,0,0,0h0s0,0,0,0h0s0,0,0,0c0,0,0,0,0,0h0s0,0,0,0h0s0,0,0,0c.49.49,1.38.49,1.81.49.17,0,.3-.14.3-.3,0-.08,0-.15,0-.22,0,0,.01,0,.02-.01.08-.05.13-.11.16-.16,1.5-.13,3.03-.06,4.51,0,.84.03,16.71.07,94.01.07v-.61c-77.3,0-93.16-.03-93.99-.07ZM962.89,10.75c-4.4-1.15-8.72-1.1-12.89-1.06-3.04.03-6.18.07-9.32-.36-.01,0-.02,0-.03,0-5.36-.13-11.04-.31-16.68-.8,1.55-.24,3.26-.12,4.92,0,.7.05,1.36.1,2,.12,11.73.37,23.21.7,34.69.55h0c-.06.12-.03.26.06.35.07.07.17.1.27.08-.14,3.72-.16,7.42-.15,11.17h0c0,.55-.01,1.02,0,1.48-.4,0-.79-.01-1.19-.02.12-3.34.19-6.69.19-10.01,0-.61-.95-1.47-1.86-1.5ZM926.13,21.46c.31-.05.62-.1.94-.15.15-.03.25-.15.25-.3,0-.41,0-.92-.49-1.42-7.06-6.59-12.84-11.39-18.74-15.56-.09-.06-.21-.07-.31-.02-2.39,1.2-4.81,2.81-6.63,4.41-2.71,2.1-5.35,4.36-7.91,6.55-2.04,1.75-4.14,3.55-6.28,5.27,2.67-2.82,5.45-5.33,7.91-7.49,1.16-1.02,2.36-2.05,3.51-3.04,2.04-1.75,4.14-3.56,6.16-5.4.88-.8,1.67-1.54,2.42-2.26.14-.14.28-.3.43-.47.41-.46.86-.98,1.31-.98h0c.43,0,.85.44,1.25.86.17.18.33.34.49.48.47.4.96.79,1.43,1.16.36.29.72.58,1.08.88,2.48,2.05,4.64,4.63,6.72,7.12.81.97,1.65,1.97,2.48,2.91,2.49,2.81,4.69,5.25,6.76,7.49-.93-.02-1.85-.03-2.78-.05ZM867.83,84.27c.83-.64,1.62-1.25,2.6-1.43.68-.12,1.13-.07,1.28.15.41.59-.76,2.48-1.38,3.49-.22.36-.41.66-.52.89-.04.07-.04.16-.02.23.03.08.08.14.16.18.85.41,1.8.18,2.73-.05.88-.22,1.71-.42,2.31-.04.39,1.53.85,2.35,2.21,2.79-1.39,2.43-3.89,3.02-6.52,3.64-.34.08-.69.16-1.03.25-1.14,0-2.54,0-2.86-.97-.72-2.58-1.01-5.19-1.09-7.79.79-.31,1.47-.83,2.13-1.34ZM904.14,68.38c3.1.04,6.28.08,9.34-.08.12,0,.27,0,.44-.02.57-.03,1.43-.09,1.82.27.15.14.23.35.23.62-.16,2.87-.19,5.79-.22,8.61-.05,4.22-.1,8.58-.57,12.87,0,.01,0,.02,0,.03,0,.28-.31.94-.65,1.32-3.71.81-7.51.68-10.74-.36-1.8-7.31-1.68-14.93.36-23.27ZM932.97,59.43c.48.03.96.06,1.45.09,1.02,1.44,1.78,4,.37,5.44-.73.47-1.83.57-2.37.21-.32-.21-.43-.58-.33-1.09.46-1.16,1.01-3.1.89-4.66ZM924.53,55.58c-.08.32-.16.65-.19.98-9.23.64-18.6.47-27.77.17.16-.06.26-.12.3-.18.03-.04.04-.1.04-.15.1-.02.19-.03.29-.05,9.17-.83,18.38-.97,27.39-.99-.02.07-.03.14-.05.22ZM933.88,54.75c-2.87,0-5.7,0-8.56,0,0-.1.01-.2.01-.3,0-.3,0-.61-.01-.91,1.63-.02,3.28-.04,4.92-.05.42.07.75.07.76.07.16,0,.3-.13.3-.29.13-3.11.04-6.25-.08-9.32.03.02.07.04.11.05.85.18,1.7.32,2.55.42v10.32ZM931.23,29.53c.08,0,.17-.01.25-.06,0,0,0,0,.01,0,.13,2.33-.04,4.64-.21,6.89-.09,1.17-.18,2.35-.22,3.56-.12-3.54-.16-6.98.17-10.37ZM959.85,55.71c-.03.74-.06,1.48-.08,2.22-2.89-.18-5.75-.2-8.56-.23-5.27-.05-10.72-.1-16.17-1.15-.01,0-.02,0-.03,0-.13-.08-.37-.61-.47-1.19,8.37-.02,16.9-.13,25.34-.8-.03.59-.04.94-.02,1.16ZM960.16,50.85s0,.05,0,.07c-.11,1.32-.19,2.3-.24,3.02-8.46.68-17.03.79-25.42.81v-10.25c3.65.39,7.29.22,10.84.04,2.82-.14,5.74-.28,8.58-.12h.03c.26-.01.53-.03.79-.05.91-.06,1.84-.13,2.7.15.14.04.29-.02.36-.14s.04-.29-.07-.38c-.63-.52-.44-2.28-.33-3.33.03-.3.06-.57.07-.78.03-.61.04-1.24.04-1.85.01-1.22.03-2.47.23-3.68.51-.42.8-1.05.5-2.03,0,0,0-.01,0-.02h0s-.02-.04-.03-.05c-.03-.05-.08-.09-.13-.11h0s-.02,0-.03-.01c-.15-.05-.32.03-.37.18h0s-.07.18-.07.18c-.17.44-.35.88-.51,1.32-.03.09-.02.18.02.25-.33.2-.77.36-1.28.52l-.19.06c-3.81.42-7.55-.08-11.17-.55-3.11-.41-6.33-.83-9.49-.65-.08,0-.14.03-.2.09-.43.43-.89,1.3-.89,2.2v8.07c-.73-.09-1.46-.21-2.19-.36-.14-2.4.04-4.77.21-7.06.25-3.32.5-6.75-.2-10.27-.02-.1-.08-.17-.16-.21,0,0,0,0,0,0,0,0,0,0,0,0-.04-.02-.09-.03-.13-.03-.11,0-.21.06-.26.15h0s0,0,0,0c0,0,0,0,0,0h0s0,0,0,0h0s0,0,0,0h0s-.02.06-.03.09h0c-.98,5.41-.75,11.08-.53,16.56.13,3.32.27,6.76.15,10.14-.19-.01-.4,0-.61.02-.03,0-.06.01-.09.02-1.57.01-3.15.03-4.71.05-.07-1.69-.23-3.38-.39-5.02-.09-.98-.19-1.96-.27-2.95.49.05.97.11,1.46.18.04,1.91.09,3.87.21,5.74,0,.52.45.97.88,1.41.02.02.05.04.08.06h0s0,0,0,0t0,0s0,0,0,0h0s0,0,0,0c0,0,0,0,0,0h0s0,0,0,0h0s0,0,0,0h0s0,0,0,0c0,0,0,0,0,0,0,0,0,0,0,0,0,0,0,0,0,0h0s0,0,0,0c.04.01.08.02.12.02h0s.08-.01.12-.03c.06-.03.1-.08.13-.13h0s0,0,0,0h0s.01-.03.02-.04h0s0,0,0,0h0s.01-.06.01-.1c0-.47.02-.95.03-1.42.06-1.92.13-3.9-.86-5.88-.04-.08-.11-.14-.19-.16-.09-4.01-.18-8.16-.97-12.11-.03-.14-.15-.24-.29-.24h-.39c-11.14-.41-21.66-.79-32.69,0-.13,0-.23.1-.27.22-.87,3.03-1.58,6.19.04,8.61.06.08.15.13.25.13h30.66c.33,0,.61-.05.85-.13-.01,1.06.03,2.12.1,3.18-6.73-.69-13.49-.56-20.59-.41-3.66.07-7.42.15-11.17.1-.02,0-.04,0-.06,0-.37-.02-.75-.02-1.11-.01h-.03c-.07,0-.13.03-.18.06h0s0,0,0,0c-.01,0-.02.02-.03.03,0,0,0,0,0,0,0,0,0,0,0,0-.04.04-.07.1-.07.16,0,.02,0,.04,0,.06.05.83.04,1.66.04,2.53-.01,1.85-.02,3.77.52,5.7,0,.28.11.51.29.67.45.38,1.24.25,2.09.12.39-.06.79-.13,1.09-.13,9.46.63,19.25.51,28.72.4.41,0,.83-.01,1.24-.02,0,.3.01.61.01.91,0,.1,0,.2-.02.3-9.06.02-18.34.15-27.58.99-.01,0-.02,0-.03,0-.77.16-1.57.19-2.34.22-1.2.05-2.44.1-3.68.59-.03.01-.06.03-.08.05-.02.02-.04.03-.05.05h0s0,0,0,0c-.03.04-.05.08-.06.13,0,.03,0,.06,0,.09.02.14.13.24.26.26h0s0,0,0,0c0,0,0,0,.01,0,.3.02.64.03.99.04,2.02.07,4.05.14,6.09.21-3.85-.01-7.7-.13-11.53-.43.02-.85.14-1.65.25-2.44.19-1.29.38-2.63.14-4.11-.68-3.62-.84-7.2-1-10.66-.12-2.6-.24-5.29-.58-8.02,0-.6-.02-1.21-.05-1.8-.07-1.73-.14-3.37.41-4.78.13-.14.26-.31.38-.47.14-.19.44-.58.56-.59,10.9-.3,22.19-.15,33.11-.01,3.82.05,7.77.1,11.64.13.01,0,.03,0,.04,0h0s.09-.02.13-.05c0,0,0,0,0,0,.02-.02.04-.03.06-.05,0,0,0,0,0,0,.03-.03.05-.07.06-.11h0s0-.04.01-.06h0c0-.05,0-.1-.02-.14h0s-.02-.05-.04-.07c0-.01-.02-.02-.03-.03-.48-.51-.97-1.03-1.46-1.56,5.62.1,11.21.23,16.73.36,5.52.13,11.21.25,16.87.36-.12,3.21-.27,6.41-.41,9.55-.39,8.27-.79,16.82-.57,25.23,0,.19.04.37.1.55-.89-.1-1.78-.17-2.67-.23.02-.69.04-1.38.07-2.06.08-.21.16-.84.23-1.42.47-.04.94-.08,1.41-.12.16-.01.28-.15.28-.3,0-1.55-1.17-2.88-1.68-3.39,0,0,0,0,0,0-.06-.06-.14-.1-.22-.09-.03,0-.07,0-.1.02,0,0,0,0,0,0h0s0,0,0,0c0,0,0,0,0,0s0,0,0,0c0,0,0,0,0,0,0,0,0,0,0,0-.1.04-.17.14-.18.25ZM956.85,43.77c-.73-.11-1.46-.06-2.17,0-.25.02-.51.03-.76.04-2.86-.16-5.79-.02-8.62.12-3.55.17-7.18.35-10.81-.05v-8.14c0-.65.31-1.32.63-1.69,3.06-.16,6.07.23,9.25.65,3.67.48,7.46.98,11.34.55.02,0,.04,0,.06-.01l.22-.07c.32-.1.69-.23,1.04-.39-.14,1.08-.15,2.18-.16,3.26,0,.6-.01,1.23-.04,1.83,0,.2-.04.45-.07.75-.11,1-.24,2.29.08,3.17ZM891.34,44.6c.22.01.47,0,.74-.03,3.8.05,7.61-.02,11.31-.1,7.13-.15,13.9-.28,20.63.42.08,1.03.18,2.06.28,3.08.16,1.63.32,3.31.39,4.97-.41,0-.82,0-1.23.01-9.46.12-19.24.23-28.7-.4-.36,0-.79.07-1.2.13-.61.1-1.36.22-1.6.02-.02-.02-.08-.07-.08-.25,0-.03,0-.06-.01-.08-.53-1.86-.52-3.74-.51-5.57,0-.73,0-1.48-.02-2.21ZM924.99,40.22c.6-.98.48-2.46.03-3.55-.03-.11-.08-.21-.14-.3-.02-.03-.04-.05-.06-.07t0,0s0,0,0,0c0,0,0,0,0,0,0,0,0,0,0,0,0,0,0,0,0,0,0,0,0,0,0,0,0,0,0,0,0,0,0,0,0,0,0,0,0,0,0,0,0,0t0,0s0,0,0,0c0,0,0,0,0,0,0,0,0,0,0,0,0,0,0,0,0,0,0,0,0,0,0,0t0,0s0,0,0,0h0s0,0,0,0c-.04-.02-.09-.04-.14-.04h0s0,0,0,0h-.01s0,0,0,0h-.01s0,0,0,0c0,0,0,0,0,0h0s0,0,0,0c-.13.02-.23.12-.25.24-.26,1.31-.39,2.63-.43,3.95-.24.12-.53.18-.86.18h-30.49c-1.33-2.14-.75-4.89.07-7.77,10.93-.77,21.37-.39,32.41,0h.15c.73,3.8.83,7.8.91,11.68-.5-.07-.99-.12-1.49-.18-.08-1.19-.13-2.38-.1-3.57.23-.17.39-.37.5-.56ZM924.53,39.81c.02-.41.05-.81.1-1.22.06-.02.12-.06.17-.12.01.48-.06.96-.27,1.33ZM926.72,45.94c.52,1.54.47,3.07.42,4.68,0,.08,0,.16,0,.24-.04-.02-.08-.03-.11-.04-.02,0-.04,0-.06,0-.01,0-.03,0-.04,0-.11-1.6-.16-3.25-.19-4.87ZM960.74,53.87c.03-.26.04-.45.04-.48.06-.7.08-1.21.09-1.59.49.66.8,1.35.87,1.98-.33.03-.66.06-1,.09ZM959.2,91.55s.08,0,.11,0c.34.03.74.2.82.8-1.61-.12-1.78-.47-1.78-.47.01-.09.37-.34.85-.34ZM950.85,92.23s-.03.09-.04.14c-5.1.11-9.94.18-14.73-.74v-19.66c0-.77.94-1.17,1.69-1.48.17-.07.34-.14.48-.21,5.79-.77,11.77-1.56,17.63-.03.55,1.01.34,2.02.11,3.18-.19.93-.38,1.89-.21,2.96,0,.26.13.5.23.71.09.17.17.33.17.46,0,.56-.07,1.09-.13,1.61-.13,1.07-.26,2.1.25,3.12-3.06-.59-6.11-.45-9.07-.32-2.94.13-5.75.26-8.49-.28.08-1.17.09-2.35-.11-3.5.13-.19.13-.59-.59-1.96h0s0,0,0,0h0c-.05-.1-.15-.16-.27-.16h-.02s0,0,0,0h0s-.02,0-.03,0h0s0,0,0,0h0s0,0,0,0c-.06.01-.11.04-.15.08,0,0,0,0,0,0h0s-.04.05-.06.08c-.06.13-.13.26-.2.39-.79,1.55-1.78,3.48-.57,5.1.04.05.09.09.15.11.41.13.81.24,1.22.33-.03.37-.07.74-.1,1.12-.14,1.52-.29,3.09-.13,4.66,0,.05.02.1.05.14,1.9,2.71,4.83,2.29,7.66,1.88,1.52-.22,3.1-.44,4.48-.17.47.08.77.23.92.48.29.46.07,1.26-.13,1.96ZM938.14,81.54c-.33-.08-.66-.17-.98-.27-.78-1.13-.24-2.53.4-3.82.12.35.3.62.47.77.2,1.07.19,2.18.12,3.32ZM963.7,93.33c.06.13.15.25.25.35,0,0,0,.02,0,.03-.99,0-1.96.04-2.92.07-3.16.1-6.43.2-9.8-.54.01-.08.03-.17.05-.27.02,0,.04,0,.07,0,2.98-.07,6.06-.13,9.1.01.08,0,.16-.03.22-.08,0,0,0,0,0,0,.04-.04.06-.08.08-.13,0-.03.01-.05.01-.08,0,0,0,0,0-.01.17-5.81-.02-11.72-.19-17.43-.17-5.48-.34-11.08-.21-16.68,1.02.07,2.05.16,3.08.28.36.41.88.69,1.4.69.12,0,.22-.03.31-.06.07,0,.13,0,.19-.03.02,1.11.03,2.27.04,3.48.03,3.55,0,7.16-.03,10.65-.05,6.03-.1,12.24.13,18.39-.09-.09-.19-.16-.31-.2-.25-.1-.65-.12-1.12.38-.49.51-.45.93-.34,1.2ZM964.98,93.36h-.04c-.15,0-.27,0-.38.02-.14-.09-.25-.19-.29-.29-.06-.14.01-.32.22-.54.13-.14.32-.29.46-.23.23.09.44.59.54,1.09-.14-.03-.3-.05-.5-.05ZM966.04,66.35c-.02.77-.04,1.53-.06,2.3,0-1.91.01-3.83,0-5.74,0-1.4-.03-2.73-.05-4.01h0s0-.04,0-.06h0s0-.07-.01-.11c-.03-1.27-.06-2.47-.1-3.63.12-.02.24-.06.34-.15.08,3.84-.02,7.65-.12,11.38ZM978.62,92.66c4.93-.43,9.99.04,14.9.49,1.49.14,3,.28,4.52.39-6.29-.05-12.91-.24-19.42-.89ZM1010.21,53.47c-.16.25-.33.49-.52.69-.46.04-.92.07-1.39.1-.05-1.38-.09-2.79-.13-4.19.54-.03,1.09-.05,1.63-.09.18.11.51.93.51,1.27-.04.74-.08,1.48-.11,2.22ZM1010.81,47.62c.39,1.33.41,2.82.1,4.11,0-.15.02-.31.03-.46,0-.41-.4-1.9-1.12-1.9-.55.03-1.09.06-1.64.09-.01-.54-.02-1.09-.02-1.63.89-.05,1.78-.12,2.66-.22ZM971.15,44.63c-.01-.46-.02-.94-.02-1.41.01-1.9.04-4.37.14-6.92.11.02.23.02.33,0,.12-.03.22-.09.29-.16,2.93.36,5.39.57,7.69.67.15,0,.31.01.47.02,1.24.06,2.66.13,3.65-.48-.2,1.38-.18,2.79-.16,4.17.03,1.45.05,2.83-.17,4.17-2.22,0-4.46.06-6.71.2-.02,0-.05-.01-.08-.02-.47-.03-.95.04-1.41.1l-.24.03s-.07.01-.1.03h0s0,0,0,0c0,0,0,0,0,0h0s0,0,0,0c-.03.01-.05.03-.07.05h0s0,0,0,0c0,0,0,0,0,0t0,0h0s-.05.07-.07.11c0,0,0,0,0,0h0s-.02.07-.02.1h0s0,.06.02.09h0s.04.09.08.12h0s0,0,0,0c.03.03.06.05.09.06h0s.05.02.08.02c.27.03.61.04.98,0,2.42,0,5.19,0,7.65,0,.14,0,.27-.1.3-.24,0-.03.01-.06.02-.08,7.43.03,14.68.72,21.55,1.51.01,0,.02,0,.03,0,.21,0,.43-.02.67-.05.71-.08,1.21-.1,1.42.22v.29c-2.44.12-4.88.12-7.26.12-3.53,0-7.18,0-10.77.4-4.52.24-9.13.04-13.59-.14-1.59-.07-3.2-.13-4.82-.18.1-.94.07-1.89.05-2.82ZM971.02,48.06c1.64.05,3.27.12,4.88.19,4.47.19,9.09.38,13.66.14,3.57-.4,7.2-.4,10.72-.4,2.38,0,4.82,0,7.27-.12,0,.54.01,1.08.02,1.62-6.42.28-12.98.14-19.35,0-3.63-.08-7.33-.16-11.01-.16-2.08,0-4.15.02-6.2.09,0-.03-.02-.06-.04-.09-.05-.08-.13-.13-.21-.15.12-.37.21-.75.27-1.13ZM966.83,47.99c1.19,0,2.38.02,3.58.05-.09.54-.24,1.07-.47,1.59,0,.01-.01.03-.01.04h0s0,.03,0,.05c0,.04,0,.08,0,.11h0s.02.06.03.08h0s0,0,0,0h0s.03.05.05.07h0s.06.04.09.06c0,0,0,0,0,0,.03.01.06.02.09.02h0s.02,0,.04,0c5.9-.22,12.04-.09,17.98.04,6.38.14,12.95.28,19.37,0,.03,1.41.08,2.82.13,4.21-8.51.54-17.15.22-25.52-.09-5.05-.19-10.26-.38-15.44-.39-.06-1.96-.16-3.93-.34-5.9.13.04.27.06.43.06ZM1004.58,59.86c-3.94-.15-7.91-.09-11.76-.03-7.11.11-14.44.23-21.58-1.03-.47-.27-1.03-.27-1.45-.27-.04,0-.07,0-.11.02h0s0,0,0,0c-.02,0-.05.02-.07.03h0s0,0,0,0h0c-.05.04-.1.09-.12.16-.02.08-.01.16.02.22,0,0,0,0,0,0h0s0,0,0,0c0,0,0,0,0,0,0,.01.01.02.02.03h0s0,0,0,0t0,0s.05.06.09.08l.04.02c.21.13.45.27.69.36.15.05.31-.01.38-.15.09.02.18.03.28.05.11.08.21.19.29.33.01.36.09.72.18,1.1.11.48.22.98.22,1.59-.6,5.4-.5,10.75-.4,15.92.1,5.01.19,10.18-.37,15.25-1.04,0-2.75-.05-3.04-.63-1.03-2.06-1.03-4.29-1.03-6.65,0-1.18,0-2.39-.13-3.59-.37-5.5-.22-11.01-.08-16.34.1-3.91.21-7.9.11-11.93,5.16,0,10.36.2,15.4.39,8.38.31,17.03.63,25.56.09,0,.08,0,.17,0,.25.08,2.16.15,4.37.18,6.57-.02.01-.04.03-.05.04-.03.03-.06.08-.08.14-.06-.04-.12-.08-.18-.1-.21-.09-.62-.16-1.09.3-.43.42-.41.76-.32.98.03.09.09.16.15.23-.43,0-.85,0-1.28,0,.04-.93.1-1.87.18-2.8.1,0,.22,0,.36,0,.08,0,.15-.05.2-.1t0,0s0,0,0,0c0,0,0,0,0,0,0,0,0,0,0,0h0s0,0,0,0c0,0,.01-.02.02-.02.01-.02.02-.03.03-.05h0s0-.01,0-.02c0,0,0,0,0,0,0-.03.01-.05.02-.08v-.02s0,0,0,0h0s0,0,0-.01h0s0-.06-.01-.08c-.07-.24-.2-.44-.31-.61-.08-.13-.16-.25-.21-.39-.05-.13-.19-.21-.32-.2-.14.02-.25.13-.26.27-.01.14-.03.28-.04.41-.06.07-.11.16-.13.25ZM1007.69,63.28c-.44-.08-.87-.25-.94-.41-.03-.06.04-.18.18-.32.16-.16.27-.19.34-.19.04,0,.07.01.09.02.11.05.21.16.3.31,0,.21,0,.41.03.59ZM1000.72,89.59c-2.45-.37-4.84-.51-7.22-.51-4.21,0-8.38.45-12.7.92-1.2.13-2.41.26-3.63.38-.27,0-.63.13-.96.29.37-.92.71-1.87.54-2.93,6.41-1.11,13-.74,19.37-.37,2.1.12,4.27.24,6.4.31.06,0,.12-.01.16-.04,0,0,0,0,0,0h0s0,0,0,0t0,0s0,0,0,0c0,0,0,0,0,0h0s0,0,0,0c0,0,0,0,0,0,0,0,0,0,0,0,.02-.02.04-.03.06-.06h0s0,0,0,0c0,0,0,0,0,0,.01-.01.02-.03.03-.05h0s0,0,0,0h0s0,0,0,0c0,0,0,0,0,0t0,0s0-.03.01-.04h0s0,0,0,0h0s0,0,0,0h0s0,0,0,0c0-.03,0-.07,0-.1-.1-.71-.04-1.38.02-2.08.1-1.07.2-2.18-.31-3.44-.04-.1-.13-.17-.24-.19-4.7-.64-9.47-.37-14.07-.1-4.01.23-8.15.47-12.22.1-.87-.08-1.42-.32-1.69-.73-.49-.76-.01-2.15.45-3.5.13-.37.26-.74.37-1.11,1.07,0,2.15,0,3.23,0,7.35.03,14.96.06,22.78-1.64,1.15-.29,1.49-.94,1.59-1.31.12-.45.02-.91-.26-1.19-.42-.42-1.29-.88-2.19-.88-8.68-1.13-17.07-.51-26.97.78-.09-.12-.2-.29-.21-.44.23-.9.59-1.67.94-2.41.21-.45.41-.87.57-1.3,2.2,0,4.38.05,6.49.09,4.48.09,8.71.18,13.25-.09,1.95-.28,3.87-.74,5.83-1.28.5-.06,1.31-.27,2.67-.75.1-.03.17-.11.19-.21h0s0,0,0,0h0s0,0,0,0h0s0,0,0,0h0s0,0,0,0c0-.03,0-.07,0-.1t0,0h0s0-.02,0-.02h0s0,0,0,0h0s0,0,0,0h0s-.02-.07-.04-.1c0,0,0,0,0,0h0s0,0,0,0h0s0,0,0,0h0s0,0,0,0c-.01-.02-.03-.04-.05-.05-.76-.7-1.67-1.17-2.73-1.43,1.41,0,2.81,0,4.21,0-.19,5.07.09,10.16.36,15.11.22,4.1.45,8.32.41,12.5-1.37-.9-2.8-1.77-4.48-1.96ZM1006.19,93.17c-.14,0-.28.01-.42.01,0-.17,0-.34.01-.52.22.14.44.29.66.43-.09.02-.17.05-.26.08ZM1005.8,91.95c.06-4.33-.18-8.7-.41-12.94-.27-4.95-.54-10.03-.36-15.08,1.06,0,2.11,0,3.17,0h.02c.08,0,.16-.03.21-.09h0s0,0,0,0c0,0,0,0,0,0,.05-.05.09-.13.09-.21v-.02c0-2.83-.1-5.7-.19-8.48,0-.09,0-.18,0-.27.51-.03,1.02-.07,1.53-.11.07,0,.14-.04.19-.09.04-.04.08-.08.12-.12-.24,5.9-.24,11.85-.24,17.63,0,6.75,0,13.73-.38,20.6-.73,0-1.48.02-2.23.13-.51-.29-1.01-.62-1.52-.96ZM1021.59,68.08c-.39-2.44-1.53-4.28-3.26-5.98.04-.12.08-.24.13-.34.02-.03.03-.07.03-.11.15-1.66.13-3.34.11-4.96-.02-2.07-.05-4.2.29-6.3.17,2.16.1,4.37-.21,6.82,0,.01,0,.03,0,.04,0,1.2,0,2.44.41,3.68.01.05.04.09.07.12.05.05.1.27.13.42.08.36.18.81.57,1,.31.15.7.1,1.24-.17,1.03-.51,1.84-1.45,2.63-2.34.8-.91,1.62-1.85,2.69-2.39-.02.06-.03.13-.03.2-.04.44.13.77.43.83,0,0,0,0,.01,0-.39.95-.87,1.91-1.33,2.85-1.56,1.57-2.38,3.35-3.25,5.22-.21.47-.44.94-.67,1.42ZM1015.62,59.81c-1.13-1.52-1.51-3.4-1.9-5.39v-1.96s0-.06-.01-.08l-.19-.67c-.72-2.5-1.35-4.66-.99-7.15.01-.04.02-.09.03-.13.62-.23,1.23-.52,1.81-.86.09-.06.15-.16.15-.27,0-.11-.07-.21-.17-.26-.56-.28-1.03-.33-1.43-.14-.37.17-.65.52-.85,1.07-1.13.4-2.33.66-3.51.9,0,0,0-.01,0-.02-.05-.31-.38-.55-.73-.51-.05,0-.1.02-.15.03-.12-2.55.82-4.67,2.65-5.93,1.98-.04,3.38-1.24,4.73-2.4.88-.76,1.79-1.54,2.88-2.01,1.51-.76,3.39-.76,4.89,0,2.28,1.26,2.86,3.52,3.48,5.92.31,1.19.63,2.42,1.17,3.51.03.07.09.12.16.15.89.36,1.84.34,2.75.33,1.26-.02,2.45-.04,3.53.81.45.45,2.45,2.64,1.16,4.36-3.29,4.11-4.44,9.01-3.24,13.8.2.81.06,1.71-.38,2.41-.4.64-1.02,1.05-1.76,1.2-1.06.15-2.05.57-3.01.98-1.52.65-2.95,1.26-4.49.75.21-.44.42-.88.62-1.31.85-1.84,1.65-3.57,3.16-5.08.02-.02.04-.05.06-.08.79-1.58,1.61-3.21,2.01-4.84,0-.01,0-.03,0-.04h0s0,0,0,0h0c0-.08-.02-.16-.06-.22-.05-.06-.12-.1-.2-.11,0,0,0,0,0,0,0,0,0,0,0,0h0s0,0,0,0h0s0,0,0,0h-.02c-.19,0-.36.03-.51.08-1.73.39-2.86,1.68-3.95,2.92-.79.9-1.53,1.74-2.45,2.2-.46.23-.65.19-.7.17-.13-.06-.19-.34-.24-.58-.05-.24-.1-.48-.24-.66-.36-1.12-.36-2.24-.36-3.41.4-3.21.4-6.01,0-8.82,0-.04-.02-.07-.04-.11h0s0,0,0,0h0s-.01-.02-.02-.03c0,0,0,0,0,0t0,0h0s0,0,0,0c-.05-.06-.12-.1-.2-.11-.15-.02-.29.07-.33.21-.47,1.4-.49,1.7-.39,1.83-.35,2.18-.33,4.36-.31,6.48.02,1.59.04,3.23-.11,4.84-.01.03-.03.07-.04.1-.67-.61-1.41-1.22-2.23-1.83ZM1017.7,70.75c-.42-3.74-2.1-6.97-4.87-9.34-.18-.18-.35-.44-.42-.68-.05-.16-.09-.37.03-.49.06-.06.13-.08.22-.08.09,0,.18.02.27.05.23.08.48.23.66.4.81,1.21,1.64,2.04,2.85,2.84.38.26.71.33,1,.22.37-.13.56-.51.7-.94,1.66,1.7,2.7,3.56,2.95,6.05.15,2.45-.12,4.96-.38,7.38-.3,2.76-.6,5.59-.3,8.42-1.1-.14-2.25,0-3.27.44.54-5.01.86-9.7.57-14.3ZM1016.68,88.93c.53.24,1.03.56,1.48.97l-.08.08c-.52-.04-1.03-.3-1.44-.71.01-.12.03-.23.04-.35ZM1016.17,88.09c-.08-.02-.16-.04-.24-.06-.12-.49-.16-1.24.47-1.88-.07.64-.15,1.29-.23,1.94ZM1016.73,93.2c-.4-.22-.33-1.09-.27-1.94.02-.32.05-.65.05-.95.01-.1.02-.2.04-.3.49.37,1.06.59,1.65.59.08,0,.16-.03.21-.09l.4-.4c.06-.06.09-.13.09-.21s-.03-.16-.09-.21c-.61-.61-1.3-1.08-2.05-1.38.1-.86.2-1.71.3-2.54,1.04-.52,2.26-.71,3.42-.52.13.92.32,1.83.61,2.74.32,1.29,1.53,2.06,2.8,2.88.43.28.88.56,1.29.87.01.01.03.02.05.03.32.16.68.31,1.03.45.68.28,1.35.55,1.85.95-3.95,1.3-7.99,1.34-11.38.05ZM1028.77,92.92c-.62-.59-1.48-.95-2.29-1.28-.34-.14-.66-.27-.96-.42-.42-.32-.87-.6-1.31-.88-1.17-.75-2.28-1.46-2.55-2.53-.25-.81-.43-1.62-.56-2.44.16.05.32.1.47.16.97.38,1.72,1.03,2.2,1.89-.02.13-.03.27-.03.4.02.53.26.95.68,1.15,0,0,0,0,0,0,.1.05.23.04.32-.03,0,0,0,0,0,0,0,0,0,0,0,0h0s0,0,0,0t0,0h0s0,0,0,0t0,0s0,0,0,0c0,0,0,0,0,0,0,0,0,0,0,0,0,0,0,0,0,0h0s0,0,0,0c0,0,0,0,0,0,.02-.02.04-.05.05-.07t0,0h0s0,0,0,0h0s0,0,0,0h0s.02-.07.03-.1h0s0-.02,0-.02c0-.84-.12-1.24-.42-1.32,0-.02-.02-.03-.02-.05.09-.3.26-.57.47-.68.83-.46,2.26.22,2.73.44,1.11.53,3.19,2.31,3.26,3.62.03.47-.21.85-.71,1.16-.01,0-.02.02-.04.02t0,0s-.06.06-.08.1h0s-.03.08-.03.13h0s0,.06.01.09c0,.03.02.05.03.08.02.03.04.05.06.07-.45.2-.91.39-1.37.55Z"/>
        <path class="cls-1" d="M1001.17,65.7c.06-.01.12-.02.18-.03-.26.07-.51.14-.77.21.17-.07.37-.13.59-.18Z"/>
        <path class="cls-1" d="M1012.95,43.62c.07-.08.15-.14.23-.17.08-.04.16-.05.26-.05-.16.08-.32.16-.48.23Z"/>
        <path class="cls-1" d="M1027,57.85c0-.1.03-.23.1-.35.05-.08.1-.15.17-.21-.11.28-.2.46-.27.56Z"/>
        <path class="cls-1" d="M965.8,54.43s0,.04,0,.05c.02-.01.04-.03.05-.05,0,0-.02,0-.03,0h-.02Z"/>
        <path class="cls-1" d="M1007.9,44.94s-.02,0-.03,0c-.01,0-.02.01-.03.03.02-.01.04-.02.06-.03"/>
      </g>
      <g>
        <path class="cls-1" d="M610.19,14.38c0,.39-.06.89-.32,1.04-.15.08-.63.22-2.19.22s-1.98-.32-2.05-.45c-.11-.19-.3-.95-.3-3.83,0-1.15.24-1.48.38-1.57.16-.1.71-.28,2.6-.28,1.04,0,1.38.14,1.49.22.09.07.26.31.26,1.04v.5h1.58l-.02-.48c0-.99-.24-1.68-.72-2.05-.46-.36-1.3-.53-2.56-.53-1.81,0-2.98.17-3.55.54-.51.32-.82.69-.93,1.11-.1.39-.15,1.27-.15,2.69,0,1.86.23,3.02.7,3.56.48.55,1.51.81,3.17.81,1.83,0,2.91-.14,3.4-.45.52-.33.77-1.07.77-2.27v-.57h-1.58l.02.74Z"/>
        <rect class="cls-1" x="616.11" y="8.3" width="1.57" height="8.55"/>
        <path class="cls-1" d="M628.16,14.49c-.03.07-.08.18-.15.33l-3.11-6.52h-2.25v8.55h1.58v-6.42l3.11,6.42h1.38l3.09-6.48v6.48h1.58v-8.55h-2.28l-2.95,6.19Z"/>
        <polygon class="cls-1" points="637.94 16.85 644.45 16.85 644.45 15.56 639.52 15.56 639.52 13.08 644.24 13.08 644.24 11.79 639.52 11.79 639.52 9.59 644.45 9.59 644.45 8.3 637.94 8.3 637.94 16.85"/>
        <polygon class="cls-1" points="655.86 15.03 651.08 8.3 648.97 8.3 648.97 16.85 650.54 16.85 650.54 10.14 655.32 16.85 657.44 16.85 657.44 8.3 655.86 8.3 655.86 15.03"/>
        <polygon class="cls-1" points="661.55 9.67 664.58 9.67 664.58 16.85 666.15 16.85 666.15 9.67 669.16 9.67 669.16 8.3 661.55 8.3 661.55 9.67"/>
        <path class="cls-1" d="M676.92,9.51c1.52,0,2.08.17,2.29.31.18.13.4.49.4,1.47v1.28c0,2.15-.21,2.63-.3,2.73-.07.08-.45.33-2.39.33s-2.32-.25-2.39-.33c-.09-.1-.31-.58-.31-2.73s.22-2.62.31-2.73c.07-.08.45-.33,2.39-.33M680.41,8.96c-.5-.5-1.64-.74-3.49-.74-1.59,0-2.66.21-3.27.63-.63.44-.95,1.25-.95,2.4v1.33c-.01,1.93.22,3.12.7,3.61.49.5,1.64.74,3.51.74s3.04-.25,3.52-.75c.47-.5.71-1.72.71-3.71,0-1.86-.24-3-.74-3.5"/>
        <path class="cls-1" d="M586.2,40.97c0,2.93.61,5.11,1.84,6.53,1.23,1.42,2.79,2.13,4.67,2.13,1.66,0,3.04-.68,4.16-2.05,1.12-1.36,1.68-3.67,1.68-6.93,0-3-.59-5.21-1.75-6.61-1.15-1.42-2.59-2.12-4.26-2.12-1.82,0-3.34.71-4.54,2.13-1.22,1.42-1.81,3.73-1.81,6.91M554.87,41.8c-1.96.7-3.99,1.32-6.1,1.86-2.88.76-4.72,1.52-5.48,2.26-.8.77-1.19,1.65-1.19,2.62,0,1.12.4,2.03,1.17,2.74.79.7,1.93,1.06,3.44,1.06s3.05-.38,4.42-1.14c1.36-.78,2.32-1.72,2.89-2.81.57-1.11.85-2.55.85-4.32v-2.28ZM630.12,40.93c0,3.31.67,5.76,2.01,7.33,1.34,1.59,3.02,2.39,5.04,2.39s3.73-.79,5.04-2.35c1.32-1.56,1.98-4.05,1.98-7.51,0-3.21-.67-5.6-1.99-7.17-1.32-1.56-2.97-2.35-4.92-2.35-2.07,0-3.79.8-5.13,2.39-1.35,1.6-2.03,4.03-2.03,7.28M615.88,40.97c0-5.65,1.91-10.32,5.72-13.98,3.83-3.67,8.97-5.51,15.47-5.51,7.42,0,13.04,2.16,16.83,6.46,3.05,3.47,4.58,7.75,4.58,12.82,0,5.7-1.9,10.37-5.67,14.02-3.78,3.63-9.01,5.46-15.7,5.46-5.96,0-10.77-1.51-14.45-4.54-4.52-3.74-6.77-8.65-6.77-14.73M688.16,40.76c0-2.92-.61-5.09-1.85-6.52-1.23-1.43-2.79-2.15-4.67-2.15-1.66,0-3.04.69-4.16,2.06-1.12,1.37-1.68,3.67-1.68,6.91,0,3.03.59,5.24,1.73,6.65,1.16,1.41,2.59,2.11,4.28,2.11,1.83,0,3.34-.7,4.54-2.12,1.22-1.43,1.81-3.74,1.81-6.95M702.41,8.22v51.18h-13.3v-5.48c-1.87,2.32-3.56,3.89-5.1,4.72-2.05,1.06-4.33,1.6-6.84,1.6-5.05,0-8.91-1.92-11.58-5.76-2.66-3.84-3.99-8.51-3.99-14,0-6.15,1.46-10.85,4.42-14.1,2.94-3.27,6.69-4.9,11.21-4.9,2.21,0,4.22.38,6.03,1.12,1.8.75,3.4,1.86,4.8,3.35V8.22h14.35ZM705.53,21.01h14.22v38.39h-14.22V21.01ZM705.53,8.22h14.22v9.68h-14.22v-9.68ZM531.18,27.3c.97-1.36,2.35-2.54,4.18-3.54,1.3-.73,3.1-1.29,5.37-1.68,2.28-.39,4.74-.59,7.4-.59,4.25,0,7.69.24,10.26.71,2.59.48,4.74,1.48,6.46,2.99,1.22,1.05,2.17,2.52,2.87,4.44.7,1.93,1.04,3.76,1.04,5.51l.07,24.26h-13.14l-.02-4.54c-1.86,1.8-3.72,3.08-5.55,3.84-2.51,1.03-5.44,1.54-8.76,1.54-4.42,0-7.78-1.03-10.08-3.08-2.29-2.04-3.43-4.56-3.43-7.57,0-2.82.82-5.14,2.48-6.95,1.66-1.82,4.7-3.17,9.14-4.05,5.34-1.07,8.79-1.82,10.38-2.25,1.57-.43,3.26-1,5.02-1.69,0-5.1-10.29-6.12-12.33-.32h-14.25c.55-2.44,1.42-4.96,2.89-7.03M571.95,73.51V22.32h13.3v5.48c1.84-2.31,3.53-3.87,5.07-4.68,2.07-1.1,4.36-1.64,6.87-1.64,4.96,0,8.79,1.91,11.51,5.7,2.7,3.79,4.06,8.48,4.06,14.08,0,6.16-1.48,10.87-4.43,14.12-2.96,3.24-6.7,4.86-11.2,4.86-2.19,0-4.2-.37-5.99-1.11-1.8-.75-3.42-1.86-4.84-3.32v17.71h-14.35Z"/>
        <polygon class="cls-1" points="453.93 8.14 494.41 73.51 527.85 73.51 487.37 8.14 453.93 8.14"/>
        <polygon class="cls-1" points="471.82 46.56 454.98 73.51 421.55 73.51 455.17 19.67 471.82 46.56"/>
      </g>
    </g>
  </g>
</svg>