<?xml version="1.0" encoding="UTF-8"?>
<svg id="Layer_2" data-name="Layer 2" xmlns="http://www.w3.org/2000/svg" viewBox="0 0 1990.72 139.39">
  <defs>
    <style>
      .cls-1 {
        fill: #fff;
        stroke-width: 0px;
      }
    </style>
  </defs>
  <g id="Layer_1-2" data-name="Layer 1">
    <g>
      <path class="cls-1" d="M1990.72,86.26h-183.99c-.41,0-.81,0-1.22,0-2.21.04-3.07.73-3.5,2.85-.32,1.59-.68,3.18-.88,4.78-.55,4.39-2.23,8.23-4.72,11.91-6.57,9.68-12.91,19.52-19.34,29.29-2.15,3.26-3.83,3.91-7.53,2.92-27.66-7.41-55.32-14.81-82.98-22.23-1.03-.28-2.07-.66-3.01-1.17-.99-.53-1.55-1.42-1.33-2.8.83.2,1.53.36,2.23.55,6.27,1.66,12.54,3.31,18.8,5,1.38.37,2.77.58,3.78-.56.87-.97,1.74-.78,2.74-.52,4.18,1.11,8.36,2.22,12.53,3.33,5.22,1.39,10.45,2.77,15.66,4.18,1.89.51,3.68.52,4.98-1.16,1.99-2.57,3.94-5.17,5.8-7.82,1.08-1.54.5-2.85-1.33-3.39-.19-.06-.4-.05-.6-.1-8.75-2.05-17.5-4.05-26.23-6.19-1.67-.41-2.84-.09-4.01,1.08-2.48,2.5-5.08,4.88-7.54,7.4-.94.96-1.8,1.08-3.06.73-6.12-1.69-12.27-3.26-18.4-4.9-1.72-.46-3.41-.89-5.08.3-.07-.14-.14-.28-.22-.42.2-.25.36-.56.61-.75,5.22-3.87,10.43-7.74,15.7-11.54.59-.42,1.55-.66,2.26-.52,6.36,1.24,12.71,2.58,19.05,3.91.38.08,1.01.29,1.03.5.19,1.59,1.48,1.59,2.55,1.82,18.83,4,37.66,7.98,56.5,11.97,2.75.58,3.96.15,5.55-2.15,3.05-4.39,6.1-8.78,9.12-13.19,1.39-2.02.9-3.1-1.46-3.45-11.1-1.64-22.2-3.28-33.29-4.93-11.76-1.75-23.53-3.51-35.29-5.27-1.27-.19-2.53-.42-3.79-.66-1.02-.2-1.47-.8-1.23-2.02,1.68.23,3.27.43,4.86.66,6.02.88,12.03,1.78,18.05,2.66,5.95.87,11.9,1.74,17.85,2.61,6.02.88,12.04,1.76,18.05,2.65,5.75.85,11.49,1.73,17.25,2.54,2.2.31,3.81-.91,4.23-3.11.31-1.59.55-3.2.81-4.8,1.83-11.07,3.65-22.14,5.47-33.2,1.41-8.53,2.86-17.06,4.23-25.6.53-3.26-.88-4.84-4.2-4.94-3.99-.12-7.99-.25-11.98-.36-11.98-.32-23.97-.62-35.95-.93-2.03-.05-4.06-.08-6.09-.13-8.8-.22-17.6-.47-26.4-.66-2.57-.06-3.72.96-4.03,3.52-.4,3.29-.72,6.59-1.04,9.88-1.28,13.12-2.51,26.24-3.85,39.36-.21,2.09-.04,3.79,2.26,4.6-.18,1.38-.34,2.62-.54,4.16-3.09-1.07-5.11.57-7.12,2.23-.1.09-.22.16-.32.25-1.47,1.52-3.26,1.82-5.33,1.82-265.64-.05-1574.24-.07-1705.82-.07v1.07c131.65,0,1440.37,0,1706.17,0,.47,0,.95-.04,1.42,0,1.02.11,1.82-.26,2.6-.89,1.21-.98,2.5-1.86,3.71-2.83,1.41-1.13,2.88-1.37,4.48-.5.43,2.24.9,2.79,2.65,3.06,4.41.68,8.82,1.35,13.23,2,9.49,1.4,18.99,2.78,28.48,4.19,9.02,1.34,18.05,2.65,27.06,4.08,1.54.24,3.25.05,4.73,1.13-.18.41-.3.8-.51,1.12-.67,1.02-1.38,2.01-2.07,3.01-2.43,3.5-4.87,6.99-7.28,10.51-1.03,1.51-2.33,2.17-4.16,1.69-1.11-.29-2.24-.48-3.37-.72-14.93-3.16-29.86-6.33-44.8-9.49-3.29-.7-6.57-1.41-9.85-2.12.47-.28.93-.35,1.35-.27,1.46.28,2.9.62,4.36.92,7.74,1.61,15.48,3.18,23.21,4.85,1.26.27,2.1-.08,2.82-1.02.29-.37.59-.74.85-1.14.9-1.36.62-2.09-1-2.4-8.95-1.76-17.9-3.49-26.85-5.23-1.14-.22-2.12-.05-2.98.8-.67.66-1.42,1.24-2.17,1.89-6.7-1.39-13.38-2.75-20.04-4.19-1.79-.39-3.26-.14-4.74.99-4.26,3.23-8.59,6.37-12.89,9.54-2.94,2.17-2.92,2.17-3.19,5.64-.12,1.52.44,2.68,1.69,3.43.86.52,1.81.94,2.77,1.2,27.99,7.5,55.98,14.97,83.98,22.44,3.71.99,5.87.17,7.98-3.03,7.15-10.84,14.32-21.67,21.39-32.56,1.01-1.55,1.67-3.39,2.16-5.19.67-2.4,1.09-4.88,1.49-7.35.69-4.33,1.27-3.56,4.24-3.56,26.98,0,109.29,0,183.8,0v-1.04ZM1710.1,113.93c2.31-2.27,4.69-4.48,6.93-6.82,1.09-1.14,2.21-1.33,3.64-.99,7.08,1.7,14.17,3.36,21.25,5.04,1.64.39,3.3.71,4.92,1.14,1.65.44,1.84.99.81,2.41-1.62,2.24-3.32,4.43-4.92,6.69-1.13,1.6-2.48,2.02-4.38,1.51-8.65-2.34-17.33-4.59-26-6.88-1.02-.27-2.03-.57-3.27-.91.43-.52.68-.89.99-1.2ZM1686.74,110.24c2.42.6,4.82,1.27,7.23,1.91,4.23,1.12,8.46,2.25,12.78,3.39-.71,1.25-1.68,1.3-2.61,1.05-6.9-1.82-13.79-3.69-20.68-5.55-.12-.03-.21-.16-.52-.4,1.27-.89,2.55-.72,3.8-.41ZM1719.15,76.4c-.18.07-.36.14-.55.2-.28-.54-.64-1.06-.8-1.63-.13-.43-.04-.94.01-1.41.61-6.19,1.23-12.38,1.84-18.57.6-6.12,1.2-12.24,1.8-18.37.41-4.17.81-8.34,1.23-12.51.2-1.92,1.25-2.87,3.27-2.82,6.03.15,12.05.36,18.07.55.68.02,1.35.09,2.03.11,8.06.18,16.12.33,24.17.55,12.12.34,24.23.72,36.35,1.09,2.34.07,3.3,1.24,2.92,3.54-2.75,16.6-5.5,33.19-8.25,49.79-.73,4.4-1.44,8.8-2.15,13.2-.42,2.63-1.16,3.31-3.81,2.98-4.22-.52-8.43-1.18-12.65-1.8-6.02-.88-12.03-1.78-18.05-2.66-5.95-.87-11.91-1.73-17.86-2.6-6.09-.89-12.17-1.79-18.25-2.69-2.86-.42-5.72-.86-8.77-1.32.11-1.36.21-2.61.34-4.12,2.04.24,3.9.43,5.75.68,6.23.83,12.45,1.74,18.7,2.47,2.51.29,5.05-.19,7.32-1.26,2.48-1.17,4.52-.93,6.95.37,5.22,2.8,10.95,4.24,16.79,5.14,6.34.98,12.71,1.8,19.07,2.69,1.93.27,2.95-.4,3.27-2.36,1.09-6.67,2.14-13.34,3.21-20.02,1.57-9.88,3.14-19.75,4.71-29.63.36-2.27.75-4.53,1.04-6.81.27-2.18-.45-2.97-2.68-3.04-9.14-.3-18.27-.56-27.41-.87-10.49-.36-20.98-.77-31.47-1.13-5.62-.19-11.24-.34-16.86-.49-2.91-.08-3.48.42-3.79,3.21-1.22,11.22-2.43,22.45-3.64,33.67-.54,4.97-1.08,9.95-1.62,14.92-.03.32-.15.62-.23.94ZM1746.9,60.05c2.04,2.34,4.12,4.66,6.33,6.85,1.41,1.4,3.16,1.32,4.98-.02,3.05-2.24,6.07-4.53,9.09-6.81,2.87-2.15,5.73-4.31,8.6-6.46.46-.35.97-.64,1.69-1.12-.78,5.22-2.79,9.57-5.92,13.42-4.06,4.98-9.26,8.42-15.05,11.07-.88.4-1.5.26-2.24-.23-8.49-5.63-13.27-13.52-14.2-23.63-.29-3.14-.11-6.34.03-9.5.12-2.65.51-2.97,3.09-3.78,5.05-1.58,9.86-3.69,14.38-6.45,2.05-1.25,2.52-1.23,4.29.31,3.95,3.43,8.31,6.25,12.96,8.65.53.27,1.05.58,1.78.98-6.78,5.07-13.42,10.04-20.22,15.13-.89-.88-1.8-1.67-2.58-2.56-1.77-2.01-3.01-2.67-5.56-.2-.39.38-.83.7-1.2,1.09-1.02,1.1-1.18,2.18-.24,3.27ZM1759.06,76.87c5.51-2.78,10.39-6.34,14.13-11.31,2.99-3.98,4.74-8.47,5.46-13.37.06-.39,0-.79,0-1.59-.85.53-1.47.85-2.03,1.27-5.8,4.34-11.58,8.69-17.37,13.04-.54.41-1.07.83-1.63,1.21-1.53,1.06-2.94,1-4.18-.31-1.87-1.96-3.69-3.96-5.49-5.99-.91-1.03-.85-1.65.12-2.61.58-.57,1.18-1.12,1.82-1.61,1.05-.81,1.47-.79,2.46.15.83.79,1.59,1.66,2.4,2.48.46.47.95.92,1.57,1.5,7.35-5.5,14.58-10.91,22.01-16.46-.58-.42-.9-.74-1.28-.93-5.38-2.62-10.41-5.76-14.9-9.75-1.55-1.38-2.63-1.47-4.42-.38-4.93,3.02-10.14,5.38-15.71,6.96-1.51.43-2.45,1.41-2.66,2.99-.84,6.17-.66,12.28,1.24,18.26,2.12,6.67,6.1,12,11.77,16.09.49.36.98.72,1.47,1.08.05.04.08.11.23.31-3.67,1.73-7.42,2.64-11.48,2.06-5.62-.79-11.25-1.54-16.87-2.32-1.79-.25-3.58-.53-5.53-.82.17-1.81.32-3.47.5-5.14,1.16-10.62,2.34-21.23,3.49-31.85.46-4.23.89-8.47,1.32-12.71.23-2.29.65-2.72,2.91-2.64,9.47.33,18.94.72,28.42,1.05,6.16.22,12.32.36,18.48.56,9.07.29,18.14.55,27.21.91,3.4.13,3.76-.02,3.14,3.71-2.11,12.66-4.06,25.35-6.07,38.03-.86,5.41-1.69,10.81-2.54,16.22-.3,1.93-.62,2.3-2.5,2.02-8.55-1.26-17.23-1.78-25.6-4.09-3.5-.96-6.86-2.45-10.26-3.73-.6-.23-1.13-.63-1.94-1.1.93-.49,1.61-.87,2.31-1.22ZM1728.05,98.34c8.38,1.71,16.79,3.28,25.19,4.92.44.09.85.31,1.37.51-.29.44-.54.76-.72,1.11-.63,1.26-1.65,1.41-2.9,1.13-3.02-.67-6.06-1.3-9.09-1.94-5.8-1.22-11.6-2.43-17.4-3.65-.28-.06-.54-.19-.83-.29,1.12-1.77,2.47-2.18,4.39-1.79Z"/>
      <g>
        <path class="cls-1" d="M1050.48,6.24c0,.39-.06.89-.32,1.04-.15.08-.63.22-2.19.22s-1.98-.32-2.05-.45c-.11-.19-.3-.95-.3-3.83,0-1.15.24-1.48.38-1.57.16-.1.71-.28,2.6-.28,1.04,0,1.38.14,1.49.22.09.07.26.31.26,1.04v.5h1.58l-.02-.48c0-.99-.24-1.68-.72-2.05-.46-.36-1.3-.53-2.56-.53-1.81,0-2.98.17-3.55.54-.51.32-.82.69-.93,1.11-.1.39-.15,1.27-.15,2.69,0,1.86.23,3.02.7,3.56.48.55,1.51.81,3.17.81,1.83,0,2.91-.14,3.4-.45.52-.33.77-1.07.77-2.27v-.57h-1.58l.02.74Z"/>
        <rect class="cls-1" x="1056.39" y=".16" width="1.57" height="8.55"/>
        <path class="cls-1" d="M1068.44,6.35c-.03.07-.08.18-.15.33l-3.11-6.52h-2.25v8.55h1.58V2.28l3.11,6.42h1.38l3.09-6.48v6.48h1.58V.16h-2.28l-2.95,6.19Z"/>
        <polygon class="cls-1" points="1078.23 8.7 1084.73 8.7 1084.73 7.41 1079.8 7.41 1079.8 4.94 1084.53 4.94 1084.53 3.65 1079.8 3.65 1079.8 1.45 1084.73 1.45 1084.73 .16 1078.23 .16 1078.23 8.7"/>
        <polygon class="cls-1" points="1096.15 6.89 1091.37 .16 1089.25 .16 1089.25 8.7 1090.83 8.7 1090.83 2 1095.6 8.7 1097.72 8.7 1097.72 .16 1096.15 .16 1096.15 6.89"/>
        <polygon class="cls-1" points="1101.83 1.52 1104.86 1.52 1104.86 8.7 1106.44 8.7 1106.44 1.52 1109.44 1.52 1109.44 .16 1101.83 .16 1101.83 1.52"/>
        <path class="cls-1" d="M1117.21,1.36c1.52,0,2.08.17,2.29.31.18.13.4.49.4,1.47v1.28c0,2.15-.21,2.63-.3,2.73-.07.08-.45.33-2.39.33s-2.32-.25-2.39-.33c-.09-.1-.31-.58-.31-2.73s.22-2.62.31-2.73c.07-.08.45-.33,2.39-.33M1120.7.82c-.5-.5-1.64-.74-3.49-.74-1.59,0-2.66.21-3.27.63-.63.44-.95,1.25-.95,2.4v1.33c-.01,1.93.22,3.12.7,3.61.49.5,1.64.74,3.51.74s3.04-.25,3.52-.75c.47-.5.71-1.72.71-3.71,0-1.86-.24-3-.74-3.5"/>
        <path class="cls-1" d="M1026.49,32.82c0,2.93.61,5.11,1.84,6.53,1.23,1.42,2.79,2.13,4.67,2.13,1.66,0,3.04-.68,4.16-2.05,1.12-1.36,1.68-3.67,1.68-6.93,0-3-.59-5.21-1.75-6.61-1.15-1.42-2.59-2.12-4.26-2.12-1.82,0-3.34.71-4.54,2.13-1.22,1.42-1.81,3.73-1.81,6.91M995.15,33.66c-1.96.7-3.99,1.32-6.1,1.86-2.88.76-4.72,1.52-5.48,2.26-.8.77-1.19,1.65-1.19,2.62,0,1.12.4,2.03,1.17,2.74.79.7,1.93,1.06,3.44,1.06s3.05-.38,4.42-1.14c1.36-.78,2.32-1.72,2.89-2.81.57-1.11.85-2.55.85-4.32v-2.28ZM1070.41,32.79c0,3.31.67,5.76,2.01,7.33,1.34,1.59,3.02,2.39,5.04,2.39s3.73-.79,5.04-2.35c1.32-1.56,1.98-4.05,1.98-7.51,0-3.21-.67-5.6-1.99-7.17-1.32-1.56-2.97-2.35-4.92-2.35-2.07,0-3.79.8-5.13,2.39-1.35,1.6-2.03,4.03-2.03,7.28M1056.17,32.82c0-5.65,1.91-10.32,5.72-13.98,3.83-3.67,8.97-5.51,15.47-5.51,7.42,0,13.04,2.16,16.83,6.46,3.05,3.47,4.58,7.75,4.58,12.82,0,5.7-1.9,10.37-5.67,14.02-3.78,3.63-9.01,5.46-15.7,5.46-5.96,0-10.77-1.51-14.45-4.54-4.52-3.74-6.77-8.65-6.77-14.73M1128.44,32.62c0-2.92-.61-5.09-1.85-6.52-1.23-1.43-2.79-2.15-4.67-2.15-1.66,0-3.04.69-4.16,2.06-1.12,1.37-1.68,3.67-1.68,6.91,0,3.03.59,5.24,1.73,6.65,1.16,1.41,2.59,2.11,4.28,2.11,1.83,0,3.34-.7,4.54-2.12,1.22-1.43,1.81-3.74,1.81-6.95M1142.7.08v51.18h-13.3v-5.48c-1.87,2.32-3.56,3.89-5.1,4.72-2.05,1.06-4.33,1.6-6.84,1.6-5.05,0-8.91-1.92-11.58-5.76-2.66-3.84-3.99-8.51-3.99-14,0-6.15,1.46-10.85,4.42-14.1,2.94-3.27,6.69-4.9,11.21-4.9,2.21,0,4.22.38,6.03,1.12,1.8.75,3.4,1.86,4.8,3.35V.08h14.35ZM1145.82,12.87h14.22v38.39h-14.22V12.87ZM1145.82.08h14.22v9.68h-14.22V.08ZM971.47,19.15c.97-1.36,2.35-2.54,4.18-3.54,1.3-.73,3.1-1.29,5.37-1.68,2.28-.39,4.74-.59,7.4-.59,4.25,0,7.69.24,10.26.71,2.59.48,4.74,1.48,6.46,2.99,1.22,1.05,2.17,2.52,2.87,4.44.7,1.93,1.04,3.76,1.04,5.51l.07,24.26h-13.14l-.02-4.54c-1.86,1.8-3.72,3.08-5.55,3.84-2.51,1.03-5.44,1.54-8.76,1.54-4.42,0-7.78-1.03-10.08-3.08-2.29-2.04-3.43-4.56-3.43-7.57,0-2.82.82-5.14,2.48-6.95,1.66-1.82,4.7-3.17,9.14-4.05,5.34-1.07,8.79-1.82,10.38-2.25,1.57-.43,3.26-1,5.02-1.69,0-5.1-10.29-6.12-12.33-.32h-14.25c.55-2.44,1.42-4.96,2.89-7.03M1012.23,65.37V14.18h13.3v5.48c1.84-2.31,3.53-3.87,5.07-4.68,2.07-1.1,4.36-1.64,6.87-1.64,4.96,0,8.79,1.91,11.51,5.7,2.7,3.79,4.06,8.48,4.06,14.08,0,6.16-1.48,10.87-4.43,14.12-2.96,3.24-6.7,4.86-11.2,4.86-2.19,0-4.2-.37-5.99-1.11-1.8-.75-3.42-1.86-4.84-3.32v17.71h-14.35Z"/>
        <polygon class="cls-1" points="894.21 0 934.69 65.37 968.13 65.37 927.65 0 894.21 0"/>
        <polygon class="cls-1" points="912.11 38.41 895.27 65.37 861.83 65.37 895.46 11.53 912.11 38.41"/>
      </g>
    </g>
  </g>
</svg>